<?xml version="1.0" standalone="no"?>
<!DOCTYPE svg PUBLIC "-//W3C//DTD SVG 20010904//EN"
 "http://www.w3.org/TR/2001/REC-SVG-20010904/DTD/svg10.dtd">
<svg version="1.0" xmlns="http://www.w3.org/2000/svg"
 width="85.000000pt" height="175.000000pt" viewBox="0 0 85.000000 175.000000"
 preserveAspectRatio="xMidYMid meet">
<metadata>
Created by potrace 1.10, written by Peter Selinger 2001-2011
</metadata>
<g transform="translate(0.000000,175.000000) scale(0.100000,-0.100000)"
fill="#000000" stroke="none">
<path d="M560 1641 c-56 -10 -93 -40 -133 -106 -34 -56 -37 -67 -37 -136 0
-90 22 -145 74 -184 l37 -28 -36 -29 c-56 -47 -66 -74 -58 -165 6 -74 8 -80
45 -116 l39 -37 -35 -41 c-40 -47 -43 -61 -35 -147 5 -45 14 -73 34 -102 l28
-40 -29 -42 c-24 -37 -29 -55 -32 -125 -4 -75 -1 -87 22 -127 31 -52 79 -78
157 -84 138 -10 290 100 222 160 -17 15 -93 30 -93 18 0 -3 -16 -16 -35 -29
-30 -20 -39 -22 -60 -13 -20 9 -25 19 -25 46 0 61 6 67 60 60 l48 -6 7 45 c9
61 4 81 -23 85 -12 2 -22 10 -22 18 0 8 -5 14 -10 14 -11 0 8 40 24 52 13 8 8
160 -5 173 -5 5 -9 15 -9 23 0 8 -14 28 -31 44 -17 16 -29 31 -27 33 2 1 13 8
26 14 12 6 29 28 37 48 16 38 20 128 6 137 -4 3 -11 23 -15 44 -3 21 -15 47
-26 57 -22 20 -18 35 9 35 39 0 70 74 47 114 -18 33 -28 37 -78 31 -44 -5 -48
-4 -54 20 -7 29 0 63 19 89 19 26 56 15 100 -29 19 -19 43 -35 54 -35 29 0 46
50 38 114 -8 64 -34 110 -72 129 -35 18 -107 26 -153 18z m115 -65 c29 -12 55
-41 55 -61 0 -3 -14 5 -31 17 -24 18 -43 23 -86 22 -51 -2 -58 -5 -90 -40 -41
-46 -47 -68 -41 -141 4 -49 10 -61 41 -90 36 -32 60 -39 105 -27 34 10 27 34
-10 35 l-33 1 29 10 c24 9 31 8 43 -7 18 -26 -3 -55 -50 -74 -33 -12 -40 -12
-84 10 -41 21 -51 31 -66 74 -24 65 -18 163 14 210 48 69 127 93 204 61z m-22
-63 c3 -5 -9 -8 -27 -9 -44 -1 -84 -32 -98 -77 -6 -20 -13 -35 -15 -33 -11 10
23 89 45 107 24 19 86 26 95 12z m107 -58 c0 -45 -17 -53 -47 -22 -27 27 -26
64 2 53 8 -3 17 -1 20 5 11 18 25 -2 25 -36z m-196 -157 c-7 -11 -31 8 -45 34
-7 14 -7 24 1 34 10 11 15 8 31 -23 10 -20 16 -40 13 -45z m76 -192 c5 -16 10
-54 10 -84 0 -72 -31 -117 -89 -127 -62 -10 -93 10 -108 69 -24 99 13 178 91
194 49 10 79 -7 96 -52z m-50 -246 c0 -5 -7 -10 -16 -10 -8 0 -12 5 -9 10 3 6
10 10 16 10 5 0 9 -4 9 -10z m31 -62 c17 -25 29 -83 29 -134 0 -72 -26 -104
-85 -104 -36 0 -48 5 -69 31 -32 38 -40 68 -32 121 8 50 33 93 60 106 25 11
86 -1 97 -20z m-111 -263 c7 -9 8 -15 2 -15 -5 0 -12 7 -16 15 -3 8 -4 15 -2
15 2 0 9 -7 16 -15z m148 -43 c13 -10 24 -30 25 -47 2 -31 0 -32 -45 -21 -36
8 -85 -33 -94 -79 -8 -43 15 -79 66 -99 42 -17 100 -7 133 22 11 10 17 11 17
3 0 -19 -81 -51 -130 -51 -37 0 -52 6 -78 29 -27 25 -32 37 -32 75 0 64 40
109 99 111 58 1 56 19 -2 23 -45 3 -51 0 -88 -36 -36 -37 -39 -44 -39 -94 0
-66 21 -98 80 -122 38 -15 56 -15 135 0 25 5 28 4 17 -7 -6 -7 -41 -15 -76
-17 -82 -5 -145 22 -170 74 -40 84 -4 218 64 241 50 17 91 15 118 -5z m-81
-174 c-3 -7 -5 -2 -5 12 0 14 2 19 5 13 2 -7 2 -19 0 -25z m233 -63 c0 -17
-17 -28 -30 -20 -6 4 -5 13 2 25 13 20 28 18 28 -5z"/>
</g>
</svg>
