<?xml version="1.0" standalone="no"?>
<!DOCTYPE svg PUBLIC "-//W3C//DTD SVG 20010904//EN"
 "http://www.w3.org/TR/2001/REC-SVG-20010904/DTD/svg10.dtd">
<svg version="1.0" xmlns="http://www.w3.org/2000/svg"
 width="266.000000pt" height="300.000000pt" viewBox="0 0 266.000000 300.000000"
 preserveAspectRatio="xMidYMid meet">

<g transform="translate(0.000000,300.000000) scale(0.100000,-0.100000)"
fill="#000000" stroke="none">
<path d="M740 2990 c-238 -30 -433 -196 -504 -429 -17 -60 -20 -103 -24 -448
-2 -239 0 -408 7 -450 15 -99 60 -181 137 -251 61 -57 63 -60 40 -66 -42 -10
-131 -101 -156 -158 -32 -75 -31 -167 2 -239 33 -73 66 -109 130 -144 53 -30
53 -30 224 -30 l170 0 76 38 c53 26 91 54 127 93 28 31 51 60 51 65 0 22 18 6
35 -32 45 -99 139 -160 256 -167 67 -4 83 -1 138 23 68 31 132 94 153 151 7
19 15 34 19 34 3 0 19 -18 34 -40 42 -61 136 -127 215 -151 59 -17 89 -20 212
-17 127 3 148 6 188 26 213 111 226 409 22 527 -28 17 -51 32 -52 35 0 3 17
16 37 30 50 34 107 109 135 177 22 57 23 66 26 469 3 464 -1 504 -64 634 -68
138 -219 260 -380 307 -52 15 -125 17 -624 19 -311 1 -594 -2 -630 -6z m1235
-75 c140 -37 283 -151 343 -275 59 -119 63 -168 60 -609 l-3 -396 -27 -57
c-14 -31 -47 -78 -73 -103 -25 -26 -72 -59 -103 -73 l-57 -27 -790 0 -790 0
-55 27 c-71 35 -133 97 -168 167 l-27 56 -3 419 c-2 279 1 438 8 473 28 132
133 274 255 343 121 69 113 68 775 69 504 1 605 -1 655 -14z m-1383 -1615
c106 -30 126 -183 32 -245 -43 -28 -91 -28 -119 0 -14 13 -25 35 -25 48 0 28
34 67 59 67 24 0 45 25 37 45 -7 19 -62 19 -94 1 -85 -47 -80 -186 9 -232 42
-21 115 -15 163 16 84 51 118 164 77 250 -11 24 -21 48 -21 52 0 5 71 7 158 6
l157 -3 3 -44 c12 -168 -73 -323 -216 -393 -66 -33 -67 -33 -218 -33 -150 0
-151 0 -199 30 -133 82 -154 265 -45 372 64 62 157 86 242 63z m598 -135 c3
-84 10 -149 17 -162 19 -32 61 -62 98 -69 41 -7 118 25 137 58 8 15 15 74 18
168 l5 145 46 3 46 3 7 -119 c4 -76 2 -138 -5 -171 -15 -70 -61 -129 -129
-164 -48 -25 -63 -28 -118 -24 -82 6 -145 44 -187 111 -30 49 -30 51 -33 208
l-3 159 48 -3 48 -3 5 -140z m760 141 c0 -3 -10 -21 -22 -41 -26 -45 -29 -136
-5 -180 68 -131 242 -154 297 -40 40 83 -5 172 -91 182 -37 4 -47 2 -53 -12
-8 -22 10 -45 37 -45 32 0 57 -29 57 -66 0 -63 -55 -88 -122 -55 -53 25 -78
65 -78 121 0 151 210 191 336 64 100 -100 93 -253 -16 -347 -58 -49 -106 -60
-252 -56 -120 4 -126 5 -201 42 -96 47 -157 118 -187 216 -19 61 -28 200 -13
214 7 8 313 10 313 3z"/>
<path d="M930 2719 c-173 -19 -314 -119 -393 -277 l-42 -85 0 -251 c0 -239 1
-253 22 -299 34 -72 122 -159 196 -193 l62 -29 534 -3 c515 -3 536 -2 595 18
120 40 219 145 251 266 21 80 21 384 0 473 -43 180 -191 329 -370 372 -54 13
-756 20 -855 8z m50 -208 c0 -134 2 -151 20 -174 29 -36 83 -50 125 -33 59 25
65 44 65 208 l0 148 135 0 135 0 0 -140 c0 -152 9 -186 52 -207 44 -21 59 -23
98 -7 60 24 70 56 70 218 0 154 -5 147 89 125 204 -47 354 -255 339 -469 l-3
-45 -777 -3 -778 -2 0 77 c0 139 44 246 135 332 77 73 174 117 263 120 l32 1
0 -149z m150 11 c0 -145 -5 -162 -45 -162 -40 0 -45 17 -45 162 l0 138 45 0
45 0 0 -138z m488 9 c3 -133 -8 -171 -48 -171 -43 0 -50 23 -50 166 l0 135 48
-3 47 -3 3 -124z m492 -491 l0 -30 -780 0 -780 0 0 30 0 30 780 0 780 0 0 -30z
m-1135 -245 l0 -150 -90 0 c-75 1 -99 5 -146 27 -94 43 -169 139 -185 235 l-6
38 214 0 213 0 0 -150z m483 -3 l3 -153 -133 3 -133 3 -3 147 -3 147 88 4 c49
2 108 3 133 3 l45 -1 3 -153z m642 122 c0 -46 -56 -149 -102 -188 -67 -58
-122 -78 -225 -84 l-93 -5 0 154 0 154 210 0 210 0 0 -31z m-970 -125 l0 -150
-42 3 -43 3 -3 148 -3 147 46 0 45 0 0 -151z m485 1 l0 -145 -45 0 -45 0 -3
148 -3 148 48 -3 48 -3 0 -145z"/>
<path d="M1215 566 c-55 -130 -166 -345 -186 -359 -23 -17 -21 -17 46 -16 52
0 64 3 48 9 -31 13 -34 60 -7 113 14 26 17 27 98 27 l83 0 32 -66 c26 -53 30
-69 19 -75 -8 -5 16 -9 59 -9 l72 0 -22 23 c-12 12 -65 104 -117 205 -51 100
-98 182 -103 182 -4 0 -14 -15 -22 -34z m30 -129 c19 -35 35 -69 35 -75 0 -8
-24 -12 -71 -12 -53 0 -70 3 -66 13 19 47 60 137 63 137 2 0 19 -29 39 -63z"/>
<path d="M1541 571 c-20 -36 13 -70 53 -55 12 5 16 16 14 38 -2 25 -8 32 -30
34 -18 2 -30 -3 -37 -17z"/>
<path d="M1545 421 c-22 -11 -33 -20 -24 -20 25 -1 29 -22 29 -164 0 -136 -10
-195 -36 -222 -21 -21 0 -20 37 2 51 31 59 63 59 252 0 130 -3 171 -12 171 -7
0 -31 -9 -53 -19z"/>
</g>
</svg>
