<?xml version="1.0" standalone="no"?>
<!DOCTYPE svg PUBLIC "-//W3C//DTD SVG 20010904//EN"
 "http://www.w3.org/TR/2001/REC-SVG-20010904/DTD/svg10.dtd">
<svg version="1.0" xmlns="http://www.w3.org/2000/svg"
 width="266.000000pt" height="300.000000pt" viewBox="0 0 266.000000 300.000000"
 preserveAspectRatio="xMidYMid meet">

<g transform="translate(0.000000,300.000000) scale(0.100000,-0.100000)"
fill="#000000" stroke="none">
<path d="M740 2990 c-238 -30 -433 -196 -504 -429 -17 -60 -20 -103 -24 -448
-2 -239 0 -408 7 -450 15 -99 60 -181 137 -251 61 -57 63 -60 40 -66 -42 -10
-131 -101 -156 -158 -32 -75 -31 -167 2 -239 33 -73 66 -109 130 -144 53 -30
53 -30 224 -30 l170 0 76 38 c53 26 91 54 127 93 28 31 51 60 51 65 0 22 18 6
35 -32 45 -99 139 -160 256 -167 67 -4 83 -1 138 23 68 31 132 94 153 151 7
19 15 34 19 34 3 0 19 -18 34 -40 42 -61 136 -127 215 -151 59 -17 89 -20 212
-17 127 3 148 6 188 26 213 111 226 409 22 527 -28 17 -51 32 -52 35 0 3 17
16 37 30 50 34 107 109 135 177 22 57 23 66 26 469 3 464 -1 504 -64 634 -68
138 -219 260 -380 307 -52 15 -125 17 -624 19 -311 1 -594 -2 -630 -6z m1235
-75 c140 -37 283 -151 343 -275 59 -119 63 -168 60 -609 l-3 -396 -27 -57
c-14 -31 -47 -78 -73 -103 -25 -26 -72 -59 -103 -73 l-57 -27 -790 0 -790 0
-55 27 c-71 35 -133 97 -168 167 l-27 56 -3 419 c-2 279 1 438 8 473 28 132
133 274 255 343 121 69 113 68 775 69 504 1 605 -1 655 -14z m-1383 -1615
c106 -30 126 -183 32 -245 -43 -28 -91 -28 -119 0 -14 13 -25 35 -25 48 0 28
34 67 59 67 24 0 45 25 37 45 -7 19 -62 19 -94 1 -85 -47 -80 -186 9 -232 42
-21 115 -15 163 16 84 51 118 164 77 250 -11 24 -21 48 -21 52 0 5 71 7 158 6
l157 -3 3 -44 c12 -168 -73 -323 -216 -393 -66 -33 -67 -33 -218 -33 -150 0
-151 0 -199 30 -133 82 -154 265 -45 372 64 62 157 86 242 63z m598 -135 c3
-84 10 -149 17 -162 19 -32 61 -62 98 -69 41 -7 118 25 137 58 8 15 15 74 18
168 l5 145 46 3 46 3 7 -119 c4 -76 2 -138 -5 -171 -15 -70 -61 -129 -129
-164 -48 -25 -63 -28 -118 -24 -82 6 -145 44 -187 111 -30 49 -30 51 -33 208
l-3 159 48 -3 48 -3 5 -140z m760 141 c0 -3 -10 -21 -22 -41 -26 -45 -29 -136
-5 -180 68 -131 242 -154 297 -40 40 83 -5 172 -91 182 -37 4 -47 2 -53 -12
-8 -22 10 -45 37 -45 32 0 57 -29 57 -66 0 -63 -55 -88 -122 -55 -53 25 -78
65 -78 121 0 151 210 191 336 64 100 -100 93 -253 -16 -347 -58 -49 -106 -60
-252 -56 -120 4 -126 5 -201 42 -96 47 -157 118 -187 216 -19 61 -28 200 -13
214 7 8 313 10 313 3z"/>
<path d="M1255 2720 c-329 -5 -396 -8 -431 -22 -139 -55 -225 -133 -287 -256
l-42 -85 0 -251 c0 -239 1 -253 22 -299 34 -72 122 -159 196 -193 l62 -29 534
-3 c515 -3 536 -2 595 18 120 40 219 145 251 266 21 80 21 384 0 473 -38 159
-153 291 -306 352 -78 30 -168 34 -594 29z m-275 -170 l0 -110 -65 0 c-109 0
-152 -37 -162 -138 -3 -32 -10 -63 -16 -69 -6 -9 -39 -13 -98 -13 l-89 0 0 33
c1 196 200 400 398 406 l32 1 0 -110z m90 95 c-7 -8 -16 -15 -21 -15 -5 0 -9
7 -9 15 0 9 9 15 21 15 18 0 19 -2 9 -15z m180 5 c0 -5 -4 -10 -9 -10 -6 0
-13 5 -16 10 -3 6 1 10 9 10 9 0 16 -4 16 -10z m182 -2 c-9 -9 -15 -9 -24 0
-9 9 -7 12 12 12 19 0 21 -3 12 -12z m178 -4 c0 -14 -3 -14 -15 -4 -8 7 -15
14 -15 16 0 2 7 4 15 4 8 0 15 -7 15 -16z m159 5 c113 -26 229 -114 284 -217
28 -52 62 -185 52 -203 -9 -14 -179 -11 -193 3 -7 7 -12 31 -12 55 0 102 -52
153 -156 153 -47 0 -63 4 -68 16 -8 21 -8 189 1 197 9 10 40 8 92 -4z m-581
-51 c7 -7 12 -26 12 -43 0 -37 -16 -55 -49 -55 -52 0 -78 54 -44 92 18 20 63
24 81 6z m180 0 c7 -7 12 -26 12 -43 0 -37 -16 -55 -49 -55 -51 0 -80 60 -45
94 18 19 65 21 82 4z m182 -3 c7 -8 13 -26 13 -40 0 -34 -20 -55 -51 -55 -52
0 -81 59 -46 94 20 20 68 21 84 1z m-475 -135 c18 -20 17 -20 -8 -20 -20 0
-27 5 -27 20 0 11 4 20 8 20 5 0 17 -9 27 -20z m535 0 c0 -14 -7 -20 -22 -20
-20 0 -21 1 -3 20 10 11 20 20 22 20 1 0 3 -9 3 -20z m-350 -5 c11 -13 8 -15
-20 -15 -28 0 -31 2 -20 15 7 8 16 15 20 15 4 0 13 -7 20 -15z m180 0 c11 -13
8 -15 -20 -15 -28 0 -31 2 -20 15 7 8 16 15 20 15 4 0 13 -7 20 -15z m370 -93
c17 -14 24 -33 29 -85 11 -102 24 -111 162 -115 106 -4 110 -5 107 -25 -3 -21
-9 -22 -103 -25 -80 -2 -107 1 -135 15 -44 23 -76 70 -84 128 -12 78 4 75
-461 75 -468 0 -448 3 -459 -79 -8 -58 -43 -107 -93 -127 -20 -9 -70 -14 -128
-14 -95 0 -95 0 -95 25 0 25 1 25 89 25 49 0 101 4 115 10 34 13 59 54 62 103
1 23 3 48 3 55 1 6 10 21 21 32 19 19 33 20 484 20 431 0 465 -1 486 -18z
m-83 -143 c15 -61 48 -108 100 -141 33 -20 55 -24 158 -28 l120 -5 -2 -79 c-3
-135 -70 -238 -192 -298 -41 -20 -64 -23 -218 -26 -95 -2 -173 -2 -173 1 0 2
7 21 15 40 38 92 1 211 -82 266 -133 88 -301 23 -344 -134 -11 -38 -6 -81 16
-153 l8 -24 -169 4 c-158 3 -173 5 -225 29 -68 32 -120 83 -156 152 -21 41
-27 70 -31 140 l-4 87 108 0 c84 0 118 5 150 19 50 23 101 83 115 136 5 22 12
46 14 53 3 9 91 12 392 12 l388 0 12 -51z m-327 -311 c85 -44 113 -148 61
-232 -20 -31 -28 -36 -62 -36 -42 0 -52 14 -18 25 26 9 59 62 59 98 0 42 -25
82 -64 101 -46 22 -67 20 -107 -7 -64 -43 -69 -126 -9 -179 16 -15 30 -30 30
-33 0 -4 -16 -5 -37 -3 -42 4 -70 34 -83 92 -16 72 22 144 94 177 54 24 83 24
136 -3z m-29 -119 c17 -33 -3 -69 -39 -69 -33 0 -52 16 -52 45 0 29 19 45 52
45 18 0 31 -7 39 -21z"/>
<path d="M584 463 c-36 -76 -76 -161 -89 -189 -12 -28 -33 -59 -46 -68 -23
-15 -21 -16 46 -16 63 0 67 2 45 13 -32 16 -36 38 -13 92 l18 45 85 0 86 0 27
-55 c30 -61 33 -81 15 -88 -7 -3 22 -6 65 -6 l78 -1 -25 22 c-13 13 -66 103
-116 200 -50 98 -96 180 -101 184 -5 3 -39 -57 -75 -133z m80 -32 c19 -38 32
-71 29 -75 -10 -10 -133 -7 -133 4 0 10 62 140 67 140 2 0 18 -31 37 -69z"/>
<path d="M962 578 c-33 -33 17 -88 53 -58 25 21 15 64 -15 68 -14 2 -31 -3
-38 -10z"/>
<path d="M1153 432 c-26 -14 -29 -19 -17 -30 18 -17 20 -182 2 -200 -9 -9 1
-12 46 -12 52 0 56 1 42 16 -12 11 -16 36 -16 94 0 74 2 81 26 96 37 25 75 9
87 -36 13 -49 4 -149 -14 -161 -9 -6 6 -9 46 -9 46 0 56 3 47 12 -7 7 -12 45
-12 98 0 83 1 87 25 98 66 30 85 6 85 -108 0 -61 -4 -90 -12 -93 -7 -3 14 -6
47 -6 33 0 55 3 49 7 -8 4 -13 47 -15 108 -5 126 -19 149 -87 141 -26 -3 -53
-14 -67 -27 l-25 -23 -21 26 c-27 35 -73 36 -122 3 -36 -24 -36 -24 -39 -4 -4
28 -17 31 -55 10z"/>
<path d="M1727 436 c-50 -18 -79 -45 -75 -70 6 -43 68 -26 68 18 0 26 18 46
41 46 21 0 29 -20 29 -74 l0 -43 -57 -22 c-78 -28 -85 -34 -85 -66 0 -15 6
-31 13 -36 23 -14 69 -10 101 9 28 16 30 16 39 0 12 -21 28 -22 63 -6 23 10
24 12 9 23 -13 10 -17 32 -19 106 -2 83 -5 96 -24 111 -26 21 -51 22 -103 4z
m63 -171 c0 -40 -31 -65 -56 -44 -25 20 -16 49 19 64 17 8 33 14 35 15 1 0 2
-16 2 -35z"/>
<path d="M2003 429 c-44 -21 -83 -82 -83 -127 0 -35 26 -88 51 -106 33 -23
101 -21 130 4 l24 20 -36 -6 c-29 -5 -41 -1 -65 19 -27 23 -29 31 -29 90 0 50
5 70 19 86 24 27 70 27 96 1 19 -19 20 -32 17 -207 l-2 -187 -25 -7 c-15 -4
10 -7 60 -7 62 -1 79 2 62 9 l-23 9 3 205 c3 183 1 204 -13 200 -9 -3 -32 1
-52 10 -49 20 -84 19 -134 -6z"/>
<path d="M958 419 c-42 -22 -47 -27 -20 -25 16 1 17 -14 17 -175 0 -160 -2
-179 -19 -198 -25 -28 -3 -28 36 0 50 36 58 70 58 254 0 185 1 183 -72 144z"/>
</g>
</svg>
