<?xml version="1.0" standalone="no"?>
<!DOCTYPE svg PUBLIC "-//W3C//DTD SVG 20010904//EN"
 "http://www.w3.org/TR/2001/REC-SVG-20010904/DTD/svg10.dtd">
<svg version="1.0" xmlns="http://www.w3.org/2000/svg"
 width="266.000000pt" height="300.000000pt" viewBox="0 0 266.000000 300.000000"
 preserveAspectRatio="xMidYMid meet">

<g transform="translate(0.000000,300.000000) scale(0.100000,-0.100000)"
fill="#000000" stroke="none">
<path d="M681 2984 c-209 -46 -375 -204 -447 -424 -15 -48 -18 -104 -22 -437
-2 -250 0 -408 7 -455 18 -116 76 -215 163 -278 l38 -28 -54 -31 c-134 -75
-189 -249 -122 -385 36 -74 112 -141 183 -162 82 -24 298 -16 374 14 82 32
147 79 193 138 l40 52 17 -38 c25 -55 85 -118 143 -148 68 -36 186 -38 257 -5
60 27 125 92 151 150 l19 44 28 -38 c65 -90 161 -151 270 -174 30 -6 108 -9
175 -7 141 4 189 21 256 88 53 53 81 116 87 194 10 127 -72 253 -195 302 -1 1
31 34 71 75 55 56 80 89 98 134 24 59 24 64 27 475 3 354 1 425 -13 488 -47
211 -200 377 -415 448 -51 17 -104 18 -660 20 -495 2 -617 0 -669 -12z m1309
-68 c88 -29 162 -73 223 -133 65 -62 99 -116 136 -212 l25 -66 4 -402 c3 -341
1 -411 -12 -463 -29 -114 -109 -204 -216 -244 -41 -15 -115 -16 -840 -14
l-795 3 -53 30 c-70 38 -136 112 -161 181 -20 52 -21 76 -21 467 0 451 2 473
59 585 73 145 229 257 390 282 31 4 315 7 631 6 525 -2 580 -3 630 -20z
m-1380 -1621 c15 -8 38 -26 49 -41 66 -84 4 -214 -103 -214 -92 0 -104 106
-15 135 43 15 53 51 16 60 -36 9 -94 -19 -117 -57 -43 -70 -14 -162 60 -192
22 -9 46 -16 53 -16 34 0 92 25 124 53 73 64 92 157 49 241 l-24 46 162 -2
161 -3 1 -50 c4 -184 -73 -317 -224 -388 -65 -31 -70 -32 -207 -32 -156 0
-188 10 -252 77 -114 119 -70 314 87 382 45 20 143 20 180 1z m580 -115 c0
-91 4 -141 14 -165 20 -47 69 -75 130 -75 43 0 53 4 87 39 l39 39 0 146 0 146
49 0 48 0 6 -122 c7 -132 2 -169 -31 -235 -55 -107 -200 -150 -313 -92 -47 24
-106 93 -119 138 -5 20 -10 98 -10 174 l0 137 50 0 50 0 0 -130z m742 93 c-45
-89 -34 -170 32 -238 68 -71 161 -83 226 -29 61 52 61 146 0 198 -38 32 -87
43 -106 24 -18 -18 -8 -48 16 -48 32 0 70 -39 70 -72 0 -93 -137 -91 -185 2
-33 64 -7 153 54 185 35 18 118 20 172 3 49 -14 114 -69 138 -117 68 -134 -1
-295 -145 -337 -81 -23 -256 -16 -336 15 -80 31 -159 105 -200 188 -28 58 -33
79 -36 165 l-4 98 161 0 161 0 -18 -37z"/>
<path d="M910 2723 c-186 -31 -340 -162 -400 -342 -20 -60 -21 -81 -18 -295
l3 -231 34 -63 c55 -102 152 -176 263 -202 69 -16 1010 -13 1079 4 115 27 210
105 263 216 l31 65 0 230 c-1 211 -3 235 -22 287 -46 122 -128 216 -242 277
-106 56 -153 61 -581 59 -212 0 -396 -3 -410 -5z m815 -63 c197 -28 346 -176
377 -376 14 -91 7 -379 -10 -396 -9 -9 -12 -9 -12 4 0 29 -87 114 -142 139
-48 21 -71 24 -256 29 l-203 5 -56 120 -57 120 -6 150 c-5 138 -7 150 -24 153
-37 8 -46 -24 -46 -162 l0 -129 -52 -116 c-28 -64 -56 -122 -61 -128 -7 -10
-56 -13 -183 -13 -95 0 -196 -5 -224 -11 -67 -14 -138 -63 -177 -121 -23 -35
-33 -43 -37 -32 -3 9 -6 103 -6 210 0 213 10 267 67 357 64 101 188 181 306
196 90 12 719 12 802 1z m-366 -482 c12 -29 29 -68 37 -85 l14 -33 -80 0 c-44
0 -80 4 -80 9 0 16 71 161 78 161 5 0 18 -24 31 -52z m549 -204 c66 -27 116
-88 133 -162 7 -30 3 -38 -33 -74 -22 -22 -65 -52 -97 -67 l-56 -26 -525 0
-525 0 -60 28 c-72 34 -135 92 -135 124 0 60 56 139 123 172 41 21 53 21 590
21 472 0 553 -2 585 -16z"/>
<path d="M916 2409 c-43 -37 -54 -81 -32 -132 34 -83 132 -100 193 -33 100
109 -50 263 -161 165z m114 -49 c24 -24 25 -38 4 -68 -17 -24 -62 -30 -82 -10
-29 29 -1 98 40 98 10 0 27 -9 38 -20z"/>
<path d="M1611 2427 c-61 -31 -84 -116 -47 -173 23 -34 80 -57 122 -49 46 8
94 65 94 111 0 92 -90 152 -169 111z m89 -67 c24 -24 25 -47 3 -72 -18 -20
-63 -24 -81 -6 -29 29 -1 98 40 98 10 0 27 -9 38 -20z"/>
<path d="M1274 1925 c-83 -43 -85 -168 -2 -211 96 -49 206 50 165 148 -27 64
-103 93 -163 63z m84 -61 c48 -33 8 -117 -48 -99 -45 14 -51 82 -8 103 31 14
30 14 56 -4z"/>
<path d="M1966 605 c-19 -19 -19 -21 -6 -46 6 -11 21 -19 36 -19 23 0 26 -3
22 -27 -3 -16 -8 -37 -13 -48 -5 -16 -3 -15 14 5 11 14 23 39 27 57 12 64 -41
117 -80 78z"/>
<path d="M749 428 c-46 -100 -97 -194 -112 -210 l-29 -28 74 0 73 1 -27 20
c-32 24 -35 53 -11 104 l17 35 83 0 83 0 33 -66 c30 -61 31 -66 14 -78 -14
-11 -6 -14 58 -15 41 -1 75 0 75 3 0 3 -10 16 -22 30 -13 13 -65 106 -116 205
-52 100 -97 181 -101 181 -4 0 -45 -82 -92 -182z m101 12 c16 -33 30 -64 30
-70 0 -6 -27 -10 -65 -10 -41 0 -65 4 -65 11 0 19 52 129 61 129 5 0 22 -27
39 -60z"/>
<path d="M1152 584 c-20 -36 13 -73 51 -58 39 14 24 74 -18 74 -13 0 -28 -7
-33 -16z"/>
<path d="M1320 434 c-25 -14 -38 -23 -29 -20 34 10 39 -14 39 -201 0 -181 0
-184 -22 -193 -16 -6 2 -9 62 -8 47 0 74 3 60 5 -35 7 -40 18 -40 101 l0 72
58 0 c69 0 112 23 135 73 56 117 -31 228 -144 184 -37 -14 -45 -15 -58 -3 -14
12 -22 11 -61 -10z m189 -40 c16 -20 21 -41 21 -84 0 -94 -55 -138 -118 -94
-20 14 -22 24 -22 98 0 93 7 106 61 106 29 0 43 -6 58 -26z"/>
<path d="M1158 429 c-21 -11 -38 -22 -38 -25 0 -3 5 -2 11 2 22 13 29 -23 29
-157 0 -163 -5 -191 -38 -224 -30 -30 -24 -31 28 -5 64 33 70 54 70 255 0 193
2 188 -62 154z"/>
<path d="M1665 432 c-36 -17 -38 -19 -17 -24 21 -6 22 -11 22 -92 0 -102 15
-126 79 -126 23 0 48 8 64 20 14 11 28 20 31 20 3 0 6 -9 6 -20 0 -25 23 -25
69 -1 31 16 32 18 12 24 -20 5 -21 11 -21 111 0 94 -2 106 -17 106 -24 -1 -93
-39 -71 -40 12 0 18 -13 23 -52 11 -91 -5 -128 -56 -128 -45 0 -59 31 -59 132
0 98 -1 98 -65 70z"/>
</g>
</svg>
