<?xml version="1.0" standalone="no"?>
<!DOCTYPE svg PUBLIC "-//W3C//DTD SVG 20010904//EN"
 "http://www.w3.org/TR/2001/REC-SVG-20010904/DTD/svg10.dtd">
<svg version="1.0" xmlns="http://www.w3.org/2000/svg"
 width="232.000000pt" height="300.000000pt" viewBox="0 0 232.000000 300.000000"
 preserveAspectRatio="xMidYMid meet">

<g transform="translate(0.000000,300.000000) scale(0.100000,-0.100000)"
fill="#000000" stroke="none">
<path d="M975 2715 c-172 -21 -251 -38 -325 -74 -165 -78 -280 -243 -325 -470
-23 -112 -17 -513 9 -606 22 -78 74 -170 125 -219 l41 -40 -43 -24 c-51 -28
-104 -77 -123 -114 -20 -39 -17 -107 6 -145 27 -45 104 -81 224 -105 191 -38
319 -26 384 35 l24 22 20 -28 c11 -15 39 -38 62 -50 79 -42 310 -23 377 32 23
19 24 19 70 -4 129 -66 293 -49 382 40 79 80 47 210 -67 267 -22 11 -43 22
-45 24 -2 1 14 20 34 41 145 147 216 405 202 733 -10 239 -66 391 -191 516
-80 80 -137 111 -278 150 -81 23 -116 27 -268 30 -108 2 -221 -3 -295 -11z
m527 -101 c173 -41 273 -115 342 -253 53 -104 68 -177 73 -353 8 -226 -17
-376 -83 -515 -63 -132 -159 -213 -295 -250 -82 -22 -470 -25 -593 -4 -270 45
-423 126 -491 261 -44 87 -56 172 -57 404 -1 188 1 220 20 290 43 157 110 265
205 330 74 51 138 73 271 91 290 40 436 40 608 -1z m-847 -1389 c59 -25 82
-41 89 -59 24 -64 -90 -126 -150 -81 -31 23 -54 19 -54 -10 0 -41 52 -67 119
-61 80 7 139 59 144 124 l2 34 55 -7 c66 -8 89 -31 90 -88 0 -71 -81 -127
-186 -127 -53 0 -248 34 -294 52 -76 28 -104 67 -88 125 14 53 113 122 188
132 3 1 41 -15 85 -34z m1126 -40 c115 -59 117 -159 6 -217 -75 -40 -227 -26
-292 26 -35 28 -48 112 -20 139 22 22 75 23 75 1 0 -27 64 -81 111 -94 57 -16
94 -4 94 30 0 22 -4 25 -33 22 -41 -3 -97 20 -111 47 -10 17 -8 22 11 33 13 8
32 19 43 25 31 18 62 15 116 -12z m-711 -87 c0 -11 15 -35 34 -54 26 -26 42
-34 71 -34 54 0 112 36 132 82 31 69 82 38 97 -59 10 -68 -27 -88 -181 -100
-91 -7 -164 12 -183 47 -13 25 -13 93 1 124 13 29 29 25 29 -6z m145 17 l40
-7 -24 -19 c-42 -34 -87 -24 -104 24 -6 16 -3 18 21 13 15 -2 45 -8 67 -11z"/>
<path d="M991 2510 c-216 -30 -323 -109 -378 -275 -25 -75 -31 -468 -9 -557
45 -177 136 -275 301 -324 95 -28 344 -26 450 4 208 60 309 167 335 356 6 42
12 164 12 269 1 172 -1 199 -20 259 -40 120 -152 212 -310 253 -70 19 -294 27
-381 15z m113 -59 c8 -12 -13 -298 -25 -353 -13 -59 -61 -115 -130 -153 -48
-26 -64 -30 -139 -30 -63 0 -95 5 -122 19 l-38 18 0 79 c0 44 2 79 5 79 3 0
25 -10 48 -22 62 -32 149 -30 210 5 94 55 147 152 153 280 2 45 4 83 4 85 0 6
29 1 34 -7z m111 -103 c0 -98 3 -119 23 -155 12 -24 33 -50 47 -59 65 -42 226
-57 311 -28 25 8 48 13 52 10 8 -9 -19 -85 -43 -120 -11 -16 -42 -41 -70 -55
-42 -22 -63 -26 -135 -26 -73 0 -93 4 -141 28 -67 32 -113 92 -113 147 0 61
15 345 19 358 3 6 15 12 27 12 23 0 23 -2 23 -112z m142 80 c32 -26 1 -54 -41
-38 -29 11 -40 26 -32 47 7 16 49 11 73 -9z m-449 -65 c2 -25 -1 -33 -18 -38
-26 -8 -50 10 -50 40 0 29 9 37 40 33 20 -2 26 -9 28 -35z m568 12 c19 -29 3
-49 -30 -41 -29 7 -42 27 -32 52 8 21 45 14 62 -11z m-108 -17 c17 -17 15 -26
-5 -30 -27 -6 -73 12 -73 28 0 18 61 19 78 2z m-578 -21 c0 -18 -32 -47 -52
-47 -24 0 -23 25 2 50 19 19 50 18 50 -3z m181 -44 c9 -24 -14 -57 -35 -50
-13 4 -20 42 -12 63 8 22 37 13 47 -13z m510 5 c10 -18 8 -24 -7 -35 -10 -7
-23 -12 -28 -10 -17 6 -29 34 -23 51 9 23 44 20 58 -6z m97 5 c13 -26 4 -43
-24 -43 -26 0 -40 20 -30 45 8 21 43 19 54 -2z m-724 -9 c20 -20 5 -51 -29
-60 -44 -11 -61 22 -28 58 20 22 37 23 57 2z m517 -10 c11 -14 10 -18 -6 -30
-40 -29 -106 -7 -91 31 8 21 79 20 97 -1z m-641 -42 c0 -23 -35 -56 -49 -47
-15 8 -14 38 1 53 19 19 48 15 48 -6z m874 -18 c31 -30 8 -69 -36 -62 -23 3
-35 34 -24 64 7 19 41 18 60 -2z m-686 -31 c4 -30 -39 -53 -63 -33 -16 13 -20
42 -8 54 4 4 21 6 38 4 22 -2 31 -9 33 -25z m577 7 c15 -16 15 -22 5 -35 -30
-36 -111 -4 -90 36 14 25 62 25 85 -1z m-714 -6 c19 -23 -1 -49 -37 -49 -20 0
-30 6 -32 18 -8 40 43 63 69 31z m444 -302 c118 -59 287 -49 382 24 18 14 33
21 34 17 1 -19 -3 -158 -5 -160 -2 -2 -18 5 -37 14 -52 27 -251 26 -296 -1
-32 -20 -32 -20 -55 1 -35 32 -76 45 -148 46 -64 0 -138 -25 -155 -54 -5 -7
-15 -4 -29 10 -67 63 -181 67 -243 9 l-23 -21 0 51 c0 29 2 52 4 52 2 0 32 -7
67 -16 121 -31 257 7 344 96 l39 40 41 -44 c22 -24 58 -52 80 -64z m-380 -126
c22 -10 41 -28 55 -56 27 -52 59 -53 74 -1 16 57 102 85 187 61 45 -13 61 -30
68 -78 5 -28 12 -38 28 -40 17 -2 24 3 28 21 20 79 153 107 282 61 35 -13 43
-21 48 -48 13 -69 -57 -173 -152 -223 -100 -53 -169 -67 -343 -68 -120 0 -168
4 -211 17 -82 26 -150 75 -176 127 -27 53 -47 144 -39 177 15 60 77 80 151 50z"/>
<path d="M1310 532 l0 -159 66 -6 c49 -5 74 -3 95 8 102 53 59 237 -52 222
l-38 -5 -3 47 c-3 44 -4 46 -35 49 l-33 3 0 -159z m139 -6 c17 -21 10 -87 -11
-100 -28 -17 -52 5 -56 48 -4 41 11 66 38 66 10 0 23 -6 29 -14z"/>
<path d="M1927 683 c-4 -3 -7 -75 -7 -160 l0 -153 35 0 35 0 0 160 0 160 -28
0 c-16 0 -32 -3 -35 -7z"/>
<path d="M981 658 c-5 -13 -12 -38 -16 -57 -6 -27 -9 -31 -16 -19 -12 21 -135
23 -166 2 -95 -61 -49 -236 58 -221 l38 5 3 -42 c3 -38 5 -41 33 -41 l30 0 3
133 3 132 25 0 c20 0 29 9 43 43 36 82 36 87 1 87 -22 0 -33 -6 -39 -22z
m-112 -132 c17 -21 10 -87 -11 -100 -28 -17 -52 5 -56 48 -4 41 11 66 38 66
10 0 23 -6 29 -14z"/>
<path d="M1554 625 c-31 -71 -30 -77 8 -73 29 3 32 7 48 66 l17 62 -24 0 c-20
0 -29 -10 -49 -55z"/>
<path d="M554 618 c-9 -29 -32 -95 -50 -147 -19 -52 -34 -96 -34 -98 0 -2 15
-3 33 -3 31 0 35 4 46 40 11 39 13 40 55 40 41 0 43 -1 55 -40 11 -37 15 -40
47 -40 25 0 35 4 32 13 -3 6 -27 74 -53 150 l-48 137 -33 0 c-30 0 -33 -3 -50
-52z m65 -95 c1 -7 -6 -13 -14 -13 -16 0 -19 17 -8 46 6 16 7 16 14 -2 4 -10
8 -25 8 -31z"/>
<path d="M1133 590 c-24 -10 -27 -18 -17 -44 5 -12 16 -14 50 -9 30 4 44 2 44
-6 0 -6 -9 -11 -20 -11 -61 0 -110 -62 -91 -113 15 -39 42 -49 116 -41 l65 7
0 78 c0 43 -5 89 -11 102 -19 42 -82 59 -136 37z m80 -126 c11 -12 -13 -44
-33 -44 -25 0 -26 25 -2 39 20 12 27 13 35 5z"/>
<path d="M1742 588 c-13 -7 -21 -17 -17 -26 3 -7 5 -18 5 -23 0 -5 20 -6 45
-2 53 7 63 -11 12 -21 -74 -14 -102 -97 -47 -137 21 -16 36 -18 93 -12 63 6
68 8 63 27 -3 12 -6 52 -6 89 0 59 -3 71 -25 92 -26 27 -81 33 -123 13z m86
-140 c-3 -25 -34 -36 -52 -18 -8 8 -6 15 8 26 29 21 48 18 44 -8z"/>
</g>
</svg>
