<?xml version="1.0" standalone="no"?>
<!DOCTYPE svg PUBLIC "-//W3C//DTD SVG 20010904//EN"
 "http://www.w3.org/TR/2001/REC-SVG-20010904/DTD/svg10.dtd">
<svg version="1.0" xmlns="http://www.w3.org/2000/svg"
 width="232.000000pt" height="300.000000pt" viewBox="0 0 232.000000 300.000000"
 preserveAspectRatio="xMidYMid meet">

<g transform="translate(0.000000,300.000000) scale(0.100000,-0.100000)"
fill="#000000" stroke="none">
<path d="M970 2644 c-155 -15 -320 -68 -416 -135 -115 -79 -162 -149 -192
-284 -68 -299 -50 -540 53 -732 l45 -83 -40 -52 c-55 -72 -76 -146 -62 -216
13 -64 60 -132 110 -160 98 -55 271 -51 381 8 l55 30 30 -29 c45 -42 94 -54
200 -49 78 3 99 8 138 31 25 15 55 39 65 53 l20 26 36 -32 c75 -65 181 -85
312 -56 142 30 211 101 222 227 7 74 -2 118 -33 164 l-25 38 30 31 c16 17 41
54 54 81 46 93 52 142 51 410 0 388 -27 491 -158 597 -125 101 -248 129 -586
133 -135 2 -265 1 -290 -1z m604 -99 c140 -29 241 -91 297 -181 30 -50 48
-166 55 -364 15 -408 -31 -531 -231 -626 -121 -58 -190 -68 -455 -68 -255 0
-374 11 -508 50 -156 45 -199 80 -262 207 -81 165 -90 380 -29 646 23 97 42
133 102 188 57 53 119 88 205 117 61 21 108 31 247 50 75 11 503 -3 579 -19z
m-964 -1231 c101 -44 92 -37 84 -58 -10 -26 -58 -46 -109 -46 -32 0 -47 -5
-52 -16 -9 -25 12 -36 66 -36 60 0 107 24 136 70 21 32 45 42 45 18 0 -23 -76
-93 -115 -106 -43 -14 -86 -8 -139 21 -36 19 -40 19 -55 4 -15 -15 -14 -18 13
-40 39 -31 106 -49 162 -42 58 6 117 46 167 113 32 43 42 50 63 46 25 -4 26
-8 22 -52 -6 -64 -39 -107 -104 -137 -110 -50 -263 -37 -318 27 -37 45 -50 97
-37 146 10 37 65 124 79 124 3 0 45 -16 92 -36z m1225 -14 c8 -16 15 -50 15
-75 0 -119 -76 -182 -230 -192 -96 -7 -150 14 -203 79 -45 54 -52 108 -14 108
16 0 28 -12 46 -46 31 -58 73 -90 135 -104 40 -9 53 -8 72 5 42 27 24 63 -35
70 -17 2 -39 9 -50 14 -21 12 -61 59 -61 72 0 18 17 8 30 -16 18 -33 72 -57
123 -53 34 2 42 7 42 23 0 16 -9 21 -48 27 -27 3 -55 12 -63 19 -13 11 -4 17
58 39 40 14 87 33 103 43 44 24 63 21 80 -13z m-795 -94 c0 -14 12 -38 26 -55
20 -25 34 -31 64 -31 46 0 86 29 95 70 6 26 11 30 42 30 l35 0 -4 -55 c-9
-103 -64 -145 -188 -145 -41 1 -85 6 -98 13 -35 20 -52 61 -41 99 5 18 9 48 9
65 0 30 3 33 30 33 25 0 30 -4 30 -24z m128 -8 c-19 -29 -41 -33 -62 -13 -26
27 -19 35 30 35 46 0 46 0 32 -22z"/>
<path d="M1027 2420 c-67 -12 -239 -98 -312 -157 -65 -53 -138 -152 -155 -211
-15 -55 -12 -209 5 -277 45 -169 177 -289 380 -341 94 -24 302 -24 399 0 144
35 269 125 324 232 49 97 75 252 61 366 -22 178 -130 304 -317 372 -66 23 -86
26 -205 25 -73 -1 -154 -5 -180 -9z m324 -80 c35 -19 20 -129 -20 -145 -39
-16 -150 -23 -215 -14 -125 17 -177 54 -162 113 5 22 28 32 111 50 43 8 267 5
286 -4z m161 -76 c52 -37 102 -106 122 -169 5 -19 1 -20 -92 -21 -114 -1 -165
-19 -238 -86 -86 -79 -124 -185 -133 -368 l-6 -125 -42 -3 -43 -3 0 105 c0
317 -113 490 -333 512 l-68 7 38 39 c43 45 126 108 141 108 5 0 13 -12 17 -27
23 -94 205 -156 388 -133 122 15 174 56 184 144 3 25 10 46 16 46 6 0 28 -12
49 -26z m-779 -268 c46 -19 93 -77 113 -138 10 -33 18 -102 21 -180 6 -147 6
-147 -71 -97 -104 69 -156 166 -163 306 -3 50 -3 99 0 107 8 20 56 21 100 2z
m914 -88 c-6 -95 -39 -196 -80 -250 -33 -43 -124 -111 -164 -123 -19 -5 -23
-1 -29 30 -9 52 12 223 36 287 34 91 85 127 179 128 l64 0 -6 -72z m-705 -12
c35 -68 49 -135 55 -264 l6 -124 -24 4 c-24 3 -24 4 -30 153 -6 148 -17 212
-47 270 -14 28 -14 29 2 16 10 -8 27 -33 38 -55z m383 -36 c-19 -55 -38 -216
-33 -295 3 -56 1 -60 -19 -63 -22 -3 -23 -1 -23 90 0 107 19 196 56 269 30 60
40 60 19 -1z"/>
<path d="M924 730 c-13 -5 -23 -20 -27 -42 -3 -18 -8 -41 -12 -50 -6 -14 -2
-18 17 -18 19 0 29 9 41 38 35 82 32 93 -19 72z"/>
<path d="M1538 733 c-9 -2 -23 -20 -30 -39 l-12 -34 -108 0 -108 0 0 25 c0 15
-6 25 -14 25 -28 0 -46 -12 -46 -31 0 -10 -7 -19 -15 -19 -9 0 -15 -9 -15 -24
0 -13 7 -26 15 -30 11 -4 15 -21 15 -64 0 -63 13 -91 45 -93 11 -1 66 -1 123
-1 102 2 102 2 102 27 0 23 -4 25 -40 25 -22 0 -40 4 -40 9 0 4 18 31 41 60
31 39 47 51 69 51 24 0 28 5 34 38 3 20 9 47 12 60 6 22 4 24 -28 15z m-138
-129 c0 -4 -16 -28 -36 -55 -26 -35 -43 -49 -60 -49 -22 0 -24 4 -24 55 l0 55
60 0 c33 0 60 -3 60 -6z"/>
<path d="M690 590 l0 -140 64 0 c54 0 70 4 92 24 33 27 39 86 12 113 -15 14
-15 18 -2 38 19 28 10 70 -19 90 -14 9 -45 15 -84 15 l-63 0 0 -140z m114 73
c5 -11 1 -22 -10 -30 -29 -21 -44 -15 -44 17 0 25 4 30 24 30 13 0 27 -8 30
-17z m5 -111 c13 -25 -5 -52 -34 -52 -22 0 -25 5 -25 35 0 31 3 35 25 35 13 0
29 -8 34 -18z"/>
<path d="M1038 650 c-10 -6 -14 -18 -11 -30 4 -17 11 -19 49 -13 30 4 44 2 44
-6 0 -6 -12 -11 -26 -11 -30 0 -84 -50 -84 -78 0 -11 8 -30 19 -43 17 -21 26
-23 87 -21 37 2 68 4 69 5 0 1 -1 39 -3 83 -4 101 -20 124 -85 124 -23 0 -49
-5 -59 -10z m80 -127 c-4 -23 -48 -31 -48 -10 0 9 6 18 13 20 25 11 38 7 35
-10z"/>
</g>
</svg>
