<?xml version="1.0" standalone="no"?>
<!DOCTYPE svg PUBLIC "-//W3C//DTD SVG 20010904//EN"
 "http://www.w3.org/TR/2001/REC-SVG-20010904/DTD/svg10.dtd">
<svg version="1.0" xmlns="http://www.w3.org/2000/svg"
 width="300.000000pt" height="158.000000pt" viewBox="0 0 300.000000 158.000000"
 preserveAspectRatio="xMidYMid meet">
<metadata>
Created by potrace 1.10, written by Peter Selinger 2001-2011
</metadata>
<g transform="translate(0.000000,158.000000) scale(0.100000,-0.100000)"
fill="#000000" stroke="none">
<path d="M1772 1570 c3 -10 -16 -23 -66 -45 -39 -17 -91 -44 -115 -59 l-43
-28 -15 21 c-8 12 -19 21 -26 21 -6 0 -2 -9 10 -21 l21 -21 -90 -89 c-75 -74
-93 -87 -108 -79 -30 16 -37 11 -11 -9 l23 -18 -25 -39 c-24 -39 -57 -108 -77
-159 -8 -22 -13 -24 -29 -15 -24 12 -31 13 -31 1 0 -5 11 -11 24 -15 23 -6 23
-6 9 -58 -7 -29 -16 -85 -20 -125 -4 -46 -11 -74 -19 -77 -10 -4 -12 2 -8 23
12 58 -35 221 -64 221 -12 0 -13 3 -4 12 14 14 -55 116 -110 160 -38 30 -39
30 -61 12 l-21 -19 16 26 16 26 -61 31 c-83 41 -167 65 -172 49 -11 -37 -13
-39 -14 -13 l-1 29 -92 -6 c-51 -3 -107 -10 -125 -17 -28 -10 -31 -14 -23 -36
5 -13 6 -24 1 -24 -5 0 -11 9 -14 20 -8 30 -27 25 -108 -28 -83 -54 -104 -76
-93 -93 5 -8 2 -10 -8 -6 -19 7 -66 -55 -103 -135 -31 -65 -31 -76 -2 -88 21
-9 21 -9 -4 -9 -35 -1 -39 -16 -40 -121 -1 -121 6 -140 45 -141 l31 -1 -27
-10 c-16 -5 -28 -14 -28 -19 0 -18 50 -120 80 -164 31 -45 33 -46 51 -29 11 9
17 20 14 23 -4 3 -10 -1 -16 -9 -8 -13 -12 -11 -29 10 -22 26 -65 104 -80 146
-8 21 -6 26 15 34 32 12 24 43 -10 34 -19 -5 -23 -1 -28 33 -9 49 -9 117 0
166 5 34 8 38 29 33 19 -5 24 -2 24 14 0 14 -7 20 -21 20 -16 0 -19 4 -14 23
10 32 62 128 85 155 16 20 22 21 39 10 27 -16 39 -3 18 20 -16 17 -16 20 6 39
26 24 147 103 157 103 4 0 10 -9 13 -20 3 -11 13 -20 22 -20 13 0 15 6 10 28
l-6 28 78 12 c43 7 93 12 111 12 30 0 32 -2 26 -25 -5 -21 -3 -25 15 -25 14 0
21 6 21 20 0 11 4 20 8 20 24 0 122 -35 160 -57 34 -20 40 -28 31 -39 -6 -8
-8 -22 -4 -31 6 -16 8 -16 26 5 l19 24 55 -56 c30 -31 62 -70 70 -85 13 -27
13 -30 -5 -42 -14 -10 -17 -18 -10 -29 7 -12 12 -12 22 -2 6 6 15 12 19 12 11
0 28 -49 44 -125 20 -95 20 -97 -10 -89 -21 5 -25 3 -25 -15 0 -16 6 -21 25
-21 24 0 26 -2 20 -37 -12 -72 -46 -173 -58 -173 -7 0 -18 4 -26 9 -12 8 -12
12 -2 25 16 19 9 31 -29 44 -21 8 -32 8 -37 -1 -3 -6 -1 -13 5 -15 7 -2 12
-11 11 -20 0 -11 -2 -12 -6 -4 -7 17 -33 15 -33 -3 0 -8 7 -15 16 -15 8 0 13
-4 10 -9 -3 -5 -15 -7 -26 -4 -32 8 -24 -20 11 -41 26 -15 33 -16 40 -5 5 8 9
17 9 21 0 4 11 3 25 -4 24 -11 24 -11 7 -41 -18 -31 -117 -137 -128 -137 -4 0
-13 8 -20 18 -10 14 -10 20 3 35 30 32 4 30 -39 -4 -24 -18 -45 -34 -47 -35
-1 -2 0 -8 4 -14 5 -8 14 -5 30 10 21 20 23 20 36 3 13 -17 13 -17 -5 -3 -18
14 -19 14 -7 -8 7 -13 11 -25 9 -26 -52 -34 -158 -76 -193 -76 -23 0 -19 47 5
55 23 7 26 21 8 28 -10 4 -10 6 0 6 6 1 12 6 12 11 0 6 -10 8 -24 4 -16 -4
-25 -1 -30 11 -3 9 -11 13 -17 10 -6 -4 -8 -13 -5 -21 4 -10 -2 -14 -19 -14
-19 0 -24 -5 -22 -20 4 -28 10 -31 44 -21 28 8 29 7 25 -15 -9 -50 1 -55 71
-35 92 25 163 64 159 88 -3 14 -1 15 9 6 16 -16 88 44 137 115 l36 54 -24 20
c-21 16 -21 19 -5 13 11 -3 24 -7 29 -8 16 -3 54 104 62 171 7 68 24 85 24 23
0 -22 7 -75 15 -118 18 -95 18 -93 1 -93 -8 0 -18 -5 -22 -11 -5 -8 1 -10 18
-6 24 6 28 2 48 -48 12 -30 38 -80 56 -111 l34 -56 -23 -19 c-12 -10 -18 -18
-13 -19 5 0 17 6 25 13 14 12 28 1 102 -75 81 -83 85 -89 71 -109 -8 -11 -12
-22 -9 -25 2 -3 12 7 21 21 l17 25 32 -24 c39 -29 92 -56 109 -56 7 0 -20 18
-59 40 -71 40 -83 52 -63 65 6 3 10 12 10 18 0 7 -7 4 -14 -5 -7 -10 -18 -18
-23 -18 -6 0 -45 36 -88 81 -74 78 -76 81 -58 98 17 17 20 17 40 2 12 -9 23
-21 23 -27 0 -14 25 -25 34 -17 12 13 5 22 -11 17 -14 -5 -15 -4 -4 4 8 6 21
8 29 4 8 -3 20 1 26 9 6 9 19 18 29 22 15 6 17 13 12 39 -10 45 -42 78 -76 78
-38 0 -100 -59 -93 -87 4 -15 -1 -25 -16 -33 -12 -6 -23 -10 -24 -8 -15 19
-69 124 -85 166 -17 42 -18 52 -6 52 7 0 17 5 21 12 5 8 0 9 -14 6 -29 -8 -31
-3 -48 100 -20 124 -19 132 12 132 15 0 23 4 18 11 -3 6 -15 8 -26 6 -19 -5
-20 -2 -14 56 4 34 13 87 19 117 11 47 16 55 35 54 27 -1 29 12 2 19 -19 5
-19 7 8 64 57 120 95 176 178 260 73 74 87 84 96 70 5 -9 14 -17 20 -17 9 0 9
3 0 12 -7 7 -12 15 -12 19 0 12 95 67 161 93 l60 25 9 -22 c10 -22 10 -22 7 2
-2 29 18 36 128 50 l70 8 -55 1 c-30 1 -75 -3 -100 -8 -31 -6 -49 -5 -59 3
-11 10 -13 9 -9 -3z m-617 -810 c3 -5 -1 -10 -10 -10 -9 0 -13 5 -10 10 3 6 8
10 10 10 2 0 7 -4 10 -10z m-110 -220 c-9 -18 -18 -30 -21 -28 -2 3 3 19 12
37 9 18 18 30 21 28 2 -3 -3 -19 -12 -37z m469 -146 c27 -10 38 -41 25 -66
-10 -18 -9 -20 7 -14 10 4 15 3 10 -1 -4 -4 -18 -8 -29 -8 -16 0 -21 -5 -20
-20 1 -11 0 -14 -3 -8 -4 8 -15 11 -30 7 -32 -8 -62 18 -61 54 0 15 2 21 4 15
8 -22 43 -15 43 7 0 11 6 20 13 20 8 0 7 4 -3 10 -12 8 -11 10 7 10 12 0 29
-3 37 -6z m-803 -93 c-12 -8 -51 -4 -51 5 0 2 15 4 33 4 22 0 28 -3 18 -9z"/>
<path d="M1493 383 c4 -3 2 -12 -5 -20 -8 -10 -7 -17 7 -27 18 -13 18 -14 -3
-25 -30 -16 -49 -14 -61 7 -6 9 -11 12 -11 6 0 -16 22 -34 43 -34 10 0 32 14
48 31 28 30 29 33 13 50 -10 11 -22 19 -27 19 -6 0 -7 -3 -4 -7z"/>
<path d="M2032 1560 c0 -14 2 -19 5 -12 2 6 2 18 0 25 -3 6 -5 1 -5 -13z"/>
<path d="M2140 1569 c111 -13 136 -21 132 -47 -4 -27 6 -29 16 -2 7 19 12 17
97 -24 120 -60 133 -69 116 -90 -8 -10 -9 -16 -3 -16 6 0 17 10 23 23 6 12 21
32 32 45 11 12 15 22 9 22 -6 0 -17 -9 -25 -21 -15 -20 -15 -20 -67 12 -29 18
-78 43 -109 55 -36 15 -55 29 -55 39 2 17 -12 21 -18 4 -3 -9 -17 -9 -56 0
-29 6 -79 10 -110 10 l-57 -2 75 -8z"/>
<path d="M1945 1505 c-2 -5 -3 -32 -2 -60 2 -49 2 -49 42 -57 52 -11 101 -6
97 10 -1 6 4 11 10 10 16 -4 14 62 -2 92 -10 18 -20 20 -77 18 -36 -1 -67 -7
-68 -13z m22 -10 c0 -8 -4 -15 -9 -15 -4 0 -8 7 -8 15 0 8 4 15 8 15 5 0 9 -7
9 -15z m123 -52 c0 -13 -6 -23 -13 -23 -21 0 -28 12 -16 26 7 9 5 20 -7 41
l-18 28 27 -24 c15 -14 27 -35 27 -48z m-63 40 c2 -6 -3 -13 -12 -16 -10 -5
-15 0 -15 14 0 21 21 22 27 2z m-60 -28 c0 -8 -4 -15 -9 -15 -4 0 -8 7 -8 15
0 8 4 15 8 15 5 0 9 -7 9 -15z m93 4 c0 -6 -6 -9 -14 -6 -10 4 -14 0 -13 -14
1 -10 7 -19 14 -19 6 0 15 -4 18 -10 4 -6 -17 -9 -55 -8 -33 1 -60 6 -60 11 0
4 4 5 10 2 5 -3 12 6 16 20 5 20 9 24 18 15 8 -8 7 -13 -4 -20 -8 -5 -13 -10
-10 -11 3 0 13 -2 23 -4 15 -3 18 1 13 20 -4 14 -1 25 7 28 21 9 37 7 37 -4z"/>
<path d="M2164 1495 c-4 -8 -4 -22 0 -30 3 -8 2 -15 -3 -15 -5 0 -11 -17 -14
-37 -7 -43 8 -67 26 -43 11 14 14 14 30 -2 9 -10 13 -18 9 -18 -4 0 -13 5 -20
12 -8 8 -12 8 -12 1 0 -14 24 -23 61 -23 33 0 57 30 66 83 4 30 2 38 -21 52
-14 10 -39 18 -55 19 -16 1 -33 5 -37 9 -12 11 -24 8 -30 -8z m23 -15 c-1 -22
-17 -28 -17 -7 0 12 9 27 16 27 2 0 2 -9 1 -20z m91 -16 c12 -8 22 -19 22 -25
0 -5 -9 0 -20 11 -11 11 -30 20 -42 20 -12 0 -18 -3 -15 -6 3 -4 2 -15 -4 -25
-7 -13 -6 -19 2 -19 6 0 13 9 16 20 6 24 16 25 33 5 14 -17 7 -45 -12 -45 -10
0 -10 2 1 9 7 5 10 14 6 21 -5 8 -13 0 -24 -24 -19 -41 -40 -37 -46 10 -6 59
34 83 83 48z m-101 -34 c-1 -22 -17 -28 -17 -7 0 12 9 27 16 27 2 0 2 -9 1
-20z m91 -52 c-6 -18 -28 -21 -28 -4 0 9 7 16 16 16 9 0 14 -5 12 -12z"/>
<path d="M2205 1449 c-4 -6 -5 -12 -2 -15 2 -3 7 2 10 11 7 17 1 20 -8 4z"/>
<path d="M1776 1475 c-15 -8 -34 -15 -41 -15 -21 0 -26 -30 -9 -56 9 -14 17
-34 18 -46 1 -25 36 -50 43 -30 3 6 9 9 15 6 17 -11 97 17 103 36 3 10 -3 39
-12 66 -17 45 -22 49 -53 52 -19 1 -48 -4 -64 -13z m92 -10 c4 -5 1 -5 -5 -1
-15 9 -17 -3 -3 -24 9 -13 10 -13 10 0 0 13 1 13 10 0 9 -15 14 -80 6 -80 -2
0 -13 -3 -23 -6 -17 -5 -17 -5 0 6 10 7 17 23 17 43 0 22 -3 28 -9 18 -7 -11
-10 -9 -16 8 -7 23 -20 27 -30 10 -4 -5 0 -18 9 -28 9 -10 16 -22 16 -28 0
-17 -28 -23 -40 -8 -8 10 -8 14 3 17 12 3 12 8 0 37 -10 23 -18 30 -24 24 -16
-16 1 -82 24 -98 17 -12 18 -15 5 -15 -20 0 -33 16 -48 64 -12 37 -11 41 10
58 22 18 73 20 88 3z m-121 -22 c-4 -3 -2 -12 4 -20 8 -9 8 -13 1 -13 -6 0
-14 5 -17 10 -6 10 2 30 12 30 4 0 3 -3 0 -7z m23 -89 c0 -8 -5 -12 -10 -9 -6
4 -8 11 -5 16 9 14 15 11 15 -7z"/>
<path d="M1805 1460 c3 -5 10 -10 16 -10 5 0 9 5 9 10 0 6 -7 10 -16 10 -8 0
-12 -4 -9 -10z"/>
<path d="M2389 1404 c-10 -12 -10 -17 0 -23 10 -6 9 -10 -4 -14 -11 -5 -14 -3
-9 6 4 6 -2 3 -14 -7 -23 -20 -29 -46 -12 -46 6 0 9 5 8 11 -2 6 4 14 12 16
10 3 11 2 4 -4 -26 -19 -3 -60 50 -88 l35 -19 27 24 c59 56 51 88 -32 134 -55
31 -48 30 -65 10z m66 -55 c0 -8 -8 -13 -17 -11 -14 2 -16 -1 -9 -20 11 -30
37 -31 33 -1 -2 12 2 24 8 28 6 3 7 12 3 18 -4 8 -1 7 9 -1 18 -15 17 -38 -4
-71 -15 -25 -31 -27 -48 -6 -15 18 -34 20 -24 3 5 -9 2 -9 -9 1 -18 15 -23 26
-7 16 6 -3 10 -1 10 5 0 6 7 22 16 36 17 26 39 28 39 3z m12 -95 c-3 -3 -12
-4 -19 -1 -8 3 -5 6 6 6 11 1 17 -2 13 -5z"/>
<path d="M2610 1334 c79 -81 83 -87 65 -100 -10 -8 -16 -17 -12 -20 4 -4 13
-1 22 6 9 7 17 11 19 9 12 -14 68 -123 85 -166 21 -53 21 -53 1 -53 -11 0 -20
-5 -20 -11 0 -7 9 -9 23 -5 23 5 25 2 35 -62 7 -37 14 -93 18 -124 5 -54 5
-56 -15 -51 -12 3 -21 1 -21 -6 0 -6 9 -11 20 -11 19 0 20 -4 13 -57 -13 -117
-27 -168 -45 -168 -9 0 -20 -4 -24 -8 -4 -4 0 -7 9 -7 26 0 21 -24 -24 -116
-48 -97 -62 -112 -84 -94 -10 8 -15 9 -15 2 0 -6 7 -15 16 -20 34 -19 -160
-196 -271 -248 -31 -15 -42 -24 -29 -24 11 0 47 16 79 36 l60 35 18 -22 c9
-12 20 -19 24 -15 3 3 -1 14 -11 24 -16 18 -12 23 70 106 85 84 88 86 110 71
13 -9 24 -11 24 -6 0 5 -10 15 -22 23 l-22 15 23 31 c12 17 39 67 59 111 30
63 41 78 52 71 19 -12 40 -13 40 -1 0 5 -14 11 -31 15 -20 4 -28 10 -23 17 13
21 33 132 34 182 l0 47 36 0 c23 0 33 4 28 11 -3 6 -19 9 -35 7 l-29 -5 0 61
c-1 34 -7 88 -15 121 -19 76 -19 72 10 79 14 4 25 11 25 16 0 6 -9 6 -26 0
-32 -12 -34 -12 -34 0 0 17 -62 144 -86 177 l-24 32 27 20 c14 12 23 24 19 28
-3 3 -16 -3 -29 -15 l-23 -22 -39 51 c-37 49 -114 119 -130 119 -5 0 29 -39
75 -86z"/>
<path d="M1588 1378 c-21 -12 -38 -26 -38 -31 0 -4 5 -5 11 -1 7 4 10 1 7 -7
-3 -8 -1 -22 4 -32 5 -10 7 -21 5 -24 -3 -3 -13 9 -22 26 -16 32 -40 41 -48
19 -2 -7 8 -29 23 -48 15 -19 30 -43 33 -52 7 -21 32 -24 44 -5 4 6 26 22 48
33 52 28 56 57 15 107 -17 20 -35 37 -38 37 -4 0 -24 -10 -44 -22z m82 -33
c12 -20 20 -41 17 -49 -6 -14 -34 -15 -58 0 -18 10 -32 54 -18 54 21 0 24 -2
21 -16 -2 -8 5 -17 15 -21 10 -4 21 -11 25 -17 5 -7 8 -5 8 5 0 9 -10 29 -21
43 -21 27 -28 28 -74 11 -20 -8 -20 -8 0 8 33 27 61 21 85 -18z m-74 -23 c2
-20 17 -41 25 -36 5 3 9 0 9 -5 0 -18 -18 -12 -34 11 -16 23 -23 58 -8 44 4
-4 7 -11 8 -14z m-61 -2 c-3 -5 -1 -10 5 -10 6 0 8 -5 5 -10 -4 -6 -11 -8 -16
-5 -12 8 -11 35 2 35 5 0 7 -4 4 -10z m45 -46 c3 0 12 -3 20 -7 8 -3 22 -8 30
-11 8 -3 2 -4 -14 -3 -18 1 -31 -4 -34 -12 -3 -8 0 -11 7 -7 6 4 11 2 11 -4 0
-7 -6 -10 -12 -7 -7 2 -12 12 -12 21 1 9 -4 16 -12 16 -8 0 -14 7 -14 16 0 10
4 12 13 7 6 -4 14 -8 17 -9z"/>
<path d="M1833 1304 c-4 -10 1 -22 11 -29 13 -10 14 -14 4 -19 -7 -3 -2 -3 11
0 15 4 21 2 17 -4 -3 -6 0 -13 6 -16 7 -3 3 -3 -9 0 l-22 5 23 -58 c12 -32 26
-70 29 -86 5 -16 14 -27 25 -28 10 0 12 -3 5 -6 -7 -2 -13 -9 -13 -14 0 -6 9
-5 21 1 24 14 20 36 -7 32 -18 -2 -18 -2 -1 8 21 13 13 32 -10 23 -10 -4 -14
-2 -10 4 4 6 4 13 0 16 -5 2 -3 2 4 1 6 -2 14 4 17 12 8 22 7 26 -4 19 -5 -3
-10 -1 -10 4 0 6 -7 11 -15 11 -8 0 -19 9 -25 20 -6 11 -7 20 -1 20 5 0 12 -7
15 -16 4 -9 9 -14 13 -11 3 4 0 13 -7 22 -10 12 -10 15 1 15 12 0 12 2 0 9 -7
5 -11 13 -7 19 3 6 2 22 -4 36 -11 30 -47 36 -57 10z m37 -8 c-1 -5 4 -13 12
-17 10 -7 9 -9 -3 -9 -19 0 -42 24 -32 34 9 8 25 3 23 -8z m40 -136 c0 -5 -2
-10 -4 -10 -3 0 -8 5 -11 10 -3 6 -1 10 4 10 6 0 11 -4 11 -10z"/>
<path d="M2000 1301 c0 -6 9 -11 19 -11 11 0 21 -5 23 -12 3 -7 7 -6 11 5 4
11 1 17 -7 17 -8 0 -21 3 -30 6 -9 3 -16 1 -16 -5z"/>
<path d="M2174 1286 c5 -13 2 -17 -9 -12 -10 3 -15 -1 -15 -14 0 -10 8 -21 18
-23 15 -4 15 -5 -1 -6 -24 -1 -16 -25 9 -28 18 -3 18 -3 0 5 -19 8 -19 9 2 14
15 4 20 12 17 27 -2 12 0 21 6 21 5 0 9 5 9 11 0 5 -5 7 -11 3 -6 -3 -16 0
-21 7 -7 11 -8 9 -4 -5z"/>
<path d="M2557 1260 c-16 -16 -24 -30 -18 -30 6 0 19 9 28 20 19 22 33 26 33
9 0 -5 -4 -8 -9 -5 -5 3 -11 -1 -15 -9 -4 -11 1 -15 18 -15 24 0 54 -26 43
-37 -4 -3 -9 2 -13 11 -13 35 -85 3 -83 -37 1 -17 2 -18 6 -4 2 9 9 17 14 17
6 0 8 -4 5 -8 -6 -11 11 -38 19 -30 4 3 2 15 -4 26 -8 15 -7 23 3 31 16 14 27
4 19 -17 -5 -11 -2 -14 10 -9 12 4 17 1 17 -9 0 -9 -9 -18 -20 -21 -11 -3 -17
-9 -14 -14 9 -15 -8 -10 -28 8 -10 9 -18 12 -18 6 0 -18 38 -45 52 -38 11 7
11 5 0 -6 -11 -12 -18 -9 -43 19 -29 33 -37 66 -19 77 15 9 2 25 -21 25 -26 0
-37 -30 -16 -42 10 -5 17 -14 17 -20 0 -20 51 -78 69 -78 9 0 32 15 50 34 38
40 38 65 -3 109 -13 14 -27 36 -31 47 -8 27 -15 25 -48 -10z m-32 -60 c-3 -5
-11 -10 -16 -10 -6 0 -7 5 -4 10 3 6 11 10 16 10 6 0 7 -4 4 -10z m135 -33
c-1 -16 -39 -66 -40 -51 0 6 7 17 15 24 10 8 13 21 9 33 -4 13 -2 17 5 13 6
-4 11 -13 11 -19z"/>
<path d="M2010 1260 c0 -12 7 -20 18 -21 11 -1 9 -4 -8 -9 -15 -5 -18 -8 -9
-9 9 -1 20 -8 23 -17 9 -22 8 -24 -9 -24 -8 0 -15 7 -15 15 0 8 -4 15 -10 15
-15 0 -12 -26 4 -39 26 -21 44 -3 44 45 0 24 -4 42 -9 38 -5 -3 -9 2 -9 10 0
9 -4 16 -10 16 -5 0 -10 -9 -10 -20z"/>
<path d="M635 1239 c-10 -14 -4 -18 36 -23 19 -3 34 -5 34 -6 0 -1 12 -4 28
-6 18 -3 27 0 27 9 0 9 -13 15 -32 16 -18 2 -41 3 -50 4 -10 1 -18 5 -18 9 0
12 -18 10 -25 -3z"/>
<path d="M1414 1208 c-15 -24 -35 -49 -43 -56 -14 -12 -13 -15 9 -33 58 -47
73 -54 78 -40 2 7 13 21 24 30 46 39 70 111 37 111 -6 0 -6 -7 0 -18 6 -11 6
-24 0 -33 -6 -10 -9 -7 -10 14 -2 44 -3 47 -19 57 -28 18 -47 10 -76 -32z m70
24 c3 -5 -4 -8 -16 -8 -29 1 -66 -49 -52 -71 22 -35 42 -39 71 -13 l28 24 -27
-29 c-27 -28 -29 -29 -55 -14 -16 9 -34 14 -40 12 -7 -3 -13 0 -13 7 0 6 5 8
10 5 6 -3 10 3 10 14 0 40 68 99 84 73z m2 -37 c-3 -8 -1 -15 5 -15 6 0 7 -4
4 -10 -11 -19 -27 -10 -22 11 4 17 3 19 -6 10 -13 -13 -27 -14 -27 -2 0 8 18
16 44 20 4 0 6 -6 2 -14z m-28 -48 c3 -16 1 -17 -17 -7 -25 13 -28 33 -4 28
10 -2 19 -11 21 -21z m-13 -47 c13 -6 15 -9 5 -9 -8 0 -22 4 -30 9 -18 12 -2
12 25 0z"/>
<path d="M1380 1225 c7 -9 15 -13 17 -11 7 7 -7 26 -19 26 -6 0 -6 -6 2 -15z"/>
<path d="M1678 1226 c-19 -14 -25 -32 -8 -21 6 3 10 -2 10 -12 1 -10 11 -31
25 -47 20 -25 26 -28 39 -17 16 13 13 31 -5 31 -6 0 -8 -4 -4 -9 3 -5 0 -13
-7 -17 -7 -4 -10 -4 -6 1 4 4 0 14 -10 22 -11 8 -12 12 -3 11 7 -2 16 3 19 11
3 10 -1 13 -17 8 -14 -3 -21 -1 -21 10 0 10 6 12 20 8 11 -4 20 -2 20 4 0 6
-10 11 -22 11 -19 0 -20 2 -8 10 8 5 11 10 5 10 -5 -1 -18 -7 -27 -14z"/>
<path d="M473 1211 c-29 -8 -53 -21 -53 -28 0 -17 13 -16 76 5 31 11 49 22 47
30 -5 14 -3 14 -70 -7z"/>
<path d="M2344 1215 c23 -18 36 -19 36 -4 0 5 -4 7 -10 4 -5 -3 -10 -1 -10 4
0 6 -8 11 -17 11 -16 -1 -16 -2 1 -15z"/>
<path d="M2550 1219 c0 -5 5 -7 10 -4 6 3 10 8 10 11 0 2 -4 4 -10 4 -5 0 -10
-5 -10 -11z"/>
<path d="M2326 1202 c-3 -5 -4 -18 -1 -30 2 -12 -3 -23 -11 -26 -12 -4 -12 -2
-4 14 16 30 -2 23 -28 -11 -19 -23 -21 -33 -13 -43 9 -11 9 -16 1 -21 -6 -4
-17 1 -24 11 -8 10 -15 13 -19 7 -4 -6 4 -18 17 -26 23 -15 25 -14 76 50 29
37 46 63 36 60 -9 -4 -15 -3 -11 2 3 5 1 12 -4 15 -5 4 -12 2 -15 -2z m-16
-76 c-7 -7 -14 -6 -21 1 -9 9 -7 12 9 10 14 -1 18 -5 12 -11z"/>
<path d="M2140 1186 c0 -8 6 -17 13 -20 6 -3 -1 -4 -18 0 -29 5 -29 5 -11 -15
19 -21 19 -21 -2 -21 -12 0 -22 -4 -22 -10 0 -5 6 -10 14 -10 8 0 21 -3 29 -6
12 -4 15 1 13 20 -2 14 0 23 4 21 4 -3 10 5 13 17 4 13 1 26 -6 30 -18 12 -27
10 -27 -6z"/>
<path d="M860 1165 c0 -8 7 -15 15 -15 8 0 15 7 15 15 0 8 -7 15 -15 15 -8 0
-15 -7 -15 -15z"/>
<path d="M896 1153 c-11 -11 -6 -23 9 -23 8 0 15 -7 15 -16 0 -17 21 -15 27 3
4 12 -42 45 -51 36z"/>
<path d="M281 1086 c-27 -27 -39 -46 -32 -51 12 -7 103 80 93 89 -10 11 -18 6
-61 -38z"/>
<path d="M1569 1113 c-1 -5 -1 -11 -1 -14 1 -4 -8 -5 -18 -2 -11 3 -20 0 -20
-6 0 -6 6 -11 14 -11 8 0 17 -7 20 -16 4 -9 9 -15 11 -12 3 3 24 -12 47 -34
l41 -39 24 22 c27 27 22 40 -6 15 -19 -17 -19 -17 -14 2 3 12 -1 22 -11 25 -9
4 -16 14 -16 24 0 12 -3 14 -10 7 -12 -12 -2 -47 11 -38 5 3 9 0 9 -5 0 -16
-20 -13 -26 4 -4 8 -10 12 -15 9 -6 -3 -7 9 -4 28 l5 33 -20 -25 -21 -25 6 33
c4 17 4 32 1 32 -3 0 -7 -3 -7 -7z"/>
<path d="M2437 1114 c-3 -4 -3 -12 0 -18 11 -17 12 -36 2 -36 -5 0 -9 4 -9 10
0 5 -12 -2 -26 -15 -14 -13 -23 -28 -21 -32 3 -5 1 -15 -5 -23 -8 -13 -9 -12
-5 2 3 9 -1 24 -9 35 -14 17 -15 16 -9 -10 5 -25 4 -27 -14 -18 -30 16 -33 13
-15 -14 19 -30 28 -31 52 -7 9 9 32 28 50 41 22 15 31 29 27 39 -5 13 -3 13
12 1 14 -12 16 -12 8 0 -6 11 -4 13 8 8 10 -3 17 -2 17 3 0 6 -4 10 -10 10 -5
0 -10 8 -11 18 0 15 -1 14 -8 -3 -7 -18 -8 -18 -17 -2 -6 10 -13 15 -17 11z
m-1 -66 c4 -7 4 -10 -1 -6 -4 4 -13 0 -20 -9 -9 -13 -14 -13 -20 -3 -5 8 -4
11 2 7 6 -4 13 0 17 8 7 18 13 19 22 3z"/>
<path d="M2395 1070 c3 -5 8 -10 11 -10 2 0 4 5 4 10 0 6 -5 10 -11 10 -5 0
-7 -4 -4 -10z"/>
<path d="M2665 1059 l-50 -17 4 -48 c4 -59 16 -93 35 -100 19 -7 91 13 105 30
14 17 4 92 -15 111 -8 7 -14 18 -14 24 0 17 -14 17 -65 0z m49 -13 c-3 -8 -13
-12 -27 -8 -20 5 -20 6 -1 13 29 11 34 10 28 -5z m-70 -17 c-5 -9 1 -10 20 -5
21 5 27 3 24 -6 -3 -7 -15 -11 -28 -10 -21 4 -22 1 -17 -35 3 -21 8 -47 11
-58 4 -11 0 -6 -8 10 -16 32 -19 115 -4 115 5 0 6 -5 2 -11z m106 -61 c0 -27
-5 -40 -19 -48 -30 -16 -38 -12 -12 6 20 15 23 23 18 62 -3 27 -1 39 4 31 5
-8 9 -31 9 -51z m-25 22 c7 -23 -19 -55 -36 -44 -9 5 -10 0 -7 -14 4 -13 2
-20 -4 -16 -5 3 -8 15 -5 25 3 10 0 20 -7 23 -6 3 -1 13 14 25 31 26 37 26 45
1z"/>
<path d="M2700 975 c-8 -9 -8 -15 -2 -15 12 0 26 19 19 26 -2 2 -10 -2 -17
-11z"/>
<path d="M310 1054 c0 -9 5 -14 12 -12 18 6 21 28 4 28 -9 0 -16 -7 -16 -16z"/>
<path d="M615 1050 c-3 -5 -12 -7 -20 -4 -23 9 -87 -16 -140 -56 -61 -45 -104
-123 -112 -204 -7 -66 12 -137 33 -129 8 3 18 -6 25 -21 7 -14 16 -26 21 -26
5 0 6 6 1 13 -4 6 -8 14 -9 17 0 3 -7 19 -14 35 -26 61 -7 207 30 230 7 5 8
11 1 19 -7 8 -6 17 1 26 8 12 9 12 4 -2 -7 -23 0 -23 26 2 77 71 217 82 310
24 64 -40 130 -153 101 -173 -4 -3 2 -16 14 -28 l23 -22 15 29 c9 17 11 30 6
30 -6 0 -15 17 -21 38 -12 48 -57 111 -103 147 -61 46 -177 80 -192 55z m-225
-180 c0 -5 -5 -10 -11 -10 -5 0 -7 5 -4 10 3 6 8 10 11 10 2 0 4 -4 4 -10z
m-27 -110 c3 -11 1 -20 -4 -20 -5 0 -9 9 -9 20 0 11 2 20 4 20 2 0 6 -9 9 -20z
m17 -51 c0 -5 -4 -9 -10 -9 -5 0 -10 7 -10 16 0 8 5 12 10 9 6 -3 10 -10 10
-16z m10 -23 c0 -3 -4 -8 -10 -11 -5 -3 -10 -1 -10 4 0 6 5 11 10 11 6 0 10
-2 10 -4z"/>
<path d="M1337 1039 c-24 -14 -45 -59 -49 -105 -2 -28 1 -38 10 -36 7 1 23 -4
35 -13 42 -30 76 -16 68 28 -1 5 3 6 9 2 13 -8 30 36 30 76 0 25 -6 33 -35 45
-40 16 -44 17 -68 3z m58 -33 c16 -11 17 -19 9 -47 -11 -40 -42 -49 -68 -20
-16 18 -16 21 -1 50 17 34 31 38 60 17z m-88 -68 c-3 -8 -6 -5 -6 6 -1 11 2
17 5 13 3 -3 4 -12 1 -19z m10 -24 c-3 -3 -12 -4 -19 -1 -8 3 -5 6 6 6 11 1
17 -2 13 -5z m73 -30 c0 -2 -7 -4 -15 -4 -8 0 -15 4 -15 10 0 5 7 7 15 4 8 -4
15 -8 15 -10z"/>
<path d="M1347 983 c-8 -7 5 -43 15 -43 6 0 8 6 5 14 -4 10 0 12 15 8 13 -3
19 -1 15 5 -7 12 -43 23 -50 16z"/>
<path d="M1970 1031 c-96 -30 -159 -89 -201 -191 -28 -69 -28 -74 -12 -92 16
-18 17 -18 37 3 14 14 17 23 9 26 -26 10 30 128 79 164 97 73 213 69 300 -9
50 -45 77 -102 79 -170 1 -29 6 -52 11 -52 4 0 8 7 8 16 0 8 4 13 9 10 16 -10
5 -41 -15 -41 -10 0 -19 -5 -19 -11 0 -6 -16 -33 -35 -62 -27 -39 -47 -57 -87
-74 -53 -23 -72 -44 -30 -34 12 3 16 3 9 0 -6 -3 -10 -10 -6 -15 7 -12 -10
-11 -22 1 -6 6 -18 8 -27 4 -30 -11 -18 -21 28 -22 36 0 45 3 45 17 0 10 8 26
19 35 17 15 19 15 25 1 3 -9 2 -14 -2 -11 -4 3 -14 -4 -20 -15 -12 -19 -12
-19 15 -5 61 31 144 140 128 166 -3 6 -1 10 6 10 6 0 9 8 6 20 -3 11 -2 22 2
24 7 5 6 31 -3 93 -12 83 -86 167 -177 201 -37 14 -130 21 -159 13z m235 -90
c-6 -5 -25 10 -25 20 0 5 6 4 14 -3 8 -7 12 -15 11 -17z m63 -60 c7 -7 10 -16
7 -20 -4 -3 -11 2 -17 13 -5 10 -18 25 -29 34 -10 8 -15 20 -12 25 3 4 12 -2
21 -15 9 -13 22 -29 30 -37z m15 -61 c-3 -11 0 -20 6 -20 6 0 11 -4 11 -10 0
-5 -6 -7 -14 -4 -14 5 -28 49 -18 58 10 11 20 -5 15 -24z m-8 -150 c-3 -5 -1
-10 4 -10 6 0 3 -8 -6 -18 -10 -10 -19 -15 -21 -10 -4 8 16 48 24 48 3 0 2 -4
-1 -10z m-25 -66 c0 -8 -56 -54 -65 -54 -5 0 -3 6 6 13 9 7 19 22 23 34 4 14
12 20 22 16 7 -3 14 -7 14 -9z"/>
<path d="M1015 1000 c-3 -6 0 -13 9 -16 8 -3 12 -12 10 -19 -6 -15 11 -29 25
-21 11 7 -16 66 -29 66 -5 0 -12 -5 -15 -10z"/>
<path d="M1470 945 c-6 -15 -8 -30 -6 -33 3 -3 10 8 16 23 6 15 8 30 6 33 -3
3 -10 -8 -16 -23z"/>
<path d="M1490 934 c-12 -31 -12 -37 -1 -30 5 4 12 0 14 -6 3 -8 6 -6 6 5 1 9
6 17 12 17 5 0 7 5 4 10 -4 6 -11 8 -16 5 -5 -3 -6 1 -3 9 3 9 3 16 0 16 -4 0
-11 -12 -16 -26z"/>
<path d="M187 940 c-27 -82 -36 -110 -34 -111 24 -8 57 -5 57 6 0 7 -4 15 -10
17 -14 4 2 53 18 53 6 0 12 3 12 8 0 4 -2 6 -5 5 -2 -2 -11 6 -19 17 -12 16
-15 17 -19 5z"/>
<path d="M2080 929 c0 -5 5 -7 10 -4 6 3 10 8 10 11 0 2 -4 4 -10 4 -5 0 -10
-5 -10 -11z"/>
<path d="M2511 923 c-6 -10 -11 -12 -11 -5 0 18 -40 15 -47 -4 -8 -21 19 -46
40 -38 9 3 17 10 17 15 0 4 6 6 14 3 8 -3 17 -1 21 5 3 6 -2 11 -12 11 -14 0
-15 2 -4 9 8 5 9 11 3 15 -6 4 -15 -2 -21 -11z m-21 -18 c0 -8 -4 -15 -9 -15
-13 0 -22 16 -14 24 11 11 23 6 23 -9z"/>
<path d="M2756 843 c-3 -4 -30 -7 -59 -7 -43 -1 -52 -4 -51 -18 1 -10 -3 -18
-8 -18 -14 0 -4 -86 12 -105 17 -20 99 -20 128 1 16 11 22 25 22 54 0 21 -5
42 -11 45 -7 5 -8 -4 -4 -27 4 -22 1 -39 -9 -53 -15 -19 -15 -18 -5 12 7 22 7
37 0 51 -8 15 -7 21 4 26 8 3 15 12 15 20 0 15 -24 28 -34 19z m-46 -26 c0 -4
-13 -6 -29 -5 -16 1 -28 5 -25 9 5 9 54 6 54 -4z m55 3 c-3 -5 -11 -10 -16
-10 -6 0 -7 5 -4 10 3 6 11 10 16 10 6 0 7 -4 4 -10z m-92 -27 c-17 -6 -17
-67 0 -81 6 -6 28 -12 47 -15 l35 -4 -36 -1 c-45 -2 -65 14 -73 59 -7 38 -1
49 23 48 10 0 12 -2 4 -6z m84 -29 c-9 -9 -28 6 -21 18 4 6 10 6 17 -1 6 -6 8
-13 4 -17z m-67 7 c0 -6 -4 -13 -10 -16 -5 -3 -10 1 -10 9 0 9 5 16 10 16 6 0
10 -4 10 -9z m58 -21 c7 0 12 -7 12 -15 0 -8 -4 -15 -10 -15 -5 0 -10 5 -10
10 0 6 -12 10 -26 10 -14 0 -22 -4 -19 -10 3 -6 -1 -7 -10 -4 -14 6 -13 8 5
21 11 8 17 20 13 26 -3 7 3 4 14 -5 11 -10 25 -18 31 -18z"/>
<path d="M1286 811 c-15 -16 -17 -32 -13 -83 3 -35 6 -64 6 -64 3 -5 121 3
126 8 12 12 15 131 4 145 -18 21 -103 17 -123 -6z m62 2 c-36 -3 -48 -9 -53
-24 -4 -11 -9 -18 -12 -16 -2 3 0 15 7 26 9 17 19 21 58 19 l47 -2 -47 -3z
m-20 -30 c-4 -13 1 -18 18 -18 12 0 21 2 19 5 -2 3 0 12 5 19 12 20 32 3 24
-22 -9 -31 -33 -48 -61 -41 -14 4 -23 2 -23 -5 0 -6 -7 -11 -15 -11 -9 0 -15
9 -14 23 0 20 1 20 8 3 5 -12 10 -16 14 -9 4 6 4 18 1 27 -3 9 -1 23 6 31 17
20 23 19 18 -2z m32 -86 c0 -8 -7 -14 -15 -14 -16 0 -19 9 -8 20 11 11 23 8
23 -6z m-40 -14 c0 -7 -7 -13 -15 -13 -8 0 -15 6 -15 13 0 8 7 14 15 14 8 0
15 -6 15 -14z m78 5 c-2 -5 -8 -9 -13 -9 -5 0 -11 4 -13 9 -1 5 4 9 13 9 9 0
14 -4 13 -9z"/>
<path d="M2450 782 c0 -5 -10 -8 -22 -8 -18 1 -23 -5 -23 -24 0 -20 5 -25 28
-26 18 -1 27 4 28 15 0 12 3 11 9 -4 8 -19 9 -19 9 3 1 13 -6 30 -14 38 -8 9
-15 11 -15 6z m0 -33 c0 -5 -9 -9 -20 -9 -19 0 -26 11 -14 23 8 8 34 -3 34
-14z"/>
<path d="M1075 770 c-7 -12 2 -30 16 -30 5 0 9 9 9 20 0 21 -15 27 -25 10z"/>
<path d="M1450 751 c0 -25 4 -29 25 -27 15 0 25 7 25 16 0 13 1 13 10 0 8 -13
10 -12 10 3 0 11 -8 17 -21 17 -11 0 -17 -4 -14 -10 3 -5 1 -10 -4 -10 -6 0
-11 9 -11 20 0 11 -4 20 -10 20 -5 0 -10 -13 -10 -29z"/>
<path d="M1532 750 c0 -19 2 -27 5 -17 2 9 2 25 0 35 -3 9 -5 1 -5 -18z"/>
<path d="M1563 763 c-17 -6 -16 -30 1 -36 9 -4 14 2 14 19 0 13 -1 24 -2 23 0
0 -7 -3 -13 -6z"/>
<path d="M2493 750 c1 -14 7 -25 12 -25 6 0 11 11 12 25 2 22 2 23 -6 5 -8
-20 -8 -20 -14 0 -4 15 -5 14 -4 -5z"/>
<path d="M2530 744 c0 -17 6 -22 20 -21 11 1 20 7 20 14 0 7 5 13 11 13 5 0 8
-4 4 -9 -3 -5 -1 -12 5 -16 6 -4 10 4 10 18 0 22 -4 25 -35 24 -29 -1 -35 -5
-35 -23z"/>
<path d="M174 702 l-20 -7 22 -65 c15 -46 24 -60 29 -48 4 10 13 14 22 11 11
-4 14 -2 11 8 -3 8 -13 13 -22 13 -9 -1 -16 4 -16 12 0 8 5 13 11 12 6 -2 14
3 17 11 3 10 -1 13 -17 8 -25 -6 -30 17 -5 27 8 3 12 10 9 16 -7 11 -10 11
-41 2z"/>
<path d="M366 642 c-2 -4 4 -19 15 -32 19 -26 23 -21 13 18 -6 22 -19 29 -28
14z"/>
<path d="M2476 626 c-3 -12 -6 -24 -6 -28 0 -9 61 -29 71 -22 12 7 11 34 -1
34 -5 0 -10 6 -10 14 0 7 -11 16 -24 18 -19 4 -26 0 -30 -16z m38 -4 c9 -15
-9 -31 -24 -22 -12 8 -11 10 5 10 17 0 17 2 5 10 -9 6 -10 10 -3 10 6 0 14 -4
17 -8z"/>
<path d="M1615 623 c5 -14 3 -15 -5 -7 -13 13 -50 7 -50 -8 0 -5 -8 -4 -19 2
-26 14 -31 13 -25 -4 3 -8 12 -12 20 -9 8 3 14 1 14 -5 0 -18 33 -6 41 14 4
10 8 13 8 7 1 -22 31 -14 31 7 0 11 -5 20 -11 20 -6 0 -8 -7 -4 -17z"/>
<path d="M2660 623 c0 -9 -7 -24 -15 -33 -8 -9 -16 -31 -17 -49 -3 -35 7 -42
72 -45 28 -1 57 44 44 72 -4 9 -8 21 -8 26 -1 13 -26 20 -26 7 0 -6 -8 -11
-18 -11 -21 0 -42 -18 -42 -37 0 -9 7 -7 22 7 24 22 43 26 53 10 3 -6 -5 -10
-19 -10 -14 0 -29 -8 -35 -17 -7 -14 -13 -15 -21 -7 -17 17 -3 52 23 60 12 4
27 14 33 22 8 11 13 12 18 4 4 -7 17 -12 29 -12 19 -1 20 -2 6 -13 -12 -9 -14
-16 -5 -29 8 -13 6 -26 -7 -52 -18 -38 -35 -44 -81 -26 -14 5 -26 6 -26 1 0
-13 26 -21 66 -21 27 0 36 6 49 30 8 16 15 40 15 53 0 12 5 28 11 34 14 14 3
33 -20 33 -10 0 -21 3 -25 7 -4 4 -23 8 -42 10 -26 1 -34 -2 -34 -14z m58 -80
c-10 -2 -18 -9 -18 -14 0 -6 5 -7 11 -3 7 4 10 2 8 -5 -3 -7 -8 -12 -12 -12
-4 1 -16 1 -27 1 -19 0 -19 1 -3 20 10 11 27 19 38 19 17 -1 17 -2 3 -6z"/>
<path d="M1333 590 c-38 -22 -41 -45 -16 -93 9 -18 17 -35 18 -39 0 -4 5 -12
11 -18 8 -8 21 -6 47 9 19 11 38 17 41 14 3 -3 12 0 21 7 11 9 12 16 5 25 -5
6 -7 14 -4 18 9 9 -6 48 -17 42 -5 -3 -6 1 -3 10 17 43 -48 59 -103 25z m84
-27 c4 -16 6 -34 5 -40 -4 -20 16 -15 21 5 4 16 5 16 6 -1 0 -10 -6 -20 -14
-23 -8 -4 -12 -10 -9 -15 3 -5 10 -7 15 -4 5 4 9 1 9 -4 0 -16 -12 -13 -40 9
-14 11 -18 18 -9 15 13 -5 15 -1 12 20 -6 31 -31 45 -58 34 -11 -4 -14 -8 -6
-8 7 -1 11 -7 8 -16 -4 -8 -2 -17 3 -20 13 -8 13 -62 1 -70 -5 -3 -13 0 -17 6
-4 8 -3 9 4 5 8 -5 12 3 12 24 0 17 -4 29 -9 26 -10 -7 -21 16 -21 43 0 19 32
39 62 40 11 1 20 -9 25 -26z m-100 -30 c-3 -10 -5 -4 -5 12 0 17 2 24 5 18 2
-7 2 -21 0 -30z m68 17 c3 -5 1 -10 -4 -10 -6 0 -11 5 -11 10 0 6 2 10 4 10 3
0 8 -4 11 -10z m25 -86 c0 -2 -7 -4 -15 -4 -8 0 -15 4 -15 10 0 5 7 7 15 4 8
-4 15 -8 15 -10z"/>
<path d="M1480 578 c0 -22 3 -28 9 -20 4 8 16 12 26 10 10 -2 20 3 23 11 2 8
0 11 -6 8 -5 -4 -15 0 -22 8 -20 24 -30 18 -30 -17z"/>
<path d="M408 588 c-3 -7 8 -26 24 -42 22 -21 32 -26 41 -17 8 8 6 11 -8 11
-20 1 -20 1 0 17 17 13 17 15 2 10 -13 -5 -17 -2 -15 11 4 20 -38 30 -44 10z
m32 -18 c10 -19 10 -20 -9 -8 -11 6 -17 16 -15 20 8 12 12 10 24 -12z"/>
<path d="M1664 515 c-4 -8 -12 -15 -20 -15 -17 0 -18 -14 -1 -28 9 -8 19 -4
35 13 13 14 21 29 17 35 -9 15 -25 12 -31 -5z m26 -4 c0 -5 -7 -11 -14 -14
-10 -4 -13 -1 -9 9 6 15 23 19 23 5z"/>
<path d="M2392 500 c-14 -23 -8 -40 13 -40 7 0 15 -5 17 -12 6 -16 38 -2 38
17 0 8 -5 15 -11 15 -5 0 -7 -6 -3 -12 4 -7 3 -9 -2 -5 -4 4 -9 18 -9 30 0 29
-27 33 -43 7z m30 -7 c-6 -2 -10 -9 -6 -14 3 -5 0 -9 -5 -9 -12 0 -14 13 -4
23 3 4 11 7 17 6 6 0 5 -3 -2 -6z"/>
<path d="M254 489 c-18 -20 -18 -22 -1 -34 22 -16 22 -33 0 -58 -17 -19 -17
-20 22 -54 43 -37 133 -93 151 -93 6 0 16 10 22 23 11 21 11 21 9 -7 -2 -27 2
-30 48 -42 28 -8 80 -14 118 -14 l67 0 -1 33 c-2 32 -2 32 -6 3 l-5 -29 -79 7
c-101 8 -133 20 -126 46 7 26 -20 34 -33 9 -11 -19 -12 -19 -61 8 -27 14 -66
41 -86 58 -33 28 -35 33 -22 53 13 21 13 21 35 2 20 -20 21 -20 38 -1 13 14
14 21 6 26 -7 4 -16 2 -20 -5 -5 -9 -9 -9 -14 -1 -4 6 -2 11 3 11 6 0 11 5 11
11 0 6 -9 8 -22 3 -20 -6 -21 -5 -9 10 17 21 7 33 -14 16 -9 -7 -15 -8 -15 -2
0 6 6 12 13 15 8 3 9 8 1 16 -8 9 -15 6 -30 -10z"/>
<path d="M1604 465 c-4 -10 -13 -13 -25 -10 -17 6 -17 3 -8 -24 12 -34 24 -43
16 -12 -3 14 0 17 12 14 20 -5 46 21 36 37 -9 15 -25 12 -31 -5z m20 -4 c3 -5
-1 -11 -9 -14 -9 -4 -12 -1 -8 9 6 16 10 17 17 5z"/>
<path d="M1786 461 c-25 -10 -5 -24 21 -15 15 5 15 4 3 -5 -13 -9 -12 -11 3
-11 12 0 17 6 15 17 -4 20 -16 24 -42 14z"/>
<path d="M2461 447 c-17 -17 -13 -31 4 -17 13 11 14 10 8 -6 -6 -17 -5 -17 10
-5 9 7 17 17 17 21 0 14 -27 19 -39 7z"/>
<path d="M2583 453 c-7 -2 -13 -9 -13 -14 0 -4 7 -6 15 -2 19 7 58 -26 51 -43
-3 -7 2 -18 10 -24 19 -17 18 -33 -7 -64 -11 -14 -16 -26 -11 -26 6 0 20 20
32 44 12 25 27 47 33 49 15 5 -9 37 -28 37 -7 0 -23 11 -36 25 -25 26 -27 26
-46 18z m97 -73 c0 -5 -5 -10 -11 -10 -5 0 -7 5 -4 10 3 6 8 10 11 10 2 0 4
-4 4 -10z"/>
<path d="M892 430 c2 -12 -9 -28 -30 -44 -18 -13 -29 -27 -24 -30 7 -4 63 32
91 59 4 5 -25 35 -34 35 -3 0 -5 -9 -3 -20z"/>
<path d="M1773 417 c4 -10 1 -14 -6 -12 -7 3 -22 -11 -35 -30 -19 -30 -20 -36
-7 -41 12 -5 13 -10 4 -20 -14 -17 -39 4 -31 26 3 8 2 12 -3 8 -4 -4 -9 -18
-10 -32 -2 -18 1 -23 11 -19 10 4 12 0 7 -13 -6 -17 -5 -17 8 -4 38 38 69 89
60 95 -6 3 -11 1 -11 -5 0 -6 -5 -8 -11 -4 -8 5 -6 10 5 16 9 5 21 6 28 2 7
-4 8 -3 4 4 -4 7 -1 12 9 12 22 0 13 24 -10 29 -13 2 -16 -1 -12 -12z m-28
-67 c3 -5 1 -10 -4 -10 -6 0 -11 5 -11 10 0 6 2 10 4 10 3 0 8 -4 11 -10z"/>
<path d="M2566 421 c-28 -11 -67 -81 -56 -102 20 -36 119 -80 107 -46 -2 6 4
23 14 36 23 29 24 45 4 61 -8 7 -12 16 -9 21 9 15 -6 31 -19 21 -7 -5 -23 -12
-37 -15 -23 -6 -24 -5 -6 8 10 8 23 12 27 9 5 -3 9 0 9 5 0 12 -7 13 -34 2z
m12 -45 c-16 -12 -15 -15 13 -35 24 -18 28 -25 18 -37 -13 -16 -34 -19 -24 -4
3 6 -1 10 -9 10 -9 0 -15 6 -13 13 1 6 -4 11 -10 10 -7 -2 -13 2 -13 9 0 15
30 48 44 48 6 0 3 -7 -6 -14z m42 -5 c0 -12 -20 -25 -27 -18 -7 7 6 27 18 27
5 0 9 -4 9 -9z m20 -25 c0 -3 -4 -8 -10 -11 -5 -3 -10 -1 -10 4 0 6 5 11 10
11 6 0 10 -2 10 -4z m-90 -41 l25 -30 -27 24 c-16 14 -28 29 -28 34 0 6 1 8 3
6 1 -2 13 -17 27 -34z m57 -31 c-3 -3 -12 -4 -19 -1 -8 3 -5 6 6 6 11 1 17 -2
13 -5z"/>
<path d="M825 390 c-3 -5 1 -10 9 -10 9 0 16 5 16 10 0 6 -4 10 -9 10 -6 0
-13 -4 -16 -10z"/>
<path d="M1887 370 c-9 -18 -11 -32 -5 -38 6 -6 -1 -12 -19 -17 -26 -7 -26 -8
-8 -15 34 -14 41 -11 54 28 8 20 16 42 18 48 2 6 -3 14 -11 17 -10 4 -20 -4
-29 -23z"/>
<path d="M2314 369 c-14 -16 -15 -23 -6 -26 6 -3 12 -11 12 -19 0 -8 5 -14 10
-14 6 0 10 7 10 16 0 9 5 12 11 8 7 -4 10 -1 7 7 -3 8 -16 13 -29 12 l-24 -2
23 11 c12 6 22 15 22 20 0 15 -16 9 -36 -13z"/>
<path d="M420 360 c0 -5 -3 -15 -6 -24 -4 -11 2 -17 23 -22 15 -4 40 -13 55
-20 24 -13 27 -12 33 7 4 11 5 22 3 24 -10 10 -108 42 -108 35z m70 -42 c10
-6 7 -7 -10 -2 -14 3 -32 11 -40 16 -10 6 -7 7 10 2 14 -3 32 -11 40 -16z"/>
<path d="M2166 343 c-15 -4 -16 -7 -5 -14 9 -6 10 -9 2 -9 -16 0 4 -60 26 -77
14 -11 14 -14 1 -23 -13 -8 -13 -10 2 -10 22 0 33 19 20 32 -6 6 -8 16 -5 23
3 8 -5 15 -19 18 -21 4 -20 4 5 6 15 0 27 6 27 12 0 7 -10 9 -26 6 l-25 -4 22
23 c23 24 17 28 -25 17z"/>
<path d="M2405 281 c-27 -15 -51 -35 -53 -45 -4 -18 38 -95 62 -115 20 -17 43
-8 94 37 42 37 57 70 26 58 -9 -3 -18 -6 -20 -6 -2 0 -4 -9 -4 -19 0 -11 -4
-22 -9 -25 -4 -3 -6 5 -4 18 3 13 -1 27 -8 31 -9 6 -11 2 -7 -13 6 -22 -17
-51 -29 -38 -4 4 -1 11 7 16 8 6 13 10 10 11 -3 0 -13 2 -22 4 -15 3 -17 -2
-11 -23 6 -24 5 -26 -10 -13 -9 7 -14 18 -10 24 3 5 1 7 -4 4 -6 -4 -14 0 -17
9 -9 24 -7 36 4 29 6 -4 7 -11 4 -17 -4 -6 1 -8 11 -6 23 4 32 28 11 28 -20 0
-21 16 -2 23 18 7 36 -11 29 -29 -6 -17 9 -18 24 -3 7 7 13 7 17 0 11 -16 36
-1 29 17 -7 18 -55 72 -63 71 -3 0 -27 -13 -55 -28z m50 -1 c-3 -5 -14 -10
-24 -10 -18 0 -61 -34 -61 -49 0 -20 48 -76 70 -82 23 -6 23 -7 3 -8 -23 -1
-67 44 -79 81 -5 17 0 27 22 45 15 12 37 24 49 26 11 2 21 5 23 6 2 0 0 -3 -3
-9z m55 -42 c0 -4 -9 0 -20 9 -11 10 -20 21 -20 25 0 4 9 0 20 -9 11 -10 20
-21 20 -25z"/>
<path d="M1580 253 c-41 -50 -38 -89 9 -120 18 -12 37 -21 41 -18 4 3 10 -2
14 -10 7 -21 35 -19 43 3 7 17 15 29 41 58 15 15 10 44 -7 44 -6 0 -8 6 -5 13
6 15 -63 67 -88 67 -9 0 -31 -17 -48 -37z m75 17 c3 -5 0 -7 -8 -4 -8 3 -20
-2 -27 -11 -8 -10 -9 -15 -1 -15 19 0 13 -40 -6 -41 -11 0 -13 -3 -5 -6 6 -2
12 -12 12 -21 0 -15 -2 -15 -17 1 -15 14 -15 21 -5 37 14 23 15 30 4 30 -5 0
-14 -12 -21 -27 -12 -25 -10 -30 14 -50 34 -30 39 -29 69 10 29 38 32 56 14
77 -7 8 -3 6 9 -4 24 -20 22 -35 -14 -83 -28 -39 -52 -41 -89 -10 -32 28 -29
57 11 100 27 28 49 34 60 17z m13 -38 c2 -7 -3 -12 -12 -12 -9 0 -16 7 -16 16
0 17 22 14 28 -4z m-8 -41 c-21 -41 -35 -30 -21 17 1 1 8 2 16 2 12 0 14 -4 5
-19z m70 -1 c0 -6 -7 -13 -15 -16 -8 -4 -12 -10 -9 -15 3 -5 -2 -12 -10 -15
-9 -3 -16 -12 -16 -19 0 -17 -17 -28 -24 -16 -3 5 9 25 28 44 19 20 32 38 28
41 -3 3 0 6 6 6 7 0 12 -5 12 -10z"/>
<path d="M1842 265 c-26 -27 -27 -38 -7 -55 12 -10 18 -10 30 0 9 7 14 19 11
26 -3 7 -1 16 4 19 14 9 12 22 -3 28 -7 3 -23 -5 -35 -18z m25 -20 c-12 -24
-37 -35 -37 -16 0 8 38 41 46 41 1 0 -3 -11 -9 -25z"/>
<path d="M2012 258 c-20 -20 -14 -38 13 -38 20 0 25 5 25 25 0 27 -18 33 -38
13z m23 -17 c-3 -6 -11 -11 -16 -11 -5 0 -4 6 3 14 14 16 24 13 13 -3z"/>
<path d="M1994 199 c-9 -16 21 -43 40 -36 17 7 22 47 6 47 -5 0 -7 -7 -4 -15
4 -10 0 -15 -11 -15 -11 0 -15 5 -11 15 6 17 -9 21 -20 4z"/>
<path d="M1765 170 c-10 -11 -20 -41 -23 -69 -4 -44 -2 -51 22 -66 38 -25 107
-39 117 -23 4 6 5 16 2 20 -2 5 1 16 8 24 6 8 9 17 6 21 -4 3 -2 12 4 19 18
22 4 40 -55 68 -30 14 -57 26 -59 26 -2 0 -12 -9 -22 -20z m75 -15 c31 -16 37
-41 20 -80 -7 -14 -8 -10 -4 16 3 22 1 39 -5 43 -6 4 -11 2 -11 -4 0 -6 -4 -8
-10 -5 -14 8 -13 -18 1 -32 14 -14 -7 -57 -23 -47 -8 5 -6 11 4 18 12 9 13 14
3 23 -7 7 -16 10 -19 7 -3 -2 -4 -1 -1 2 2 4 0 15 -6 25 -7 15 -6 17 5 13 8
-3 23 -1 33 4 16 9 15 11 -9 17 -15 4 -31 4 -37 1 -16 -10 -25 -86 -11 -99 10
-9 11 -7 5 12 -5 17 -4 21 5 16 6 -4 10 -16 7 -26 -3 -11 0 -19 6 -19 6 0 8
-3 5 -6 -4 -3 -16 -1 -27 6 -38 20 -20 130 21 130 10 0 32 -7 48 -15z m60 -49
c0 -3 -4 -8 -10 -11 -5 -3 -10 -1 -10 4 0 6 5 11 10 11 6 0 10 -2 10 -4z m-18
-48 c-7 -7 -12 -21 -13 -32 0 -13 -3 -16 -6 -8 -6 15 17 65 26 57 2 -3 -1 -11
-7 -17z m-37 -27 c-3 -6 -14 -11 -23 -11 -13 0 -13 2 4 14 21 15 30 14 19 -3z"/>
<path d="M2275 180 c-4 -6 -17 -10 -31 -10 -31 0 -84 -26 -84 -42 0 -27 25
-89 41 -104 19 -17 75 -12 64 6 -3 5 0 7 8 4 8 -3 18 -1 22 5 3 6 15 11 25 11
25 0 35 17 20 35 -6 8 -9 18 -6 24 4 5 -1 16 -9 25 -9 8 -16 18 -15 21 1 18
-2 23 -15 28 -8 4 -17 2 -20 -3z m25 -30 c0 -11 5 -20 10 -20 6 0 10 -7 10
-15 0 -8 -5 -15 -11 -15 -5 0 -7 5 -4 10 3 6 3 10 -2 10 -4 0 -13 11 -20 25
-9 20 -8 25 3 25 8 0 14 -9 14 -20z m-50 -20 c1 -12 4 -11 17 5 14 18 15 18 9
1 -8 -23 10 -46 35 -46 11 0 19 -7 19 -16 0 -13 -3 -14 -14 -5 -11 9 -15 9
-19 -1 -4 -8 -6 -7 -6 5 -1 9 -7 17 -15 17 -7 0 -19 7 -26 15 -7 8 -15 15 -19
15 -12 0 -4 -64 9 -68 7 -3 10 0 6 6 -3 6 -2 13 3 16 5 3 11 -1 14 -9 8 -18
-32 -32 -43 -15 -5 8 -13 9 -21 4 -11 -6 -12 -5 -3 7 15 20 16 61 1 53 -7 -3
-4 1 5 9 10 8 15 17 12 20 -4 3 3 5 15 4 11 -1 21 -8 21 -17z m-73 -22 c-3 -8
-6 -5 -6 6 -1 11 2 17 5 13 3 -3 4 -12 1 -19z m70 -84 c-3 -3 -12 -4 -19 -1
-8 3 -5 6 6 6 11 1 17 -2 13 -5z"/>
<path d="M1990 120 c-19 -4 -26 -13 -28 -39 -2 -19 -1 -44 2 -56 5 -21 10 -23
48 -18 24 3 49 11 57 17 12 9 14 8 9 -4 -4 -11 1 -16 17 -18 21 -1 23 2 23 58
l0 60 -37 1 c-20 0 -43 2 -51 3 -8 2 -26 0 -40 -4z m2 -22 c-18 -18 -16 -69 2
-62 8 3 17 11 19 17 2 7 3 4 2 -5 -2 -9 2 -20 9 -23 6 -3 1 -3 -11 -1 -13 2
-23 0 -23 -6 0 -5 -4 -6 -10 -3 -11 7 -14 78 -3 88 3 4 11 7 17 7 6 0 5 -5 -2
-12z m83 2 c3 -6 -1 -7 -9 -4 -18 7 -21 14 -7 14 6 0 13 -4 16 -10z m35 -5 c0
-8 -4 -15 -8 -15 -5 0 -9 7 -9 15 0 8 4 15 9 15 4 0 8 -7 8 -15z m-100 -10
c-7 -9 -15 -13 -19 -10 -3 3 1 10 9 15 21 14 24 12 10 -5z m50 -5 c0 -5 -5
-10 -10 -10 -6 0 -5 -8 2 -20 7 -10 9 -23 5 -27 -11 -10 -27 17 -27 45 0 13 6
22 15 22 8 0 15 -4 15 -10z m50 -55 c0 -8 -4 -15 -8 -15 -5 0 -9 7 -9 15 0 8
4 15 9 15 4 0 8 -7 8 -15z"/>
<path d="M2490 111 c0 -5 5 -13 10 -16 6 -3 10 -2 10 4 0 5 -4 13 -10 16 -5 3
-10 2 -10 -4z"/>
</g>
</svg>
