<?xml version="1.0" standalone="no"?>
<!DOCTYPE svg PUBLIC "-//W3C//DTD SVG 20010904//EN"
 "http://www.w3.org/TR/2001/REC-SVG-20010904/DTD/svg10.dtd">
<svg version="1.0" xmlns="http://www.w3.org/2000/svg"
 width="196.000000pt" height="187.000000pt" viewBox="0 0 196.000000 187.000000"
 preserveAspectRatio="xMidYMid meet">
<metadata>
Created by potrace 1.10, written by Peter Selinger 2001-2011
</metadata>
<g transform="translate(0.000000,187.000000) scale(0.100000,-0.100000)"
fill="#000000" stroke="none">
<path d="M1065 1829 c-38 -4 -91 -14 -117 -22 -26 -8 -49 -13 -51 -11 -10 11
-189 34 -259 34 -213 0 -367 -69 -453 -205 -123 -194 -172 -564 -114 -865 12
-64 38 -151 50 -165 4 -6 -1 -35 -11 -65 -59 -170 17 -365 169 -434 32 -14 86
-31 118 -37 72 -14 226 -6 273 13 32 13 37 13 75 -9 22 -12 54 -23 72 -23 51
0 171 28 222 53 l47 22 32 -22 c63 -42 189 -36 243 12 17 16 23 16 91 -1 102
-25 273 -26 312 -1 78 51 87 227 17 326 l-22 30 34 53 c163 258 170 814 13
1081 -64 110 -205 202 -346 226 -86 14 -308 20 -395 10z m297 -39 c123 -12
206 -39 289 -95 102 -69 154 -155 200 -330 21 -80 24 -112 24 -285 0 -202 -9
-279 -47 -400 -48 -153 -116 -243 -209 -275 -60 -22 -64 -19 -30 20 41 48 56
78 85 177 66 231 65 597 -4 781 -44 117 -130 188 -275 228 -67 18 -97 21 -190
16 -167 -7 -261 -49 -318 -139 -48 -75 -76 -167 -88 -288 -6 -58 -17 -115 -25
-127 -19 -31 -71 -56 -100 -49 -35 9 -47 42 -50 131 -4 131 31 281 91 390 75
135 150 194 288 224 142 32 208 36 359 21z m-526 -23 c3 -3 -19 -28 -48 -56
l-53 -52 -105 6 c-90 6 -115 3 -172 -15 -89 -27 -151 -87 -199 -190 -59 -125
-73 -217 -66 -442 4 -112 12 -222 21 -261 l15 -69 -36 -34 c-20 -19 -40 -31
-44 -27 -10 12 -37 128 -50 218 -13 93 -6 371 11 455 47 225 134 367 264 430
74 35 177 50 324 45 74 -2 136 -5 138 -8z m-308 -149 c-7 -19 -38 -22 -38 -4
0 10 9 16 21 16 12 0 19 -5 17 -12z m111 -15 c-13 -16 -25 -30 -26 -31 -1 -2
-9 10 -18 27 l-16 31 42 0 42 0 -24 -27z m67 0 c-10 -10 -19 5 -10 18 6 11 8
11 12 0 2 -7 1 -15 -2 -18z m-226 -27 c0 -7 -11 -23 -24 -35 l-24 -23 -12 22
c-10 18 -8 26 11 46 17 18 25 21 36 13 7 -6 13 -17 13 -23z m98 1 c19 -33 19
-33 -2 -60 l-22 -27 -17 35 c-16 33 -16 38 -1 60 9 14 18 25 19 25 2 0 12 -15
23 -33z m814 3 c75 -23 176 -85 205 -126 66 -93 103 -236 103 -398 0 -85 -2
-97 -15 -86 -9 7 -26 9 -45 5 -20 -5 -30 -3 -30 6 0 16 -31 38 -54 39 -11 0
-30 -9 -42 -21 -21 -20 -23 -20 -48 -4 -41 27 -96 -2 -96 -51 0 -27 -3 -28
-31 -14 -14 8 -27 7 -48 -5 -33 -17 -46 -45 -37 -81 5 -20 3 -24 -18 -24 -27
0 -66 -42 -66 -71 0 -9 7 -24 15 -33 19 -18 19 -26 0 -26 -8 0 -22 -11 -30
-24 -19 -29 -11 -70 16 -90 17 -11 17 -15 5 -25 -31 -26 -18 -91 20 -91 17 0
18 -12 2 -28 -8 -8 -9 -18 0 -36 10 -23 10 -24 -51 -28 -162 -12 -323 53 -387
157 -45 73 -87 307 -75 417 6 53 9 58 39 68 53 17 76 50 86 121 5 35 14 97 20
138 25 171 95 265 233 312 75 26 243 26 329 -1z m-717 -12 c-3 -13 -9 -33 -12
-45 -7 -29 -19 -29 -26 -2 -3 13 1 32 11 45 22 30 36 31 27 2z m-315 -23 c-13
-14 -26 -23 -28 -20 -7 7 29 45 41 45 6 0 0 -11 -13 -25z m45 -25 c6 -18 -29
-80 -46 -80 -18 0 -16 45 3 71 26 34 34 36 43 9z m125 -30 c5 -10 0 -24 -16
-44 -14 -15 -26 -27 -28 -25 -2 2 -10 17 -19 34 -14 27 -13 31 7 56 19 25 22
26 34 11 8 -10 17 -24 22 -32z m88 -27 c-21 -35 -35 -39 -43 -14 -4 13 1 30
12 45 16 21 20 23 33 10 13 -13 13 -17 -2 -41z m-287 -24 c9 -18 6 -26 -17
-50 -26 -27 -30 -28 -41 -13 -10 14 -7 22 15 50 15 19 28 34 29 34 1 0 7 -9
14 -21z m122 -11 c18 -31 18 -31 -9 -59 l-27 -29 -19 31 c-18 30 -18 31 4 59
13 16 25 29 28 29 3 1 13 -13 23 -31z m113 -2 c9 -19 7 -27 -13 -51 -13 -15
-25 -26 -27 -24 -22 27 -23 45 -3 71 27 33 29 34 43 4z m50 -33 c-10 -10 -19
5 -10 18 6 11 8 11 12 0 2 -7 1 -15 -2 -18z m-235 -45 c14 -32 14 -34 -12 -62
l-28 -29 -17 36 c-17 36 -17 37 6 62 13 14 26 25 30 25 3 0 13 -15 21 -32z
m219 -11 c0 -18 -7 -41 -15 -51 -16 -21 -17 -21 -34 12 -10 19 -9 27 11 51 28
34 38 31 38 -12z m-102 13 c13 -21 10 -30 -17 -62 -20 -23 -23 -23 -39 2 -11
18 -10 25 10 50 28 35 30 35 46 10z m-241 -27 c-17 -18 -22 -8 -11 22 5 12 10
13 17 6 8 -8 6 -16 -6 -28z m48 -53 c14 -28 14 -32 -2 -55 -23 -32 -26 -31
-45 8 -14 29 -14 34 1 54 21 30 28 28 46 -7z m221 -56 l-24 -36 -15 28 c-14
26 -13 30 12 61 l26 33 13 -25 c11 -22 10 -29 -12 -61z m-87 26 c0 -13 -53
-64 -56 -54 -2 6 -10 20 -18 30 -12 17 -11 22 13 47 l26 28 18 -23 c10 -13 18
-25 17 -28z m148 -12 c-3 -8 -6 -5 -6 6 -1 11 2 17 5 13 3 -3 4 -12 1 -19z
m-344 -36 c12 -26 12 -31 -5 -52 -10 -12 -20 -21 -21 -19 -4 5 4 99 8 99 2 0
10 -13 18 -28z m111 -7 c16 -24 15 -27 -5 -55 l-22 -30 -19 31 c-19 31 -19 32
3 55 12 13 23 24 25 24 1 0 9 -11 18 -25z m232 -21 c2 -18 -3 -38 -15 -53
l-19 -24 -16 32 c-16 30 -16 33 5 62 24 34 38 29 45 -17z m-115 12 c9 -20 7
-29 -12 -55 l-22 -31 -17 28 c-16 26 -16 28 4 55 24 33 33 34 47 3z m-183
-118 c-27 -39 -34 -41 -52 -13 -16 24 -16 27 10 61 l27 35 17 -28 c16 -27 16
-29 -2 -55z m122 12 c0 -16 -37 -58 -43 -49 -29 49 -29 51 -6 76 22 22 24 23
36 7 7 -10 13 -25 13 -34z m110 20 c11 -25 9 -33 -10 -60 l-22 -31 -19 31
c-19 30 -19 31 3 60 27 37 33 37 48 0z m88 -41 c17 -56 1 -71 -22 -20 -17 36
-16 61 2 61 4 0 13 -19 20 -41z m-268 -29 c11 -26 10 -32 -12 -59 l-25 -29
-17 29 c-17 28 -17 30 6 59 29 37 33 37 48 0z m120 -31 c6 -10 2 -24 -14 -44
l-23 -29 -17 32 c-16 31 -16 34 1 63 17 28 19 29 31 12 7 -10 17 -25 22 -34z
m108 16 c7 -14 12 -31 12 -38 -1 -13 -39 -62 -43 -56 -37 52 -39 59 -17 89 26
37 33 37 48 5z m-338 -10 c0 -8 -4 -15 -10 -15 -5 0 -10 7 -10 15 0 8 5 15 10
15 6 0 10 -7 10 -15z m1358 -7 c7 -7 12 -21 12 -33 0 -47 -62 -63 -81 -21 -22
47 33 90 69 54z m-948 -25 c0 -20 -3 -24 -11 -16 -7 7 -9 19 -6 27 10 24 17
19 17 -11z m821 17 c39 -21 16 -90 -30 -90 -36 0 -55 71 -23 89 22 13 29 13
53 1z m-1197 -49 c14 -27 14 -31 -5 -55 -11 -14 -25 -24 -30 -21 -13 9 -11 79
3 93 16 16 15 16 32 -17z m127 -4 c16 -32 16 -34 -7 -62 -13 -16 -25 -27 -27
-25 -1 3 -11 17 -20 33 -17 26 -17 28 5 57 12 17 24 30 27 30 3 0 13 -15 22
-33z m1299 14 c7 -15 6 -24 -6 -36 -31 -31 -82 6 -55 39 18 22 48 20 61 -3z
m-1187 -31 c17 -29 17 -31 0 -55 -23 -31 -25 -31 -46 5 -17 29 -17 31 0 55 23
31 25 31 46 -5z m107 18 c0 -6 7 -19 16 -29 15 -16 14 -21 -12 -54 l-28 -37
-18 37 c-19 36 -19 36 4 65 25 31 38 37 38 18z m740 -28 c24 -24 24 -29 4 -58
-17 -24 -53 -29 -72 -10 -19 19 -14 55 10 72 29 20 34 20 58 -4z m170 -1 c0
-5 -10 -9 -21 -9 -18 0 -19 2 -9 15 12 15 30 12 30 -6z m94 6 c4 -10 -1 -15
-16 -15 -17 0 -18 2 -8 15 7 8 14 15 15 15 2 0 5 -7 9 -15z m-195 -27 c9 -3 6
-9 -13 -21 l-26 -17 0 31 c0 24 3 29 13 22 6 -6 18 -12 26 -15z m279 -18 c-2
-6 -8 -6 -18 0 -13 9 -13 11 0 20 15 10 25 0 18 -20z m-50 0 c23 -10 42 -26
42 -35 0 -19 2 -19 -45 5 -80 41 -194 19 -263 -50 -85 -85 -93 -242 -17 -354
l25 -37 -22 3 c-30 4 -76 95 -84 164 -14 111 40 228 130 284 72 44 163 52 234
20z m-1330 -24 l20 -34 -24 -23 c-13 -12 -25 -21 -27 -18 -35 48 -38 59 -20
84 24 32 27 31 51 -9z m124 -3 c15 -27 15 -29 -7 -58 -13 -16 -26 -27 -28 -25
-34 46 -37 58 -16 84 26 33 31 32 51 -1z m110 -14 c17 -29 17 -32 0 -54 -22
-31 -24 -31 -44 6 -16 28 -16 32 -2 55 21 31 25 30 46 -7z m90 -41 c6 -54 -2
-60 -26 -23 -15 23 -15 27 0 50 9 14 18 24 19 23 1 -2 5 -24 7 -50z m843 23
c-3 -6 -11 -8 -17 -5 -6 4 -5 9 3 15 16 10 23 4 14 -10z m105 10 c0 -18 -18
-21 -30 -6 -10 13 -9 15 9 15 11 0 21 -4 21 -9z m-260 -22 c0 -15 -22 -21 -31
-8 -14 22 -11 28 11 22 11 -3 20 -9 20 -14z m215 2 c5 -18 -12 -61 -25 -61 -3
0 -11 9 -18 21 -11 18 -11 24 4 40 22 24 31 24 39 0z m-265 -11 c25 -47 -22
-94 -66 -65 -28 18 -31 41 -7 67 22 24 60 23 73 -2z m174 3 c4 -9 0 -23 -9
-32 -13 -14 -16 -13 -29 4 -12 17 -12 21 3 32 22 17 28 16 35 -4z m180 -8 c15
-23 15 -28 2 -46 -14 -21 -15 -21 -31 11 -13 24 -14 35 -4 46 15 18 14 18 33
-11z m42 -2 c-7 -7 -26 7 -26 19 0 6 6 6 15 -2 9 -7 13 -15 11 -17z m-1406
-44 c0 -27 -17 -23 -24 5 -3 13 -9 32 -12 43 -4 14 -1 13 15 -6 12 -13 21 -32
21 -42z m99 25 c14 -31 14 -29 -21 -38 -35 -8 -44 8 -21 39 23 31 27 31 42 -1z
m115 10 c8 -20 8 -19 -27 -28 l-29 -7 19 25 c21 30 29 32 37 10z m107 -17 c-1
-12 -15 -9 -19 4 -3 6 1 10 8 8 6 -3 11 -8 11 -12z m809 -18 c9 -17 8 -25 -6
-40 -17 -19 -19 -19 -31 -3 -10 13 -9 21 4 40 19 29 19 29 33 3z m90 1 c8 -14
7 -25 -2 -40 -16 -26 -22 -25 -36 4 -8 18 -7 27 6 40 20 20 19 20 32 -4z m102
-57 c-19 -30 -24 -29 -43 6 -16 27 -16 30 4 50 l21 20 16 -27 c15 -24 15 -30
2 -49z m88 23 c0 -31 -14 -40 -30 -21 -10 12 -10 18 0 30 18 22 30 18 30 -9z
m-1380 0 c0 -3 -4 -8 -10 -11 -5 -3 -10 -1 -10 4 0 6 5 11 10 11 6 0 10 -2 10
-4z m366 -56 c16 -70 48 -141 80 -179 l25 -30 -41 -37 c-50 -45 -76 -121 -65
-192 4 -26 11 -54 16 -64 12 -22 -33 -37 -138 -45 -181 -13 -323 48 -380 164
-22 46 -27 69 -27 137 -1 156 39 219 163 262 77 27 194 43 295 40 l59 -1 13
-55z m614 53 c0 -5 -4 -14 -9 -21 -7 -11 -9 -11 -14 1 -3 8 -3 18 0 21 9 8 23
7 23 -1z m170 -48 c0 -13 -20 -35 -32 -35 -4 0 -12 9 -18 21 -9 17 -8 25 6 40
17 19 19 19 31 3 7 -10 13 -23 13 -29z m-206 16 c32 -35 -12 -93 -54 -71 -42
22 -27 90 20 90 9 0 25 -9 34 -19z m296 -11 c10 -24 10 -33 -1 -46 -11 -14
-15 -13 -31 8 -21 27 -22 40 -6 56 18 18 24 15 38 -18z m100 -5 c12 -22 11
-27 -5 -45 l-18 -20 -15 21 c-12 17 -12 25 -2 45 17 30 23 30 40 -1z m-280 1
c0 -8 -4 -18 -10 -21 -5 -3 -10 3 -10 14 0 12 5 21 10 21 6 0 10 -6 10 -14z
m30 -46 c8 -15 7 -25 -3 -40 -14 -20 -14 -20 -29 2 -12 18 -13 27 -4 41 14 22
23 22 36 -3z m102 -9 c15 -28 15 -30 -3 -47 -18 -17 -20 -16 -34 2 -18 24 -18
29 -3 54 17 26 20 25 40 -9z m96 -11 c10 -16 10 -24 0 -40 -16 -25 -20 -25
-36 0 -9 15 -10 26 -2 40 13 25 22 25 38 0z m-322 -10 c0 -22 -4 -24 -26 -10
-13 9 -13 11 0 20 22 14 26 12 26 -10z m384 -10 c0 -5 -4 -10 -10 -10 -5 0
-10 5 -10 10 0 6 5 10 10 10 6 0 10 -4 10 -10z m-409 -20 c27 -15 24 -48 -6
-62 -41 -19 -75 28 -43 60 15 15 24 15 49 2z m197 -11 c13 -20 8 -59 -8 -59
-4 0 -15 12 -25 26 -13 20 -14 28 -4 40 15 19 22 18 37 -7z m101 -15 c12 -26
1 -54 -20 -54 -19 0 -30 39 -17 60 17 26 22 25 37 -6z m78 -21 c-5 -12 -14
-23 -18 -23 -15 0 -16 26 -1 48 19 29 35 9 19 -25z m-339 -32 c-15 -5 -21 7
-13 26 7 17 8 17 15 -2 4 -11 3 -22 -2 -24z m126 -23 c-9 -15 -21 -8 -32 17
-19 42 -13 52 13 21 13 -17 22 -33 19 -38z m82 17 c14 -21 14 -28 3 -41 -11
-14 -15 -13 -30 7 -13 18 -14 27 -6 41 15 23 13 23 33 -7z m94 -9 c0 -8 -7
-19 -16 -27 -23 -19 -39 9 -17 33 17 19 33 15 33 -6z m-306 -2 c23 -9 20 -51
-4 -64 -40 -22 -80 26 -48 58 13 13 28 15 52 6z m481 -33 c14 -28 14 -31 -8
-46 -12 -8 -39 -18 -59 -22 -21 -3 -38 -9 -38 -14 0 -16 44 -10 85 11 21 11
39 19 40 17 1 -1 5 -14 9 -29 8 -33 -9 -44 -82 -54 -29 -3 -52 -10 -52 -15 0
-13 27 -11 88 5 48 12 52 12 52 -4 0 -20 -34 -36 -98 -45 -24 -4 -40 -11 -35
-15 8 -8 80 1 117 16 16 6 17 4 11 -17 -10 -32 -19 -36 -88 -44 -32 -4 -55
-11 -50 -15 4 -4 29 -5 56 -1 48 8 65 -2 25 -15 -52 -16 -278 1 -316 25 -20
12 3 65 25 57 23 -9 81 12 93 35 8 13 7 25 -1 40 -9 19 -18 21 -64 17 -49 -4
-54 -2 -64 19 -6 13 -11 25 -11 27 0 2 32 4 72 5 111 3 225 37 259 77 15 19
16 18 34 -15z m-319 -19 c-22 -5 -30 3 -21 18 5 8 11 7 22 -2 15 -12 14 -13
-1 -16z m-447 -55 c36 -6 67 -11 68 -12 2 -1 -2 -15 -9 -31 -9 -26 -15 -29
-39 -26 -36 5 -79 -21 -79 -48 0 -28 43 -53 84 -48 25 3 37 -1 46 -15 6 -10
10 -20 8 -22 -2 -1 -32 -12 -68 -23 -89 -29 -200 -46 -214 -32 -7 7 -2 10 17
10 15 0 27 5 27 11 0 8 -13 9 -39 5 -31 -5 -44 -2 -62 15 l-24 20 29 -6 c33
-7 86 2 86 15 0 5 -26 10 -57 12 -57 3 -58 4 -61 34 l-3 31 55 -5 c38 -3 56
-1 56 7 0 6 -15 11 -32 11 -61 0 -79 10 -76 39 3 26 4 26 71 22 44 -2 67 1 67
8 0 6 -13 11 -29 11 -91 0 -107 22 -45 64 l34 23 61 -30 c34 -16 91 -34 128
-40z m541 64 c0 -5 -7 -11 -15 -15 -15 -5 -20 5 -8 17 9 10 23 9 23 -2z m-206
-10 c3 -5 -1 -11 -9 -15 -9 -3 -15 0 -15 9 0 16 16 20 24 6z m41 -75 c54 -81
7 -178 -98 -207 -54 -14 -101 -4 -142 32 -43 38 -59 89 -43 141 10 35 14 38
48 38 35 0 36 -1 32 -34 -7 -63 61 -98 117 -60 19 14 22 24 19 60 -3 43 1 49
39 53 7 0 20 -10 28 -23z m-87 -28 c3 -32 -1 -40 -22 -50 -39 -17 -76 3 -76
41 0 35 19 48 64 47 28 -1 31 -4 34 -38z m228 -12 c17 -13 17 -16 4 -30 -8 -8
-31 -16 -50 -18 -31 -3 -35 0 -38 24 -3 22 1 27 25 31 15 2 31 5 34 6 3 0 14
-5 25 -13z m-468 -58 c3 -27 1 -28 -38 -28 -28 0 -43 5 -47 16 -8 22 24 46 57
42 19 -2 26 -10 28 -30z"/>
<path d="M1153 1690 c-39 -5 -99 -19 -133 -30 -145 -49 -213 -126 -260 -291
-23 -83 -39 -259 -23 -259 6 0 13 42 16 93 22 314 183 466 492 467 86 0 218
-27 289 -59 146 -67 238 -242 262 -497 7 -76 -10 -294 -31 -392 -9 -45 -10
-62 -1 -59 28 9 61 316 50 467 -13 192 -75 362 -157 437 -46 41 -159 95 -232
111 -75 17 -191 21 -272 12z"/>
<path d="M1170 1459 c-80 -69 -280 -155 -280 -120 0 6 -4 11 -10 11 -5 0 -10
-6 -10 -14 0 -18 33 -29 62 -21 17 6 20 4 14 -10 -8 -21 16 -61 42 -69 10 -4
25 -18 32 -31 8 -14 24 -28 36 -31 12 -3 24 -14 27 -24 8 -30 54 -36 85 -13
20 15 27 29 27 55 0 19 5 41 11 49 20 26 23 46 9 67 -13 17 -12 22 5 37 27 24
26 70 -2 89 -17 12 -19 18 -9 30 29 35 3 31 -39 -5z m31 -39 c23 -13 24 -37 2
-62 -20 -22 -33 -23 -33 -3 0 9 -12 21 -26 27 l-25 12 23 18 c27 21 33 21 59
8z m-50 -71 c20 -38 -31 -81 -71 -59 -29 15 -23 60 9 76 28 14 48 9 62 -17z
m-112 -16 c-1 -10 2 -28 6 -40 13 -40 -64 -57 -79 -18 -11 31 1 44 71 74 1 1
2 -7 2 -16z m159 -46 c4 -33 -37 -58 -62 -38 -12 10 -10 16 13 40 31 34 45 34
49 -2z m-93 -33 c14 -14 14 -19 2 -38 -17 -25 -56 -28 -70 -5 -7 12 -5 21 9
37 23 25 38 27 59 6z m75 -70 c0 -8 -11 -21 -24 -29 -19 -13 -29 -14 -45 -5
-21 11 -21 11 6 45 25 32 29 33 45 18 10 -9 18 -22 18 -29z"/>
<path d="M494 531 c-77 -19 -131 -98 -119 -172 13 -77 83 -126 162 -115 59 8
97 36 118 88 32 81 -1 160 -82 194 -35 15 -34 15 -79 5z m81 -25 c64 -27 90
-100 61 -169 -20 -48 -50 -69 -103 -74 -85 -8 -148 53 -140 135 5 48 34 87 82
108 39 17 58 17 100 0z"/>
<path d="M471 476 c-48 -27 -66 -100 -35 -144 41 -59 114 -63 159 -10 43 51
32 124 -25 153 -35 18 -67 19 -99 1z m104 -31 c29 -28 31 -54 10 -94 -25 -50
-73 -55 -116 -12 -16 16 -29 39 -29 51 0 30 53 80 85 80 14 0 37 -11 50 -25z"/>
</g>
</svg>
