<?xml version="1.0" standalone="no"?>
<!DOCTYPE svg PUBLIC "-//W3C//DTD SVG 20010904//EN"
 "http://www.w3.org/TR/2001/REC-SVG-20010904/DTD/svg10.dtd">
<svg version="1.0" xmlns="http://www.w3.org/2000/svg"
 width="266.000000pt" height="300.000000pt" viewBox="0 0 266.000000 300.000000"
 preserveAspectRatio="xMidYMid meet">

<g transform="translate(0.000000,300.000000) scale(0.100000,-0.100000)"
fill="#000000" stroke="none">
<path d="M660 2974 c-209 -56 -363 -211 -428 -427 -19 -65 -30 -775 -14 -881
19 -117 69 -205 159 -275 l44 -35 -38 -18 c-116 -56 -186 -195 -163 -319 21
-110 76 -180 177 -226 51 -24 62 -25 211 -21 l158 3 76 38 c53 26 91 54 127
93 28 31 51 60 51 65 0 23 17 4 44 -46 67 -129 225 -188 369 -139 62 21 140
92 164 149 10 25 20 45 23 45 3 0 22 -22 42 -49 44 -59 142 -126 215 -147 42
-12 89 -15 206 -12 144 3 154 4 197 30 205 121 211 412 10 525 -46 26 -63 43
-41 43 20 0 109 92 135 140 53 98 56 122 56 550 0 444 -4 482 -67 608 -72 146
-227 270 -384 307 -94 22 -1246 21 -1329 -1z m1309 -59 c142 -34 283 -145 349
-275 59 -117 63 -167 60 -610 l-3 -395 -33 -67 c-36 -74 -95 -132 -170 -170
l-47 -23 -795 0 -795 0 -55 27 c-72 35 -136 99 -169 168 l-26 55 -3 422 c-3
453 0 489 50 587 69 135 200 240 350 280 81 22 1195 22 1287 1z m-1339 -1635
c101 -72 61 -226 -63 -247 -68 -11 -114 69 -64 114 12 11 35 23 50 27 22 5 28
12 25 29 -2 17 -11 23 -40 25 -30 3 -44 -3 -74 -31 -32 -29 -38 -41 -42 -89
-4 -52 -2 -58 30 -93 30 -33 41 -39 89 -42 146 -11 254 145 190 277 -12 24
-21 48 -21 52 0 5 71 7 158 6 l157 -3 -1 -86 c-1 -163 -74 -283 -212 -351 -64
-32 -72 -33 -203 -36 -118 -3 -143 -1 -180 15 -98 44 -149 119 -149 218 0 114
73 207 185 236 46 12 134 1 165 -21z m560 -116 c4 -111 9 -146 23 -167 37 -57
108 -80 169 -54 63 26 72 52 78 216 l5 146 46 3 46 3 7 -120 c10 -173 -9 -239
-84 -303 -118 -102 -301 -64 -366 76 -22 46 -24 64 -24 199 l0 148 48 -3 47
-3 5 -141z m758 139 c-61 -118 -56 -199 18 -277 81 -85 219 -72 258 26 26 64
3 134 -55 164 -38 19 -85 18 -93 -2 -8 -21 11 -44 35 -44 29 0 59 -36 59 -70
0 -37 -31 -70 -65 -70 -41 0 -99 36 -119 73 -14 25 -18 46 -13 83 15 137 215
167 332 49 98 -97 95 -245 -7 -342 -58 -55 -100 -65 -255 -61 -129 3 -142 5
-198 32 -131 65 -204 176 -213 328 -2 48 -2 94 1 102 5 14 30 16 163 16 85 0
154 -3 152 -7z"/>
<path d="M1048 2726 c-82 -22 -150 -78 -297 -241 -182 -203 -194 -226 -199
-398 -7 -206 27 -315 125 -408 122 -116 138 -119 663 -119 396 0 429 1 478 19
118 44 197 115 249 227 26 55 28 69 31 221 5 200 -6 272 -58 378 -51 102 -115
176 -208 237 -130 84 -165 91 -472 95 -196 2 -277 -1 -312 -11z m542 -57 c35
-5 66 -12 68 -13 1 -2 -5 -23 -15 -47 -27 -67 -23 -161 10 -225 63 -124 197
-180 330 -140 l46 14 7 -54 c3 -30 5 -114 2 -187 -3 -127 -5 -137 -36 -200
-34 -69 -87 -123 -154 -158 -21 -10 -39 -19 -41 -19 -3 0 -8 15 -11 34 -4 19
-18 51 -31 71 -14 20 -23 40 -20 45 14 23 22 104 13 145 -16 74 -93 125 -188
125 -45 0 -115 -32 -130 -59 -11 -22 -66 -54 -111 -64 -15 -4 -95 -7 -178 -8
l-152 -2 -33 37 c-39 41 -31 39 -156 40 l-95 1 -13 50 c-7 28 -16 95 -19 151
l-6 101 124 138 c135 151 197 202 268 221 58 16 430 18 521 3z m188 -66 c101
-59 237 -230 219 -276 -10 -27 -84 -41 -143 -28 -98 22 -164 105 -164 205 0
47 24 126 38 126 2 0 24 -12 50 -27z m-1136 -573 c2 -26 -1 -35 -14 -38 -15
-3 -18 4 -18 41 0 72 24 71 32 -3z m977 -40 c80 -23 99 -81 64 -190 l-17 -52
26 -20 c30 -21 56 -84 40 -100 -5 -5 -27 -8 -48 -6 -37 3 -39 4 -56 63 -17 54
-17 63 -3 97 25 62 20 102 -16 132 -48 41 -80 34 -155 -34 l-41 -38 -139 -6
c-76 -4 -163 -9 -192 -12 -51 -5 -53 -7 -50 -32 l3 -27 100 3 c55 1 146 5 202
8 l103 6 49 44 c77 69 103 58 75 -31 -16 -50 -16 -59 -2 -109 8 -31 13 -58 10
-61 -3 -3 -56 -5 -118 -5 l-113 0 -16 30 c-21 41 -55 61 -101 59 -22 -1 -57 6
-79 14 -84 34 -164 11 -198 -55 -22 -44 -38 -47 -111 -21 -93 33 -199 155
-208 239 -3 25 2 32 32 46 29 14 43 16 74 7 35 -10 69 -8 134 8 17 4 31 -4 57
-32 27 -31 44 -40 87 -47 51 -8 255 -3 328 8 45 7 128 52 141 77 11 19 62 46
89 47 8 0 30 -4 49 -10z m-468 -336 c17 -8 47 -14 66 -12 22 2 38 -2 40 -9 4
-10 -26 -13 -126 -13 -72 0 -131 3 -131 6 0 3 5 14 10 25 14 24 97 26 141 3z"/>
<path d="M1528 2599 c-21 -12 -24 -49 -6 -67 18 -18 56 -14 68 7 14 27 13 37
-6 55 -18 18 -32 20 -56 5z"/>
<path d="M1522 2388 c-19 -19 -14 -56 8 -68 43 -23 83 17 60 60 -12 22 -49 27
-68 8z"/>
<path d="M986 2357 c-198 -35 -209 -41 -186 -96 20 -50 47 -79 85 -91 74 -24
215 51 215 113 0 21 6 28 28 32 81 17 87 20 87 45 0 34 -17 34 -229 -3z m52
-69 c-7 -21 -80 -58 -114 -58 -31 0 -63 24 -50 37 5 6 118 29 154 32 8 0 12
-5 10 -11z"/>
<path d="M1593 2253 c-21 -8 -16 -61 7 -73 38 -21 80 22 60 61 -10 18 -40 24
-67 12z"/>
<path d="M1722 2184 c-38 -26 -22 -74 24 -74 45 0 58 50 19 76 -18 12 -24 11
-43 -2z"/>
<path d="M1902 2178 c-28 -28 -3 -72 39 -66 30 4 47 33 33 56 -14 21 -55 27
-72 10z"/>
<path d="M693 1904 c-23 -12 -33 -24 -33 -39 0 -30 22 -37 58 -20 26 13 35 13
83 -4 92 -31 126 -34 138 -13 15 29 1 40 -92 67 -102 29 -111 30 -154 9z"/>
<path d="M804 1780 c-62 -25 -32 -58 60 -67 67 -6 68 -6 57 15 -15 27 -60 62
-80 61 -9 0 -26 -4 -37 -9z"/>
<path d="M1403 1731 c-69 -32 -51 -61 38 -61 46 0 72 19 67 51 -4 32 -48 36
-105 10z"/>
<path d="M1210 581 c13 -26 13 -346 0 -372 -10 -18 -6 -19 130 -19 l140 0 0
48 -1 47 -17 -27 c-21 -35 -69 -58 -120 -58 -49 0 -52 6 -52 116 l0 84 48 0
c50 0 72 -11 90 -45 9 -16 11 -8 12 44 l0 65 -20 -22 c-17 -17 -32 -22 -75
-22 l-55 0 0 73 c0 43 5 78 12 85 28 28 126 1 146 -41 9 -19 11 -17 11 21 l1
42 -130 0 c-126 0 -130 -1 -120 -19z"/>
</g>
</svg>
