<?xml version="1.0" standalone="no"?>
<!DOCTYPE svg PUBLIC "-//W3C//DTD SVG 20010904//EN"
 "http://www.w3.org/TR/2001/REC-SVG-20010904/DTD/svg10.dtd">
<svg version="1.0" xmlns="http://www.w3.org/2000/svg"
 width="267.000000pt" height="300.000000pt" viewBox="0 0 267.000000 300.000000"
 preserveAspectRatio="xMidYMid meet">

<g transform="translate(0.000000,300.000000) scale(0.100000,-0.100000)"
fill="#000000" stroke="none">
<path d="M670 2984 c-211 -56 -375 -218 -436 -429 -15 -51 -18 -120 -22 -437
-4 -404 2 -480 42 -570 25 -58 99 -145 140 -167 34 -19 33 -25 -8 -39 -40 -15
-111 -83 -136 -133 -74 -143 -18 -327 123 -405 50 -28 59 -29 202 -32 133 -3
158 -1 214 18 93 31 180 98 234 179 l15 23 23 -51 c28 -66 102 -134 171 -157
67 -22 177 -15 235 14 55 29 114 89 137 141 11 22 22 41 26 41 4 0 13 -12 21
-26 22 -42 106 -111 177 -146 65 -32 69 -33 224 -36 149 -4 160 -3 211 21 72
33 121 78 152 142 71 143 22 312 -113 390 -28 17 -51 33 -52 36 0 4 17 18 38
33 49 33 104 107 134 176 23 54 23 61 26 466 3 467 0 504 -67 639 -67 135
-191 242 -344 298 -61 22 -68 22 -687 24 -521 2 -634 0 -680 -13z m1298 -59
c184 -44 333 -183 398 -375 17 -50 19 -91 19 -480 l0 -425 -29 -63 c-37 -81
-123 -162 -198 -189 -50 -17 -101 -18 -833 -18 l-780 0 -57 27 c-75 35 -138
94 -174 165 l-29 58 -3 419 c-3 461 -1 485 54 595 77 153 228 266 394 294 14
2 284 5 600 5 475 1 586 -1 638 -13z m-1364 -1629 c87 -36 111 -142 50 -216
-31 -36 -90 -55 -128 -40 -65 24 -55 111 15 130 31 9 39 15 39 34 0 30 -19 37
-62 25 -77 -21 -116 -106 -85 -181 49 -116 232 -96 297 33 27 51 26 132 0 182
-11 20 -20 39 -20 42 0 3 73 5 161 5 l162 0 -5 -98 c-4 -78 -10 -110 -31 -155
-36 -80 -113 -158 -190 -193 -55 -26 -75 -29 -187 -32 -71 -2 -143 1 -166 7
-176 47 -233 275 -101 401 66 63 175 88 251 56z m596 -136 c3 -86 10 -154 17
-166 33 -58 135 -78 190 -38 53 38 63 75 63 222 l0 132 50 0 50 0 0 -144 c0
-80 -5 -157 -11 -173 -19 -51 -62 -104 -105 -129 -127 -74 -292 -16 -343 122
-17 45 -21 78 -21 190 l0 135 53 -3 52 -3 5 -145z m750 140 c0 -6 -7 -21 -15
-34 -9 -13 -18 -46 -22 -74 -5 -43 -1 -60 22 -107 56 -115 192 -150 272 -70
29 29 33 39 33 86 0 68 -32 113 -92 129 -34 10 -43 9 -57 -4 -21 -22 -4 -50
32 -54 53 -6 76 -82 37 -117 -43 -39 -145 -6 -168 53 -23 56 -23 77 0 122 32
63 73 83 160 77 117 -7 204 -80 229 -191 24 -107 -37 -220 -143 -266 -46 -20
-64 -22 -187 -18 -122 3 -142 6 -191 29 -77 37 -141 97 -180 171 -32 58 -35
71 -38 171 l-4 107 156 0 c101 0 156 -4 156 -10z"/>
<path d="M1100 2744 c-120 -21 -155 -31 -224 -67 -146 -76 -260 -218 -301
-376 -22 -86 -31 -287 -16 -380 29 -183 158 -317 335 -350 75 -14 788 -15 871
-1 134 22 247 109 308 238 31 65 32 71 35 227 3 118 0 180 -12 235 -44 208
-197 380 -401 447 -76 25 -91 26 -325 29 -135 1 -256 0 -270 -2z m64 -117
c-17 -33 -29 -75 -32 -114 -2 -35 -8 -63 -11 -63 -4 0 -24 17 -45 39 -45 46
-60 98 -43 150 12 36 13 36 77 41 36 3 68 4 72 2 4 -2 -4 -26 -18 -55z m187
54 c3 -1 -8 -29 -25 -62 -26 -54 -30 -72 -30 -145 l0 -84 -35 6 c-64 12 -71
19 -71 77 1 62 18 113 55 167 31 44 45 50 106 41z m277 -31 c20 -39 9 -106
-25 -148 -32 -41 -136 -97 -195 -105 -44 -7 -50 5 -49 88 0 57 17 107 52 156
28 40 44 45 131 39 65 -4 74 -8 86 -30z m-666 -38 c-16 -109 104 -237 257
-272 85 -20 225 -9 296 24 123 56 175 118 184 221 l6 63 54 -26 c116 -57 222
-184 264 -317 19 -61 22 -92 22 -240 0 -163 -1 -172 -27 -227 -25 -54 -101
-148 -119 -148 -5 0 -10 66 -11 148 l-3 147 -25 0 -25 0 -3 -165 c-3 -164 -6
-179 -39 -180 -10 0 -13 44 -13 186 0 184 -6 224 -35 224 -29 0 -35 -40 -35
-229 l0 -191 -60 0 -60 0 0 163 c0 113 -4 167 -12 175 -16 16 -23 15 -42 -4
-13 -13 -16 -43 -16 -175 l0 -159 -35 0 -35 0 0 169 c0 147 -2 170 -16 175
-38 15 -44 -9 -44 -180 l0 -164 -55 0 -55 0 0 164 c0 171 -6 195 -44 180 -14
-5 -16 -28 -16 -175 l0 -169 -25 0 -25 0 0 165 c0 152 -1 165 -19 175 -15 7
-23 6 -35 -6 -13 -13 -16 -43 -16 -175 l0 -159 -75 0 -75 0 0 205 c0 174 -2
207 -15 211 -8 4 -22 1 -30 -6 -12 -10 -15 -47 -15 -206 0 -178 -1 -194 -17
-194 -40 0 -42 11 -45 180 -3 162 -3 165 -25 168 -29 4 -33 -12 -36 -173 l-2
-130 -43 43 c-23 24 -54 66 -69 95 -26 50 -28 60 -31 219 -2 101 1 189 8 223
28 136 141 286 265 352 33 17 62 30 66 28 3 -2 4 -17 1 -33z"/>
<path d="M802 2524 c-41 -29 -19 -96 31 -96 36 0 57 19 57 53 0 27 -30 59 -55
59 -6 0 -21 -7 -33 -16z"/>
<path d="M1787 2522 c-20 -22 -22 -63 -5 -80 17 -17 64 -15 82 4 22 21 20 50
-4 74 -25 25 -52 26 -73 2z"/>
<path d="M927 2382 c-34 -37 -11 -92 38 -92 50 0 73 60 37 93 -24 22 -55 21
-75 -1z"/>
<path d="M1667 2382 c-36 -39 -10 -92 43 -92 47 0 68 61 32 93 -24 22 -55 21
-75 -1z"/>
<path d="M1102 2314 c-42 -29 -16 -104 35 -104 19 0 53 37 53 58 0 44 -52 72
-88 46z"/>
<path d="M1492 2314 c-42 -29 -16 -104 35 -104 19 0 53 37 53 58 0 44 -52 72
-88 46z"/>
<path d="M1290 2280 c-11 -11 -20 -28 -20 -38 0 -41 69 -69 98 -40 20 20 15
76 -7 88 -29 15 -49 12 -71 -10z"/>
<path d="M675 600 c3 -5 12 -10 20 -10 7 0 16 -7 19 -16 9 -22 7 -347 -2 -360
-4 -7 -16 -14 -27 -17 -11 -2 21 -5 70 -5 50 0 81 3 70 5 -11 3 -23 10 -27 17
-9 13 -11 338 -2 360 3 9 15 16 25 16 10 0 19 5 19 10 0 6 -35 10 -86 10 -54
0 -83 -4 -79 -10z"/>
<path d="M931 431 c-26 -14 -30 -19 -17 -24 25 -10 24 -192 -1 -206 -14 -8 -2
-10 47 -11 37 0 60 4 52 8 -9 6 -12 34 -10 102 l3 94 34 10 c30 8 36 7 52 -13
25 -31 27 -161 3 -185 -14 -15 -10 -16 46 -16 56 0 60 1 46 16 -12 11 -16 36
-16 94 0 70 2 81 22 94 30 21 54 20 78 -4 16 -16 20 -33 20 -94 0 -54 -4 -79
-16 -90 -14 -15 -10 -16 48 -16 48 1 59 3 46 11 -15 8 -18 25 -18 109 0 88 -2
102 -21 121 -17 17 -30 20 -66 16 -27 -3 -54 -13 -66 -25 l-21 -21 -22 24
c-29 31 -76 33 -122 5 -40 -24 -38 -24 -45 0 -6 24 -12 24 -56 1z"/>
<path d="M1490 428 c-76 -51 -87 -139 -25 -206 26 -28 40 -35 81 -39 104 -10
168 48 161 145 -3 43 -10 59 -35 85 -26 26 -40 31 -89 35 -48 3 -64 0 -93 -20z
m102 -7 c58 -46 63 -208 7 -226 -28 -9 -68 20 -85 60 -22 52 -18 141 6 165 25
25 41 25 72 1z"/>
<path d="M1740 444 c0 -3 11 -15 24 -25 13 -10 38 -41 56 -69 l33 -51 -30 -37
c-16 -20 -45 -45 -64 -54 l-34 -17 63 -1 c58 0 62 1 48 16 -15 14 -15 18 1 45
10 16 21 29 24 29 15 0 51 -61 45 -75 -4 -12 7 -15 62 -15 62 1 65 2 42 14
-14 8 -44 41 -68 75 l-42 61 37 41 c20 23 49 46 63 52 23 11 19 12 -34 15 -66
3 -78 -2 -51 -22 18 -13 18 -15 2 -40 -10 -14 -21 -26 -25 -26 -16 1 -43 51
-37 70 6 18 2 20 -54 20 -34 0 -61 -3 -61 -6z"/>
</g>
</svg>
