<?xml version="1.0" standalone="no"?>
<!DOCTYPE svg PUBLIC "-//W3C//DTD SVG 20010904//EN"
 "http://www.w3.org/TR/2001/REC-SVG-20010904/DTD/svg10.dtd">
<svg version="1.0" xmlns="http://www.w3.org/2000/svg"
 width="232.000000pt" height="300.000000pt" viewBox="0 0 232.000000 300.000000"
 preserveAspectRatio="xMidYMid meet">

<g transform="translate(0.000000,300.000000) scale(0.100000,-0.100000)"
fill="#000000" stroke="none">
<path d="M1001 2790 c-238 -16 -363 -63 -481 -179 -126 -125 -194 -278 -211
-476 -14 -171 -11 -429 6 -510 18 -85 65 -184 113 -237 30 -33 34 -42 24 -56
-35 -50 -73 -122 -83 -156 -26 -94 21 -185 126 -242 156 -85 319 -81 404 10
24 26 25 26 45 7 12 -11 48 -32 81 -48 52 -24 72 -28 150 -27 80 0 100 4 183
38 l92 37 28 -19 c48 -34 99 -45 192 -40 162 8 259 83 268 207 5 74 -8 116
-64 197 l-44 65 29 24 c74 63 127 191 156 376 22 146 32 577 15 659 -30 143
-138 256 -296 310 -138 48 -484 76 -733 60z m577 -114 c206 -37 310 -111 357
-256 16 -48 17 -80 12 -295 -12 -452 -64 -638 -197 -704 -86 -43 -276 -83
-480 -101 -188 -16 -516 -13 -581 6 -150 45 -250 157 -284 321 -28 133 -13
538 24 646 81 234 239 369 464 397 118 14 577 5 685 -14z m202 -1403 c68 -84
87 -161 51 -219 -28 -46 -82 -68 -176 -72 -67 -2 -85 0 -113 18 -38 24 -62 73
-62 127 l0 38 22 -44 c35 -70 111 -96 213 -70 64 16 95 48 95 98 0 37 -19 71
-40 71 -4 0 -18 -9 -31 -19 -21 -17 -27 -18 -51 -5 -16 8 -28 22 -28 30 0 16
66 84 81 84 4 0 21 -17 39 -37z m-1127 -32 l49 -17 -36 -32 c-20 -18 -46 -32
-58 -32 -17 0 -20 4 -15 29 6 29 -7 51 -30 51 -8 0 -23 -21 -33 -46 -44 -103
-13 -157 88 -156 58 1 141 26 188 57 13 8 38 34 54 57 l30 41 0 -35 c0 -92
-62 -180 -137 -194 -79 -15 -234 41 -277 99 -37 50 -22 122 39 196 26 30 27
31 58 15 17 -9 53 -24 80 -33z m736 -83 c1 -46 2 -94 3 -108 3 -21 -5 -27 -72
-53 -129 -51 -262 -37 -327 34 -19 22 -21 31 -15 104 6 71 9 80 27 80 15 0 21
-10 28 -40 14 -70 57 -105 130 -105 97 0 154 47 144 120 -5 41 -1 45 59 49 21
1 22 -4 23 -81z m-145 46 c19 -51 -5 -74 -78 -74 -49 0 -76 24 -76 67 0 22 4
23 74 23 58 0 75 -3 80 -16z m356 -35 c30 -19 70 -41 87 -48 46 -19 32 -31
-36 -31 -70 0 -105 23 -121 78 -13 48 -13 55 3 45 6 -4 37 -24 67 -44z"/>
<path d="M1017 2510 c-139 -11 -195 -25 -251 -62 -127 -84 -185 -256 -172
-513 8 -181 51 -306 124 -363 55 -44 159 -98 222 -116 192 -55 432 -28 638 70
85 41 130 93 159 189 38 125 14 425 -47 589 -38 100 -123 173 -225 194 -73 15
-323 22 -448 12z m315 -90 c220 -16 260 -54 308 -289 53 -264 27 -448 -73
-510 -18 -11 -82 -37 -143 -58 -108 -37 -111 -38 -264 -38 -145 0 -159 2 -223
27 -204 82 -253 168 -251 448 1 157 13 217 59 296 50 85 105 110 275 123 147
12 169 12 312 1z"/>
<path d="M1015 2131 c-84 -6 -118 -19 -135 -51 -13 -24 -13 -71 0 -105 12 -31
79 -64 132 -65 53 0 70 -21 68 -89 -3 -116 -1 -131 25 -156 18 -19 35 -25 68
-25 64 0 71 13 77 143 l5 111 33 19 c19 12 60 21 100 25 37 2 79 11 94 19 68
34 35 149 -50 173 -38 10 -278 11 -417 1z m429 -76 c29 -38 16 -50 -61 -56
-40 -4 -91 -16 -115 -28 -65 -31 -78 -61 -78 -176 0 -94 0 -96 -22 -93 -22 3
-23 9 -28 103 -6 100 -18 138 -50 151 -8 3 -41 10 -73 14 -32 5 -65 14 -73 21
-18 14 -18 53 -1 67 16 14 109 19 319 18 155 -1 168 -2 182 -21z"/>
<path d="M927 604 c-4 -4 -7 -76 -7 -161 l0 -153 35 0 36 0 -3 158 -3 157 -25
3 c-14 2 -29 0 -33 -4z"/>
<path d="M1260 568 c-17 -66 -20 -74 -28 -62 -10 15 -126 26 -157 14 -37 -14
-65 -67 -65 -122 0 -39 6 -54 29 -80 26 -29 35 -33 79 -32 48 0 49 0 50 -30 0
-17 0 -37 1 -43 1 -8 14 -13 31 -13 l30 0 0 135 0 136 31 6 c31 6 48 31 70
106 7 26 6 27 -26 27 -32 0 -35 -3 -45 -42z m-111 -107 c17 -11 19 -85 2 -105
-32 -38 -71 -11 -71 49 0 57 29 81 69 56z"/>
</g>
</svg>
