<?xml version="1.0" standalone="no"?>
<!DOCTYPE svg PUBLIC "-//W3C//DTD SVG 20010904//EN"
 "http://www.w3.org/TR/2001/REC-SVG-20010904/DTD/svg10.dtd">
<svg version="1.0" xmlns="http://www.w3.org/2000/svg"
 width="85.000000pt" height="175.000000pt" viewBox="0 0 85.000000 175.000000"
 preserveAspectRatio="xMidYMid meet">
<metadata>
Created by potrace 1.10, written by Peter Selinger 2001-2011
</metadata>
<g transform="translate(0.000000,175.000000) scale(0.100000,-0.100000)"
fill="#000000" stroke="none">
<path d="M576 1510 c-53 -27 -78 -52 -109 -108 -52 -97 -44 -214 19 -277 l33
-33 -25 -23 c-38 -36 -59 -119 -58 -231 1 -105 17 -145 71 -188 l26 -20 -25
-28 c-41 -43 -58 -87 -58 -147 0 -90 36 -154 103 -183 15 -7 57 -12 93 -12 62
0 67 2 100 36 19 20 34 39 34 41 0 2 12 22 26 44 33 53 27 105 -13 115 -15 4
-33 2 -42 -5 -29 -21 -44 -24 -60 -14 -35 22 -20 83 20 83 15 0 19 7 19 33 0
33 -19 59 -50 70 -11 3 -7 8 12 15 24 10 45 45 40 65 -1 4 -5 78 -8 164 -4
132 -7 158 -22 170 -16 13 -15 15 6 29 12 9 22 23 22 30 0 8 5 14 10 14 17 0
11 28 -11 49 -12 11 -34 19 -50 19 -39 -1 -44 5 -42 54 2 44 34 88 63 88 9 0
26 -11 38 -25 25 -29 57 -33 70 -7 13 24 24 102 14 102 -4 0 -12 10 -17 22 -6
12 -28 35 -50 50 -50 34 -120 37 -179 8z m149 -43 c22 -12 41 -30 43 -40 3
-16 1 -16 -30 2 -41 23 -95 18 -130 -12 -36 -31 -78 -120 -78 -164 0 -67 42
-113 103 -113 23 0 36 -4 32 -10 -3 -5 -29 -10 -57 -10 -45 0 -54 4 -84 36
-27 28 -34 44 -35 77 -4 126 32 200 116 238 52 24 72 23 120 -4z m1 -63 c19
-9 34 -21 34 -27 0 -7 -4 -7 -12 1 -19 19 -73 14 -102 -9 -76 -60 -71 -165 9
-185 30 -7 23 -24 -10 -24 -31 0 -85 46 -85 73 0 35 55 142 85 165 33 26 37
27 81 6z m56 -56 c-7 -7 -12 -8 -12 -2 0 14 12 26 19 19 2 -3 -1 -11 -7 -17z
m-80 -200 c-7 -7 -12 -8 -12 -2 0 14 12 26 19 19 2 -3 -1 -11 -7 -17z m-147
-68 c-3 -5 -11 -10 -16 -10 -6 0 -7 5 -4 10 3 6 11 10 16 10 6 0 7 -4 4 -10z
m90 -22 c14 -6 25 -16 26 -22 0 -6 2 -77 4 -158 l3 -147 -33 -25 c-38 -29 -55
-32 -88 -13 -54 30 -70 98 -51 225 7 53 14 100 14 104 0 9 70 47 87 48 7 0 24
-5 38 -12z m-168 -130 c-3 -7 -5 -2 -5 12 0 14 2 19 5 13 2 -7 2 -19 0 -25z
m-10 -75 c-3 -10 -5 -2 -5 17 0 19 2 27 5 18 2 -10 2 -26 0 -35z m35 -152 c7
-9 3 -6 -9 7 -13 13 -23 33 -22 45 1 18 2 17 9 -7 5 -15 15 -36 22 -45z m82
-63 c-5 -8 -34 -11 -34 -4 0 2 -3 11 -6 20 -5 13 -2 13 19 3 14 -6 23 -15 21
-19z m82 -17 c-3 -4 -19 -11 -35 -14 -39 -8 -85 -75 -85 -123 0 -25 9 -43 33
-68 39 -41 86 -51 143 -30 23 8 43 13 45 11 7 -8 -77 -77 -102 -83 -25 -6 -96
16 -123 39 -24 20 -44 70 -44 109 1 62 59 140 118 158 39 11 56 12 50 1z m10
-36 c-58 -31 -71 -73 -35 -119 16 -21 29 -26 63 -26 23 0 47 5 54 12 9 9 12 9
12 0 0 -17 -58 -44 -96 -45 -38 -1 -83 27 -95 59 -17 49 49 133 106 134 16 0
14 -3 -9 -15z m116 -167 c-7 -7 -12 -8 -12 -2 0 14 12 26 19 19 2 -3 -1 -11
-7 -17z"/>
</g>
</svg>
