<?xml version="1.0" standalone="no"?>
<!DOCTYPE svg PUBLIC "-//W3C//DTD SVG 20010904//EN"
 "http://www.w3.org/TR/2001/REC-SVG-20010904/DTD/svg10.dtd">
<svg version="1.0" xmlns="http://www.w3.org/2000/svg"
 width="232.000000pt" height="300.000000pt" viewBox="0 0 232.000000 300.000000"
 preserveAspectRatio="xMidYMid meet">

<g transform="translate(0.000000,300.000000) scale(0.100000,-0.100000)"
fill="#000000" stroke="none">
<path d="M975 2719 c-151 -12 -203 -24 -294 -70 -176 -88 -309 -301 -342 -547
-14 -103 -6 -519 10 -573 6 -20 24 -55 40 -79 l28 -42 -41 -37 c-82 -73 -116
-133 -116 -208 0 -122 95 -179 340 -204 142 -14 209 -14 254 1 37 12 90 64
101 99 10 32 27 26 95 -35 71 -63 94 -74 156 -74 56 0 110 22 150 61 l31 30
38 -26 c63 -42 137 -59 260 -60 95 0 116 3 157 23 122 60 166 173 119 307 -11
30 -29 67 -40 83 l-20 29 40 39 c53 51 85 106 103 179 23 90 38 458 26 652
-11 183 -28 243 -86 311 -42 50 -154 108 -234 122 -162 28 -536 37 -775 19z
m730 -98 c89 -14 187 -61 222 -107 41 -55 54 -121 60 -329 7 -238 -9 -511 -34
-579 -23 -63 -83 -131 -143 -161 -82 -42 -153 -47 -666 -46 -564 1 -598 5
-665 78 -53 57 -54 60 -57 345 -3 244 -2 275 17 350 45 178 149 333 268 395
70 37 119 51 221 63 104 11 690 5 777 -9z m-1125 -1292 c19 -5 49 -9 67 -9 29
0 33 -4 44 -39 16 -55 5 -88 -35 -108 -47 -22 -83 -11 -91 28 -5 24 -11 29
-28 27 -18 -2 -22 -9 -20 -36 2 -54 36 -82 98 -82 97 0 159 74 137 162 -5 20
-7 40 -4 43 3 3 32 5 64 5 54 0 59 -2 70 -27 21 -47 16 -163 -8 -203 -34 -60
-59 -65 -217 -51 -212 19 -290 45 -311 104 -12 34 8 80 59 136 45 49 90 73
120 64 11 -3 36 -10 55 -14z m1264 -4 c28 -30 46 -88 46 -148 0 -82 -59 -130
-175 -141 l-60 -5 62 14 c76 18 107 37 124 77 24 58 8 131 -32 143 -28 9 -74
-17 -77 -43 -2 -12 -14 -30 -28 -38 -22 -15 -26 -15 -48 -1 -29 19 -50 78 -42
113 6 21 12 24 54 25 26 0 67 6 92 13 25 8 49 14 53 15 4 0 18 -10 31 -24z
m-772 -49 c-11 -92 83 -147 165 -96 36 22 63 66 63 105 0 14 6 25 13 25 9 0
12 -28 12 -104 0 -96 -2 -106 -24 -130 -29 -31 -83 -50 -117 -42 -13 4 -50 29
-80 57 -31 28 -71 57 -89 64 -28 12 -32 19 -33 54 -1 21 -6 51 -12 66 -5 14
-10 28 -10 31 0 2 26 4 58 4 l58 0 -4 -34z m168 4 c0 -36 -36 -63 -77 -58 -25
3 -28 7 -31 46 l-3 42 55 0 c55 0 56 0 56 -30z m229 -27 c-1 -111 48 -175 156
-204 21 -6 14 -7 -23 -3 -108 10 -171 54 -192 134 -12 44 -5 86 18 113 29 33
42 21 41 -40z m91 12 c0 -119 109 -187 189 -119 17 14 31 32 31 40 0 8 5 14
10 14 17 0 11 -49 -9 -69 -42 -42 -158 -39 -210 5 -37 31 -55 82 -46 134 10
58 35 54 35 -5z"/>
<path d="M1398 2510 l-88 -41 -82 20 c-102 26 -121 26 -255 0 -125 -24 -167
-40 -207 -77 -47 -45 -167 -219 -187 -272 -27 -71 -25 -146 6 -204 14 -26 25
-52 25 -58 0 -6 -18 -30 -40 -54 -34 -38 -40 -50 -40 -89 0 -56 27 -111 83
-172 101 -110 303 -155 594 -133 188 14 262 32 369 85 151 76 227 169 256 311
16 80 16 393 -1 469 -32 149 -133 236 -291 251 -49 4 -64 1 -142 -36z m228
-68 c45 -23 95 -74 117 -117 44 -89 49 -275 7 -275 -4 0 -32 20 -61 45 -70 59
-102 68 -211 53 -75 -10 -90 -9 -110 4 -44 29 -74 187 -44 232 48 75 210 105
302 58z m-426 -25 c93 -38 118 -103 89 -236 -15 -70 -46 -94 -115 -89 -44 4
-59 11 -105 52 -30 25 -70 51 -90 58 -34 10 -44 7 -113 -26 -82 -39 -140 -47
-150 -20 -31 81 33 177 164 244 66 34 86 38 180 39 66 0 97 -5 140 -22z m-204
-257 c72 -35 83 -109 25 -164 -40 -38 -97 -45 -133 -16 -61 47 -53 163 12 189
37 14 49 13 96 -9z m-296 -33 c8 -7 42 -43 75 -81 63 -73 116 -105 173 -106
41 0 65 12 119 61 41 37 46 39 111 39 60 0 79 5 151 40 132 66 228 64 309 -6
86 -73 114 -234 60 -339 -45 -85 -146 -165 -211 -165 -60 0 -167 85 -167 132
0 27 20 33 106 33 72 0 84 3 116 27 76 58 117 208 60 216 -38 6 -69 -24 -107
-101 -38 -80 -69 -117 -85 -101 -6 6 -21 37 -33 70 -21 52 -27 60 -59 68 -47
12 -75 3 -134 -38 -133 -95 -226 -126 -373 -126 -118 0 -128 9 -72 60 42 39
43 42 38 88 -4 40 -12 53 -47 85 -50 43 -58 45 -69 15 -9 -23 -9 -22 -21 7 -6
17 -9 47 -5 70 9 61 32 79 65 52z m638 -257 c23 -22 36 -57 30 -87 -2 -13 -14
-19 -40 -21 -28 -2 -37 -8 -42 -26 -7 -27 6 -77 28 -108 21 -30 20 -60 -4 -85
-34 -37 -86 -48 -230 -48 -125 1 -142 3 -235 34 -111 36 -179 72 -195 100 -8
16 -5 20 28 26 20 4 127 10 236 14 220 7 207 2 226 78 18 71 94 143 151 143
14 0 35 -9 47 -20z"/>
<path d="M1445 2058 c-51 -27 -63 -90 -21 -109 49 -23 106 11 106 60 0 43 -47
70 -85 49z"/>
<path d="M1540 1738 c-52 -56 12 -135 76 -93 32 21 33 77 2 99 -31 22 -54 20
-78 -6z"/>
<path d="M780 520 l0 -150 30 0 c30 0 30 1 30 54 0 30 4 57 8 60 5 3 26 -20
48 -52 l39 -57 118 -1 117 -2 0 88 c0 105 -13 128 -77 137 -53 7 -94 -16 -86
-46 4 -18 11 -20 49 -14 53 7 61 -12 9 -21 -40 -8 -75 -47 -75 -85 0 -22 -7
-15 -45 42 l-46 68 29 37 c17 20 39 46 51 56 30 27 26 36 -16 36 -33 -1 -42
-7 -72 -45 -18 -25 -37 -45 -42 -45 -5 0 -9 20 -9 45 0 43 -1 45 -30 45 l-30
0 0 -150z m328 -66 c-5 -25 -35 -41 -49 -27 -9 9 -9 16 1 28 17 21 52 20 48
-1z"/>
<path d="M1223 592 c-22 -3 -23 -7 -23 -113 l0 -109 30 0 30 0 0 68 c0 74 16
110 43 99 13 -5 17 -24 19 -84 l3 -78 32 -3 32 -3 3 83 c3 72 5 83 22 86 28 6
36 -15 36 -95 l0 -73 30 0 30 0 0 80 c0 126 -36 170 -116 141 -24 -9 -39 -9
-53 -2 -18 10 -62 11 -118 3z"/>
<path d="M1584 589 c-32 -16 -54 -62 -54 -114 0 -38 5 -52 29 -76 24 -24 38
-29 76 -29 60 0 85 13 78 41 -5 18 -11 19 -44 14 -37 -6 -79 7 -79 25 0 5 30
10 68 12 60 3 67 5 70 25 2 12 -4 38 -13 56 -24 51 -80 70 -131 46z m60 -45
c26 -10 18 -24 -14 -24 -30 0 -41 14 -17 23 6 3 13 6 14 6 1 1 8 -2 17 -5z"/>
</g>
</svg>
