<?xml version="1.0" standalone="no"?>
<!DOCTYPE svg PUBLIC "-//W3C//DTD SVG 20010904//EN"
 "http://www.w3.org/TR/2001/REC-SVG-20010904/DTD/svg10.dtd">
<svg version="1.0" xmlns="http://www.w3.org/2000/svg"
 width="267.000000pt" height="300.000000pt" viewBox="0 0 267.000000 300.000000"
 preserveAspectRatio="xMidYMid meet">

<g transform="translate(0.000000,300.000000) scale(0.100000,-0.100000)"
fill="#000000" stroke="none">
<path d="M670 2984 c-211 -56 -375 -218 -436 -429 -15 -51 -18 -120 -22 -437
-4 -404 2 -480 42 -570 25 -58 99 -145 140 -167 33 -18 33 -27 0 -35 -34 -9
-121 -91 -144 -136 -74 -145 -18 -328 123 -406 50 -28 59 -29 202 -32 133 -3
158 -1 214 18 93 31 180 98 234 179 l15 23 23 -51 c28 -66 102 -134 171 -157
67 -22 177 -15 235 14 55 29 114 89 137 141 11 22 22 41 26 41 4 0 13 -12 21
-26 22 -42 106 -111 177 -146 65 -32 69 -33 224 -36 149 -4 160 -3 211 21 72
33 121 78 152 142 71 143 22 312 -113 390 -28 17 -51 33 -52 36 0 4 17 18 38
33 49 33 104 107 134 176 23 54 23 61 26 466 3 467 0 504 -67 639 -67 135
-191 242 -344 298 -61 22 -68 22 -687 24 -521 2 -634 0 -680 -13z m1298 -59
c184 -44 333 -183 398 -375 17 -50 19 -91 19 -480 l0 -425 -29 -63 c-37 -81
-123 -162 -198 -189 -50 -17 -101 -18 -833 -18 l-780 0 -57 27 c-75 35 -138
94 -174 165 l-29 58 -3 419 c-3 461 -1 485 54 595 77 153 228 266 394 294 14
2 284 5 600 5 475 1 586 -1 638 -13z m-1364 -1629 c87 -36 111 -142 50 -216
-31 -36 -90 -55 -128 -40 -65 24 -55 111 15 130 31 9 39 15 39 34 0 30 -19 37
-62 25 -77 -21 -116 -106 -85 -181 49 -116 232 -96 297 33 27 51 26 132 0 182
-11 20 -20 39 -20 42 0 3 73 5 161 5 l162 0 -5 -98 c-4 -78 -10 -110 -31 -155
-36 -80 -113 -158 -190 -193 -55 -26 -75 -29 -187 -32 -71 -2 -143 1 -166 7
-135 36 -213 200 -155 326 24 52 86 111 136 129 51 19 127 20 169 2z m596
-136 c3 -86 10 -154 17 -166 33 -58 135 -78 190 -38 53 38 63 75 63 222 l0
132 50 0 50 0 0 -144 c0 -80 -5 -157 -11 -173 -19 -51 -62 -104 -105 -129
-127 -74 -292 -16 -343 122 -17 45 -21 78 -21 190 l0 135 53 -3 52 -3 5 -145z
m750 140 c0 -6 -7 -21 -15 -34 -9 -13 -18 -46 -22 -74 -5 -43 -1 -60 22 -107
56 -115 192 -150 272 -70 29 29 33 39 33 86 0 68 -32 113 -92 129 -34 10 -43
9 -57 -4 -21 -22 -4 -50 32 -54 53 -6 76 -82 37 -117 -43 -39 -145 -6 -168 53
-23 56 -23 77 0 122 32 63 73 83 160 77 117 -7 204 -80 229 -191 24 -107 -37
-220 -143 -266 -46 -20 -64 -22 -187 -18 -122 3 -142 6 -191 29 -77 37 -141
97 -180 171 -32 58 -35 71 -38 171 l-4 107 156 0 c101 0 156 -4 156 -10z"/>
<path d="M1100 2744 c-120 -21 -155 -31 -224 -67 -144 -75 -258 -216 -300
-372 -22 -82 -32 -291 -17 -384 29 -182 158 -317 335 -350 76 -14 803 -15 877
-1 132 25 243 112 302 238 31 65 32 71 35 227 3 118 0 180 -12 235 -44 208
-197 380 -401 447 -76 25 -91 26 -325 29 -135 1 -256 0 -270 -2z m64 -117
c-17 -33 -29 -75 -32 -114 -2 -35 -8 -63 -11 -63 -4 0 -24 17 -45 39 -45 46
-60 98 -43 150 12 36 13 36 77 41 36 3 68 4 72 2 4 -2 -4 -26 -18 -55z m187
54 c3 -1 -8 -29 -25 -62 -26 -54 -30 -72 -30 -145 l0 -84 -35 6 c-64 12 -71
19 -71 77 1 62 18 113 55 167 31 44 45 50 106 41z m277 -31 c20 -39 9 -106
-25 -148 -32 -41 -136 -97 -195 -105 -44 -7 -50 5 -49 88 0 57 17 107 52 156
28 40 44 45 131 39 65 -4 74 -8 86 -30z m-666 -38 c-11 -78 57 -181 155 -234
105 -57 290 -64 399 -14 122 56 174 119 183 221 l6 63 54 -26 c114 -56 222
-185 261 -310 11 -35 23 -102 26 -147 l7 -83 -139 -4 c-150 -4 -182 -14 -253
-74 -32 -27 -81 -110 -81 -139 0 -13 -31 -15 -243 -15 l-243 0 -23 54 c-25 61
-90 128 -149 154 -25 11 -78 17 -169 20 l-133 4 0 72 c0 141 54 270 155 371
54 54 170 129 186 120 3 -2 4 -17 1 -33z m-65 -613 c40 -15 92 -67 114 -114
14 -31 19 -64 19 -149 l0 -109 -82 5 c-99 6 -163 32 -225 94 -60 61 -95 135
-101 217 l-5 67 126 0 c69 0 138 -5 154 -11z m1149 -51 c-9 -87 -54 -175 -117
-232 -65 -59 -139 -86 -231 -86 l-71 0 5 113 c5 120 21 169 70 214 45 43 85
52 222 53 l129 0 -7 -62z m-476 -238 l0 -80 -240 0 -240 0 0 80 0 80 240 0
240 0 0 -80z"/>
<path d="M835 600 c3 -5 12 -10 20 -10 7 0 16 -7 19 -16 9 -22 7 -347 -2 -360
-4 -6 -14 -14 -22 -17 -8 -3 23 -5 70 -5 47 0 75 3 63 5 -29 5 -35 30 -31 118
2 45 7 70 15 70 6 0 46 -44 88 -97 l76 -98 62 1 c43 0 56 3 42 9 -11 4 -32 21
-46 36 -36 40 -159 205 -159 214 0 4 29 35 65 68 44 42 76 63 100 68 67 12 46
24 -45 24 -58 0 -89 -4 -85 -10 3 -5 13 -10 21 -10 30 0 11 -38 -55 -107 -38
-40 -71 -73 -75 -73 -8 0 -8 143 0 164 3 9 15 16 25 16 10 0 19 5 19 10 0 6
-35 10 -86 10 -54 0 -83 -4 -79 -10z"/>
<path d="M1272 598 c-26 -26 0 -77 33 -64 22 8 29 -17 16 -56 l-11 -33 20 24
c26 30 30 101 8 129 -13 15 -50 16 -66 0z"/>
<path d="M1739 473 c-9 -13 -30 -28 -48 -34 -26 -9 -29 -13 -17 -23 11 -8 15
-38 18 -109 3 -84 6 -101 22 -113 32 -23 91 -18 123 12 22 20 23 23 6 15 -63
-31 -83 -3 -83 111 l0 91 45 -5 c35 -4 45 -2 45 9 0 11 -11 14 -42 11 -40 -3
-43 -1 -48 27 l-5 30 -16 -22z"/>
<path d="M1457 436 c-67 -24 -101 -75 -61 -90 24 -9 46 8 58 45 9 27 16 34 36
34 23 0 25 -4 28 -57 l3 -56 -53 -17 c-63 -21 -88 -40 -88 -70 0 -46 56 -60
112 -27 28 16 30 16 39 0 12 -21 28 -22 64 -6 22 10 23 13 11 27 -9 10 -15 47
-18 104 -3 79 -6 91 -27 108 -27 22 -52 23 -104 5z m63 -171 c0 -41 -27 -62
-55 -41 -32 23 -9 56 53 75 1 1 2 -15 2 -34z"/>
</g>
</svg>
