<?xml version="1.0" standalone="no"?>
<!DOCTYPE svg PUBLIC "-//W3C//DTD SVG 20010904//EN"
 "http://www.w3.org/TR/2001/REC-SVG-20010904/DTD/svg10.dtd">
<svg version="1.0" xmlns="http://www.w3.org/2000/svg"
 width="266.000000pt" height="300.000000pt" viewBox="0 0 266.000000 300.000000"
 preserveAspectRatio="xMidYMid meet">

<g transform="translate(0.000000,300.000000) scale(0.100000,-0.100000)"
fill="#000000" stroke="none">
<path d="M681 2984 c-209 -46 -375 -204 -447 -424 -15 -48 -18 -104 -22 -437
-2 -250 0 -408 7 -455 18 -116 76 -215 163 -278 l38 -28 -54 -31 c-134 -75
-189 -249 -122 -385 36 -74 112 -141 183 -162 82 -24 298 -16 374 14 82 32
147 79 193 138 l40 52 17 -38 c25 -55 85 -118 143 -148 68 -36 186 -38 257 -5
60 27 125 92 151 150 l19 44 28 -38 c65 -90 161 -151 270 -174 30 -6 108 -9
175 -7 141 4 189 21 256 88 53 53 81 116 87 194 10 127 -72 253 -195 302 -1 1
31 34 71 75 55 56 80 89 98 134 24 59 24 64 27 475 3 354 1 425 -13 488 -47
211 -200 377 -415 448 -51 17 -104 18 -660 20 -495 2 -617 0 -669 -12z m1309
-68 c88 -29 162 -73 223 -133 65 -62 99 -116 136 -212 l25 -66 4 -402 c3 -341
1 -411 -12 -463 -29 -114 -109 -204 -216 -244 -41 -15 -115 -16 -840 -14
l-795 3 -53 30 c-70 38 -136 112 -161 181 -20 52 -21 76 -21 467 0 451 2 473
59 585 73 145 229 257 390 282 31 4 315 7 631 6 525 -2 580 -3 630 -20z
m-1380 -1621 c15 -8 38 -26 49 -41 66 -84 4 -214 -103 -214 -92 0 -104 106
-15 135 43 15 53 51 16 60 -36 9 -94 -19 -117 -57 -43 -70 -14 -162 60 -192
22 -9 46 -16 53 -16 34 0 92 25 124 53 73 64 92 157 49 241 l-24 46 162 -2
161 -3 1 -50 c4 -184 -73 -317 -224 -388 -65 -31 -70 -32 -207 -32 -156 0
-188 10 -252 77 -114 119 -70 314 87 382 45 20 143 20 180 1z m580 -115 c0
-91 4 -141 14 -165 20 -47 69 -75 130 -75 43 0 53 4 87 39 l39 39 0 146 0 146
49 0 48 0 6 -122 c7 -132 2 -169 -31 -235 -55 -107 -200 -150 -313 -92 -47 24
-106 93 -119 138 -5 20 -10 98 -10 174 l0 137 50 0 50 0 0 -130z m742 93 c-45
-89 -34 -170 32 -238 68 -71 161 -83 226 -29 61 52 61 146 0 198 -38 32 -87
43 -106 24 -18 -18 -8 -48 16 -48 32 0 70 -39 70 -72 0 -93 -137 -91 -185 2
-33 64 -7 153 54 185 35 18 118 20 172 3 49 -14 114 -69 138 -117 68 -134 -1
-295 -145 -337 -81 -23 -256 -16 -336 15 -80 31 -159 105 -200 188 -28 58 -33
79 -36 165 l-4 98 161 0 161 0 -18 -37z"/>
<path d="M910 2723 c-186 -31 -340 -162 -400 -342 -20 -60 -21 -81 -18 -295
l3 -231 34 -63 c55 -102 152 -176 263 -202 25 -5 248 -10 539 -10 467 0 501 1
561 20 112 35 194 107 246 217 27 58 27 58 27 288 -1 211 -3 235 -22 287 -46
122 -128 216 -242 277 -106 56 -153 61 -581 59 -212 0 -396 -3 -410 -5z m214
-69 c21 -21 20 -40 -4 -64 -42 -42 -99 -10 -90 50 5 32 67 42 94 14z m601 6
c231 -34 385 -222 385 -472 l0 -47 -67 32 c-61 29 -78 32 -158 32 -80 0 -97
-4 -155 -31 -80 -38 -145 -102 -185 -180 -28 -54 -30 -67 -30 -164 0 -83 4
-112 18 -139 12 -21 15 -37 9 -43 -6 -6 -149 -8 -373 -6 l-364 3 -62 29 c-69
31 -128 88 -165 158 -22 40 -23 56 -26 247 -2 131 1 221 8 250 12 48 59 151
69 151 3 0 17 -12 30 -26 13 -14 37 -28 52 -31 19 -4 28 -13 32 -33 9 -42 52
-87 95 -97 20 -5 38 -14 38 -21 1 -7 2 -19 3 -28 0 -9 16 -31 35 -50 28 -28
41 -34 78 -34 50 0 82 18 103 60 17 32 20 87 6 109 -7 11 -1 25 20 48 31 36
39 86 19 123 -8 15 -6 21 11 30 25 14 49 68 49 110 l0 30 228 0 c125 0 259 -5
297 -10z m-781 -16 c24 -23 20 -61 -9 -80 -43 -28 -94 9 -81 61 9 34 64 46 90
19z m-158 -79 c15 -23 15 -27 0 -49 -19 -30 -49 -41 -74 -27 -32 17 -34 49 -4
76 34 32 57 32 78 0z m284 -75 c24 -24 26 -53 4 -74 -18 -19 -65 -21 -82 -4
-20 20 -14 65 10 82 30 21 44 20 68 -4z m-190 -30 c49 -26 45 -92 -7 -105 -22
-5 -32 -2 -50 19 -25 29 -21 59 10 81 25 18 23 18 47 5z m152 -147 c22 -20 23
-42 2 -71 -28 -40 -94 -17 -94 34 0 48 55 70 92 37z m912 -215 c9 -12 16 -26
16 -30 0 -13 -39 -48 -54 -48 -37 0 -61 61 -34 88 19 19 55 14 72 -10z m-173
-55 c13 -35 -8 -65 -45 -61 -35 4 -51 26 -42 61 10 42 70 43 87 0z m317 5 c26
-26 0 -88 -36 -88 -22 0 -52 30 -52 51 0 40 60 65 88 37z m-156 -70 c39 -32
19 -92 -29 -86 -33 4 -48 27 -39 61 5 22 15 29 47 36 3 0 12 -5 21 -11z m-246
-53 c15 -23 15 -27 0 -50 -27 -42 -86 -26 -86 23 0 55 56 72 86 27z m129 -5
c24 -27 13 -68 -22 -76 -51 -13 -82 38 -47 77 22 24 46 24 69 -1z m236 -19
c20 -16 22 -23 14 -47 -9 -24 -16 -29 -45 -29 -29 0 -36 5 -45 29 -8 24 -6 31
14 47 13 10 27 19 31 19 4 0 18 -9 31 -19z m-353 -103 c31 -31 -6 -96 -47 -83
-12 3 -26 15 -32 26 -23 43 44 92 79 57z m240 0 c21 -21 15 -67 -12 -79 -34
-16 -66 3 -66 39 0 33 16 52 45 52 12 0 26 -5 33 -12z m-127 -37 c20 -16 22
-23 14 -47 -9 -24 -16 -29 -45 -29 -29 0 -36 5 -44 27 -8 22 -6 32 9 48 23 25
36 25 66 1z"/>
<path d="M1675 2368 c-46 -36 -23 -108 36 -108 30 0 43 9 58 38 29 55 -44 110
-94 70z"/>
<path d="M1922 2368 c-17 -17 -15 -74 4 -92 21 -22 67 -20 87 2 21 23 22 66 1
86 -18 19 -75 21 -92 4z"/>
<path d="M1432 2267 c-28 -30 -28 -52 3 -82 29 -30 54 -32 83 -5 28 26 28 60
2 88 -27 28 -61 28 -88 -1z"/>
<path d="M1360 2073 c-41 -15 -54 -78 -22 -106 42 -38 102 -8 102 51 0 25 -6
35 -30 47 -16 8 -30 15 -32 14 -2 0 -10 -3 -18 -6z"/>
<path d="M1337 1822 c-38 -42 -11 -105 43 -105 38 0 60 23 60 63 0 53 -69 80
-103 42z"/>
<path d="M662 609 c-13 -5 -12 -7 6 -11 12 -4 22 -13 22 -22 0 -17 -126 -156
-141 -156 -5 0 -9 33 -9 73 0 73 10 99 40 110 8 3 -25 5 -75 5 -49 0 -81 -3
-70 -5 11 -3 23 -10 27 -17 4 -6 8 -89 8 -183 0 -160 -2 -175 -20 -193 l-20
-20 66 0 c60 0 65 2 58 17 -13 28 -11 188 2 188 7 0 44 -41 83 -92 39 -51 80
-97 90 -103 11 -5 41 -10 68 -10 l48 0 -28 19 c-28 18 -197 231 -197 248 0 5
24 33 54 62 38 37 70 59 107 71 l53 18 -78 4 c-42 1 -85 0 -94 -3z"/>
<path d="M970 451 c-14 -4 -39 -15 -57 -24 -48 -25 -57 -77 -13 -77 21 0 30
11 45 55 8 23 16 30 35 30 23 0 25 -4 28 -57 l3 -56 -58 -22 c-32 -12 -63 -26
-70 -32 -16 -13 -17 -50 -1 -66 17 -17 74 -15 104 4 23 16 26 16 38 -2 13 -16
17 -17 56 -4 35 12 39 15 22 21 -18 7 -20 19 -24 103 -3 102 -11 120 -58 130
-14 2 -36 1 -50 -3z m40 -180 c0 -31 -4 -41 -20 -46 -23 -7 -50 10 -50 31 0
11 54 54 68 54 1 0 2 -18 2 -39z"/>
<path d="M1116 451 c-3 -5 2 -11 12 -13 11 -3 42 -52 77 -121 33 -64 65 -117
71 -117 6 0 25 34 44 76 l33 76 41 -76 c23 -42 44 -76 49 -76 4 0 32 52 62
116 39 83 60 117 76 121 33 9 1 23 -53 23 -49 0 -65 -13 -28 -23 11 -3 20 -13
20 -23 0 -22 -41 -124 -50 -124 -3 0 -23 32 -44 70 -31 59 -35 71 -22 76 31
12 15 21 -43 23 -33 1 -62 -3 -66 -9 -3 -5 -1 -10 5 -10 5 0 18 -16 27 -35 15
-32 15 -37 -2 -75 -10 -22 -21 -40 -24 -40 -7 0 -74 117 -79 138 -2 6 4 12 12
12 9 0 16 5 16 10 0 12 -127 13 -134 1z"/>
<path d="M1691 442 c-52 -26 -76 -65 -75 -120 1 -84 52 -132 139 -132 86 0
145 55 145 135 0 104 -112 167 -209 117z m72 -3 c49 -22 77 -114 57 -187 -18
-68 -82 -66 -115 3 -23 49 -20 150 5 175 23 23 22 23 53 9z"/>
<path d="M2037 446 c-48 -18 -62 -29 -81 -70 -32 -67 -12 -151 41 -175 34 -16
96 -14 119 4 10 8 23 15 27 15 4 0 6 -44 5 -97 -3 -94 -4 -97 -28 -104 -15 -4
8 -7 55 -7 44 0 73 2 65 5 -8 3 -18 11 -22 17 -4 6 -8 90 -8 186 0 148 3 179
17 199 16 23 16 24 -8 18 -13 -3 -42 0 -64 8 -50 18 -70 18 -118 1z m93 -28
c16 -18 20 -35 20 -99 0 -76 0 -77 -30 -89 -40 -17 -77 -6 -95 30 -26 49 -15
151 18 172 23 15 66 8 87 -14z"/>
</g>
</svg>
