<?xml version="1.0" standalone="no"?>
<!DOCTYPE svg PUBLIC "-//W3C//DTD SVG 20010904//EN"
 "http://www.w3.org/TR/2001/REC-SVG-20010904/DTD/svg10.dtd">
<svg version="1.0" xmlns="http://www.w3.org/2000/svg"
 width="195.000000pt" height="206.000000pt" viewBox="0 0 195.000000 206.000000"
 preserveAspectRatio="xMidYMid meet">

<g transform="translate(0.000000,206.000000) scale(0.100000,-0.100000)"
fill="#000000" stroke="none">
<path d="M814 2021 c-17 -4 -46 -16 -65 -25 -25 -13 -56 -18 -119 -17 -103 2
-179 -16 -286 -69 -95 -46 -198 -136 -236 -206 -40 -74 -67 -185 -79 -326 -11
-131 -2 -265 21 -308 23 -43 71 -17 129 69 47 68 85 103 154 138 111 56 275 5
254 -79 -6 -23 -12 -26 -76 -31 -88 -7 -184 -50 -232 -104 -20 -22 -38 -46
-40 -52 -3 -9 -13 -8 -35 5 -74 42 -123 -21 -124 -157 0 -150 53 -239 182
-302 42 -21 66 -38 58 -41 -8 -2 -37 -11 -64 -20 -109 -35 -163 -112 -153
-219 9 -102 66 -160 189 -193 137 -36 252 -48 483 -49 244 0 283 5 346 48 34
23 34 23 61 4 54 -40 157 -31 196 16 9 11 33 13 111 9 89 -4 104 -2 146 18 50
24 87 72 83 105 -2 12 -15 23 -35 29 -18 5 -33 12 -33 15 0 3 21 15 47 25 92
38 158 127 183 249 16 80 -3 204 -46 289 -29 58 -29 58 -1 58 57 0 94 68 62
116 -9 14 -27 30 -41 36 -18 8 -24 19 -24 42 0 47 -33 93 -74 105 -36 9 -72 5
-93 -11 -8 -6 -15 -2 -23 12 -14 25 -17 22 40 50 105 52 154 129 172 275 28
223 -43 400 -191 472 -21 10 -66 19 -111 21 -67 3 -81 0 -130 -25 -49 -25 -67
-43 -106 -109 -10 -17 -15 -15 -62 28 -64 57 -154 94 -263 108 -93 11 -130 11
-175 1z m207 -55 c173 -37 266 -133 323 -333 35 -122 47 -215 46 -353 0 -63 0
-128 2 -145 7 -106 3 -151 -19 -182 -26 -35 -30 -99 -12 -151 15 -44 -2 -90
-59 -153 -73 -81 -192 -128 -288 -113 l-46 7 51 51 c90 92 114 189 68 277 -13
24 -43 58 -66 74 -38 26 -51 30 -109 29 -70 -1 -130 -23 -164 -61 -31 -34 -50
-93 -43 -135 9 -52 62 -108 101 -107 21 1 24 3 9 6 -96 23 -82 159 22 205 110
48 209 -36 173 -147 -23 -71 -112 -145 -174 -145 -14 0 -28 -4 -31 -10 -9 -15
26 -12 76 5 63 23 106 60 135 117 42 83 20 161 -57 201 -66 35 -168 -5 -208
-80 -16 -29 -20 -33 -21 -17 0 33 42 87 85 109 22 10 65 21 95 23 45 3 61 0
89 -20 76 -52 99 -129 64 -209 -58 -129 -182 -189 -393 -189 -235 0 -447 72
-519 176 -28 40 -48 174 -35 234 17 79 46 79 174 -5 46 -31 104 -61 127 -67
l43 -10 0 -51 c0 -35 7 -63 24 -92 25 -41 102 -102 114 -90 4 4 -2 11 -13 17
-29 16 -85 78 -96 105 -20 54 -11 91 70 284 49 117 65 208 86 499 15 205 31
313 54 372 28 73 172 106 322 74z m614 -10 c64 -29 128 -101 155 -172 16 -43
20 -78 20 -162 0 -191 -35 -271 -140 -324 -76 -40 -153 -34 -207 15 -32 28
-29 40 5 23 37 -19 102 -31 102 -18 0 5 -18 12 -40 16 -23 4 -52 18 -69 34
-25 23 -30 36 -34 94 -6 86 5 98 62 69 50 -26 67 -26 109 -1 65 40 66 125 3
193 -44 47 -103 59 -165 33 -48 -20 -70 -20 -87 0 -17 21 1 113 32 155 48 68
162 88 254 45z m-969 -38 c-33 -116 -48 -234 -62 -500 -4 -71 -9 -128 -12
-128 -2 0 -21 10 -40 22 -27 17 -52 22 -101 22 -120 1 -214 -60 -309 -198 -21
-31 -38 -46 -50 -44 -15 3 -17 20 -20 148 -7 324 49 471 228 602 75 54 211 96
319 97 51 1 53 0 47 -21z m899 -200 c38 -33 57 -94 41 -133 -19 -46 -56 -54
-114 -25 -26 13 -49 23 -52 23 -3 -1 -12 -4 -20 -7 -12 -5 -18 7 -29 50 -7 31
-15 63 -18 70 -4 10 3 14 23 14 16 1 43 7 59 15 45 20 81 18 110 -7z m-110
-447 c3 -5 1 -12 -5 -16 -5 -3 -10 1 -10 9 0 18 6 21 15 7z m101 -31 c48 -18
67 -53 59 -110 -6 -42 -12 -53 -40 -70 -44 -27 -87 -26 -123 5 -54 45 -48 129
12 166 36 22 51 23 92 9z m191 -70 c82 -29 60 -160 -27 -160 -33 0 -80 38 -80
64 0 27 32 84 54 94 12 6 21 11 22 11 1 1 15 -4 31 -9z m-1177 -47 c-10 -36
-27 -79 -47 -120 -13 -27 -21 -33 -47 -33 -18 0 -55 -11 -82 -25 l-49 -25 -37
26 c-58 41 -60 46 -33 87 44 64 155 115 257 116 46 1 47 1 38 -26z m1056 -101
c-22 -5 -30 3 -21 18 5 8 11 7 22 -2 15 -12 14 -13 -1 -16z m248 -14 c16 -26
-4 -72 -33 -76 -25 -4 -61 23 -61 45 0 8 5 23 11 34 13 25 67 23 83 -3z m-228
-39 c85 -32 134 -88 169 -191 61 -184 19 -349 -108 -422 -64 -36 -84 -40 -92
-17 -4 13 4 29 25 52 61 67 83 140 59 193 -17 37 -38 40 -82 10 -38 -25 -45
-26 -118 -20 -76 6 -77 6 -97 -21 -24 -33 -36 -28 -19 7 15 31 44 45 132 64
40 9 76 24 83 34 32 42 -10 86 -98 102 -43 8 -62 18 -87 45 -53 56 -44 113 25
160 48 32 127 34 208 4z m108 5 c4 -9 4 -19 1 -22 -6 -6 -35 18 -35 29 0 16
28 10 34 -7z m-1269 -51 c-3 -15 -11 -31 -17 -34 -12 -8 -88 10 -88 21 0 10
60 33 104 39 4 0 5 -11 1 -26z m1023 -208 c34 -10 62 -22 62 -27 0 -12 -36
-25 -103 -38 -67 -13 -113 -47 -122 -91 -5 -23 -11 -29 -26 -24 -64 18 -63 13
-9 62 28 25 62 68 76 95 19 37 30 49 42 45 9 -2 45 -13 80 -22z m160 -183 c3
-34 -31 -105 -64 -133 -10 -8 -41 -14 -83 -14 -36 0 -74 -4 -83 -9 -15 -7 -18
-3 -18 17 0 15 -5 37 -11 51 -15 32 -4 72 24 90 17 12 32 13 69 5 39 -9 53 -7
90 10 57 26 72 23 76 -17z m-618 -55 c55 -27 85 -70 101 -145 24 -117 -5 -191
-89 -230 -57 -27 -59 -27 -282 -26 -354 0 -551 42 -609 129 -34 51 -39 129
-11 173 37 59 205 119 315 111 123 -8 360 -2 385 9 36 17 136 6 190 -21z m268
14 c46 -24 61 -48 72 -115 10 -62 -5 -190 -28 -228 -30 -50 -102 -63 -160 -28
-31 19 -33 23 -25 53 13 52 10 224 -4 239 -24 23 -15 57 20 78 40 25 78 25
125 1z m226 -141 c14 -5 34 -27 46 -50 14 -28 33 -46 56 -56 20 -8 34 -20 31
-27 -12 -37 -162 -82 -230 -68 -27 6 -32 12 -35 39 -4 37 2 39 43 12 38 -25
96 -26 125 -2 l23 18 -26 20 c-13 11 -27 29 -29 40 -3 15 -11 19 -38 18 -19 0
-48 -4 -63 -8 -28 -8 -28 -7 -25 25 2 26 9 35 28 40 37 10 66 10 94 -1z m-14
-89 c0 -11 9 -23 20 -26 28 -9 25 -23 -5 -31 -27 -7 -115 21 -115 36 0 16 44
40 72 40 21 0 28 -5 28 -19z"/>
<path d="M945 1775 c-74 -26 -135 -115 -135 -195 0 -29 34 -107 58 -133 29
-33 89 -57 139 -57 73 0 115 16 157 59 151 155 -13 399 -219 326z m93 -21 c16
-5 22 -14 22 -33 1 -46 52 -91 104 -91 23 0 26 -4 26 -35 0 -32 -2 -35 -29
-35 -47 0 -89 -43 -93 -93 -3 -40 -5 -42 -38 -45 -34 -3 -36 -1 -53 47 -19 54
-53 81 -100 81 -14 0 -28 7 -31 16 -10 26 3 54 25 54 51 0 109 57 109 109 0
17 11 28 30 30 3 0 15 -2 28 -5z m-113 -81 c-33 -29 -70 -32 -56 -4 6 10 25
31 43 46 l33 28 3 -24 c3 -16 -5 -31 -23 -46z m219 27 c43 -48 44 -54 9 -45
-35 8 -73 43 -73 67 0 29 25 21 64 -22z m36 -174 c0 -18 -63 -86 -79 -86 -15
0 -14 42 2 62 26 34 77 49 77 24z m-243 -34 c23 -28 31 -62 13 -62 -14 0 -90
75 -90 90 0 21 53 2 77 -28z"/>
<path d="M982 1618 c-15 -15 -15 -51 0 -66 20 -20 66 -15 78 9 24 43 -43 92
-78 57z m65 -24 c4 -11 -1 -22 -12 -31 -16 -11 -21 -11 -33 1 -8 8 -12 22 -9
30 8 21 46 21 54 0z"/>
<path d="M157 943 c-12 -12 -7 -23 8 -17 8 3 40 -9 72 -27 114 -63 147 -79
167 -79 13 0 0 10 -32 25 -30 14 -79 40 -110 59 -63 38 -95 50 -105 39z"/>
<path d="M1563 1837 c37 -9 68 -23 87 -42 74 -71 85 -292 17 -340 -11 -8 -18
-17 -15 -20 12 -12 36 8 59 48 20 36 24 55 23 127 -1 148 -60 230 -172 237
l-57 3 58 -13z"/>
<path d="M271 1704 c-83 -75 -62 -138 22 -66 24 20 57 46 73 58 25 18 27 23
15 38 -23 27 -56 18 -110 -30z m89 20 c0 -9 -103 -104 -112 -104 -21 0 -3 33
38 69 42 37 74 52 74 35z"/>
<path d="M413 1380 c-61 -13 -138 -48 -164 -76 -12 -13 -18 -24 -12 -24 6 0
16 7 24 16 47 57 216 91 294 59 18 -7 19 -6 5 8 -19 21 -91 29 -147 17z"/>
<path d="M1537 854 c-16 -16 -5 -24 31 -24 75 0 146 -77 161 -177 6 -39 9 -44
15 -26 17 50 -39 166 -98 202 -35 22 -98 36 -109 25z"/>
<path d="M1468 519 c-50 -29 5 -86 73 -75 59 9 81 23 77 49 -3 18 -10 22 -48
23 -25 0 -54 4 -65 7 -11 4 -28 2 -37 -4z m105 -21 c43 0 49 -14 11 -28 -57
-22 -123 -7 -110 25 5 13 13 16 34 10 15 -4 44 -7 65 -7z"/>
<path d="M585 424 c-222 -34 -290 -56 -318 -103 -41 -69 -8 -141 80 -179 112
-47 506 -75 617 -43 68 20 131 82 141 138 14 87 -26 141 -128 170 -52 14 -330
26 -392 17z m299 -24 c122 -12 175 -37 193 -92 23 -70 -14 -140 -95 -180 -42
-21 -60 -23 -182 -22 -126 0 -322 22 -415 46 -84 21 -129 81 -106 141 14 36
48 56 133 77 135 35 309 46 472 30z"/>
<path d="M486 287 c-22 -16 -18 -55 7 -71 39 -24 79 44 41 71 -10 7 -21 13
-24 13 -3 0 -14 -6 -24 -13z m51 -23 c3 -8 -2 -23 -11 -32 -14 -15 -18 -15
-31 -1 -9 9 -13 23 -9 32 8 21 43 22 51 1z"/>
<path d="M690 280 c-11 -11 -20 -28 -20 -38 0 -24 31 -52 58 -52 21 0 52 34
52 57 0 18 -37 53 -55 53 -8 0 -24 -9 -35 -20z m58 -9 c8 -4 12 -19 10 -32 -2
-19 -9 -24 -33 -24 -33 0 -45 25 -25 50 14 17 29 19 48 6z"/>
<path d="M895 270 c-33 -36 13 -83 53 -54 26 18 28 37 6 58 -21 21 -37 20 -59
-4z m51 -11 c3 -6 0 -17 -7 -25 -18 -17 -44 -2 -36 20 7 18 33 21 43 5z"/>
<path d="M1290 438 c0 -3 7 -21 15 -41 15 -37 22 -149 11 -185 -4 -12 -3 -22
2 -22 36 0 25 201 -12 239 -9 8 -16 13 -16 9z"/>
</g>
</svg>
