<?xml version="1.0" standalone="no"?>
<!DOCTYPE svg PUBLIC "-//W3C//DTD SVG 20010904//EN"
 "http://www.w3.org/TR/2001/REC-SVG-20010904/DTD/svg10.dtd">
<svg version="1.0" xmlns="http://www.w3.org/2000/svg"
 width="195.000000pt" height="206.000000pt" viewBox="0 0 195.000000 206.000000"
 preserveAspectRatio="xMidYMid meet">
<metadata>
Created by potrace 1.10, written by Peter Selinger 2001-2011
</metadata>
<g transform="translate(0.000000,206.000000) scale(0.100000,-0.100000)"
fill="#000000" stroke="none">
<path d="M814 2021 c-17 -4 -46 -16 -65 -25 -25 -13 -56 -18 -119 -17 -161 3
-324 -63 -440 -178 -76 -74 -100 -117 -129 -221 -43 -154 -49 -439 -11 -510
23 -43 71 -17 129 69 46 68 85 103 152 137 114 57 277 8 256 -78 -6 -23 -12
-26 -76 -31 -88 -7 -184 -50 -232 -104 -20 -22 -38 -46 -40 -52 -3 -9 -13 -8
-35 5 -74 42 -123 -21 -124 -157 0 -150 54 -241 180 -301 38 -18 70 -36 70
-39 0 -3 -24 -11 -54 -18 -134 -30 -202 -142 -166 -272 12 -43 68 -104 113
-122 102 -43 270 -67 509 -74 146 -4 225 -2 270 7 67 13 134 42 140 61 2 7 18
2 42 -15 63 -43 150 -33 200 23 15 16 23 18 38 10 11 -6 53 -10 95 -10 90 0
155 27 184 75 28 45 21 67 -26 81 l-40 12 57 25 c102 47 162 127 188 251 17
84 -4 208 -50 295 l-28 52 28 0 c37 0 69 28 76 66 4 24 0 37 -21 62 -15 18
-34 32 -44 32 -13 0 -16 7 -14 33 9 83 -99 145 -165 94 -14 -11 -17 -9 -26 19
-5 17 1 24 36 40 102 46 157 127 178 263 37 240 -52 442 -219 499 -54 19 -150
14 -201 -9 -57 -26 -77 -44 -102 -94 -11 -22 -22 -42 -23 -43 -2 -2 -20 15
-40 37 -40 44 -133 94 -205 110 -65 14 -210 21 -246 12z m207 -55 c119 -25
202 -81 259 -175 71 -115 120 -356 113 -547 -2 -44 -3 -92 -2 -109 7 -122 4
-150 -18 -182 -27 -36 -31 -112 -9 -155 13 -24 12 -31 -9 -75 -52 -109 -175
-186 -302 -187 -40 0 -75 2 -78 6 -4 3 15 26 41 50 121 111 124 269 5 353 -38
26 -51 30 -109 29 -102 -1 -164 -38 -197 -118 -23 -53 -12 -107 30 -151 25
-27 40 -35 66 -34 l34 1 -31 9 c-96 28 -83 149 22 199 108 53 211 -34 174
-145 -24 -74 -113 -144 -182 -145 -16 0 -28 -4 -28 -10 0 -28 97 0 157 46 38
28 83 110 83 149 0 101 -98 167 -194 131 -51 -20 -79 -47 -101 -100 -22 -52
-32 -37 -11 17 29 77 92 117 184 117 116 0 189 -107 151 -221 -43 -127 -188
-199 -399 -199 -234 0 -448 72 -518 175 -43 63 -54 244 -17 285 16 18 20 18
51 5 18 -7 67 -36 110 -64 67 -44 126 -71 159 -71 6 0 9 -21 7 -50 -3 -40 1
-59 21 -93 32 -53 102 -106 119 -89 9 9 8 12 -4 12 -21 0 -96 74 -108 106 -21
55 -13 91 69 285 49 116 65 207 86 494 24 321 38 387 90 421 64 42 174 53 286
30z m614 -10 c56 -26 113 -83 147 -148 18 -35 23 -64 26 -153 8 -206 -27 -299
-133 -357 -76 -42 -161 -34 -217 19 -37 36 -36 47 5 23 40 -23 117 -38 117
-21 0 6 -11 11 -25 11 -34 0 -86 23 -106 46 -11 12 -19 46 -23 91 -7 84 3 94
64 63 49 -25 67 -25 108 0 65 40 66 125 3 193 -44 47 -103 59 -165 33 -48 -20
-70 -20 -87 0 -17 21 1 113 32 155 48 68 163 88 254 45z m-962 -31 c-1 -5 -9
-28 -17 -50 -21 -58 -33 -163 -47 -390 -7 -110 -13 -202 -15 -204 -2 -2 -17 8
-33 22 -38 31 -112 43 -172 27 -104 -28 -177 -86 -244 -192 -28 -45 -56 -60
-70 -39 -10 18 -7 295 5 366 6 39 23 106 38 150 24 73 33 87 102 156 84 84
150 121 265 150 74 19 192 21 188 4z m637 -105 c0 -5 -2 -10 -4 -10 -3 0 -8 5
-11 10 -3 6 -1 10 4 10 6 0 11 -4 11 -10z m253 -100 c14 -11 33 -40 42 -64 15
-38 15 -48 3 -72 -7 -16 -26 -33 -41 -39 -24 -8 -37 -5 -80 18 -38 20 -54 24
-64 15 -17 -14 -16 -14 -32 52 -8 30 -16 61 -18 68 -4 8 5 12 23 12 16 1 43 7
59 15 43 19 79 18 108 -5z m-111 -455 c0 -5 -5 -11 -11 -13 -6 -2 -11 4 -11
13 0 9 5 15 11 13 6 -2 11 -8 11 -13z m110 -26 c44 -20 60 -55 53 -110 -6 -42
-12 -54 -39 -70 -45 -27 -90 -25 -125 9 -38 35 -46 77 -24 122 27 53 83 74
135 49z m197 -74 c73 -37 43 -155 -39 -155 -33 0 -80 38 -80 64 0 27 32 84 54
94 29 14 33 14 65 -3z m-1179 -19 c0 -10 -51 -138 -62 -156 -8 -13 -24 -20
-44 -20 -17 0 -53 -11 -80 -25 l-49 -25 -45 32 c-25 17 -47 33 -49 34 -2 2 6
18 17 36 32 52 105 100 179 117 39 9 133 14 133 7z m1060 -127 c0 -3 -11 -4
-25 -1 -29 5 -30 8 -12 27 10 12 14 11 25 -3 6 -8 12 -19 12 -23z m238 -27 c8
-54 -47 -82 -82 -43 -23 26 -17 63 14 78 30 15 63 -2 68 -35z m-423 28 c3 -5
1 -10 -4 -10 -6 0 -11 5 -11 10 0 6 2 10 4 10 3 0 8 -4 11 -10z m191 -51 c86
-32 137 -90 170 -192 60 -186 17 -348 -109 -421 -64 -36 -84 -40 -92 -17 -4
13 4 29 25 52 67 74 89 165 50 207 -26 28 -27 28 -74 -4 -36 -25 -44 -26 -115
-20 l-76 6 -27 -32 c-20 -24 -28 -28 -28 -16 0 37 43 69 114 84 93 19 120 34
124 64 4 38 -33 66 -103 79 -182 33 -158 231 27 231 34 0 80 -9 114 -21z m114
1 c0 -23 -8 -25 -32 -6 -25 18 -22 26 7 26 18 0 25 -5 25 -20z m-1270 -27 c-1
-23 -14 -52 -25 -57 -7 -2 -32 1 -56 8 -43 13 -43 13 -19 26 21 11 66 25 93
29 4 1 7 -2 7 -6z m1295 -23 c3 -5 1 -10 -4 -10 -6 0 -11 5 -11 10 0 6 2 10 4
10 3 0 8 -4 11 -10z m-215 -233 c0 -11 -37 -25 -103 -37 -66 -13 -113 -47
-122 -90 -7 -31 -16 -32 -73 -14 -9 2 7 23 41 54 33 30 62 68 75 98 l21 48 80
-25 c45 -15 81 -29 81 -34z m98 -151 c2 -26 -4 -50 -22 -80 -37 -63 -50 -71
-125 -71 -36 0 -73 -4 -82 -8 -13 -7 -18 -2 -22 25 -3 18 -9 47 -13 65 -5 26
-1 37 20 58 23 22 31 25 63 18 55 -11 91 -6 127 16 41 26 50 22 54 -23z
m-1293 -16 c-3 -5 -11 -10 -16 -10 -6 0 -7 5 -4 10 3 6 11 10 16 10 6 0 7 -4
4 -10z m635 -26 c70 -21 113 -64 134 -134 40 -135 0 -237 -106 -270 -173 -53
-724 -5 -829 73 -37 27 -69 93 -69 143 0 61 31 101 103 134 102 46 189 61 277
48 86 -12 303 -5 340 10 37 16 89 14 150 -4z m313 -4 c63 -37 83 -111 65 -240
-10 -76 -35 -133 -64 -144 -32 -12 -90 -5 -122 14 -31 19 -33 23 -25 53 4 18
8 75 8 127 0 76 -4 100 -19 122 l-18 28 32 30 c39 37 92 40 143 10z m-178 0
c-3 -5 -13 -10 -21 -10 -8 0 -14 5 -14 10 0 6 9 10 21 10 11 0 17 -4 14 -10z
m404 -143 c14 -6 34 -30 45 -52 15 -28 30 -43 54 -50 17 -5 32 -15 32 -22 0
-33 -112 -76 -196 -76 -64 0 -74 6 -74 44 0 34 5 35 45 9 38 -25 96 -26 125
-2 l23 18 -26 20 c-13 11 -27 29 -29 40 -3 15 -11 19 -38 18 -19 0 -48 -4 -63
-8 -28 -8 -28 -7 -25 25 2 26 9 35 28 40 39 11 73 10 99 -4z m-19 -86 c0 -11
9 -23 21 -26 26 -8 19 -29 -11 -33 -30 -5 -110 26 -110 42 0 17 37 34 73 35
20 1 27 -4 27 -18z"/>
<path d="M945 1775 c-74 -26 -135 -115 -135 -195 0 -29 34 -107 58 -133 29
-33 89 -57 139 -57 73 0 115 16 157 59 151 155 -13 399 -219 326z m113 -45 c7
-59 51 -100 107 -100 22 0 25 -4 25 -35 0 -32 -2 -35 -29 -35 -17 0 -42 -11
-60 -26 -26 -22 -31 -33 -31 -70 l0 -45 -42 3 c-31 2 -42 7 -44 22 -9 63 -53
106 -108 106 -30 0 -40 13 -32 46 4 15 13 24 27 24 51 0 109 57 109 109 0 22
15 31 50 28 19 -2 26 -8 28 -27z m77 -21 c49 -45 55 -59 26 -59 -37 0 -99 68
-84 93 7 12 11 9 58 -34z m-191 -16 c-25 -33 -84 -61 -84 -39 0 7 18 30 41 51
30 27 44 34 52 26 8 -8 5 -18 -9 -38z m236 -169 c0 -18 -62 -84 -79 -84 -15 0
-14 42 2 62 27 35 77 49 77 22z m-242 -30 c22 -25 30 -64 12 -64 -14 0 -90 75
-90 90 0 20 52 3 78 -26z"/>
<path d="M982 1618 c-34 -34 14 -102 56 -79 28 15 35 40 17 67 -17 26 -53 32
-73 12z m62 -25 c4 -9 0 -23 -9 -32 -13 -14 -17 -14 -31 1 -9 9 -14 24 -11 32
8 21 43 20 51 -1z"/>
<path d="M146 935 c-4 -12 0 -14 17 -10 15 4 42 -6 82 -31 53 -32 158 -84 170
-84 3 0 5 4 5 8 0 4 -15 13 -32 20 -18 6 -71 34 -118 62 -89 53 -114 60 -124
35z"/>
<path d="M1523 1853 c-21 -8 -15 -25 7 -18 31 10 94 -12 124 -43 73 -77 78
-320 6 -339 -21 -6 -28 -23 -9 -23 26 0 48 23 69 72 38 90 16 233 -48 300 -31
33 -118 63 -149 51z"/>
<path d="M271 1704 c-53 -47 -66 -86 -35 -98 23 -9 22 -9 63 32 21 20 51 46
67 58 25 18 27 23 15 38 -23 27 -56 18 -110 -30z m89 19 c0 -9 -105 -103 -114
-103 -19 0 1 34 40 69 43 38 74 52 74 34z"/>
<path d="M425 1383 c-96 -21 -211 -80 -193 -99 4 -3 21 5 38 20 63 53 213 80
283 51 9 -4 17 -3 17 3 0 23 -88 38 -145 25z"/>
<path d="M1537 853 c-15 -15 -5 -23 29 -23 76 0 139 -67 160 -170 9 -42 13
-51 19 -36 12 27 -10 101 -45 151 -40 58 -137 104 -163 78z"/>
<path d="M1468 519 c-27 -15 -23 -54 7 -67 34 -16 68 -15 109 2 65 27 56 60
-17 62 -23 1 -51 4 -62 7 -11 4 -28 2 -37 -4z m58 -20 c4 -7 21 -9 45 -5 44 7
52 -5 14 -22 -53 -24 -124 -10 -112 22 7 18 42 22 53 5z"/>
<path d="M590 424 c-14 -2 -70 -11 -125 -20 -116 -19 -174 -43 -198 -83 -38
-64 -12 -133 64 -171 99 -51 518 -84 633 -51 73 21 132 82 141 145 13 86 -23
133 -127 163 -52 14 -333 27 -388 17z m281 -23 c108 -10 180 -36 200 -72 7
-13 12 -43 11 -67 0 -55 -35 -102 -99 -133 -44 -22 -60 -24 -183 -23 -126 1
-323 23 -415 46 -84 21 -129 81 -106 141 14 36 48 56 133 78 129 32 302 44
459 30z"/>
<path d="M488 289 c-18 -10 -23 -35 -12 -63 9 -23 50 -20 68 6 13 19 14 25 2
43 -16 24 -35 28 -58 14z m49 -25 c3 -8 -2 -23 -11 -32 -15 -15 -17 -15 -33 0
-13 14 -14 20 -3 32 16 20 39 20 47 0z"/>
<path d="M690 280 c-25 -25 -26 -52 -2 -73 24 -22 55 -21 75 1 23 26 21 58 -5
76 -30 21 -44 20 -68 -4z m60 -15 c20 -25 8 -50 -25 -50 -21 0 -31 5 -33 18
-4 21 14 47 33 47 7 0 18 -7 25 -15z"/>
<path d="M896 274 c-9 -8 -16 -21 -16 -28 0 -15 32 -46 47 -46 13 0 43 33 43
48 0 15 -29 42 -45 42 -7 0 -21 -7 -29 -16z m50 -15 c10 -17 -23 -46 -37 -32
-7 7 -9 19 -6 27 7 18 33 21 43 5z"/>
<path d="M1294 425 c22 -55 28 -97 24 -169 -4 -68 -3 -76 9 -61 16 22 17 134
3 186 -6 20 -18 43 -27 50 -15 12 -16 12 -9 -6z"/>
</g>
</svg>
