<?xml version="1.0" standalone="no"?>
<!DOCTYPE svg PUBLIC "-//W3C//DTD SVG 20010904//EN"
 "http://www.w3.org/TR/2001/REC-SVG-20010904/DTD/svg10.dtd">
<svg version="1.0" xmlns="http://www.w3.org/2000/svg"
 width="179.000000pt" height="216.000000pt" viewBox="0 0 179.000000 216.000000"
 preserveAspectRatio="xMidYMid meet">
<metadata>
Created by potrace 1.10, written by Peter Selinger 2001-2011
</metadata>
<g transform="translate(0.000000,216.000000) scale(0.100000,-0.100000)"
fill="#000000" stroke="none">
<path d="M775 2124 c-244 -25 -428 -92 -534 -195 -65 -64 -85 -110 -85 -201
-1 -69 2 -80 29 -120 17 -23 54 -59 83 -78 28 -19 51 -37 52 -40 0 -3 -13 -11
-28 -18 -56 -24 -150 -120 -182 -185 -55 -113 -62 -152 -66 -397 -3 -227 1
-285 32 -388 11 -41 27 -68 56 -95 21 -20 45 -52 53 -70 20 -48 98 -151 138
-181 83 -63 220 -86 524 -86 280 0 487 31 603 90 163 83 294 461 260 753 -30
256 -82 399 -186 503 l-52 51 42 20 c96 47 158 129 158 209 0 72 -50 163 -123
224 -114 95 -244 157 -384 184 -81 15 -317 27 -390 20z m-125 -59 c-7 -9 -15
-13 -19 -10 -3 3 1 10 9 15 21 14 24 12 10 -5z m439 -19 c33 -30 23 -56 -34
-85 -47 -24 -59 -26 -200 -26 -124 0 -156 3 -182 17 -40 23 -46 33 -33 58 26
48 79 59 271 57 140 -2 159 -4 178 -21z m121 -6 c66 -17 159 -62 229 -109 73
-50 131 -99 131 -112 0 -5 -31 -9 -69 -9 -85 0 -136 -28 -136 -75 0 -41 46
-69 145 -91 44 -9 80 -21 80 -25 0 -14 -102 -86 -145 -103 -41 -16 -42 -16
-116 18 -41 19 -97 40 -124 47 -28 6 -51 13 -53 14 -1 1 5 16 14 33 17 36 12
64 -18 92 -19 17 -19 20 -4 41 25 37 21 109 -9 154 -23 33 -24 39 -10 49 17
12 22 51 10 80 -7 15 -4 17 11 13 10 -3 39 -11 64 -17z m-600 -19 c-15 -30
-12 -46 15 -75 21 -23 23 -31 14 -48 -16 -30 -7 -144 14 -165 15 -15 15 -18
-8 -39 -28 -26 -32 -65 -10 -87 17 -18 10 -27 -21 -27 -13 0 -66 -14 -119 -32
l-95 -32 -42 24 c-87 48 -130 90 -93 90 8 0 40 12 71 27 64 30 84 59 66 98
-16 36 -56 48 -130 41 l-64 -7 19 32 c53 91 261 214 371 218 19 1 21 -2 12
-18z m415 -111 c-10 -11 -22 -17 -26 -14 -15 9 -10 22 9 27 33 9 35 7 17 -13z
m80 0 c10 -11 15 -20 11 -20 -14 0 -46 21 -46 30 0 16 16 11 35 -10z m-406
-16 c-17 -21 -31 -17 -17 5 7 11 16 17 20 14 5 -2 4 -11 -3 -19z m91 7 c0 -18
-18 -21 -30 -6 -10 13 -9 15 9 15 11 0 21 -4 21 -9z m194 -34 c6 -23 6 -48 0
-65 -9 -25 -14 -27 -84 -33 -41 -3 -78 -3 -82 1 -14 11 -18 76 -5 100 10 21
22 26 67 31 89 10 94 8 104 -34z m90 18 c20 -15 20 -15 0 -29 -14 -11 -23 -12
-34 -3 -8 6 -17 13 -19 14 -5 3 20 33 28 33 3 0 15 -7 25 -15z m-325 -9 c14
-17 -9 -39 -33 -30 -19 7 -20 11 -3 29 15 18 22 18 36 1z m376 -36 c4 -6 1
-17 -5 -25 -9 -11 -17 -12 -33 -3 -20 10 -20 11 -2 24 23 17 32 17 40 4z
m-420 -10 c4 -6 1 -17 -5 -26 -10 -11 -16 -12 -26 -3 -11 9 -11 15 -3 25 14
17 25 18 34 4z m75 -10 c0 -21 -15 -27 -25 -10 -7 12 2 30 16 30 5 0 9 -9 9
-20z m250 5 c0 -8 -4 -15 -10 -15 -5 0 -10 7 -10 15 0 8 5 15 10 15 6 0 10 -7
10 -15z m590 -39 c0 -5 -7 -3 -15 4 -8 7 -12 17 -9 22 7 10 24 -9 24 -26z
m-552 -13 c-10 -12 -14 -12 -27 2 -14 14 -14 17 -1 25 21 13 44 -8 28 -27z
m-318 12 c10 -12 9 -16 -5 -21 -19 -8 -40 9 -31 25 10 15 21 14 36 -4z m350
-30 c-7 -9 -15 -13 -17 -11 -7 7 7 26 19 26 6 0 6 -6 -2 -15z m504 -1 c3 -9 6
-34 6 -56 l0 -40 -52 7 c-77 11 -152 39 -156 59 -7 36 16 46 108 46 71 0 89
-3 94 -16z m-1228 -8 c10 -27 -14 -50 -78 -73 -59 -21 -64 -22 -75 -6 -7 9
-13 27 -13 40 0 13 -1 26 -2 30 -4 11 47 20 110 22 37 1 54 -3 58 -13z m344
-6 c0 -5 -5 -12 -11 -16 -12 -7 -31 15 -23 28 6 9 34 -1 34 -12z m383 -25 c44
-21 54 -47 32 -82 -17 -25 -17 -26 -119 -19 -55 3 -150 2 -210 -4 -97 -8 -112
-8 -128 7 -40 36 -6 72 107 110 57 19 270 11 318 -12z m518 -98 c-8 -8 -11 -7
-11 4 0 9 3 19 7 23 4 4 9 2 11 -4 3 -7 -1 -17 -7 -23z m-1391 -9 c15 -21 17
-28 6 -19 -16 13 -41 51 -33 51 2 0 14 -15 27 -32z m947 -64 c254 -73 386
-199 445 -424 27 -107 36 -383 15 -500 -18 -101 -67 -240 -107 -303 -28 -44
-112 -116 -137 -117 -6 0 1 23 17 53 63 116 90 281 90 559 0 280 -28 380 -139
497 -131 137 -338 183 -592 131 -195 -40 -331 -127 -395 -252 -51 -100 -64
-191 -64 -455 l0 -243 -27 -30 c-60 -65 -127 -43 -156 52 -52 169 -37 609 24
734 13 27 51 75 84 107 182 179 652 274 942 191z m-807 -46 c12 -4 10 -7 -6
-16 -19 -10 -22 -9 -27 13 -3 18 -1 23 7 16 6 -4 18 -10 26 -13z m1080 -28 c0
-5 -4 -10 -10 -10 -5 0 -10 5 -10 10 0 6 5 10 10 10 6 0 10 -4 10 -10z m-346
-65 c91 -19 159 -55 224 -118 76 -74 109 -147 127 -284 9 -61 15 -144 13 -185
l-3 -73 -60 -7 c-134 -17 -276 -102 -341 -204 -60 -93 -76 -155 -70 -259 2
-50 8 -101 12 -114 l7 -24 -244 6 c-307 7 -347 17 -447 111 -41 38 -82 102
-82 126 0 5 6 10 14 10 29 0 73 49 85 94 6 26 11 129 11 240 0 193 11 317 33
384 10 29 17 36 41 37 15 0 31 -5 33 -12 8 -21 63 -45 88 -39 18 5 25 1 30
-14 3 -11 17 -23 31 -26 18 -5 24 -13 24 -34 0 -19 9 -36 26 -49 31 -25 53
-26 80 -6 34 26 39 16 7 -17 -30 -32 -31 -35 -26 -105 3 -44 10 -70 15 -66 6
3 8 32 6 66 -4 56 -2 65 25 104 24 33 30 52 29 87 -1 25 7 73 19 106 11 33 18
64 14 70 -11 17 17 128 36 146 11 9 19 28 19 41 0 22 3 23 78 23 42 0 108 -7
146 -15z m-246 -12 c-5 -25 -25 -27 -38 -4 -10 19 -8 21 15 21 19 0 26 -5 23
-17z m-55 -26 c12 -36 3 -69 -23 -85 -27 -16 -53 -2 -70 38 -12 28 -11 33 11
56 31 33 69 29 82 -9z m-123 -1 c0 -8 -16 -16 -39 -20 -22 -3 -46 -13 -55 -21
-17 -18 -26 -19 -26 -4 0 9 92 57 113 58 4 1 7 -5 7 -13z m8 -61 c17 -36 15
-45 -10 -72 -25 -27 -54 -29 -80 -6 -24 21 -23 44 3 77 28 35 71 36 87 1z
m-135 -19 c4 -10 -4 -17 -26 -21 -18 -4 -42 -16 -54 -28 -13 -11 -23 -16 -23
-10 0 13 70 72 86 73 7 0 14 -6 17 -14z m257 -26 c0 -5 -4 -10 -10 -10 -5 0
-10 5 -10 10 0 6 5 10 10 10 6 0 10 -4 10 -10z m-51 -15 c35 -18 45 -52 25
-82 -20 -32 -37 -29 -68 11 -22 29 -23 36 -11 46 8 7 15 19 15 26 0 18 4 17
39 -1z m-190 -29 c46 -49 -6 -113 -67 -84 -32 16 -40 50 -18 84 21 31 56 31
85 0z m-126 -36 c-3 -11 -12 -20 -19 -20 -17 0 -17 5 -2 29 15 24 28 18 21 -9z
m239 -7 c24 -21 23 -58 -2 -83 -22 -22 -42 -25 -71 -10 -23 13 -24 23 -1 71
19 42 44 50 74 22z m89 -68 c1 -16 -16 -16 -36 0 -19 15 -19 15 8 13 15 -2 28
-7 28 -13z m-22 -47 c13 -23 13 -29 -3 -52 -21 -33 -61 -32 -83 0 -13 20 -11
24 19 53 37 35 47 35 67 -1z m721 -369 c0 -15 -7 -19 -35 -19 -108 0 -238 -99
-302 -228 -35 -70 -38 -83 -38 -161 0 -48 4 -96 8 -107 7 -19 3 -22 -25 -27
-19 -2 -36 0 -40 7 -12 19 -20 113 -16 184 10 183 175 345 378 371 64 8 70 7
70 -20z m-5 -59 c-3 -4 -23 -11 -45 -15 -22 -4 -67 -24 -100 -46 -71 -45 -131
-130 -150 -210 -12 -49 -9 -136 6 -187 6 -21 4 -23 -17 -20 -30 4 -53 73 -44
138 22 179 146 326 294 349 48 8 65 5 56 -9z m-10 -82 c-16 -101 -47 -214 -78
-282 -37 -79 -57 -94 -131 -99 -48 -2 -53 10 -55 119 -1 80 23 140 84 211 37
44 123 93 163 93 22 0 23 -2 17 -42z m-1248 -190 c-3 -7 -5 -2 -5 12 0 14 2
19 5 13 2 -7 2 -19 0 -25z m191 -197 c46 -23 57 -36 17 -21 -71 27 -105 53
-147 115 -14 20 -4 13 33 -21 30 -29 73 -62 97 -73z m982 9 c0 -5 -4 -10 -9
-10 -5 0 -18 -3 -28 -6 -16 -6 -16 -5 2 9 23 19 35 21 35 7z m-245 -50 c3 -6
-4 -10 -17 -10 -18 0 -20 2 -8 10 19 12 18 12 25 0z m72 4 c-3 -3 -12 -4 -19
-1 -8 3 -5 6 6 6 11 1 17 -2 13 -5z m-162 -14 c4 -6 -24 -9 -77 -8 l-83 1 65
7 c36 4 70 7 77 8 6 1 15 -2 18 -8z m-267 -7 c-10 -2 -26 -2 -35 0 -10 3 -2 5
17 5 19 0 27 -2 18 -5z"/>
<path d="M790 1500 c-84 -10 -140 -25 -220 -57 -255 -104 -347 -297 -324 -683
4 -80 7 -169 7 -198 -1 -33 3 -50 9 -46 6 4 8 74 3 203 -10 278 18 440 92 537
53 69 76 87 174 139 131 68 230 89 419 89 141 0 162 -3 235 -27 111 -37 178
-78 226 -139 82 -104 104 -176 120 -393 14 -196 -9 -432 -56 -581 -6 -18 -6
-18 8 -1 41 49 82 375 71 567 -13 230 -52 348 -149 445 -128 127 -339 177
-615 145z"/>
<path d="M1291 874 c-37 -31 -39 -57 -6 -89 47 -48 125 -23 125 40 0 24 -7 39
-26 54 -35 28 -56 26 -93 -5z m91 -29 c9 -21 8 -28 -7 -45 -22 -24 -42 -25
-67 -3 -22 20 -23 31 -1 55 24 26 61 23 75 -7z"/>
<path d="M1080 807 c-58 -29 -46 -112 20 -131 87 -26 136 95 54 133 -31 14
-43 14 -74 -2z m80 -31 c15 -20 9 -56 -12 -70 -26 -16 -72 4 -76 34 -6 42 60
69 88 36z"/>
<path d="M918 683 c-39 -25 -51 -58 -33 -92 27 -54 117 -58 145 -7 17 33 -2
81 -41 101 -35 18 -38 18 -71 -2z m76 -29 c21 -20 20 -43 -1 -66 -22 -24 -58
-23 -77 3 -34 49 36 106 78 63z"/>
<path d="M804 463 c-52 -56 10 -138 84 -112 28 9 52 44 52 73 0 7 -11 25 -25
40 -33 35 -78 35 -111 -1z m88 -10 c24 -21 23 -45 -2 -68 -16 -15 -26 -17 -48
-9 -36 13 -42 56 -10 78 28 20 37 20 60 -1z"/>
<path d="M853 290 c-12 -5 -29 -20 -38 -34 -15 -22 -15 -27 0 -55 25 -50 93
-56 127 -10 27 36 15 77 -28 95 -18 8 -35 14 -36 13 -2 0 -13 -4 -25 -9z m65
-32 c19 -19 14 -45 -10 -62 -29 -20 -34 -20 -58 4 -24 24 -25 34 -4 54 18 19
55 21 72 4z"/>
</g>
</svg>
