<?xml version="1.0" standalone="no"?>
<!DOCTYPE svg PUBLIC "-//W3C//DTD SVG 20010904//EN"
 "http://www.w3.org/TR/2001/REC-SVG-20010904/DTD/svg10.dtd">
<svg version="1.0" xmlns="http://www.w3.org/2000/svg"
 width="232.000000pt" height="300.000000pt" viewBox="0 0 232.000000 300.000000"
 preserveAspectRatio="xMidYMid meet">

<g transform="translate(0.000000,300.000000) scale(0.100000,-0.100000)"
fill="#000000" stroke="none">
<path d="M910 2680 c-189 -12 -308 -66 -420 -188 -76 -82 -140 -209 -177 -347
-23 -87 -26 -121 -27 -260 -1 -143 1 -167 22 -225 13 -36 38 -88 57 -116 l34
-52 -48 -49 c-53 -55 -106 -155 -116 -219 -26 -169 169 -294 460 -298 105 -1
159 19 217 78 l36 37 40 -26 c135 -89 339 -98 488 -20 l64 34 55 -34 c108 -64
228 -72 325 -19 165 90 188 296 47 420 l-45 40 39 64 c82 137 131 358 132 595
1 161 -10 212 -67 310 -62 106 -212 208 -376 256 -68 20 -100 22 -350 24 -151
2 -327 -1 -390 -5z m708 -101 c103 -26 192 -71 257 -131 101 -92 135 -178 135
-343 0 -358 -110 -635 -290 -730 -48 -26 -186 -30 -469 -16 -481 26 -638 59
-754 161 -106 93 -146 237 -126 447 23 248 127 456 277 551 98 63 155 75 397
82 291 9 481 2 573 -21z m-1096 -1180 c29 -17 83 -41 119 -52 57 -18 70 -26
83 -55 12 -24 13 -38 6 -52 -14 -26 -66 -39 -110 -27 -59 15 -84 14 -88 -6 -5
-22 68 -56 122 -57 82 0 159 75 136 135 -8 20 -7 26 2 23 40 -13 1 -134 -54
-168 -28 -18 -45 -21 -111 -17 -99 5 -132 26 -132 83 0 33 -4 40 -22 42 -28 4
-47 -37 -38 -79 22 -98 237 -143 338 -72 51 35 87 102 87 160 0 37 3 43 21 43
21 0 21 -3 15 -82 -10 -110 -34 -160 -90 -187 -51 -25 -143 -28 -244 -6 -168
35 -242 86 -242 169 0 58 50 156 102 201 23 19 43 35 44 35 2 0 27 -14 56 -31z
m1398 -77 c87 -86 69 -206 -38 -269 -37 -22 -59 -28 -102 -27 -63 1 -162 40
-178 71 -17 30 -24 106 -13 133 5 14 10 19 10 12 2 -39 35 -82 78 -103 89 -43
210 -23 221 36 5 23 -17 36 -39 24 -45 -24 -91 -9 -121 39 -21 34 -21 36 -4
46 11 6 40 25 65 42 25 18 54 32 65 33 10 1 35 -16 56 -37z m-840 -72 c8 -48
33 -82 79 -108 95 -54 218 -5 237 94 6 33 7 34 55 34 l49 0 0 -73 c0 -88 -11
-106 -82 -138 -46 -21 -68 -24 -173 -24 -114 0 -123 1 -173 30 -80 44 -92 64
-92 152 l0 74 47 -3 c46 -3 48 -4 53 -38z m233 20 c35 0 37 -31 2 -65 -34 -35
-111 -35 -149 0 -25 23 -34 54 -18 69 4 5 36 5 72 2 36 -3 77 -6 93 -6z"/>
<path d="M874 2435 c-147 -32 -267 -128 -310 -247 -17 -48 -39 -462 -28 -536
8 -56 40 -102 90 -129 56 -31 269 -91 389 -110 197 -30 481 -1 605 62 103 52
189 171 225 309 73 288 -39 569 -259 646 -51 18 -82 20 -353 19 -208 0 -316
-5 -359 -14z m342 -6 c9 -15 -14 -55 -41 -69 -31 -17 -75 -5 -75 19 0 41 96
82 116 50z m374 -60 c97 -43 129 -101 95 -173 -15 -32 -78 -76 -108 -76 -8 0
-20 -7 -27 -16 -11 -12 -11 -18 2 -31 15 -14 21 -14 65 1 54 18 95 52 119 98
15 30 17 31 30 14 14 -20 44 -140 44 -179 0 -33 -52 -102 -92 -123 -18 -10
-55 -23 -83 -29 -39 -9 -51 -16 -53 -33 -3 -19 1 -22 36 -22 47 0 112 22 153
50 28 20 29 21 29 2 0 -10 -7 -42 -16 -71 -14 -47 -20 -55 -57 -71 -23 -10
-84 -23 -136 -28 -93 -10 -115 -20 -104 -50 6 -14 63 -13 192 5 l44 6 -22 -32
c-24 -34 -93 -84 -138 -102 -15 -6 -72 -19 -126 -30 -115 -22 -344 -25 -447
-6 l-65 13 75 7 c104 10 157 38 182 95 15 34 18 55 13 91 -20 133 -108 188
-322 198 -125 6 -187 -4 -245 -42 l-36 -24 5 137 c2 75 9 160 14 189 26 133
170 243 324 245 57 1 206 -40 229 -62 4 -4 -3 -16 -17 -25 -21 -13 -32 -14
-64 -6 -60 17 -101 14 -113 -8 -5 -11 -10 -47 -10 -80 0 -49 4 -64 22 -81 29
-26 56 -25 128 5 74 31 90 31 176 0 l69 -24 18 21 c12 14 17 31 13 48 -3 17 4
37 21 62 27 40 26 81 -2 92 -9 3 -38 -3 -65 -14 -100 -40 -57 15 52 65 61 28
122 26 198 -6z m-287 -127 c35 4 35 4 30 -32 -3 -19 -6 -36 -7 -37 -1 -1 -28
7 -60 18 -66 23 -102 20 -175 -12 -68 -30 -83 -26 -79 19 l3 37 71 -3 c64 -3
74 -1 100 21 l28 25 27 -20 c19 -14 38 -19 62 -16z m-350 -427 c43 -7 94 -22
114 -32 44 -23 73 -74 73 -129 0 -76 -49 -104 -182 -104 -146 0 -294 47 -329
104 -76 124 85 204 324 161z"/>
<path d="M745 1737 c-48 -41 -34 -123 26 -147 41 -17 103 3 132 41 59 81 -80
174 -158 106z m90 -39 c30 -13 32 -33 6 -48 -46 -24 -91 9 -61 45 15 18 22 18
55 3z"/>
<path d="M970 570 l0 -150 30 0 c30 0 30 1 30 55 0 30 4 55 10 55 5 0 26 -25
46 -55 33 -48 41 -55 70 -55 19 0 34 3 34 7 0 4 -22 39 -50 79 -27 40 -50 75
-50 79 0 4 23 33 50 65 28 32 50 60 50 64 0 3 -15 6 -34 6 -29 0 -41 -8 -80
-52 l-46 -53 0 53 c0 51 -1 52 -30 52 l-30 0 0 -150z"/>
<path d="M1407 709 c-20 -12 -22 -40 -5 -57 9 -9 9 -12 0 -12 -8 0 -12 -37
-14 -122 -3 -120 -4 -123 -26 -126 -19 -3 -23 -9 -20 -30 3 -23 7 -27 33 -24
17 2 41 14 55 28 24 23 25 32 29 149 2 98 0 125 -10 125 -10 0 -10 3 -1 12 30
30 -4 77 -41 57z"/>
<path d="M1210 611 c-37 -36 -46 -72 -31 -122 15 -51 51 -74 113 -73 55 1 73
13 63 43 -5 16 -12 19 -35 14 -39 -7 -80 4 -80 22 0 12 14 15 65 15 l65 0 0
30 c0 37 -23 85 -45 94 -40 15 -87 6 -115 -23z m94 -36 c4 -12 -3 -15 -29 -15
-34 0 -47 13 -22 23 24 10 45 7 51 -8z"/>
</g>
</svg>
