<?xml version="1.0" standalone="no"?>
<!DOCTYPE svg PUBLIC "-//W3C//DTD SVG 20010904//EN"
 "http://www.w3.org/TR/2001/REC-SVG-20010904/DTD/svg10.dtd">
<svg version="1.0" xmlns="http://www.w3.org/2000/svg"
 width="174.000000pt" height="203.000000pt" viewBox="0 0 174.000000 203.000000"
 preserveAspectRatio="xMidYMid meet">
<metadata>
Created by potrace 1.10, written by Peter Selinger 2001-2011
</metadata>
<g transform="translate(0.000000,203.000000) scale(0.100000,-0.100000)"
fill="#000000" stroke="none">
<path d="M638 1980 c-122 -21 -228 -53 -252 -78 -10 -9 -25 -33 -34 -52 -14
-29 -33 -43 -105 -78 -98 -47 -117 -73 -117 -154 1 -84 15 -120 69 -168 l50
-45 -30 -40 c-64 -84 -110 -198 -146 -360 -27 -122 -24 -407 5 -535 54 -236
159 -342 401 -408 90 -24 111 -26 331 -26 159 -1 259 3 310 13 238 44 408 147
487 297 58 111 81 195 87 319 10 227 -73 529 -187 678 -21 26 -37 51 -37 55 0
4 19 16 41 26 55 27 72 63 70 153 -2 115 -24 152 -111 193 -40 19 -52 30 -61
59 -15 47 -25 59 -71 82 -158 81 -456 110 -700 69z m500 -59 c114 -25 194 -53
202 -71 4 -8 15 -32 23 -52 13 -29 29 -43 74 -65 72 -35 90 -62 98 -144 7 -64
6 -67 -24 -101 -43 -50 -77 -54 -120 -16 -51 45 -112 69 -230 89 -113 19 -183
55 -189 97 -4 26 -56 72 -83 72 -35 0 -76 -28 -87 -59 -15 -44 -80 -86 -154
-101 -101 -20 -220 -57 -283 -89 l-59 -30 -46 20 c-57 25 -71 47 -78 126 -6
78 0 86 98 130 76 35 109 64 110 95 0 44 146 96 335 118 103 13 313 3 413 -19z
m-209 -266 c8 -16 18 -38 23 -48 5 -11 8 -20 6 -22 -2 -2 -47 -5 -100 -7 l-97
-3 28 30 c15 17 35 43 45 58 24 39 74 35 95 -8z m99 -103 c4 -14 -27 -16 -46
-4 -7 5 -10 16 -6 26 6 15 9 15 27 3 12 -8 23 -19 25 -25z m-263 -2 c3 -5 2
-10 -4 -10 -5 0 -13 5 -16 10 -3 6 -2 10 4 10 5 0 13 -4 16 -10z m121 -177
c-8 -49 -23 -115 -33 -148 l-19 -60 -52 -3 c-50 -3 -62 4 -43 23 17 18 51 203
51 274 l0 70 53 3 52 3 3 -37 c2 -21 -4 -77 -12 -125z m192 153 c104 -55 154
-195 104 -293 -42 -80 -127 -125 -276 -144 -184 -22 -374 7 -439 68 -38 36
-67 98 -67 146 0 51 44 141 84 172 33 25 123 61 131 53 3 -3 -24 -23 -59 -45
-70 -45 -106 -101 -106 -167 0 -46 31 -108 67 -134 101 -71 383 -78 520 -11
78 37 123 99 123 167 0 55 -38 127 -85 162 -50 36 -48 52 3 26z m-55 -34 c21
-14 50 -45 64 -69 21 -37 25 -53 21 -100 -4 -51 -9 -61 -43 -90 -51 -44 -204
-92 -192 -59 26 67 48 162 58 251 13 119 14 120 92 67z m274 -13 c71 -34 164
-143 221 -260 54 -109 106 -256 118 -325 l6 -41 -118 -7 c-215 -13 -324 -25
-355 -41 -17 -9 -49 -45 -74 -84 -24 -37 -51 -73 -59 -81 -12 -9 -65 -13 -203
-14 l-187 -1 -43 62 c-67 96 -101 108 -288 107 -82 0 -163 -4 -179 -8 l-29 -7
6 108 c3 63 14 139 27 183 30 106 104 254 149 299 39 39 128 97 136 89 2 -2
-7 -26 -21 -53 -21 -42 -25 -61 -22 -117 7 -124 83 -190 257 -222 191 -35 411
-2 505 76 43 35 86 117 86 164 0 54 -30 134 -66 173 -19 21 -34 41 -34 44 0 9
124 -23 167 -44z m-547 -3 c0 -66 -19 -190 -39 -254 -15 -51 -20 -57 -42 -54
-61 7 -106 27 -141 62 -34 33 -38 43 -38 87 0 83 58 144 175 184 79 28 85 26
85 -25z m-459 -59 c-1 -12 -15 -9 -19 4 -3 6 1 10 8 8 6 -3 11 -8 11 -12z
m1359 -632 l0 -35 -142 0 c-79 0 -172 -5 -208 -10 -73 -10 -86 -21 -150 -125
-52 -84 -55 -85 -302 -85 -253 0 -262 3 -317 93 -20 32 -45 64 -56 70 -13 8
-78 12 -193 12 -172 -1 -172 -1 -172 21 0 19 7 24 47 30 26 4 106 7 177 8 120
1 134 -1 172 -23 26 -14 54 -44 75 -77 25 -39 43 -57 69 -65 43 -15 359 -5
390 11 12 6 37 37 57 68 49 79 81 111 117 117 41 8 251 22 354 24 l82 1 0 -35z
m-1563 -27 c-3 -8 -6 -5 -6 6 -1 11 2 17 5 13 3 -3 4 -12 1 -19z m1557 -57 c9
-13 -13 -143 -36 -211 -41 -128 -91 -201 -183 -271 -80 -61 -297 -129 -409
-129 l-44 0 25 62 c27 67 83 277 83 312 0 15 9 25 28 32 20 8 43 34 73 84 66
108 67 109 249 118 85 4 167 8 182 9 15 1 30 -1 32 -6z m-1546 -40 c-7 -9 -14
-18 -15 -20 -2 -2 -3 10 -3 29 0 28 2 31 15 20 12 -10 13 -16 3 -29z m340 -7
c13 -4 41 -35 67 -74 35 -52 54 -71 80 -80 19 -6 35 -13 35 -15 0 -24 -113
-359 -126 -374 -4 -4 -132 37 -165 55 -47 24 -126 112 -154 172 -28 60 -49
145 -61 249 l-6 62 73 4 c143 6 234 7 257 1z m272 -174 c0 -21 -44 -166 -80
-264 -41 -111 -43 -116 -71 -116 -16 0 -29 2 -29 5 0 3 15 50 34 103 18 53 43
133 55 177 12 44 24 85 26 91 3 11 65 15 65 4z m340 -2 c-1 -29 -61 -252 -92
-340 -19 -53 -23 -58 -50 -58 -25 0 -29 3 -22 18 20 47 74 220 89 289 10 43
19 84 21 91 2 6 15 12 29 12 14 0 25 -6 25 -12z m-91 -68 c-11 -39 -38 -127
-62 -198 l-42 -127 -113 1 c-62 1 -115 4 -117 6 -2 2 12 43 31 91 19 48 47
134 62 192 l27 105 116 0 116 0 -18 -70z"/>
<path d="M1000 1850 c-25 -25 -25 -42 0 -65 16 -15 25 -16 44 -7 36 16 44 52
16 74 -28 23 -35 23 -60 -2z m50 -16 c11 -12 10 -18 -3 -32 -16 -15 -18 -15
-34 0 -13 14 -14 20 -3 32 7 9 16 16 20 16 4 0 13 -7 20 -16z"/>
<path d="M573 1840 c-42 -14 -68 -29 -82 -48 -10 -15 -48 -42 -84 -60 -45 -23
-69 -42 -82 -66 -21 -39 -14 -82 14 -91 11 -3 71 10 135 30 63 19 143 39 179
43 74 9 110 29 133 73 19 38 12 88 -15 114 -30 27 -124 29 -198 5z m87 -15 c0
-3 -5 -14 -12 -24 -11 -18 -13 -18 -36 -3 l-25 16 24 7 c31 9 49 10 49 4z m70
-4 c0 -18 -18 -21 -30 -6 -10 13 -9 15 9 15 11 0 21 -4 21 -9z m40 -46 c0 -18
-1 -18 -16 -3 -10 10 -14 23 -10 34 6 16 8 16 16 4 6 -8 10 -24 10 -35z m-210
15 c-12 -21 -25 -26 -35 -11 -3 6 3 14 12 20 27 16 35 13 23 -9z m150 -10 c0
-3 -4 -11 -9 -19 -7 -10 -13 -11 -30 -2 -17 10 -19 15 -9 30 9 15 15 17 30 8
10 -7 18 -14 18 -17z m-97 -3 c15 -10 16 -15 4 -31 -11 -15 -17 -17 -35 -7
-19 10 -20 14 -9 31 14 23 18 24 40 7z m-84 -49 c-8 -15 -13 -17 -24 -8 -11 9
-12 17 -4 32 8 15 13 17 24 8 11 -9 12 -17 4 -32z m231 12 c0 -3 -5 -12 -10
-20 -8 -13 -11 -13 -25 1 -9 8 -13 23 -9 32 5 13 9 14 25 4 10 -6 19 -14 19
-17z m-91 -4 c11 -13 6 -46 -8 -46 -3 0 -15 7 -25 15 -16 12 -17 17 -6 30 15
19 24 19 39 1z m-210 -30 c-10 -21 -14 -23 -30 -13 -24 15 -24 24 -1 30 38 10
42 8 31 -17z m120 15 c11 -7 12 -15 5 -30 -8 -17 -11 -18 -27 -7 -10 8 -15 20
-11 30 7 18 13 19 33 7z m-73 -38 c-3 -8 -6 -17 -6 -19 0 -2 -7 -4 -15 -4 -16
0 -19 9 -9 34 3 8 12 12 20 9 9 -3 13 -12 10 -20z m214 12 c11 -13 8 -15 -13
-15 -19 0 -25 4 -21 15 4 8 10 15 14 15 4 0 13 -7 20 -15z m-348 -27 c-7 -7
-12 -8 -12 -2 0 14 12 26 19 19 2 -3 -1 -11 -7 -17z m68 -3 c0 -14 -14 -35
-24 -35 -23 0 -36 22 -25 42 8 14 14 16 29 8 11 -6 20 -12 20 -15z m194 16 c3
-5 -3 -11 -14 -14 -13 -3 -20 0 -20 9 0 15 26 19 34 5z m-91 -32 c-30 -12 -34
-10 -23 12 10 17 14 18 27 8 13 -12 13 -14 -4 -20z m-183 -7 c0 -5 -7 -17 -15
-28 -14 -19 -14 -19 -15 2 0 11 3 24 7 27 9 10 23 9 23 -1z m115 -2 c3 -5 4
-10 1 -10 -2 0 -12 -3 -20 -6 -12 -5 -15 -2 -10 10 7 18 20 21 29 6z m-78 -27
c2 -6 -5 -13 -17 -16 -22 -6 -23 -5 -14 18 7 17 25 16 31 -2z"/>
<path d="M1186 1748 c-13 -19 -14 -25 -2 -43 18 -27 43 -31 67 -9 23 21 24 37
3 58 -22 22 -50 20 -68 -6z m62 -21 c4 -22 -24 -33 -43 -17 -12 10 -13 16 -4
27 16 18 43 13 47 -10z"/>
<path d="M1342 1658 c-19 -19 -14 -45 10 -62 19 -13 25 -14 43 -2 25 16 31 42
15 61 -15 18 -52 19 -68 3z m56 -29 c4 -19 -19 -31 -38 -19 -18 11 -4 42 17
38 10 -2 19 -10 21 -19z"/>
</g>
</svg>
