<?xml version="1.0" standalone="no"?>
<!DOCTYPE svg PUBLIC "-//W3C//DTD SVG 20010904//EN"
 "http://www.w3.org/TR/2001/REC-SVG-20010904/DTD/svg10.dtd">
<svg version="1.0" xmlns="http://www.w3.org/2000/svg"
 width="219.000000pt" height="174.000000pt" viewBox="0 0 219.000000 174.000000"
 preserveAspectRatio="xMidYMid meet">
<metadata>
Created by potrace 1.10, written by Peter Selinger 2001-2011
</metadata>
<g transform="translate(0.000000,174.000000) scale(0.100000,-0.100000)"
fill="#000000" stroke="none">
<path d="M1520 1640 c-36 -3 -89 -14 -118 -24 -51 -17 -54 -17 -73 0 -28 25
-102 28 -278 10 -120 -13 -163 -21 -189 -38 -31 -19 -37 -20 -75 -7 -62 21
-240 16 -367 -10 -110 -23 -192 -55 -248 -98 -44 -34 -88 -129 -103 -225 -15
-94 -7 -261 14 -311 15 -35 15 -42 2 -67 -10 -20 -15 -59 -15 -122 0 -79 4
-101 26 -148 14 -30 32 -63 41 -72 14 -16 14 -20 -9 -50 -62 -83 -104 -248
-79 -311 22 -56 128 -73 235 -38 56 18 58 18 99 -2 69 -33 195 -45 379 -35 90
5 242 5 338 2 193 -8 413 -7 504 2 69 7 150 33 214 69 31 18 60 25 96 25 68 0
144 24 177 56 52 50 62 204 19 301 -18 41 -18 42 3 85 39 76 20 251 -33 312
l-29 32 21 60 c30 85 32 320 4 414 -26 86 -60 136 -114 167 -42 25 -51 26
-210 28 -92 1 -196 -1 -232 -5z m427 -76 c26 -20 67 -84 58 -92 -3 -3 -43 3
-90 13 -81 17 -129 15 -109 -5 5 -5 52 -16 104 -25 52 -9 97 -18 101 -21 9 -5
31 -105 25 -111 -2 -2 -12 0 -23 6 -30 17 -153 51 -185 51 -53 0 -25 -23 43
-36 79 -15 154 -47 163 -69 3 -9 6 -32 6 -51 l0 -34 -37 19 c-42 21 -171 61
-197 61 -39 0 -10 -20 67 -46 45 -15 99 -35 120 -46 33 -16 37 -22 37 -57 0
-70 -7 -76 -49 -39 -53 48 -168 105 -182 91 -8 -8 11 -22 71 -54 47 -25 93
-58 108 -77 23 -30 24 -35 10 -49 -14 -13 -22 -9 -77 42 -78 74 -114 100 -181
135 -61 31 -192 74 -257 85 -44 7 -93 38 -93 59 0 8 25 12 85 11 72 0 87 3
105 21 29 28 29 79 1 107 -19 19 -32 22 -111 22 l-90 0 0 33 c0 28 5 35 35 48
57 24 161 33 343 30 154 -2 175 -4 199 -22z m-653 5 c13 -7 30 -24 36 -40 14
-33 17 -227 4 -238 -5 -4 -35 -5 -66 -3 l-58 4 0 84 c0 72 -3 86 -21 103 -29
27 -69 34 -118 21 -63 -17 -81 -48 -81 -140 l0 -78 -51 -4 c-28 -1 -54 1 -57
7 -3 5 -8 62 -10 126 -5 143 -11 137 162 150 67 5 128 11 136 13 34 8 101 5
124 -5z m-532 -39 c31 -9 39 -17 51 -55 l16 -45 -57 6 c-80 7 -126 -16 -130
-67 -5 -56 30 -79 120 -79 51 0 69 -3 66 -12 -5 -14 -14 -17 -123 -43 -129
-31 -275 -118 -435 -261 -72 -64 -115 -73 -126 -27 -6 23 1 34 62 89 38 35 88
73 112 86 23 13 42 29 42 35 0 31 -60 1 -157 -78 -39 -33 -74 -59 -77 -59 -3
0 -6 24 -6 53 0 45 4 57 28 80 37 35 191 127 214 127 20 0 24 15 7 25 -12 8
-118 -42 -190 -91 -29 -19 -53 -33 -56 -31 -2 2 0 28 4 57 8 52 8 52 73 86 36
19 96 47 134 62 39 16 72 34 74 40 8 24 -46 10 -147 -38 -57 -28 -106 -48
-109 -46 -5 6 36 66 58 84 90 74 426 137 552 102z m78 -6 c0 -8 -4 -12 -10 -9
-5 3 -10 10 -10 16 0 5 5 9 10 9 6 0 10 -7 10 -16z m334 -70 c3 -9 6 -49 6
-90 l0 -74 -30 0 c-28 0 -30 2 -30 40 0 51 -16 52 -24 1 -5 -32 -10 -40 -33
-44 -16 -3 -31 -3 -35 0 -5 2 -8 33 -8 67 0 89 22 116 95 116 39 0 54 -4 59
-16z m863 -6 c-3 -8 -6 -5 -6 6 -1 11 2 17 5 13 3 -3 4 -12 1 -19z m-489 -10
c19 -19 15 -66 -7 -78 -41 -22 -161 -6 -161 21 0 8 16 10 53 5 28 -3 63 -7 76
-8 13 -2 26 2 28 8 4 13 -70 34 -121 34 -25 0 -36 4 -36 15 0 12 15 15 78 15
47 0 83 -5 90 -12z m-749 -34 c44 -9 39 -24 -9 -24 -40 0 -90 -17 -90 -31 0
-4 32 -5 70 -2 61 5 70 4 70 -11 0 -11 -10 -16 -32 -18 -107 -5 -138 6 -138
47 0 35 59 53 129 39z m-673 -91 c-10 -10 -19 5 -10 18 6 11 8 11 12 0 2 -7 1
-15 -2 -18z m1944 -14 c0 -11 -4 -17 -10 -14 -5 3 -10 13 -10 21 0 8 5 14 10
14 6 0 10 -9 10 -21z m-750 -59 c153 -17 297 -62 422 -130 50 -27 158 -115
158 -128 0 -4 -29 -15 -65 -24 -99 -26 -215 -84 -262 -130 -57 -56 -76 -115
-71 -219 l3 -79 -30 0 c-17 0 -46 -4 -64 -10 -25 -7 -39 -6 -49 2 -22 19 -135
15 -167 -6 -25 -16 -29 -16 -60 -2 -50 24 -148 20 -218 -8 -48 -20 -64 -23
-88 -14 -16 6 -61 8 -100 6 -59 -3 -69 -1 -63 12 12 31 16 196 5 235 -14 54
-61 108 -115 134 -53 25 -208 53 -242 45 -34 -9 -30 0 22 48 175 163 369 240
684 271 76 8 219 6 300 -3z m-1219 -97 c-9 -16 -10 -14 -11 12 0 21 3 26 11
18 8 -8 8 -16 0 -30z m1931 -138 c-9 -25 -19 -45 -23 -45 -7 0 11 56 24 78 16
24 16 11 -1 -33z m-1919 -20 c-7 -21 -13 -19 -13 6 0 11 4 18 10 14 5 -3 7
-12 3 -20z m1895 -56 c36 -12 47 -38 62 -152 17 -122 -12 -155 -127 -142 -57
6 -83 -1 -83 -20 0 -8 24 -14 71 -18 79 -7 91 -14 122 -71 28 -52 30 -190 3
-230 -32 -49 -185 -49 -281 0 -78 39 -178 133 -209 196 -33 66 -36 189 -7 254
30 66 128 127 271 170 84 26 132 29 178 13z m-1873 -28 c3 -5 1 -12 -5 -16 -5
-3 -10 1 -10 9 0 18 6 21 15 7z m325 -32 c88 -19 147 -62 169 -122 30 -78 -3
-295 -55 -370 -33 -47 -126 -112 -233 -164 -83 -40 -197 -57 -226 -33 -38 32
-2 199 59 267 20 23 112 63 146 63 22 0 36 18 24 30 -5 4 -33 5 -62 1 -115
-16 -160 63 -153 271 2 62 16 68 159 68 70 0 147 -5 172 -11z m1608 -264 c-8
-18 -15 -22 -22 -15 -7 7 -4 15 10 25 25 19 25 19 12 -10z m-1868 -96 c0 -4
-6 -9 -14 -12 -9 -4 -16 3 -18 18 -4 20 -3 22 14 12 10 -7 18 -15 18 -18z
m907 -26 c19 -9 39 -27 44 -41 12 -32 2 -104 -24 -165 -15 -36 -17 -51 -9 -59
19 -19 63 95 69 180 7 87 21 102 98 102 42 0 56 -5 76 -26 35 -38 33 -131 -5
-201 -16 -28 -25 -56 -21 -62 10 -17 23 -4 52 52 21 41 27 67 27 122 0 39 -2
76 -4 84 -4 11 6 17 34 22 58 10 71 3 110 -60 19 -32 42 -64 51 -71 17 -14 20
-76 5 -116 -7 -17 -7 -31 -1 -37 12 -12 41 43 41 78 0 29 7 31 38 9 13 -9 48
-26 79 -38 l55 -23 -33 -21 c-54 -33 -134 -50 -284 -60 -149 -11 -926 -8 -997
3 -55 8 -108 25 -108 33 0 4 39 32 86 62 92 59 137 106 158 167 15 45 43 54
132 42 46 -6 64 -14 83 -35 34 -40 26 -107 -23 -178 -40 -58 -43 -66 -22 -66
21 0 64 59 82 114 16 45 15 98 -1 138 -5 12 2 21 27 34 68 36 133 42 185 17z
m748 -263 c-3 -5 -11 -10 -16 -10 -6 0 -7 5 -4 10 3 6 11 10 16 10 6 0 7 -4 4
-10z m-1469 -57 c-7 -7 -26 7 -26 19 0 6 6 6 15 -2 9 -7 13 -15 11 -17z"/>
<path d="M1850 1540 c0 -5 10 -10 23 -10 12 0 33 -3 47 -6 17 -5 22 -3 15 3
-15 15 -85 26 -85 13z"/>
<path d="M1880 1411 c0 -5 23 -11 50 -13 49 -3 65 4 34 16 -24 9 -84 7 -84 -3z"/>
<path d="M1890 1290 c0 -5 8 -10 18 -10 10 0 28 -7 40 -16 12 -8 22 -10 22 -5
0 11 -51 41 -70 41 -5 0 -10 -4 -10 -10z"/>
<path d="M1880 1180 c0 -5 6 -10 13 -10 6 0 24 -7 40 -14 15 -8 27 -11 27 -6
0 6 -16 17 -36 25 -43 18 -44 18 -44 5z"/>
<path d="M254 1424 c-17 -14 -17 -15 -1 -10 10 3 23 6 28 6 5 0 9 5 9 10 0 14
-13 12 -36 -6z"/>
<path d="M238 1313 c-21 -8 -38 -19 -38 -24 0 -9 78 18 95 33 15 13 -16 9 -57
-9z"/>
<path d="M263 1188 c-24 -12 -43 -25 -43 -30 0 -12 3 -11 54 18 70 39 61 49
-11 12z"/>
<path d="M276 1054 c-15 -14 -25 -28 -22 -32 4 -3 21 8 39 26 37 38 25 43 -17
6z"/>
<path d="M1031 1082 c-19 -9 -48 -34 -64 -54 l-30 -37 26 -53 c14 -29 41 -87
60 -130 64 -141 97 -124 191 95 52 122 57 158 24 181 -32 23 -162 22 -207 -2z
m104 -12 c-3 -5 -13 -10 -21 -10 -8 0 -14 5 -14 10 0 6 9 10 21 10 11 0 17 -4
14 -10z m65 0 c0 -5 -4 -10 -10 -10 -5 0 -10 5 -10 10 0 6 5 10 10 10 6 0 10
-4 10 -10z m-148 -22 c-7 -7 -12 -8 -12 -2 0 14 12 26 19 19 2 -3 -1 -11 -7
-17z m122 -18 c-14 -14 -39 14 -29 31 5 8 12 6 23 -5 11 -11 13 -19 6 -26z
m61 12 c-8 -8 -25 10 -19 20 4 6 9 5 15 -3 4 -7 6 -15 4 -17z m-132 -18 c-3
-8 -9 -14 -13 -14 -14 0 -22 20 -16 37 5 12 9 13 21 3 7 -6 11 -18 8 -26z
m-79 -18 c-5 -13 -9 -14 -20 -5 -11 9 -12 15 -3 26 15 17 32 2 23 -21z m199
10 c6 -16 -2 -28 -14 -20 -12 7 -11 34 0 34 5 0 11 -6 14 -14z m-67 -11 c3 -8
3 -19 -1 -24 -9 -15 -44 9 -38 26 7 17 32 17 39 -2z m-76 -15 c0 -4 -6 -13
-14 -19 -18 -15 -41 10 -25 26 12 12 39 7 39 -7z m-82 -18 c6 -18 -15 -14 -22
4 -4 10 -1 14 6 12 6 -2 14 -10 16 -16z m212 -5 c0 -19 -10 -27 -25 -20 -17 6
-8 33 11 33 8 0 14 -6 14 -13z m-76 -32 c-7 -18 -9 -18 -35 -4 -16 8 -18 13
-9 24 16 19 52 1 44 -20z m-94 6 c0 -17 -12 -41 -20 -41 -11 0 -21 30 -14 41
7 12 34 12 34 0z m144 -19 c9 -15 -12 -35 -29 -28 -14 5 -15 9 -5 21 14 17 26
19 34 7z m-85 -53 c-12 -23 -22 -24 -38 -5 -10 11 -10 20 -1 36 11 21 13 21
30 5 15 -14 17 -22 9 -36z m58 -15 c2 -5 -3 -19 -11 -29 -21 -28 -43 -7 -26
25 11 21 31 23 37 4z m-87 -43 c-1 -13 -3 -13 -15 3 -19 26 -19 42 0 26 8 -7
15 -20 15 -29z m46 -22 c7 -12 -12 -29 -34 -29 -10 0 -10 4 0 20 14 23 24 25
34 9z"/>
<path d="M1385 1010 c-30 -12 -38 -24 -105 -158 -59 -120 -71 -167 -48 -190
19 -19 63 -14 92 9 46 36 196 231 196 254 0 24 -30 55 -77 79 -18 9 -33 16
-35 15 -2 0 -12 -4 -23 -9z m33 -31 c-2 -6 -8 -10 -13 -10 -5 0 -11 4 -13 10
-2 6 4 11 13 11 9 0 15 -5 13 -11z m52 -20 c0 -12 -29 -24 -37 -16 -3 4 -3 13
0 21 6 16 37 11 37 -5z m-82 -17 c2 -7 -4 -15 -13 -18 -20 -8 -27 -1 -19 20 7
18 25 17 32 -2z m110 -20 c2 -7 -3 -12 -12 -12 -9 0 -16 7 -16 16 0 17 22 14
28 -4z m-73 -13 c0 -7 -8 -15 -17 -17 -18 -3 -25 18 -11 32 10 10 28 1 28 -15z
m-81 -23 c-6 -16 -24 -23 -24 -8 0 10 22 33 27 28 2 -2 1 -11 -3 -20z m126 5
c0 -5 -6 -14 -14 -20 -16 -13 -32 2 -21 19 8 12 35 13 35 1z m-84 -39 c-20
-21 -39 -7 -25 19 8 17 13 18 25 8 13 -11 13 -14 0 -27z m44 -11 c0 -13 -26
-32 -33 -24 -8 7 11 33 24 33 5 0 9 -4 9 -9z m-70 -20 c0 -15 -28 -33 -40 -26
-8 5 -8 11 1 21 13 15 39 19 39 5z m28 -41 c-15 -23 -28 -26 -28 -7 0 17 10
27 27 27 11 0 11 -4 1 -20z m-68 -9 c0 -3 -5 -13 -10 -21 -12 -19 -35 2 -27
24 6 15 37 12 37 -3z m21 -44 c-16 -16 -26 0 -10 19 9 11 15 12 17 4 2 -6 -1
-17 -7 -23z m-62 -24 c-15 -17 -32 -2 -23 21 5 13 9 14 20 5 11 -9 12 -15 3
-26z m31 -3 c0 -5 -5 -10 -11 -10 -5 0 -7 5 -4 10 3 6 8 10 11 10 2 0 4 -4 4
-10z"/>
<path d="M763 988 c-40 -45 -53 -73 -53 -113 0 -37 6 -46 95 -132 82 -81 99
-93 129 -93 44 0 68 23 60 58 -22 102 -110 268 -153 291 -31 17 -56 13 -78
-11z m81 -34 c4 -9 4 -19 1 -22 -6 -6 -35 18 -35 29 0 16 28 10 34 -7z m-44
-8 c0 -2 3 -11 6 -19 7 -19 -24 -31 -42 -16 -11 9 -11 15 -3 25 10 13 39 20
39 10z m79 -40 c9 -11 9 -16 0 -21 -10 -7 -28 10 -29 28 0 12 17 8 29 -7z
m-128 -19 c-1 -12 -15 -9 -19 4 -3 6 1 10 8 8 6 -3 11 -8 11 -12z m89 -3 c11
-12 10 -18 -3 -32 -16 -15 -18 -15 -31 3 -10 14 -11 24 -4 32 14 17 23 16 38
-3z m74 -30 c9 -24 7 -28 -9 -14 -17 14 -20 30 -6 30 5 0 12 -7 15 -16z m-123
-10 c10 -13 10 -17 -2 -24 -17 -11 -45 13 -35 29 10 15 21 14 37 -5z m109 -35
c0 -17 -43 -21 -58 -5 -15 14 -14 17 3 30 18 13 22 12 38 -1 9 -9 17 -20 17
-24z m-73 -18 c7 -10 9 -22 6 -25 -9 -9 -44 25 -37 35 8 14 18 11 31 -10z
m100 -20 c10 -16 9 -22 -3 -32 -11 -9 -18 -8 -35 7 -19 17 -19 19 -3 31 23 17
27 16 41 -6z m-59 -33 c19 -19 14 -29 -8 -16 -20 13 -27 28 -12 28 4 0 13 -5
20 -12z m95 -22 c5 -13 -10 -36 -24 -36 -14 0 -19 34 -7 42 18 11 25 10 31 -6z"/>
<path d="M1967 884 c-3 -4 0 -16 8 -28 41 -58 -6 -126 -87 -126 -134 0 -193
-91 -114 -178 34 -37 35 -37 113 -37 85 -1 120 -15 129 -52 3 -11 1 -30 -5
-41 -12 -23 1 -39 16 -19 33 41 24 89 -22 117 -25 15 -50 20 -107 20 -81 0
-112 16 -124 65 -15 60 18 86 120 96 59 5 73 11 93 33 30 35 38 70 27 115 -8
33 -31 51 -47 35z"/>
<path d="M186 815 c-31 -29 -33 -53 -6 -105 34 -66 77 -91 177 -102 89 -10
123 -26 123 -58 0 -34 -26 -53 -84 -61 -87 -11 -161 -52 -191 -103 -35 -60
-42 -102 -20 -126 19 -20 45 -27 45 -11 0 5 -10 15 -22 23 l-21 14 30 60 c24
49 37 63 76 82 26 12 77 29 114 36 93 20 121 56 92 120 -14 30 -48 42 -139 50
-46 4 -75 13 -101 32 -66 45 -88 133 -39 149 11 3 20 11 20 16 0 17 -27 9 -54
-16z"/>
</g>
</svg>
