<?xml version="1.0" standalone="no"?>
<!DOCTYPE svg PUBLIC "-//W3C//DTD SVG 20010904//EN"
 "http://www.w3.org/TR/2001/REC-SVG-20010904/DTD/svg10.dtd">
<svg version="1.0" xmlns="http://www.w3.org/2000/svg"
 width="174.000000pt" height="198.000000pt" viewBox="0 0 174.000000 198.000000"
 preserveAspectRatio="xMidYMid meet">
<metadata>
Created by potrace 1.10, written by Peter Selinger 2001-2011
</metadata>
<g transform="translate(0.000000,198.000000) scale(0.100000,-0.100000)"
fill="#000000" stroke="none">
<path d="M888 1954 c-15 -8 -35 -29 -44 -46 l-16 -31 -21 26 c-30 36 -86 58
-131 50 -40 -6 -91 -56 -102 -97 l-6 -24 -35 24 c-25 16 -50 24 -81 24 -38 0
-50 -5 -84 -40 -37 -36 -40 -43 -36 -85 2 -25 1 -45 -1 -45 -2 0 -20 5 -41 11
-56 17 -118 -13 -150 -73 -22 -42 -23 -49 -11 -88 7 -23 24 -53 38 -66 21 -19
22 -24 9 -24 -27 0 -72 -27 -90 -54 -41 -63 -26 -167 29 -196 33 -18 31 -24
-9 -38 -66 -24 -96 -115 -60 -183 9 -18 32 -38 56 -49 l41 -18 -30 -16 c-42
-21 -63 -58 -63 -109 0 -52 34 -110 68 -115 26 -4 29 -18 5 -27 -30 -10 -53
-51 -54 -99 -2 -52 19 -91 59 -108 15 -7 28 -13 29 -13 1 -1 -7 -20 -18 -43
-34 -68 -8 -141 63 -178 28 -14 46 -14 99 2 13 3 18 -5 23 -36 4 -23 13 -52
22 -65 17 -26 71 -55 104 -55 37 0 85 29 105 62 l19 32 16 -40 c21 -47 34 -59
88 -78 32 -12 49 -13 74 -4 38 12 85 53 94 80 8 26 17 22 32 -11 18 -40 90
-75 139 -68 41 7 98 57 107 93 l6 23 44 -29 c100 -68 216 -9 216 110 l0 40 49
0 c54 0 107 29 129 70 21 41 10 119 -22 146 -14 13 -26 25 -26 28 0 2 14 7 30
11 103 23 145 165 69 229 -17 14 -37 26 -45 26 -24 0 -16 15 15 27 41 15 66
58 66 113 0 57 -25 97 -73 117 -34 14 -35 16 -17 29 10 8 21 14 25 14 14 0 40
61 40 95 0 52 -23 90 -70 113 -37 18 -39 21 -20 27 27 9 60 62 60 96 0 73 -60
139 -127 139 l-33 0 20 33 c36 58 20 135 -36 172 -21 13 -39 16 -79 12 -50 -5
-52 -4 -52 18 0 38 -36 89 -75 108 -40 20 -98 16 -123 -9 -19 -19 -24 -18 -35
11 -21 55 -113 81 -172 49z m133 -33 c55 -55 31 -146 -45 -171 -49 -16 -102 8
-121 54 -13 32 -13 40 1 76 20 50 47 70 97 70 29 0 46 -7 68 -29z m-271 -1
c54 -28 74 -68 60 -120 -25 -93 -160 -106 -205 -20 -19 37 -19 54 1 95 14 31
62 64 92 65 7 0 31 -9 52 -20z m455 -34 c41 -18 67 -55 68 -100 1 -40 -19 -67
-69 -91 -66 -31 -133 12 -136 86 -1 41 13 70 48 98 32 25 43 26 89 7z m-671
-55 c42 -44 40 -104 -3 -143 -17 -15 -42 -30 -56 -34 -61 -15 -125 31 -125 90
0 72 43 115 116 116 32 0 46 -6 68 -29z m373 -97 c38 -16 101 -5 123 21 11 13
16 10 31 -25 27 -60 90 -82 160 -55 12 4 15 -2 16 -28 1 -19 6 -44 13 -56 15
-30 69 -61 104 -61 28 0 28 0 12 -25 -9 -13 -16 -45 -16 -69 0 -36 6 -52 31
-81 19 -22 40 -35 55 -35 29 0 32 -16 4 -25 -63 -20 -83 -136 -34 -194 15 -19
35 -31 49 -31 13 0 27 -4 30 -10 3 -5 0 -10 -7 -10 -8 0 -29 -16 -48 -35 -30
-31 -34 -41 -33 -85 1 -58 20 -93 65 -116 29 -15 31 -18 13 -24 -27 -10 -51
-39 -69 -81 -19 -46 -7 -106 28 -136 32 -27 32 -33 4 -33 -30 0 -83 -33 -103
-64 -12 -17 -16 -40 -13 -71 l3 -45 -35 6 c-19 4 -37 6 -40 6 -41 0 -58 -7
-86 -38 -20 -20 -34 -46 -34 -60 0 -30 -9 -30 -38 1 -32 33 -86 47 -133 35
-44 -12 -85 -43 -94 -70 -6 -18 -10 -16 -43 19 -64 67 -138 67 -204 2 l-37
-38 -11 33 c-15 45 -61 76 -113 77 -23 1 -50 -2 -59 -7 -15 -7 -18 -3 -18 24
0 44 -33 95 -73 111 -17 7 -33 13 -35 14 -2 2 7 19 18 39 35 57 14 130 -47
165 -17 9 -16 11 5 26 73 53 66 175 -14 215 -16 8 -30 15 -32 16 -2 1 13 18
34 36 33 31 38 41 42 92 4 55 4 58 -35 94 l-39 38 37 16 c22 9 47 31 59 50 36
59 19 152 -32 179 -21 11 -20 13 21 25 76 22 121 88 106 155 -6 29 -6 30 13
20 67 -36 172 27 172 103 1 26 3 29 13 16 28 -36 71 -60 106 -60 44 0 97 31
119 69 l16 29 20 -25 c11 -14 35 -32 53 -39z m524 -3 c56 -57 30 -148 -49
-172 -49 -14 -86 0 -112 43 -24 40 -25 57 -3 102 29 62 115 76 164 27z m-1092
-58 c18 -17 33 -43 36 -64 6 -31 2 -41 -24 -71 -58 -66 -113 -72 -172 -20 -34
30 -40 70 -19 122 26 64 126 82 179 33z m1187 -149 c60 -40 71 -118 24 -166
-28 -28 -36 -30 -78 -25 -92 10 -134 107 -76 176 21 25 33 31 65 31 22 0 51
-7 65 -16z m-1270 -108 c28 -28 34 -41 34 -78 0 -50 -19 -82 -62 -104 -58 -30
-126 3 -142 70 -15 64 44 146 106 146 21 0 40 -10 64 -34z m1290 -132 c47 -22
64 -50 64 -102 0 -36 -5 -49 -31 -73 -44 -41 -108 -41 -150 0 -24 25 -29 38
-29 78 0 51 15 73 65 101 27 15 41 15 81 -4z m-1320 -138 c103 -103 -43 -249
-148 -149 -20 19 -28 36 -28 62 0 48 32 99 67 107 15 3 33 7 38 9 25 8 39 3
71 -29z m1337 -110 c100 -42 101 -163 2 -207 -40 -18 -47 -18 -79 -5 -96 40
-91 168 9 212 37 16 30 16 68 0z m-1326 -146 c59 -36 55 -125 -7 -167 -77 -53
-160 -5 -160 92 0 80 92 121 167 75z m1343 -125 c40 -21 60 -53 60 -98 0 -31
-7 -46 -34 -73 -28 -28 -42 -34 -76 -34 -126 0 -157 146 -44 205 37 19 57 19
94 0z m-1335 -117 c51 -45 42 -144 -16 -173 -34 -18 -50 -19 -84 -3 -32 14
-55 56 -55 99 0 23 9 40 36 65 42 40 81 44 119 12z m1276 -156 c24 -21 32 -38
36 -75 5 -43 3 -49 -30 -82 -30 -30 -42 -35 -80 -35 -63 0 -97 30 -104 91 -6
55 7 83 50 109 46 28 90 26 128 -8z m-1221 -57 c37 -19 60 -52 60 -86 0 -39
-40 -91 -82 -107 -46 -18 -82 -3 -115 47 -33 49 -30 86 11 127 38 38 77 44
126 19z m1017 -105 c43 -26 56 -54 50 -109 -10 -91 -100 -130 -179 -76 -43 29
-52 52 -43 111 12 83 98 120 172 74z m-791 -54 c37 -37 41 -59 20 -110 -19
-45 -52 -66 -102 -66 -77 0 -127 86 -89 156 20 38 47 52 99 53 30 1 45 -6 72
-33z m259 -15 c41 -23 60 -80 41 -125 -43 -103 -186 -99 -218 6 -10 35 -9 45
8 77 10 20 34 44 53 53 38 19 68 16 116 -11z m259 19 c34 -12 66 -66 66 -109
0 -25 -9 -42 -39 -72 -42 -42 -63 -47 -114 -25 -68 28 -97 97 -67 156 28 54
91 75 154 50z"/>
<path d="M655 1554 c-157 -35 -250 -103 -279 -206 -24 -80 -35 -177 -42 -348
-7 -193 6 -355 35 -432 63 -163 238 -237 531 -225 285 12 377 86 422 338 38
220 10 624 -52 724 -36 59 -104 110 -177 135 -90 30 -331 38 -438 14z m428
-34 c81 -25 150 -82 179 -148 35 -79 51 -204 51 -412 0 -425 -54 -536 -286
-584 -133 -28 -343 -16 -455 26 -78 29 -152 103 -181 182 -30 80 -43 232 -36
411 10 259 31 361 85 427 42 51 141 97 242 114 117 19 312 11 401 -16z"/>
<path d="M693 1510 c-154 -28 -245 -97 -277 -208 -25 -91 -40 -385 -26 -523
21 -216 84 -306 255 -364 114 -38 294 -38 410 0 119 39 180 108 209 236 35
150 29 498 -10 655 -26 102 -86 160 -199 191 -63 17 -293 25 -362 13z m370
-49 c130 -36 166 -102 187 -351 5 -63 10 -139 10 -167 l0 -53 -40 0 c-31 0
-40 4 -40 18 -2 95 -22 231 -40 268 -51 103 -208 152 -390 120 -105 -19 -155
-51 -190 -121 -21 -42 -25 -67 -28 -171 l-4 -122 -55 -4 c-41 -2 -57 1 -61 11
-9 25 17 355 33 409 29 95 121 159 265 182 83 13 274 3 353 -19z m-60 -191
c50 -15 106 -65 128 -116 21 -47 39 -264 22 -264 -6 0 -13 39 -16 88 -17 233
-89 302 -301 289 -119 -7 -163 -21 -207 -66 -45 -45 -58 -87 -66 -218 -3 -57
-10 -103 -15 -103 -11 0 -10 132 3 210 17 108 64 159 173 187 58 14 220 11
279 -7z m-42 -31 c37 -8 61 -21 89 -49 44 -44 59 -96 63 -213 l2 -79 -41 -3
-42 -3 -7 91 c-8 106 -25 150 -64 167 -23 9 -36 8 -65 -4 -20 -8 -36 -22 -36
-30 0 -22 -5 -20 -34 9 -40 40 -111 31 -138 -18 -6 -12 -14 -67 -17 -122 l-6
-100 -36 -3 -37 -3 -6 48 c-8 58 8 183 29 223 41 80 198 121 346 89z m-160
-122 c30 -23 39 -56 39 -141 l0 -86 -54 0 c-30 0 -61 -3 -70 -6 -14 -5 -16 6
-16 85 0 116 18 158 70 160 8 0 22 -5 31 -12z m156 5 c24 -15 43 -82 43 -150
l0 -70 -62 -4 c-35 -3 -67 -3 -72 0 -4 2 -6 47 -4 100 4 84 7 97 27 113 25 20
48 24 68 11z m303 -271 c0 -5 -134 -11 -297 -15 -164 -3 -356 -9 -427 -12
-104 -4 -127 -3 -124 8 3 9 37 15 119 19 197 9 729 9 729 0z m-6 -68 c-24
-171 -51 -243 -110 -288 -82 -63 -314 -94 -444 -60 -139 36 -201 82 -247 182
-20 44 -44 180 -32 185 11 4 374 14 591 16 l247 2 -5 -37z"/>
<path d="M803 753 c-30 -6 -73 -59 -73 -89 0 -60 45 -103 108 -104 116 0 144
159 34 190 -20 5 -39 9 -42 9 -3 -1 -15 -4 -27 -6z m84 -38 c56 -39 22 -135
-48 -135 -65 0 -104 85 -59 130 24 24 76 26 107 5z"/>
</g>
</svg>
