<?xml version="1.0" standalone="no"?>
<!DOCTYPE svg PUBLIC "-//W3C//DTD SVG 20010904//EN"
 "http://www.w3.org/TR/2001/REC-SVG-20010904/DTD/svg10.dtd">
<svg version="1.0" xmlns="http://www.w3.org/2000/svg"
 width="255.000000pt" height="239.000000pt" viewBox="0 0 255.000000 239.000000"
 preserveAspectRatio="xMidYMid meet">
<metadata>
Created by potrace 1.10, written by Peter Selinger 2001-2011
</metadata>
<g transform="translate(0.000000,239.000000) scale(0.100000,-0.100000)"
fill="#000000" stroke="none">
<path d="M866 2304 c-227 -34 -420 -124 -537 -250 -90 -97 -164 -248 -178
-364 -5 -39 -17 -82 -25 -96 -14 -21 -17 -59 -16 -263 2 -341 13 -377 164
-514 l86 -78 -38 -40 c-66 -71 -71 -89 -69 -218 2 -113 3 -118 32 -158 39 -52
111 -112 173 -144 44 -22 59 -24 239 -27 l193 -3 38 40 c22 23 48 41 58 41 11
0 35 -16 54 -37 19 -20 60 -48 90 -62 49 -23 69 -26 195 -29 l140 -3 54 40
c30 23 56 41 57 41 2 0 24 -13 50 -30 63 -40 137 -53 258 -47 118 6 157 16
223 60 78 52 107 105 123 226 16 121 9 149 -52 223 -25 30 -37 52 -32 60 5 7
42 58 84 113 41 55 81 111 87 125 7 14 31 98 53 187 39 159 40 166 40 341 0
164 -2 187 -25 263 -14 46 -30 102 -36 124 -18 70 -61 134 -144 214 -169 162
-259 195 -663 246 -320 40 -500 45 -676 19z m-7 -38 c-2 -3 -34 -11 -71 -20
-87 -20 -222 -74 -294 -117 -31 -19 -91 -65 -133 -104 -62 -57 -70 -62 -42
-27 18 23 54 59 79 80 26 20 49 40 52 43 13 15 122 69 190 94 91 33 234 66
219 51z m521 -16 c390 -29 632 -111 790 -270 130 -130 189 -277 193 -485 1
-85 -3 -131 -20 -200 -12 -49 -24 -124 -26 -165 -5 -63 -12 -86 -48 -155 -23
-44 -56 -107 -73 -141 -17 -34 -44 -70 -59 -80 -15 -10 -36 -33 -46 -50 -16
-26 -38 -39 -124 -73 -178 -69 -193 -71 -547 -68 l-315 2 -165 38 c-91 20
-196 46 -235 58 -98 30 -238 92 -273 120 -16 13 -40 31 -52 39 -49 31 -149
138 -156 166 -4 16 -18 52 -31 79 -20 44 -23 65 -23 172 0 67 4 132 9 145 5
13 12 86 15 163 8 160 17 205 60 295 40 85 164 212 263 269 127 73 306 124
488 138 44 3 82 7 84 9 8 7 163 4 291 -6z m520 -60 c0 -5 -2 -10 -4 -10 -3 0
-8 5 -11 10 -3 6 -1 10 4 10 6 0 11 -4 11 -10z m92 -35 c107 -54 237 -163 292
-245 34 -52 14 -40 -27 16 -72 97 -170 175 -293 231 -49 22 -65 33 -48 33 3 0
37 -16 76 -35z m-1831 -656 c0 -46 -4 -95 -10 -109 -7 -19 -10 -4 -10 72 -1
88 5 135 15 125 3 -2 5 -42 5 -88z m2216 -236 c-8 -62 -15 -94 -22 -101 -9 -9
-6 44 6 98 14 63 24 65 16 3z m-2174 -295 c9 -20 32 -55 52 -77 47 -52 186
-157 238 -181 126 -56 229 -95 280 -104 37 -7 38 -8 22 -26 -16 -17 -17 -17
-41 7 l-25 25 -23 -21 -22 -21 -24 26 c-28 29 -192 114 -222 114 -40 0 -91
-34 -119 -79 -16 -25 -29 -38 -29 -29 0 9 20 40 45 69 25 29 45 60 45 68 0 9
-42 56 -94 106 -101 96 -122 128 -131 196 l-6 44 20 -40 c10 -22 26 -57 34
-77z m2097 -21 c0 -16 -71 -130 -77 -123 -4 4 68 135 75 136 1 0 2 -6 2 -13z
m-1763 -307 c133 -69 150 -99 94 -159 -21 -22 -33 -28 -54 -24 -24 5 -27 10
-27 44 l0 39 -44 0 -45 0 -17 -54 c-16 -52 -16 -55 3 -92 51 -100 176 -101
286 -4 36 32 52 62 62 121 8 55 21 60 90 38 33 -10 68 -19 77 -19 13 0 17 -13
20 -72 4 -67 2 -78 -29 -134 -18 -34 -49 -76 -68 -93 -33 -28 -42 -31 -104
-31 -83 0 -223 23 -298 50 -144 50 -218 222 -153 350 22 44 71 80 107 80 12 0
57 -18 100 -40z m1639 -73 c13 -16 24 -34 24 -40 0 -6 -11 5 -25 26 -35 50
-76 70 -128 62 l-42 -6 41 19 c23 11 45 25 49 31 4 7 16 -3 32 -26 14 -21 36
-51 49 -66z m-43 -5 c10 -9 25 -29 33 -44 17 -32 17 -130 1 -175 -21 -58 -92
-137 -147 -166 -48 -25 -61 -27 -169 -27 -113 0 -119 1 -153 28 -50 38 -70 75
-64 115 15 86 18 175 7 195 -11 21 -10 22 29 22 l41 0 -2 -85 c-1 -86 8 -115
37 -115 8 0 14 -7 14 -15 0 -12 16 -15 84 -15 l84 0 36 40 c20 22 37 46 37 53
1 6 3 24 5 40 2 24 0 27 -26 27 -24 0 -30 -6 -40 -35 -6 -19 -19 -39 -27 -44
-24 -13 -68 6 -82 35 -16 35 -14 50 10 92 20 33 32 40 118 69 102 35 140 36
174 5z m-1391 -38 c-4 -58 -24 -91 -78 -121 -55 -32 -114 -30 -153 3 -19 16
-31 35 -31 50 0 34 14 30 33 -11 16 -34 19 -35 72 -35 30 0 55 5 55 10 0 6 8
10 18 10 17 0 56 77 55 109 -2 27 6 43 19 39 8 -3 11 -22 10 -54z m317 20 c2
-2 -3 -12 -12 -22 -14 -15 -17 -41 -17 -138 0 -136 4 -147 75 -188 25 -15 45
-31 45 -37 0 -15 -39 9 -95 58 -42 38 -54 44 -81 40 l-32 -5 34 56 c31 50 34
63 34 132 0 54 -5 82 -17 99 l-16 24 39 -7 c21 -5 41 -10 43 -12z m781 -3 c0
-14 -28 -33 -40 -26 -15 10 -12 23 8 28 28 8 32 7 32 -2z m-373 -29 c-9 -10
-23 -33 -31 -52 l-15 -35 -1 33 c0 18 -5 42 -10 53 -10 17 -7 19 31 19 40 0
41 -1 26 -18z m148 -130 c-5 -146 -5 -148 20 -182 33 -45 32 -47 -9 -16 -42
31 -50 32 -87 5 -36 -25 -37 -18 -4 26 39 50 62 245 35 296 -10 17 -7 19 20
19 l30 0 -5 -148z m-486 106 c4 -13 8 -44 9 -70 1 -149 103 -211 225 -139 45
26 50 33 77 110 31 91 52 121 85 121 19 0 23 -7 29 -46 3 -25 4 -49 2 -53 -2
-3 -7 -34 -10 -68 -8 -80 -12 -89 -59 -146 l-40 -47 -120 0 -120 0 -39 35
c-21 20 -54 43 -72 52 -30 14 -34 21 -40 67 -10 84 -7 181 6 194 20 20 58 14
67 -10z m261 -33 c0 -103 -44 -165 -117 -165 -56 0 -104 85 -101 178 l2 42
108 0 108 0 0 -55z m397 41 c-14 -37 -17 -84 -7 -110 6 -16 8 -31 6 -34 -9 -8
-26 46 -32 104 -6 51 -6 54 16 54 15 0 20 -5 17 -14z m-1477 -127 c0 -9 19
-38 43 -65 40 -46 40 -47 9 -24 -40 30 -82 97 -82 131 l1 24 14 -25 c8 -14 14
-32 15 -41z m1457 -27 c12 -16 15 -15 32 8 17 21 21 23 26 8 4 -9 20 -22 36
-29 36 -14 73 1 94 41 8 14 14 20 15 13 0 -6 -12 -25 -26 -42 -24 -28 -31 -31
-86 -31 -71 0 -114 21 -121 59 -4 23 -3 24 7 8 6 -10 17 -26 23 -35z m399 -80
c-8 -15 -24 -36 -37 -47 -16 -14 -13 -7 11 28 38 53 47 60 26 19z m-1631 -63
l70 -20 -52 5 c-28 3 -69 14 -90 26 -21 12 -29 18 -18 15 11 -4 52 -15 90 -26z"/>
<path d="M855 2150 c-141 -30 -242 -85 -345 -189 -70 -71 -94 -103 -133 -181
-39 -80 -48 -107 -52 -169 -3 -40 -13 -89 -22 -108 -22 -47 -13 -251 15 -340
48 -151 148 -249 330 -323 86 -34 206 -66 307 -80 44 -6 91 -14 105 -17 14 -3
135 -6 270 -8 181 -3 265 0 324 11 204 37 377 151 465 308 16 28 48 107 71
175 l42 124 0 153 c0 84 -3 157 -5 161 -3 5 -13 39 -21 76 -22 92 -49 141
-115 207 -79 79 -177 135 -281 159 -194 45 -286 54 -580 57 -250 3 -296 1
-375 -16z m755 -24 c322 -49 505 -195 576 -456 27 -101 25 -284 -5 -380 -54
-177 -178 -376 -258 -415 -23 -11 -42 -25 -43 -32 0 -6 -8 -14 -17 -17 -10 -3
-61 -17 -113 -31 l-95 -27 -355 5 c-327 4 -361 6 -430 26 -268 78 -440 180
-500 297 -23 46 -25 61 -28 231 -3 157 -1 197 18 285 45 218 153 367 324 449
138 67 208 77 541 78 208 1 317 -3 385 -13z"/>
<path d="M1085 2064 c-304 -32 -555 -148 -653 -301 -49 -76 -62 -145 -62 -328
0 -137 4 -173 24 -249 31 -116 71 -158 211 -226 155 -76 220 -91 440 -103 333
-18 476 -15 585 12 208 51 355 147 450 293 61 93 72 154 68 360 -2 124 -7 181
-15 190 -7 6 -13 23 -13 36 0 41 -51 121 -101 158 -172 126 -580 195 -934 158z
m645 -73 c204 -61 327 -182 359 -355 25 -133 9 -253 -54 -417 l-36 -96 -94
-67 c-158 -113 -265 -151 -457 -163 l-108 -6 0 104 c1 66 5 113 14 128 9 17
37 31 104 53 58 19 92 35 92 44 0 8 7 14 17 14 9 0 14 3 10 6 -3 3 1 25 10 47
11 32 13 67 9 147 -10 185 -59 300 -151 347 -58 31 -231 20 -243 -15 -1 -5
-26 3 -55 18 -101 55 -154 64 -359 65 -104 0 -188 1 -188 2 0 6 204 109 248
125 124 43 171 47 497 44 286 -3 316 -5 385 -25z m-1131 -120 c-18 -27 -4 -51
28 -51 24 -1 21 -4 -19 -19 -104 -41 -154 -92 -189 -194 l-18 -52 -1 37 c0 80
65 190 154 258 59 46 60 46 45 21z m1481 -86 c0 -9 -16 4 -36 32 -58 77 -60
81 -10 31 25 -26 46 -54 46 -63z m-1007 -43 c101 -50 169 -113 206 -192 25
-52 26 -63 26 -220 0 -91 -3 -192 -7 -225 -4 -33 -10 -95 -14 -137 l-7 -78
-71 0 c-72 0 -426 58 -426 70 0 3 20 20 45 38 53 37 62 72 18 72 -16 0 -57 -9
-92 -19 -35 -11 -87 -23 -116 -26 -50 -7 -54 -5 -92 28 -85 77 -117 188 -112
393 4 133 6 144 34 199 59 115 140 146 371 142 l151 -2 86 -43z m348 1 l58
-28 40 -101 c39 -98 41 -106 41 -213 0 -110 0 -111 -31 -146 -39 -44 -78 -65
-119 -65 -64 0 -45 46 38 92 45 24 65 61 66 123 0 45 -5 62 -30 98 -28 40 -30
45 -16 65 32 49 -33 151 -106 167 -18 4 -44 0 -67 -9 -46 -20 -55 -20 -55 -2
0 15 58 38 114 45 5 0 35 -11 67 -26z m-221 -16 c0 4 6 -3 13 -17 7 -13 23
-27 37 -30 13 -3 27 -15 30 -25 10 -38 60 -124 76 -133 11 -6 13 -11 5 -16
-19 -12 -14 -186 5 -207 15 -17 15 -20 -4 -43 l-20 -26 -4 128 c-6 139 -18
188 -69 262 -17 25 -49 59 -70 75 -41 32 -52 53 -19 35 11 -6 20 -7 20 -3z
m195 -72 c35 -34 34 -82 -1 -95 -14 -6 -27 -10 -29 -10 -5 0 -65 112 -65 122
0 4 16 8 35 8 25 0 44 -8 60 -25z m51 -180 c26 -39 23 -96 -6 -133 -14 -17
-33 -31 -42 -31 -16 -1 -18 10 -18 94 0 94 0 95 25 95 15 0 31 -9 41 -25z
m660 -188 c-10 -35 -26 -77 -38 -93 -11 -16 -18 -22 -15 -14 53 167 89 238 53
107z m-753 -101 c3 -8 0 -19 -7 -25 -10 -9 -12 -6 -8 14 5 29 8 31 15 11z
m-878 -98 c4 -7 -5 0 -19 16 -14 17 -22 34 -19 39 4 7 11 -3 38 -55z m315 -85
c-26 -21 -31 -32 -26 -54 l5 -27 -76 31 -77 31 85 22 c118 30 127 30 89 -3z
m532 -103 c4 -24 1 -30 -13 -30 -15 0 -16 4 -6 30 6 17 12 30 13 30 1 0 4 -13
6 -30z"/>
<path d="M671 1655 c-111 -35 -162 -155 -110 -261 28 -58 84 -86 176 -86 81 0
117 12 161 55 47 44 64 82 64 139 0 76 -41 127 -126 153 -60 18 -106 18 -165
0z m162 -32 c4 -3 3 -11 -4 -19 -9 -11 -15 -12 -26 -3 -7 7 -23 12 -35 13 -12
0 -23 7 -26 15 -3 10 5 12 39 6 24 -4 48 -9 52 -12z m-123 -7 c-6 -8 -18 -12
-26 -9 -23 9 -16 23 12 23 22 0 24 -2 14 -14z m208 -56 c6 -18 -43 19 -59 45
-10 16 -6 15 21 -6 19 -14 36 -32 38 -39z m-178 40 c0 -5 -2 -10 -4 -10 -3 0
-8 5 -11 10 -3 6 -1 10 4 10 6 0 11 -4 11 -10z m-108 -29 c-2 -15 3 -42 12
-60 12 -22 13 -31 4 -31 -18 0 -58 -41 -58 -60 0 -9 5 -21 12 -28 6 -6 9 -14
6 -17 -3 -3 -13 11 -23 31 -24 51 -17 135 15 169 30 32 37 32 32 -4z m48 -11
c0 -16 -5 -30 -10 -30 -14 0 -24 26 -16 45 10 26 26 16 26 -15z m114 6 c13
-51 -21 -77 -42 -32 -8 18 -7 27 6 40 22 22 29 20 36 -8z m66 20 c0 -11 -19
-15 -25 -6 -3 5 1 10 9 10 9 0 16 -2 16 -4z m-23 -58 c-3 -8 -6 -5 -6 6 -1 11
2 17 5 13 3 -3 4 -12 1 -19z m61 -18 l3 -35 -21 25 c-24 31 -26 53 -2 48 11
-2 18 -14 20 -38z m-168 -20 c0 -34 -6 -37 -32 -13 -26 23 -23 43 7 43 21 0
25 -5 25 -30z m121 -22 c33 -46 33 -78 -1 -78 -20 0 -31 9 -48 38 -20 36 -20
40 -4 55 22 23 24 22 53 -15z m65 -40 l-16 -22 0 27 c0 15 6 34 13 41 19 22
22 -19 3 -46z m-236 14 c0 -11 -9 -27 -20 -37 -19 -17 -22 -17 -37 -2 -15 15
-15 18 8 36 30 26 49 26 49 3z m90 -14 c0 -7 7 -25 14 -40 14 -26 13 -28 -4
-28 -11 0 -26 12 -35 30 -20 39 -19 50 5 50 11 0 20 -6 20 -12z m-48 -86 c-8
-2 -29 -1 -48 3 l-34 6 33 32 32 33 16 -36 c13 -30 14 -35 1 -38z"/>
</g>
</svg>
