<?xml version="1.0" standalone="no"?>
<!DOCTYPE svg PUBLIC "-//W3C//DTD SVG 20010904//EN"
 "http://www.w3.org/TR/2001/REC-SVG-20010904/DTD/svg10.dtd">
<svg version="1.0" xmlns="http://www.w3.org/2000/svg"
 width="184.000000pt" height="206.000000pt" viewBox="0 0 184.000000 206.000000"
 preserveAspectRatio="xMidYMid meet">
<metadata>
Created by potrace 1.10, written by Peter Selinger 2001-2011
</metadata>
<g transform="translate(0.000000,206.000000) scale(0.100000,-0.100000)"
fill="#000000" stroke="none">
<path d="M1025 2004 c-16 -2 -77 -9 -135 -15 -58 -6 -123 -17 -145 -25 -22 -8
-64 -14 -94 -14 -67 0 -171 -25 -232 -55 -46 -24 -143 -96 -167 -124 -77 -93
-112 -196 -112 -334 0 -104 23 -175 75 -232 31 -33 34 -40 20 -48 -36 -20 -87
-72 -105 -107 -25 -48 -44 -197 -36 -274 16 -150 27 -187 56 -204 l28 -16 -19
-28 c-40 -55 -33 -115 13 -130 9 -3 4 -15 -15 -38 -61 -72 -92 -158 -76 -208
10 -30 51 -62 80 -62 6 0 25 -12 42 -26 26 -22 37 -25 70 -20 22 4 54 1 73 -6
39 -14 84 -5 189 37 91 36 138 40 420 35 404 -6 558 -5 580 4 11 5 41 8 66 7
69 -4 122 27 159 92 34 59 37 93 15 159 -15 43 -67 108 -87 108 -5 0 0 12 12
27 81 103 106 313 60 497 -19 77 -21 96 -11 145 33 167 38 289 17 396 -16 83
-34 128 -77 192 -77 115 -182 194 -299 226 -108 29 -288 49 -365 41z m321 -64
c8 0 14 -4 14 -10 0 -15 -24 -12 -46 6 -17 14 -17 15 -1 10 10 -3 25 -6 33 -6z
m-120 -9 c61 -8 145 -56 219 -123 32 -29 62 -48 77 -48 38 0 111 -42 135 -78
55 -83 66 -136 66 -302 -1 -85 -5 -171 -11 -190 l-10 -35 -1 35 c-1 19 -8 49
-17 65 -12 26 -14 27 -9 5 3 -14 8 -47 10 -75 4 -43 3 -45 -4 -16 -14 52 -42
74 -103 79 -49 4 -92 -3 -143 -24 -11 -4 10 25 47 66 78 86 93 124 57 153 -19
15 -33 18 -68 13 -56 -8 -196 -78 -299 -150 -92 -64 -175 -106 -214 -106 -15
0 -51 9 -80 20 -66 25 -104 25 -145 0 -33 -20 -70 -67 -60 -76 3 -4 17 5 32
20 22 22 29 24 53 15 15 -5 44 -24 65 -40 49 -39 97 -59 146 -59 32 0 46 7 81
42 23 24 57 66 75 94 48 75 203 172 328 206 41 11 49 10 63 -4 10 -10 14 -23
10 -36 -4 -12 -62 -73 -130 -136 -125 -117 -168 -176 -181 -249 -9 -45 10 -79
57 -103 70 -36 230 7 359 98 49 34 62 39 70 27 5 -7 9 -17 9 -21 0 -4 -50 -33
-111 -64 -111 -58 -159 -99 -159 -135 0 -23 34 -59 56 -59 10 0 3 -12 -20 -34
-42 -39 -48 -82 -15 -112 32 -28 110 -25 183 9 32 15 61 26 62 24 2 -2 -6 -23
-19 -48 -24 -48 -75 -87 -146 -113 -60 -21 -244 -45 -396 -51 -66 -3 -149 -8
-184 -10 l-64 -5 41 35 c58 50 95 131 95 206 0 64 -15 95 -67 133 -36 27 -141
29 -204 3 -59 -24 -86 -22 -167 12 -90 38 -135 46 -178 32 -41 -14 -105 -75
-157 -151 -52 -76 -67 -88 -86 -68 -22 22 -45 132 -46 218 -2 153 34 238 125
301 78 52 190 95 220 83 12 -4 17 -1 17 10 0 9 -7 19 -15 22 -8 3 -26 29 -39
57 -31 64 -38 148 -20 234 14 70 83 210 128 261 53 61 164 111 301 137 76 14
299 18 381 6z m-551 -21 c-3 -5 -17 -10 -31 -10 -14 0 -22 4 -19 10 3 6 17 10
31 10 14 0 22 -4 19 -10z m878 -91 c48 -41 63 -68 28 -49 -11 5 -31 10 -46 10
-18 0 -39 14 -68 46 -23 25 -54 52 -69 60 -16 8 -28 19 -28 24 0 17 136 -51
183 -91z m-963 60 c-85 -69 -145 -148 -183 -240 -24 -56 -32 -62 -81 -63 -59
-2 -60 63 -1 153 20 30 33 56 30 59 -12 13 -95 -135 -95 -170 0 -53 43 -84 85
-62 15 8 29 13 30 12 1 -2 -2 -41 -6 -88 -9 -90 8 -187 37 -211 24 -20 15 -36
-20 -42 -19 -3 -51 -13 -71 -23 -35 -16 -36 -16 -61 7 -32 30 -73 117 -80 171
-8 62 10 179 38 240 33 72 113 165 182 213 54 37 133 63 196 64 l25 0 -25 -20z
m1055 -128 l20 -24 -22 14 c-13 8 -23 20 -23 28 0 8 1 12 3 10 1 -2 11 -15 22
-28z m-535 -530 c0 -14 -89 -110 -114 -123 -11 -6 0 10 26 35 25 25 54 57 63
71 18 27 25 32 25 17z m480 -11 c0 -5 -9 -10 -20 -10 -11 0 -20 5 -20 10 0 6
9 10 20 10 11 0 20 -4 20 -10z m-729 -20 c56 -25 95 -25 159 0 27 11 50 16 50
11 0 -18 -105 -101 -128 -101 -27 0 -76 24 -115 56 -16 13 -39 27 -53 30 -13
3 -24 10 -24 15 0 16 67 10 111 -11z m769 10 c0 -5 -4 -10 -10 -10 -5 0 -10 5
-10 10 0 6 5 10 10 10 6 0 10 -4 10 -10z m-204 -11 c4 -7 0 -9 -14 -5 -17 6
-27 -2 -54 -39 -87 -120 -102 -138 -105 -128 -7 19 23 67 78 127 49 54 80 69
95 45z m79 -9 c-3 -5 -15 -10 -26 -10 -10 0 -19 5 -19 10 0 6 12 10 26 10 14
0 23 -4 19 -10z m60 -10 c-3 -5 -15 -10 -26 -10 -11 0 -17 5 -14 10 3 6 15 10
26 10 11 0 17 -4 14 -10z m94 -38 c1 -7 -3 -10 -9 -7 -5 3 -10 18 -9 33 0 24
1 25 9 7 5 -11 9 -26 9 -33z m-39 28 c0 -5 -9 -10 -21 -10 -11 0 -17 5 -14 10
3 6 13 10 21 10 8 0 14 -4 14 -10z m-200 -9 c0 -14 -18 -23 -30 -16 -6 4 -8
11 -5 16 8 12 35 12 35 0z m60 -10 c0 -6 -5 -13 -10 -16 -15 -9 -43 3 -35 15
8 13 45 13 45 1z m60 -16 c0 -8 -9 -15 -20 -15 -11 0 -20 7 -20 15 0 8 9 15
20 15 11 0 20 -7 20 -15z m58 -13 c2 -7 -6 -12 -17 -12 -21 0 -27 11 -14 24 9
9 26 2 31 -12z m-213 -2 c3 -6 -1 -13 -10 -16 -19 -8 -30 0 -20 15 8 14 22 14
30 1z m255 -5 c0 -8 -4 -15 -10 -15 -5 0 -10 7 -10 15 0 8 5 15 10 15 6 0 10
-7 10 -15z m60 -10 c0 -7 -8 -23 -18 -35 -17 -21 -19 -21 -25 -6 -4 10 -1 19
8 23 10 3 13 12 10 24 -5 14 -2 17 9 13 9 -3 16 -12 16 -19z m-252 -7 c-2 -5
-7 -9 -11 -9 -4 1 -14 1 -23 1 -13 0 -14 3 -4 14 12 16 43 10 38 -6z m70 -10
c-7 -20 -48 -23 -48 -4 0 11 9 16 26 16 16 0 24 -5 22 -12z m60 -10 c-5 -15
-48 -24 -48 -10 0 14 12 22 33 22 10 0 17 -5 15 -12z m-224 -13 c-6 -16 -34
-21 -34 -7 0 13 11 22 26 22 8 0 11 -6 8 -15z m266 6 c0 -12 -20 -25 -27 -18
-7 7 6 27 18 27 5 0 9 -4 9 -9z m-197 -16 c-3 -13 -53 -20 -53 -7 0 15 13 23
35 20 11 -2 19 -7 18 -13z m64 -18 c-2 -6 -7 -12 -13 -14 -15 -4 -37 14 -30
25 8 13 48 3 43 -11z m-171 -26 c-8 -13 -36 -15 -36 -3 0 4 5 13 12 20 14 14
34 0 24 -17z m234 14 c0 -9 -9 -15 -25 -15 -24 0 -32 10 -18 23 12 13 43 7 43
-8z m50 -4 c0 -5 -7 -11 -15 -15 -15 -5 -20 5 -8 17 9 10 23 9 23 -2z m-210
-5 c0 -18 -15 -36 -29 -36 -23 0 -31 9 -24 26 4 12 53 21 53 10z m54 -12 c24
-9 2 -44 -24 -37 -23 6 -25 14 -8 31 14 14 12 14 32 6z m-175 -16 c17 -10 19
-48 2 -48 -13 0 -31 24 -31 42 0 21 4 22 29 6z m226 -7 c-3 -6 -11 -11 -17
-11 -6 0 -6 6 2 15 14 17 26 13 15 -4z m-145 -32 c0 -5 -11 -9 -25 -9 -24 0
-32 10 -19 22 8 8 44 -3 44 -13z m375 -40 c4 -33 4 -63 1 -66 -18 -18 -156
-73 -184 -73 -69 0 -93 37 -49 77 20 20 204 122 219 123 3 0 9 -27 13 -61z
m-335 41 c0 -5 -5 -10 -11 -10 -5 0 -7 5 -4 10 3 6 8 10 11 10 2 0 4 -4 4 -10z
m-807 -173 c60 -23 66 -31 42 -63 -14 -19 -14 -19 -15 0 0 31 -30 56 -67 56
-18 0 -33 -4 -33 -10 0 -5 17 -10 39 -10 32 0 40 -4 45 -22 10 -39 7 -56 -19
-94 l-25 -37 0 32 c0 18 -8 39 -20 51 -24 24 -78 26 -106 5 -17 -13 -16 -14
18 -8 64 10 85 -1 91 -48 6 -44 1 -69 -14 -69 -5 0 -9 6 -9 14 0 20 -48 56
-74 56 -11 0 -41 -14 -66 -30 -25 -17 -65 -37 -90 -44 -25 -8 -53 -17 -63 -21
-17 -7 -17 -6 0 23 9 16 31 35 47 41 37 13 83 47 75 55 -3 3 -22 -6 -43 -20
-21 -14 -40 -23 -43 -20 -12 11 79 105 112 116 19 6 35 16 35 21 0 13 -13 11
-38 -7 -34 -24 -26 -1 9 25 62 46 108 48 212 8z m1146 -28 c-4 -34 -13 -67
-21 -74 -22 -21 -144 -65 -180 -65 -40 0 -58 15 -58 47 0 17 14 32 53 57 28
18 63 37 76 41 13 4 47 18 75 31 28 13 54 24 57 24 3 0 2 -28 -2 -61z m-805
26 c26 -6 28 -8 21 -43 -8 -46 -58 -134 -103 -184 -37 -41 -59 -51 -42 -19 5
11 10 28 10 39 0 22 -37 59 -47 48 -5 -4 0 -12 10 -18 14 -7 18 -20 16 -51 -3
-53 -9 -61 -83 -102 -66 -36 -134 -50 -181 -37 -33 9 -45 41 -23 59 22 18 206
93 228 93 31 0 36 -28 10 -62 -13 -18 -17 -29 -9 -26 8 3 23 20 33 38 l20 33
-23 18 c-28 23 -48 19 -154 -28 -43 -19 -81 -32 -85 -29 -21 21 131 122 164
109 12 -4 15 -3 10 5 -10 17 -48 15 -74 -4 -31 -22 -35 -15 -11 23 24 38 101
68 144 57 21 -5 26 -4 20 6 -8 13 -82 10 -119 -5 -18 -8 -18 -7 -1 18 9 15 25
27 34 27 10 0 53 11 97 24 43 14 86 23 94 21 8 -2 28 -6 44 -10z m76 -128 c0
-58 -26 -112 -83 -174 -54 -59 -84 -73 -157 -73 -64 0 -76 10 -34 29 49 22
139 99 169 145 17 25 34 46 38 46 17 0 -40 -86 -91 -137 -40 -41 -48 -53 -33
-53 47 0 152 158 167 249 9 55 24 34 24 -32z m-528 -54 c23 -21 23 -65 1 -86
-29 -25 -144 -59 -205 -61 -104 -2 -117 51 -20 79 32 9 84 32 117 51 68 38 81
41 107 17z m-10 -149 c-3 -17 -8 -22 -15 -15 -7 7 -6 15 3 26 17 20 18 19 12
-11z m1231 -13 c60 -67 62 -155 4 -217 -20 -21 -46 -37 -67 -40 l-35 -7 21 24
c64 72 59 143 -15 213 l-31 29 38 18 c49 23 45 24 85 -20z m-79 -92 c9 -22 16
-47 16 -56 0 -29 -52 -94 -92 -114 -44 -22 -49 -15 -13 19 38 36 49 89 27 131
-20 37 -47 60 -58 48 -4 -4 0 -15 8 -24 34 -39 39 -61 25 -95 -35 -80 -90 -98
-267 -87 -177 12 -563 10 -643 -2 -40 -6 -105 -24 -146 -41 -41 -16 -83 -28
-95 -26 -61 9 3 98 89 124 42 13 98 14 360 8 409 -9 492 4 555 83 11 14 20 40
20 58 0 31 1 32 68 46 66 14 68 14 99 -9 17 -13 38 -41 47 -63z m-1399 72 c3
-5 1 -12 -5 -16 -5 -3 -10 1 -10 9 0 18 6 21 15 7z m230 -20 c10 -32 58 -42
138 -30 40 6 104 10 142 8 104 -6 402 -2 431 5 13 4 24 2 24 -3 0 -29 -205
-44 -503 -38 -246 6 -272 5 -330 -13 -85 -27 -105 -43 -138 -116 -30 -65 -42
-74 -71 -51 -26 20 -29 58 -7 106 34 78 93 123 182 141 79 15 125 12 132 -9z
m920 -23 c-30 -97 -158 -124 -555 -116 -363 8 -425 -5 -484 -107 -29 -49 -61
-64 -96 -45 -17 9 -20 17 -15 43 13 65 39 101 85 124 74 37 140 43 455 43 165
-1 328 3 363 9 62 9 112 32 112 51 0 8 36 15 108 18 30 2 33 0 27 -20z"/>
<path d="M780 1818 c-73 -28 -177 -96 -217 -141 -63 -72 -103 -165 -83 -196
11 -19 30 -4 30 23 0 113 156 261 328 312 69 21 73 23 37 23 -22 0 -65 -10
-95 -21z"/>
<path d="M1060 1792 c0 -5 30 -13 68 -16 157 -16 259 -51 307 -107 26 -31 34
-69 14 -69 -6 0 -23 13 -39 28 -15 16 -39 35 -52 44 -73 48 -268 67 -268 26 0
-5 5 -6 10 -3 21 13 143 6 194 -11 34 -12 70 -35 108 -72 49 -46 60 -53 73
-42 21 17 19 67 -5 100 -28 40 -106 87 -171 104 -75 19 -239 32 -239 18z"/>
<path d="M865 1739 c-135 -72 -216 -176 -245 -314 -16 -72 -32 -94 -54 -75
-26 20 -20 92 13 164 16 35 58 97 95 140 37 42 63 76 58 76 -21 0 -144 -143
-169 -196 -35 -76 -38 -164 -7 -195 37 -36 60 -19 73 54 14 79 69 193 119 244
41 42 139 103 166 103 9 0 16 5 16 10 0 16 -22 12 -65 -11z"/>
<path d="M1057 1750 c-27 -5 -52 -11 -55 -14 -12 -13 5 -14 46 -5 23 5 67 10
97 10 30 1 55 6 55 10 0 11 -76 10 -143 -1z"/>
<path d="M1235 1660 c3 -5 15 -10 26 -10 24 0 72 -23 117 -57 18 -14 35 -23
38 -20 8 7 -70 66 -110 82 -40 17 -80 20 -71 5z"/>
<path d="M977 1620 c-134 -34 -236 -130 -296 -281 -29 -72 -56 -99 -94 -92
-35 7 -67 55 -67 100 0 17 -5 35 -11 39 -9 5 -10 -7 -4 -42 10 -67 28 -99 66
-114 49 -21 75 0 133 110 61 113 135 192 221 235 53 26 70 30 145 30 102 0
170 -26 198 -74 17 -30 32 -40 32 -22 0 20 -52 70 -93 90 -50 24 -172 35 -230
21z"/>
<path d="M1599 1494 c-16 -20 -1 -48 29 -52 27 -4 49 33 31 54 -15 19 -43 18
-60 -2z m49 -17 c2 -12 -3 -17 -17 -17 -12 0 -21 6 -21 13 0 31 32 34 38 4z"/>
<path d="M1649 1371 c-20 -16 -22 -23 -13 -38 14 -23 53 -23 68 -1 8 14 6 22
-10 38 -21 21 -21 21 -45 1z m39 -24 c2 -12 -3 -17 -17 -17 -12 0 -21 6 -21
13 0 31 32 34 38 4z"/>
<path d="M562 1120 c-24 -33 -42 -39 -42 -15 0 8 -4 15 -10 15 -14 0 -12 -13
5 -36 14 -18 16 -18 45 14 36 39 49 40 81 6 22 -23 24 -34 24 -119 0 -85 2
-96 24 -119 33 -35 71 -40 158 -21 99 22 148 16 208 -25 103 -71 99 -198 -12
-321 -20 -22 -34 -41 -32 -43 2 -2 28 12 58 32 86 58 151 171 151 265 0 43
-24 107 -40 107 -6 0 -4 -13 7 -32 21 -41 20 -119 -2 -173 -20 -47 -91 -145
-106 -145 -6 0 -1 12 11 27 98 124 70 283 -57 329 -50 18 -119 17 -179 -1 -75
-23 -120 -20 -151 11 -24 24 -25 29 -19 100 8 87 -9 136 -55 159 -38 20 -42
19 -67 -15z"/>
<path d="M430 1087 c0 -15 20 -37 34 -37 5 0 2 8 -7 18 -10 10 -14 22 -10 25
3 4 1 7 -5 7 -7 0 -12 -6 -12 -13z"/>
<path d="M292 1022 c-42 -39 -62 -76 -62 -117 0 -36 16 -39 44 -8 27 29 86
133 86 152 0 21 -27 11 -68 -27z m48 10 c0 -5 -20 -40 -45 -78 -37 -58 -45
-65 -45 -43 0 24 15 49 64 107 21 24 26 27 26 14z"/>
<path d="M817 973 c-24 -23 12 -55 38 -33 12 10 13 16 4 26 -12 15 -31 18 -42
7z m33 -24 c0 -5 -4 -9 -10 -9 -5 0 -10 7 -10 16 0 8 5 12 10 9 6 -3 10 -10
10 -16z"/>
<path d="M724 955 c-4 -9 -2 -21 4 -27 15 -15 44 -1 40 19 -4 23 -36 29 -44 8z
m30 -16 c-3 -5 -10 -7 -15 -3 -5 3 -7 10 -3 15 3 5 10 7 15 3 5 -3 7 -10 3
-15z"/>
<path d="M769 894 c-9 -11 -9 -18 -1 -26 14 -14 42 -3 42 16 0 20 -27 27 -41
10z m31 -8 c0 -3 -4 -8 -10 -11 -5 -3 -10 -1 -10 4 0 6 5 11 10 11 6 0 10 -2
10 -4z"/>
<path d="M395 860 c-54 -21 -121 -80 -163 -143 -30 -44 -42 -36 -42 31 0 23
-4 42 -10 42 -13 0 -13 -61 0 -94 14 -39 33 -32 79 28 22 30 62 70 88 88 42
29 56 33 111 33 50 0 62 3 60 15 -5 23 -65 22 -123 0z"/>
<path d="M1321 823 c25 -49 25 -119 -1 -160 -11 -18 -16 -33 -11 -33 20 0 51
68 51 111 0 45 -26 110 -47 116 -7 3 -3 -11 8 -34z"/>
<path d="M1249 832 c24 -45 14 -111 -35 -239 -32 -81 -31 -116 2 -142 32 -25
51 -18 24 9 -31 31 -29 75 4 165 13 33 26 78 29 100 7 51 -4 117 -22 123 -10
3 -11 0 -2 -16z"/>
<path d="M210 806 c0 -7 7 -19 16 -26 13 -11 19 -10 37 8 12 12 16 22 10 22
-7 0 -15 -4 -18 -10 -9 -15 -25 -12 -25 5 0 8 -4 15 -10 15 -5 0 -10 -6 -10
-14z"/>
<path d="M415 1815 c-63 -61 -92 -135 -54 -135 13 0 119 100 119 113 0 5 -24
-11 -54 -37 -30 -25 -57 -46 -60 -46 -9 0 19 50 41 75 10 11 33 32 51 48 20
16 27 27 19 27 -8 0 -36 -20 -62 -45z"/>
<path d="M230 1541 c0 -100 55 -150 111 -100 l24 20 -25 -7 c-64 -19 -90 4
-90 78 0 26 -4 48 -10 48 -5 0 -10 -17 -10 -39z"/>
<path d="M221 1435 c-1 -65 18 -95 63 -95 20 0 40 8 51 20 21 23 14 25 -32 8
-43 -16 -61 1 -72 68 l-9 49 -1 -50z"/>
<path d="M220 1312 c0 -35 88 -54 124 -27 24 18 15 30 -12 16 -29 -15 -59 -14
-87 5 -14 9 -25 12 -25 6z"/>
<path d="M1600 881 c-92 -53 -109 -72 -83 -92 15 -12 16 -12 10 4 -8 23 17 46
86 78 26 12 47 26 47 31 0 12 -10 9 -60 -21z"/>
<path d="M1578 708 c-56 -27 -78 -44 -78 -57 0 -21 26 -36 35 -21 4 6 -1 10
-9 10 -36 0 -11 22 64 56 44 20 80 41 80 45 0 13 -7 10 -92 -33z"/>
<path d="M880 721 c0 -6 5 -13 11 -17 6 -3 8 -17 5 -30 -4 -14 -2 -24 4 -24
11 0 14 39 4 64 -7 17 -24 22 -24 7z"/>
<path d="M829 649 c16 -16 22 -30 19 -50 -6 -36 9 -39 18 -4 7 30 -18 75 -43
75 -14 0 -13 -4 6 -21z"/>
<path d="M620 490 c-36 -16 -73 -30 -82 -30 -10 0 -18 -5 -18 -11 0 -13 26 -6
99 27 29 13 60 24 67 24 27 0 13 -31 -21 -47 -19 -9 -35 -20 -35 -25 0 -12 5
-10 44 12 39 24 51 46 35 66 -15 18 -13 18 -89 -16z"/>
<path d="M376 545 c-22 -13 -65 -32 -97 -42 -33 -10 -59 -21 -59 -26 0 -12 50
3 127 39 84 40 87 40 80 14 -6 -24 8 -27 17 -4 6 16 -9 44 -23 44 -3 0 -24
-11 -45 -25z"/>
</g>
</svg>
