<?xml version="1.0" standalone="no"?>
<!DOCTYPE svg PUBLIC "-//W3C//DTD SVG 20010904//EN"
 "http://www.w3.org/TR/2001/REC-SVG-20010904/DTD/svg10.dtd">
<svg version="1.0" xmlns="http://www.w3.org/2000/svg"
 width="266.000000pt" height="300.000000pt" viewBox="0 0 266.000000 300.000000"
 preserveAspectRatio="xMidYMid meet">

<g transform="translate(0.000000,300.000000) scale(0.100000,-0.100000)"
fill="#000000" stroke="none">
<path d="M681 2984 c-209 -46 -375 -204 -447 -424 -15 -48 -18 -104 -22 -437
-2 -250 0 -408 7 -455 18 -116 76 -215 163 -278 l38 -28 -54 -31 c-134 -75
-189 -249 -122 -385 36 -74 112 -141 183 -162 82 -24 298 -16 374 14 82 32
147 79 193 138 l40 52 17 -38 c25 -55 85 -118 143 -148 68 -36 186 -38 257 -5
60 27 125 92 151 150 l19 44 28 -38 c65 -90 161 -151 270 -174 30 -6 108 -9
175 -7 141 4 189 21 256 88 53 53 81 116 87 194 10 127 -72 253 -195 302 -1 1
31 34 71 75 55 56 80 89 98 134 24 59 24 64 27 475 3 354 1 425 -13 488 -47
211 -200 377 -415 448 -51 17 -104 18 -660 20 -495 2 -617 0 -669 -12z m1309
-68 c88 -29 162 -73 223 -133 65 -62 99 -116 136 -212 l25 -66 4 -402 c3 -341
1 -411 -12 -463 -29 -114 -109 -204 -216 -244 -41 -15 -115 -16 -840 -14
l-795 3 -53 30 c-70 38 -136 112 -161 181 -20 52 -21 76 -21 467 0 451 2 473
59 585 73 145 229 257 390 282 31 4 315 7 631 6 525 -2 580 -3 630 -20z
m-1380 -1621 c15 -8 38 -26 49 -41 66 -84 4 -214 -103 -214 -92 0 -104 106
-15 135 43 15 53 51 16 60 -36 9 -94 -19 -117 -57 -43 -70 -14 -162 60 -192
22 -9 46 -16 53 -16 34 0 92 25 124 53 73 64 92 157 49 241 l-24 46 162 -2
161 -3 1 -50 c4 -184 -73 -317 -224 -388 -65 -31 -70 -32 -207 -32 -156 0
-188 10 -252 77 -114 119 -70 314 87 382 45 20 143 20 180 1z m580 -115 c0
-91 4 -141 14 -165 20 -47 69 -75 130 -75 43 0 53 4 87 39 l39 39 0 146 0 146
49 0 48 0 6 -122 c7 -132 2 -169 -31 -235 -55 -107 -200 -150 -313 -92 -47 24
-106 93 -119 138 -5 20 -10 98 -10 174 l0 137 50 0 50 0 0 -130z m742 93 c-45
-89 -34 -170 32 -238 68 -71 161 -83 226 -29 61 52 61 146 0 198 -38 32 -87
43 -106 24 -18 -18 -8 -48 16 -48 32 0 70 -39 70 -72 0 -93 -137 -91 -185 2
-33 64 -7 153 54 185 35 18 118 20 172 3 49 -14 114 -69 138 -117 68 -134 -1
-295 -145 -337 -81 -23 -256 -16 -336 15 -80 31 -159 105 -200 188 -28 58 -33
79 -36 165 l-4 98 161 0 161 0 -18 -37z"/>
<path d="M910 2723 c-186 -31 -340 -162 -400 -342 -20 -60 -21 -81 -18 -295
l3 -231 34 -63 c57 -104 155 -178 269 -203 31 -6 237 -9 563 -7 l514 3 67 33
c85 42 148 105 190 190 l33 67 0 230 c-1 211 -3 235 -22 287 -46 122 -128 216
-242 277 -106 56 -153 61 -581 59 -212 0 -396 -3 -410 -5z m815 -63 c197 -28
346 -176 377 -376 5 -38 8 -141 6 -229 -3 -146 -6 -165 -29 -215 -28 -60 -91
-130 -138 -154 l-30 -16 -3 308 -3 307 -26 56 c-33 69 -89 127 -155 160 -49
24 -52 24 -398 27 -406 3 -415 2 -489 -77 -46 -49 -77 -123 -77 -181 0 -42
-27 -59 -96 -61 -100 -3 -127 28 -105 118 44 174 193 310 364 332 90 12 719
12 802 1z m-395 -308 c0 -95 -4 -124 -19 -152 -25 -48 -61 -71 -122 -81 -63
-10 -97 -39 -106 -91 -3 -21 -18 -55 -34 -74 -16 -20 -31 -53 -35 -73 -8 -45
-21 -61 -48 -61 -58 0 -116 -70 -116 -140 0 -26 -4 -30 -27 -30 -44 0 -145 53
-185 98 -72 80 -82 110 -86 269 l-4 142 39 -11 c56 -15 150 -4 186 23 19 14
34 19 42 13 73 -55 97 -66 152 -71 110 -10 197 35 248 129 24 43 29 65 29 118
0 36 -6 75 -12 88 -12 22 -12 22 43 22 l55 0 0 -118z m337 105 c64 -24 119
-73 148 -131 24 -49 28 -73 33 -171 l5 -115 -50 0 c-184 0 -318 -178 -258
-345 8 -22 15 -43 15 -48 0 -4 -145 -6 -322 -5 l-323 3 2 40 c2 45 30 75 70
75 35 0 83 51 83 88 0 17 10 43 24 59 32 39 46 68 46 96 0 32 16 44 76 57 67
14 108 41 141 91 27 41 28 49 31 181 l4 138 121 -1 c67 0 136 -6 154 -12z
m-482 -41 c0 -36 -27 -56 -52 -40 -40 25 -20 77 26 72 21 -2 26 -8 26 -32z
m-141 8 c29 -29 12 -64 -31 -64 -37 0 -50 51 -19 72 17 12 33 9 50 -8z m-120
-40 c22 -21 20 -40 -6 -58 -19 -13 -25 -14 -43 -2 -26 18 -30 40 -10 60 21 20
39 20 59 0z m136 -59 c7 -8 10 -25 6 -40 -5 -20 -13 -25 -36 -25 -23 0 -31 5
-36 25 -7 29 10 55 36 55 10 0 23 -7 30 -15z m120 1 c6 -8 10 -25 8 -38 -6
-42 -78 -32 -78 11 0 37 46 55 70 27z m-216 -82 c29 -29 12 -64 -31 -64 -19 0
-43 25 -43 44 0 10 32 36 45 36 7 0 21 -7 29 -16z m120 -20 c23 -22 20 -41 -9
-60 -20 -13 -28 -14 -40 -4 -20 17 -19 57 3 69 23 14 28 14 46 -5z m744 -282
c7 -50 -49 -72 -70 -27 -14 32 5 57 41 53 18 -2 27 -10 29 -26z m-118 -27 c15
-18 10 -45 -12 -59 -33 -20 -69 20 -54 60 7 18 50 18 66 -1z m84 -67 c22 -35
-27 -74 -59 -48 -18 15 -20 56 -2 64 22 9 50 1 61 -16z m-130 -44 c9 -8 16
-22 16 -29 0 -13 -26 -45 -36 -45 -19 0 -44 24 -44 43 0 43 35 60 64 31z m172
-59 c11 -43 -34 -73 -64 -43 -13 13 -16 50 -5 61 3 4 19 7 34 7 22 0 30 -6 35
-25z m-105 -15 c23 -13 25 -56 3 -68 -43 -24 -88 36 -49 65 22 16 21 16 46 3z"/>
<path d="M1178 612 l-38 -3 26 -22 c24 -22 25 -24 22 -147 l-3 -124 -125 146
-125 147 -75 1 -75 0 35 -18 35 -17 3 -173 2 -172 -32 -20 -33 -20 69 0 69 0
-24 26 c-23 24 -24 34 -27 165 -3 89 0 139 6 139 6 0 79 -77 164 -170 l153
-170 5 192 c3 106 9 199 14 206 4 7 18 17 29 21 19 7 19 8 -8 12 -17 2 -47 3
-67 1z"/>
<path d="M1612 608 c-27 -27 -6 -68 35 -68 25 0 28 -13 13 -57 l-10 -28 20 24
c22 26 27 89 10 122 -12 21 -50 25 -68 7z"/>
<path d="M1762 584 c-20 -36 13 -73 51 -59 37 15 23 75 -18 75 -13 0 -28 -7
-33 -16z"/>
<path d="M1370 441 c-50 -26 -72 -61 -72 -113 -2 -85 52 -138 140 -138 85 0
142 53 142 135 0 106 -113 169 -210 116z m102 -23 c53 -60 47 -200 -9 -214
-54 -14 -99 67 -91 164 7 81 54 104 100 50z"/>
<path d="M1765 429 c-22 -10 -33 -19 -24 -19 25 0 29 -21 29 -165 0 -159 -5
-187 -38 -220 -30 -30 -24 -31 29 -4 62 31 69 59 69 259 0 188 3 181 -65 149z"/>
</g>
</svg>
