<?xml version="1.0" standalone="no"?>
<!DOCTYPE svg PUBLIC "-//W3C//DTD SVG 20010904//EN"
 "http://www.w3.org/TR/2001/REC-SVG-20010904/DTD/svg10.dtd">
<svg version="1.0" xmlns="http://www.w3.org/2000/svg"
 width="174.000000pt" height="221.000000pt" viewBox="0 0 174.000000 221.000000"
 preserveAspectRatio="xMidYMid meet">
<metadata>
Created by potrace 1.10, written by Peter Selinger 2001-2011
</metadata>
<g transform="translate(0.000000,221.000000) scale(0.100000,-0.100000)"
fill="#000000" stroke="none">
<path d="M550 2141 c-30 -4 -71 -13 -90 -19 -67 -21 -121 -24 -186 -11 -60 12
-66 11 -92 -8 -53 -40 -35 -124 35 -159 43 -21 114 -24 284 -10 104 9 179 3
179 -13 0 -4 -37 -11 -83 -14 -154 -11 -325 -92 -388 -184 -58 -84 -94 -207
-115 -398 -30 -279 -3 -605 63 -764 31 -73 124 -183 165 -197 27 -8 22 -24 -8
-24 -31 0 -80 -46 -90 -86 -12 -49 15 -105 68 -141 80 -53 182 -56 253 -7 l37
25 19 -25 c11 -14 45 -37 77 -53 53 -26 66 -28 178 -28 114 0 123 2 179 30 47
25 71 46 81 73 1 1 22 -10 48 -24 42 -23 55 -26 108 -21 69 6 127 40 165 96
55 82 3 161 -107 164 -27 1 -50 5 -50 10 0 4 7 7 16 7 23 0 123 55 167 91 75
62 122 162 146 309 6 36 16 99 22 140 16 99 16 334 0 435 -49 316 -178 490
-407 550 -32 8 -71 15 -86 15 -38 0 -35 14 10 42 32 20 49 23 122 22 56 -1
109 -9 155 -23 105 -33 182 -37 222 -12 41 25 52 64 28 91 -14 15 -31 20 -75
20 -45 0 -72 8 -138 40 -203 98 -322 92 -446 -21 -83 -76 -100 -118 -104 -272
-3 -89 -8 -127 -16 -124 -6 2 -10 23 -9 53 1 27 4 104 5 171 3 120 3 121 -27
165 -55 78 -166 110 -315 89z m219 -44 c25 -12 59 -39 75 -60 30 -37 31 -43
31 -130 0 -51 -4 -126 -9 -167 -8 -70 -7 -76 13 -94 19 -18 23 -18 37 -4 12
12 16 43 18 134 2 100 6 126 25 166 48 100 170 178 279 179 72 1 84 -2 192
-54 66 -32 100 -42 150 -45 36 -2 71 -9 78 -14 35 -29 -13 -78 -76 -78 -17 0
-91 16 -165 35 -118 30 -142 33 -190 25 -149 -24 -196 -93 -217 -320 -13 -130
-23 -162 -61 -195 -42 -35 -115 -35 -152 -1 -40 37 -48 84 -41 246 6 162 2
179 -55 217 -30 20 -46 23 -135 23 -56 0 -128 -5 -161 -10 -94 -16 -163 -4
-202 35 -39 39 -43 78 -11 99 20 13 30 13 78 0 51 -13 64 -13 185 10 201 39
239 39 314 3z m-39 -279 c0 -21 0 -41 0 -45 1 -4 -32 -13 -71 -19 -104 -18
-185 -62 -258 -139 -97 -104 -131 -193 -131 -342 0 -94 3 -90 -82 -96 l-58 -4
0 51 c0 135 39 336 82 420 26 52 102 132 153 161 53 31 140 55 250 70 104 13
115 8 115 -57z m451 38 c134 -24 241 -91 308 -193 53 -79 101 -263 115 -436 5
-66 5 -67 -17 -62 -12 3 -50 9 -85 13 l-63 7 -2 130 c-2 123 -4 134 -34 197
-56 118 -153 191 -295 220 l-66 13 20 63 c10 34 24 62 31 62 7 -1 46 -7 88
-14z m-501 -147 c0 -18 -2 -19 -15 -9 -8 7 -15 16 -15 21 0 5 7 9 15 9 9 0 15
-9 15 -21z m45 -71 c0 -117 21 -177 73 -213 41 -28 78 -31 125 -11 70 29 103
93 113 215 6 74 12 90 26 76 2 -3 1 -33 -3 -67 -4 -35 -13 -126 -19 -203 -6
-77 -13 -159 -16 -182 l-5 -43 -165 0 -164 0 0 33 c-1 80 25 487 30 487 3 0 6
-42 5 -92z m-90 57 c19 -15 19 -16 -12 -47 l-31 -31 -31 24 c-16 13 -30 27
-30 30 -1 8 59 39 74 38 6 0 19 -6 30 -14z m548 -12 c20 -6 22 -19 4 -26 -13
-5 -57 25 -57 38 0 4 8 4 18 0 9 -4 25 -10 35 -12z m-58 -29 c14 -14 25 -27
23 -28 -2 0 -18 -14 -36 -31 l-34 -30 3 50 c4 75 6 77 44 39z m133 -50 l3 -49
-30 35 c-27 32 -28 36 -13 53 24 27 37 15 40 -39z m-788 -129 c-5 -93 -9 -194
-10 -222 0 -29 -4 -53 -10 -53 -13 0 -13 67 1 265 10 154 15 192 23 184 2 -2
0 -80 -4 -174z m90 125 c0 -5 -13 -18 -30 -30 l-30 -21 0 51 0 51 30 -21 c17
-12 30 -25 30 -30z m120 0 c0 -27 -3 -50 -6 -50 -3 0 -19 11 -34 24 l-28 23
26 27 c15 14 30 26 34 26 5 0 8 -22 8 -50z m-236 -17 c-2 -21 -9 -114 -15
-208 -6 -93 -12 -171 -14 -173 -1 -2 -29 -6 -61 -9 l-57 -6 6 99 c8 121 33
199 90 276 23 32 45 58 49 58 3 0 4 -17 2 -37z m862 -35 c-3 -35 -8 -127 -12
-205 -4 -79 -10 -143 -15 -143 -4 0 -6 46 -3 103 12 254 16 307 26 307 7 0 8
-23 4 -62z m-99 23 l22 -28 -35 -34 -34 -33 -32 32 -32 32 34 30 c43 36 49 36
77 1z m-582 -20 l28 -30 -34 -28 c-18 -15 -35 -26 -38 -24 -3 2 -19 14 -35 28
l-29 24 34 29 c19 16 37 29 40 30 3 0 18 -13 34 -29z m751 -54 c26 -56 29 -74
32 -185 l4 -124 -54 4 -53 3 2 65 c1 36 5 123 9 193 7 145 12 149 60 44z
m-117 -15 c-1 -20 -4 -50 -8 -65 l-6 -28 -33 34 -33 34 33 34 c18 19 36 33 41
31 4 -2 6 -20 6 -40z m-154 2 l27 -27 -31 -30 c-17 -17 -32 -29 -34 -26 -4 5
4 109 9 109 1 0 15 -12 29 -26z m-575 -67 c-17 -17 -32 -28 -33 -26 -2 2 -1
28 1 57 l4 54 29 -28 29 -28 -30 -29z m142 28 c-2 -30 -7 -55 -10 -55 -3 0
-19 12 -34 27 l-28 27 33 27 c17 16 34 28 37 29 3 0 3 -25 2 -55z m517 -104
c-19 -17 -39 -31 -45 -31 -5 0 -23 13 -38 29 l-28 29 39 36 38 35 34 -33 34
-34 -34 -31z m-578 53 l27 -26 -34 -30 -35 -31 -30 29 -30 29 32 28 c18 15 35
27 38 27 3 0 17 -12 32 -26z m53 -92 c-10 -57 -22 -67 -51 -40 l-23 22 31 32
c39 40 52 35 43 -14z m586 2 c0 -25 -5 -54 -10 -65 -8 -14 -7 -19 1 -19 7 0 9
-3 6 -7 -8 -7 -77 55 -77 69 0 10 62 67 73 68 4 0 7 -21 7 -46z m-728 -36
c-14 -16 -28 -28 -31 -28 -3 0 -4 22 -3 50 l4 50 28 -23 28 -22 -26 -27z m567
-12 c-15 -17 -31 -28 -33 -25 -3 3 -3 28 1 56 l6 52 27 -27 28 -27 -29 -29z
m-499 -8 c25 -32 9 -48 -49 -48 l-46 0 35 35 c19 18 37 34 38 34 2 1 12 -9 22
-21z m583 -13 c15 -13 27 -27 27 -30 0 -3 -27 -5 -60 -5 -33 0 -60 3 -60 7 0
8 51 52 60 52 3 0 17 -11 33 -24z m177 -76 c141 -10 249 -24 258 -34 13 -13
-12 -13 -138 1 -76 8 -301 17 -515 20 -313 6 -419 4 -603 -11 -203 -16 -246
-16 -230 0 7 8 204 25 398 35 180 9 634 3 830 -11z m5 -39 c83 -6 173 -15 200
-18 l50 -7 -4 -50 c-1 -28 -4 -51 -5 -51 0 -1 -46 4 -101 11 -282 37 -878 44
-1240 15 -65 -5 -121 -7 -123 -5 -2 2 -6 21 -9 43 -7 49 -14 47 227 62 96 6
189 13 205 14 64 7 658 -3 800 -14z m-280 -131 c272 -10 508 -29 522 -42 3 -3
3 -13 0 -20 -4 -11 -15 -13 -49 -6 -107 20 -516 32 -888 25 -212 -3 -418 -9
-457 -13 -70 -5 -73 -5 -73 15 0 14 8 23 23 27 19 4 370 19 567 23 36 1 196
-3 355 -9z m112 -73 c100 -3 232 -11 293 -17 l111 -12 -7 -46 c-22 -159 -60
-261 -127 -337 -111 -127 -321 -171 -759 -161 -251 5 -295 14 -372 73 -27 20
-65 63 -87 96 -63 98 -77 147 -104 349 l-5 36 83 8 c105 10 527 21 677 18 63
-1 197 -5 297 -7z m-51 -639 c-38 -40 -46 -44 -57 -31 -7 9 -28 24 -48 33
l-35 19 63 7 c34 4 75 11 89 15 15 4 28 6 29 5 2 -1 -17 -22 -41 -48z m242 16
c22 -16 27 -28 27 -63 0 -37 -5 -47 -35 -71 -41 -33 -118 -51 -163 -38 -37 11
-87 56 -87 80 0 27 50 80 95 101 50 23 125 19 163 -9z m-915 1 c52 -18 97 -63
97 -99 0 -13 -10 -35 -22 -49 -60 -68 -224 -42 -264 41 -19 41 -12 64 27 98
36 30 91 33 162 9z m177 -4 c-1 -9 -49 -64 -52 -60 -2 3 -16 20 -33 38 l-29
33 57 -3 c31 -2 57 -5 57 -8z m266 -11 c123 -17 174 -54 174 -124 0 -80 -212
-133 -357 -90 -57 17 -113 71 -113 108 0 49 57 94 135 108 61 10 77 10 161 -2z"/>
<path d="M470 2044 c-99 -15 -201 -14 -235 1 -18 8 -18 7 -6 -8 22 -27 73 -30
220 -13 106 12 152 13 189 6 94 -21 145 -72 158 -157 3 -24 11 -46 16 -49 13
-8 1 68 -19 118 -18 45 -69 86 -131 104 -52 16 -64 16 -192 -2z"/>
<path d="M1154 2039 c-56 -13 -116 -67 -143 -130 -30 -69 -20 -73 13 -5 44 90
92 119 216 132 41 5 78 1 138 -15 79 -20 121 -26 110 -16 -3 3 -38 14 -79 25
-78 21 -185 24 -255 9z"/>
<path d="M715 797 c-136 -36 -195 -118 -139 -194 84 -112 431 -123 525 -16 64
73 21 150 -107 192 -84 27 -210 36 -279 18z m227 -28 c138 -29 192 -97 133
-168 -41 -48 -103 -66 -225 -66 -123 1 -177 14 -225 56 -68 60 -33 140 74 173
56 18 172 20 243 5z"/>
<path d="M728 736 c-80 -28 -106 -61 -94 -112 15 -57 196 -93 322 -65 91 21
127 88 77 144 -39 42 -223 62 -305 33z m246 -37 c41 -20 52 -42 40 -76 -7 -22
-19 -31 -54 -40 -105 -27 -267 -6 -291 39 -17 32 3 63 53 82 54 20 209 17 252
-5z"/>
<path d="M1230 269 c-47 -19 -93 -79 -60 -79 6 0 10 6 10 13 0 39 103 72 149
48 13 -7 21 -8 21 -2 0 27 -72 39 -120 20z"/>
<path d="M344 261 c-25 -11 -39 -29 -30 -38 3 -4 14 1 24 10 32 29 129 14 156
-25 17 -24 30 -20 20 5 -13 34 -127 66 -170 48z"/>
<path d="M734 240 c-54 -17 -85 -75 -46 -88 9 -3 11 3 7 21 -6 21 -2 28 24 41
71 37 275 3 284 -47 3 -20 4 -20 11 -4 12 25 -15 51 -66 66 -55 17 -175 23
-214 11z"/>
</g>
</svg>
