<?xml version="1.0" standalone="no"?>
<!DOCTYPE svg PUBLIC "-//W3C//DTD SVG 20010904//EN"
 "http://www.w3.org/TR/2001/REC-SVG-20010904/DTD/svg10.dtd">
<svg version="1.0" xmlns="http://www.w3.org/2000/svg"
 width="177.000000pt" height="158.000000pt" viewBox="0 0 177.000000 158.000000"
 preserveAspectRatio="xMidYMid meet">
<metadata>
Created by potrace 1.10, written by Peter Selinger 2001-2011
</metadata>
<g transform="translate(0.000000,158.000000) scale(0.100000,-0.100000)"
fill="#000000" stroke="none">
<path d="M415 1529 c-109 -14 -224 -53 -271 -93 -84 -72 -142 -257 -101 -320
14 -21 15 -42 8 -152 -8 -134 0 -296 19 -375 18 -75 61 -134 125 -170 l56 -31
-33 -17 c-66 -33 -92 -134 -52 -202 27 -45 88 -86 154 -104 107 -29 298 -12
385 32 37 19 37 19 83 -4 57 -29 100 -29 143 0 28 19 35 30 37 64 2 24 9 44
17 47 20 7 28 -10 15 -33 -5 -11 -10 -31 -10 -45 0 -32 50 -66 96 -66 49 0
113 40 138 85 11 22 22 42 24 44 1 3 10 -5 18 -18 42 -60 191 -84 269 -44 74
39 114 96 145 212 24 90 28 136 36 426 9 336 -6 433 -74 481 -21 14 -21 14 4
39 17 17 24 35 24 62 0 80 -73 147 -182 165 -130 23 -219 -17 -265 -119 l-25
-55 -30 46 c-53 81 -140 124 -293 146 -83 12 -361 11 -460 -1z m508 -39 c68
-14 160 -57 190 -88 58 -60 91 -186 107 -397 15 -202 -19 -443 -75 -526 -24
-37 -97 -80 -158 -95 l-28 -6 31 48 c74 117 118 286 127 489 11 257 -60 412
-209 459 -170 52 -481 41 -605 -23 -67 -34 -140 -136 -130 -181 2 -8 9 3 17
25 48 144 164 194 450 194 350 1 444 -79 457 -392 7 -154 -8 -277 -48 -402
-29 -91 -93 -213 -117 -222 -24 -10 -24 6 1 39 106 138 163 399 140 632 -14
132 -37 191 -102 249 -57 52 -122 69 -281 74 -164 6 -298 -14 -373 -55 -42
-23 -54 -36 -74 -82 -13 -30 -31 -69 -40 -87 -31 -64 -122 -69 -133 -8 -15 84
34 222 98 275 42 35 143 68 259 86 98 15 414 11 496 -6z m622 -29 c73 -32 107
-115 69 -169 -12 -17 -25 -22 -59 -22 -32 0 -51 -7 -72 -24 -15 -13 -25 -28
-20 -32 4 -4 16 2 27 14 16 17 32 22 69 22 43 0 53 -4 79 -34 23 -27 31 -49
41 -110 21 -145 6 -609 -25 -731 -37 -151 -112 -225 -226 -225 -110 0 -166 53
-218 204 -24 73 -25 101 -3 174 l17 57 12 -95 c20 -150 62 -243 126 -276 58
-30 168 -3 168 43 0 7 -4 13 -10 13 -5 0 -10 -7 -10 -15 0 -31 -99 -47 -143
-23 -28 15 -41 32 -71 94 -35 70 -49 195 -44 392 3 156 5 170 28 211 32 57 51
68 84 53 41 -18 60 -100 60 -263 1 -159 -4 -172 -65 -163 -30 5 -40 3 -45 -10
-18 -46 39 -104 92 -93 19 3 24 -1 26 -21 2 -14 15 -34 29 -45 54 -39 129 16
129 95 0 19 -5 39 -12 46 -9 9 -8 15 5 24 30 24 50 90 55 189 2 54 1 118 -2
143 -8 51 -49 108 -71 100 -12 -5 -12 0 2 26 13 27 14 39 4 71 -14 47 -44 69
-93 69 -40 0 -84 -31 -75 -53 3 -8 -12 -12 -48 -12 -38 0 -59 -5 -74 -19 -12
-11 -23 -17 -24 -15 -10 12 -29 235 -23 271 10 60 53 124 101 149 49 25 141
21 210 -10z m-995 -226 c-69 -69 -128 -125 -131 -125 -4 0 -41 28 -83 61 -73
58 -76 63 -63 83 31 47 130 82 267 96 151 15 150 25 10 -115z m180 119 c0 -4
-87 -96 -194 -204 -204 -207 -256 -269 -256 -304 0 -11 17 -37 37 -58 33 -34
36 -40 22 -53 -14 -14 -20 -11 -62 34 -26 28 -47 57 -47 64 0 26 80 119 280
325 170 177 220 221 220 196z m128 -19 c3 -2 -95 -106 -216 -230 -122 -123
-222 -230 -222 -238 0 -7 5 -18 12 -25 10 -10 4 -20 -25 -49 l-37 -37 -35 34
c-39 38 -43 62 -17 101 9 15 111 125 227 244 l209 217 49 -6 c28 -3 52 -8 55
-11z m48 -26 c3 -6 1 -16 -4 -21 -13 -13 -45 8 -36 23 7 12 31 11 40 -2z m55
-26 c13 -16 12 -17 -3 -4 -10 7 -18 15 -18 17 0 8 8 3 21 -13z m-92 -6 c8 -11
7 -18 -7 -30 -25 -22 -46 -4 -29 24 14 23 21 24 36 6z m73 -29 c-17 -17 -47 9
-30 29 10 12 13 12 27 -1 11 -12 12 -19 3 -28z m54 0 c4 -7 3 -8 -4 -4 -7 4
-12 2 -12 -3 0 -6 5 -11 10 -11 16 0 12 -17 -6 -24 -9 -4 -23 -1 -31 6 -13 11
-12 15 7 30 26 21 27 21 36 6z m-87 -11 c8 -10 1 -22 -29 -52 -33 -33 -41 -36
-55 -25 -14 12 -14 15 1 31 13 15 20 16 31 8 7 -7 17 -9 20 -5 4 4 1 11 -7 16
-11 7 -11 11 -1 24 16 19 25 20 40 3z m-83 -8 c10 -17 -23 -46 -38 -31 -8 8
-8 15 2 27 15 18 26 19 36 4z m-448 -120 c22 -17 23 -39 1 -39 -14 0 -134 101
-133 112 1 4 2 13 3 19 0 6 25 -8 54 -31 28 -23 63 -51 75 -61z m571 87 c9
-10 8 -16 -4 -26 -21 -17 -51 6 -34 26 6 8 15 14 19 14 4 0 13 -6 19 -14z m81
-6 c6 -11 8 -25 5 -30 -3 -6 -1 -10 4 -10 6 0 11 -6 11 -12 0 -7 -14 1 -31 19
-17 17 -28 36 -25 42 11 17 24 13 36 -9z m-252 -8 c10 -7 8 -12 -6 -25 -18
-16 -20 -16 -32 -1 -12 13 -11 17 1 25 17 11 21 11 37 1z m219 -59 c-15 -16
-18 -16 -37 2 -19 17 -19 19 -3 37 16 18 17 18 37 -2 19 -19 19 -21 3 -37z
m-88 34 c17 -21 -23 -55 -44 -37 -14 12 -14 15 1 31 20 23 28 23 43 6z m-573
-77 l31 -26 -27 -32 c-15 -18 -30 -32 -34 -32 -4 0 -33 19 -64 42 -31 23 -58
43 -60 44 -2 1 8 14 22 29 15 16 26 35 26 43 0 15 36 -9 106 -68z m483 67 c8
-11 6 -18 -8 -31 -16 -15 -19 -15 -31 -1 -10 12 -10 18 0 30 15 19 24 19 39 2z
m-83 -8 c3 -6 -1 -18 -9 -27 -13 -13 -19 -13 -32 -2 -12 10 -13 16 -4 26 14
17 35 18 45 3z m794 -29 c19 -16 28 -27 19 -24 -11 3 -18 -2 -22 -15 -3 -14
-10 -19 -21 -15 -23 9 -20 25 6 32 21 5 21 6 -8 29 -16 12 -24 23 -19 23 6 0
26 -13 45 -30z m-573 -2 l23 -21 23 22 c19 17 26 19 35 9 7 -9 7 -18 -3 -31
-7 -10 -16 -14 -19 -8 -3 5 -28 7 -55 4 -52 -5 -71 7 -51 32 16 19 19 19 47
-7z m520 9 c15 -8 19 -17 14 -26 -13 -20 -42 -6 -34 16 6 16 5 16 -10 4 -17
-13 -25 -47 -9 -37 4 2 14 1 22 -4 13 -8 13 -11 -1 -25 -15 -15 -17 -14 -28
13 -10 23 -10 35 -1 51 12 24 17 25 47 8z m-710 -44 c-16 -16 -18 -16 -34 0
-16 16 -16 18 2 31 17 13 22 13 35 0 12 -12 12 -16 -3 -31z m92 34 c8 -10 7
-17 -1 -25 -26 -26 -60 -4 -38 23 15 18 24 19 39 2z m-170 -11 c14 -17 -9 -39
-33 -30 -19 7 -20 16 -4 32 15 15 23 15 37 -2z m101 -43 c-12 -8 -24 -12 -28
-8 -9 9 28 36 40 29 5 -4 0 -13 -12 -21z m270 17 c0 -5 -4 -10 -10 -10 -5 0
-10 5 -10 10 0 6 5 10 10 10 6 0 10 -4 10 -10z m-829 -47 c33 -25 59 -48 59
-51 0 -3 -17 -26 -38 -51 -66 -78 -63 -97 22 -189 l31 -34 -85 -78 c-47 -44
-88 -79 -92 -80 -17 -1 -30 114 -35 310 l-5 216 42 1 c37 2 51 -4 101 -44z
m415 8 c-9 -13 -16 -14 -35 -2 -12 8 -13 12 -1 26 12 14 15 14 28 1 8 -8 11
-19 8 -25z m83 25 c17 -20 -13 -43 -34 -26 -12 10 -13 16 -4 26 6 8 15 14 19
14 4 0 13 -6 19 -14z m296 0 c29 -13 35 -20 35 -46 0 -30 0 -30 -25 -14 -37
24 -55 12 -55 -38 0 -47 29 -88 63 -88 15 0 18 -5 13 -22 -3 -13 -6 -26 -6
-30 0 -5 -12 -8 -26 -8 -39 0 -84 -50 -84 -94 0 -45 24 -48 69 -10 29 24 31
24 31 6 0 -11 -9 -30 -19 -43 -18 -22 -27 -24 -108 -24 -154 1 -191 41 -179
197 11 144 40 201 109 216 64 15 144 14 182 -2z m369 0 c45 -19 72 -79 86
-186 21 -175 6 -334 -36 -381 -26 -28 -78 -25 -103 7 -19 24 -19 54 0 54 5 0
18 -6 30 -12 18 -11 23 -10 44 14 59 69 32 422 -36 458 -31 17 -60 11 -91 -20
-16 -16 -31 -30 -32 -30 -1 0 -1 14 2 30 5 34 53 80 83 80 11 0 35 -6 53 -14z
m166 0 c0 -17 -14 -29 -23 -20 -8 8 3 34 14 34 5 0 9 -6 9 -14z m-54 -17 c9
-16 -10 -31 -30 -23 -13 5 -14 9 -5 20 14 17 25 18 35 3z m-821 -19 c4 -6 1
-17 -5 -26 -10 -11 -16 -12 -26 -3 -11 9 -11 15 -3 25 14 17 25 18 34 4z m75
3 c0 -5 -5 -15 -10 -23 -7 -11 -12 -12 -21 -3 -6 6 -8 16 -5 22 8 12 36 15 36
4z m772 -25 c-15 -15 -24 -6 -16 16 5 12 10 14 17 7 8 -8 8 -14 -1 -23z m-925
5 c5 -15 -28 -26 -41 -13 -8 8 -7 14 4 20 17 11 32 8 37 -7z m118 -52 c-13
-14 -17 -14 -31 1 -14 14 -14 18 -3 31 12 13 16 13 32 -1 16 -14 16 -17 2 -31z
m-86 30 c12 -8 13 -12 1 -26 -12 -14 -15 -14 -28 -1 -8 8 -11 19 -8 25 9 13
16 14 35 2z m405 -16 c15 -23 23 -85 10 -85 -14 0 -45 22 -54 40 -13 24 -3 70
15 70 7 0 20 -11 29 -25z m-444 -22 c28 -21 53 -45 56 -55 8 -27 -22 -62 -153
-184 -65 -60 -155 -144 -200 -187 -45 -44 -87 -77 -93 -75 -7 2 57 69 141 148
220 206 259 247 259 269 0 11 -20 36 -45 57 -36 29 -43 39 -34 50 15 18 12 19
69 -23z m908 17 c-7 -11 -16 -20 -20 -20 -5 0 -8 9 -8 20 0 13 7 20 20 20 18
0 19 -2 8 -20z m47 2 c-6 -4 -19 -24 -30 -45 -15 -28 -21 -34 -24 -20 -2 9 2
19 8 21 6 2 8 9 5 14 -7 11 22 38 40 38 7 0 8 -3 1 -8z m35 -13 c0 -5 -4 -9
-10 -9 -5 0 -10 7 -10 16 0 8 5 12 10 9 6 -3 10 -10 10 -16z m-901 -13 c8 -10
8 -16 -2 -25 -11 -8 -18 -7 -31 7 -16 19 -13 32 9 32 7 0 18 -6 24 -14z m-129
-35 l45 -39 -41 -43 c-22 -24 -69 -71 -104 -104 -36 -33 -112 -104 -169 -159
l-105 -98 -23 28 c-26 33 -29 50 -9 61 8 4 80 69 161 143 128 117 146 138 142
160 -5 24 33 90 51 90 4 0 27 -17 52 -39z m1016 28 c10 -17 -13 -36 -27 -22
-12 12 -4 33 11 33 5 0 12 -5 16 -11z m-856 -44 c0 -23 -2 -24 -21 -15 -16 9
-18 14 -8 26 17 21 29 17 29 -11z m896 14 c10 -17 -13 -36 -27 -22 -12 12 -4
33 11 33 5 0 12 -5 16 -11z m-67 -31 c-8 -14 -14 -17 -21 -10 -15 15 -2 43 16
36 12 -5 13 -10 5 -26z m-849 -13 c9 -11 10 -19 2 -27 -14 -14 -32 -1 -32 23
0 23 13 25 30 4z m890 5 c11 -7 12 -12 3 -21 -16 -16 -44 -4 -37 16 7 17 13
18 34 5z m-65 -30 c0 -7 -6 -15 -12 -17 -8 -3 -13 4 -13 17 0 13 5 20 13 18 6
-3 12 -11 12 -18z m105 -16 c0 -16 -16 -19 -25 -4 -8 13 4 32 16 25 5 -4 9
-13 9 -21z m-961 -20 c-6 -7 -17 -10 -25 -7 -17 6 -18 15 -2 31 17 17 43 -5
27 -24z m894 0 c-3 -8 -9 -14 -13 -14 -14 0 -21 17 -14 34 5 12 10 14 20 6 7
-7 10 -18 7 -26z m-843 16 c0 -5 -5 -10 -11 -10 -5 0 -7 5 -4 10 3 6 8 10 11
10 2 0 4 -4 4 -10z m330 -25 c0 -19 -58 -85 -76 -85 -26 0 -15 47 17 74 34 29
59 34 59 11z m484 -8 c15 -6 16 -10 6 -22 -18 -22 -32 -14 -36 20 -2 17 0 25
4 19 4 -6 15 -14 26 -17z m75 9 c8 -10 8 -16 -2 -24 -17 -15 -39 0 -31 21 8
21 18 22 33 3z m-974 -6 c4 -6 1 -17 -5 -26 -10 -11 -16 -12 -26 -3 -11 9 -11
15 -3 25 14 17 25 18 34 4z m74 1 c12 -8 13 -12 1 -26 -12 -14 -15 -14 -28 -1
-8 8 -11 19 -8 25 9 13 16 14 35 2z m-34 -70 c-13 -14 -17 -14 -32 1 -14 14
-14 20 -3 33 12 14 15 14 32 -2 17 -15 17 -18 3 -32z m948 22 c-6 -2 -8 -15
-5 -28 4 -25 -3 -31 -25 -17 -9 5 -6 16 10 41 13 22 23 29 25 21 3 -8 0 -16
-5 -17z m-1005 -16 c24 -25 29 -36 21 -44 -18 -18 -93 45 -78 64 16 19 21 17
57 -20z m968 22 c3 -6 2 -15 -3 -20 -14 -14 -43 0 -36 17 6 17 29 19 39 3z
m-856 -19 c0 -5 -4 -10 -10 -10 -5 0 -10 5 -10 10 0 6 5 10 10 10 6 0 10 -4
10 -10z m790 0 c0 -5 -4 -10 -10 -10 -5 0 -10 5 -10 10 0 6 5 10 10 10 6 0 10
-4 10 -10z m-802 -180 c95 -91 172 -167 172 -170 0 -4 -30 -7 -67 -8 l-68 -3
-144 145 -144 144 34 31 c19 17 37 29 40 28 4 -1 83 -76 177 -167z m1 156 c9
-10 8 -16 -4 -26 -21 -17 -51 6 -34 26 6 8 15 14 19 14 4 0 13 -6 19 -14z
m841 -11 c0 -19 -20 -29 -32 -17 -15 15 -2 43 17 36 8 -3 15 -12 15 -19z m34
-14 c11 -17 -5 -40 -22 -34 -13 5 -11 0 6 -19 12 -13 19 -28 15 -31 -12 -13
-22 -7 -17 8 4 11 2 13 -9 9 -24 -9 -29 12 -10 45 19 32 28 37 37 22z m-916
-14 c7 -8 7 -18 2 -27 -8 -13 -11 -13 -26 2 -9 9 -13 21 -10 27 9 15 21 14 34
-2z m87 -36 c-13 -14 -17 -14 -32 1 -14 14 -14 20 -3 33 12 14 15 14 32 -2 17
-15 17 -18 3 -32z m770 18 c-11 -17 -35 -9 -35 11 0 18 3 19 20 10 11 -6 18
-15 15 -21z m78 -9 c-3 -12 -8 -19 -11 -16 -5 6 5 36 12 36 2 0 2 -9 -1 -20z
m-770 1 c16 -6 17 -9 4 -19 -11 -10 -18 -8 -32 8 -19 21 -8 26 28 11z m177 -1
c0 -5 -2 -10 -4 -10 -3 0 -8 5 -11 10 -3 6 -1 10 4 10 6 0 11 -4 11 -10z
m-425 -132 c74 -72 135 -135 135 -140 0 -30 -52 9 -168 125 -119 119 -140 147
-110 147 5 0 69 -59 143 -132z m134 85 c-10 -11 -15 -11 -30 3 -15 13 -16 20
-8 31 10 11 15 11 30 -3 15 -13 16 -20 8 -31z m201 38 c0 -19 -22 -23 -38 -7
-15 15 -14 16 11 16 15 0 27 -4 27 -9z m65 -1 c11 -17 -5 -32 -21 -19 -8 6
-14 15 -14 20 0 12 27 11 35 -1z m-185 -15 c10 -12 10 -18 0 -30 -12 -14 -15
-14 -31 1 -14 13 -16 20 -8 31 15 17 24 17 39 -2z m740 -26 c0 -19 -22 -19
-27 0 -3 12 -9 21 -14 21 -5 0 -9 5 -9 10 0 6 11 3 25 -6 14 -9 25 -20 25 -25z
m-662 18 c7 -8 7 -18 2 -27 -8 -13 -11 -13 -26 2 -9 9 -13 21 -10 27 9 15 21
14 34 -2z m79 -2 c12 -13 13 -18 3 -31 -11 -13 -15 -13 -31 2 -14 13 -16 20
-8 31 14 17 17 16 36 -2z m-321 -241 c-10 -10 -387 58 -405 73 -2 1 36 41 85
87 l88 83 117 -121 c64 -66 116 -122 115 -122z m123 212 c6 -7 8 -22 4 -32 -6
-17 -5 -17 10 -6 14 12 19 12 32 -1 14 -15 11 -47 -4 -47 -15 0 -83 79 -77 89
10 15 21 14 35 -3z m86 -35 c-13 -14 -17 -14 -32 1 -14 14 -14 20 -3 33 12 14
15 14 32 -2 17 -15 17 -18 3 -32z m75 24 c10 -12 10 -18 0 -30 -11 -14 -14
-13 -27 5 -23 32 2 55 27 25z m60 -5 c-6 -11 -15 -20 -20 -20 -5 0 -7 -6 -5
-12 8 -21 -12 -45 -26 -31 -8 8 -5 20 16 47 29 39 53 49 35 16z m520 -1 c0 -5
-4 -9 -10 -9 -5 0 -10 7 -10 16 0 8 5 12 10 9 6 -3 10 -10 10 -16z m-610 -34
c10 -12 10 -18 0 -30 -12 -14 -15 -14 -31 1 -14 13 -16 20 -8 31 15 17 24 17
39 -2z m667 -10 c6 -14 7 -25 2 -25 -5 0 -9 5 -9 10 0 6 -6 10 -14 10 -9 0
-12 -7 -9 -19 3 -12 11 -17 19 -14 8 3 14 0 14 -5 0 -19 -15 -21 -38 -4 -20
16 -21 20 -10 45 16 33 30 34 45 2z m-75 -35 c-20 -31 -20 -32 -31 -11 -7 12
-8 21 -4 20 20 -3 34 2 28 11 -9 15 5 34 17 22 6 -6 2 -21 -10 -42z m-632 5
c10 -12 10 -19 2 -27 -15 -15 -48 14 -38 31 10 15 21 14 36 -4z m79 1 c9 -10
8 -16 -4 -26 -19 -16 -41 1 -32 24 8 20 21 20 36 2z m573 -48 c-15 -15 -26 -4
-18 18 5 13 9 15 18 6 9 -9 9 -15 0 -24z m-605 6 c9 -23 -13 -40 -32 -24 -12
10 -13 16 -4 26 15 18 28 18 36 -2z m553 -4 c0 -5 -2 -10 -4 -10 -3 0 -8 5
-11 10 -3 6 -1 10 4 10 6 0 11 -4 11 -10z m79 -16 c-15 -18 -22 -13 -13 10 3
9 10 13 16 10 5 -3 4 -12 -3 -20z m-379 -6 c0 -7 3 -24 7 -38 5 -21 4 -23 -8
-14 -8 6 -27 16 -44 21 l-30 10 30 16 c37 20 45 21 45 5z m338 -6 c2 -7 -3
-12 -12 -12 -9 0 -16 7 -16 16 0 17 22 14 28 -4z m-1131 -78 c43 -44 47 -46
89 -41 27 3 55 13 68 26 24 22 61 28 71 11 4 -6 -11 -28 -32 -49 -30 -30 -51
-41 -96 -51 -86 -17 -141 6 -165 69 -5 14 -11 20 -14 15 -4 -5 0 -24 8 -42 10
-24 26 -39 60 -53 53 -24 83 -74 64 -109 -27 -50 -185 13 -225 90 -42 81 11
178 98 180 21 0 41 -12 74 -46z m784 9 c18 -11 40 -39 54 -70 29 -60 25 -82
-24 -130 -38 -38 -88 -49 -136 -29 l-36 15 16 31 c20 39 16 71 -11 81 -33 12
-69 -11 -72 -46 -7 -71 -45 -96 -120 -76 -47 13 -58 33 -35 67 10 16 16 44 15
74 0 31 4 53 14 61 21 17 201 48 257 44 26 -2 61 -12 78 -22z m-678 2 c42 -7
41 -20 -2 -30 -19 -4 -41 0 -60 10 -39 19 -41 38 -3 31 15 -2 44 -7 65 -11z
m315 -16 c-2 -6 -8 -10 -13 -10 -5 0 -11 4 -13 10 -2 6 4 11 13 11 9 0 15 -5
13 -11z m-52 -17 c12 -9 27 -27 33 -39 25 -49 -40 -141 -111 -158 -26 -7 -28
-5 -28 24 0 35 -20 80 -44 100 -14 12 -14 16 4 41 11 16 20 33 20 39 0 18 102
13 126 -7z m-170 -81 c-8 -12 -46 -21 -46 -11 0 9 18 18 38 19 7 1 11 -3 8 -8z
m22 -23 c-5 -16 -48 -24 -48 -9 0 8 17 16 43 20 5 0 7 -5 5 -11z m-58 -30 c36
-60 24 -85 -44 -94 l-48 -7 7 31 c4 21 1 43 -9 63 -9 18 -16 34 -16 36 0 1 20
3 45 3 40 0 47 -4 65 -32z m80 -2 c0 -7 -11 -16 -25 -18 -29 -6 -36 18 -7 25
29 8 32 7 32 -7z m10 -35 c0 -9 -52 -22 -60 -15 -7 7 23 24 43 24 9 0 17 -4
17 -9z m0 -30 c0 -11 -59 -26 -67 -17 -6 6 33 24 55 25 6 1 12 -3 12 -8z"/>
<path d="M1344 1411 c-23 -14 -38 -36 -53 -76 -23 -61 -29 -175 -10 -175 7 0
9 10 5 25 -9 36 21 156 46 182 43 46 128 54 170 16 18 -16 24 -8 10 13 -25 37
-118 46 -168 15z"/>
<path d="M854 1016 c-39 -17 -64 -52 -64 -88 0 -25 4 -28 34 -28 48 0 88 42
84 89 -4 41 -12 45 -54 27z m42 -26 c-3 -11 -8 -29 -11 -39 -3 -11 -20 -24
-37 -30 -40 -14 -38 -15 -38 14 0 31 41 75 70 75 17 0 20 -5 16 -20z"/>
<path d="M770 793 c0 -16 6 -39 13 -52 13 -25 75 -64 89 -55 4 3 8 27 8 53 0
58 -21 81 -73 81 -34 0 -37 -2 -37 -27z m80 -3 c21 -21 26 -55 10 -80 -7 -12
-12 -11 -32 5 -33 29 -38 37 -38 68 0 33 30 37 60 7z"/>
<path d="M590 710 c0 -5 5 -10 10 -10 6 0 10 5 10 10 0 6 -4 10 -10 10 -5 0
-10 -4 -10 -10z"/>
<path d="M894 281 c-77 -35 -100 -107 -44 -136 34 -17 50 -19 50 -5 0 6 -8 10
-18 10 -49 0 -55 54 -11 96 29 27 35 29 114 29 75 0 86 -2 110 -25 34 -32 45
-60 33 -84 -8 -14 -7 -17 4 -14 25 8 20 54 -9 88 -51 61 -147 78 -229 41z"/>
</g>
</svg>
