<?xml version="1.0" standalone="no"?>
<!DOCTYPE svg PUBLIC "-//W3C//DTD SVG 20010904//EN"
 "http://www.w3.org/TR/2001/REC-SVG-20010904/DTD/svg10.dtd">
<svg version="1.0" xmlns="http://www.w3.org/2000/svg"
 width="266.000000pt" height="300.000000pt" viewBox="0 0 266.000000 300.000000"
 preserveAspectRatio="xMidYMid meet">

<g transform="translate(0.000000,300.000000) scale(0.100000,-0.100000)"
fill="#000000" stroke="none">
<path d="M745 2993 c-246 -36 -430 -191 -508 -427 -18 -56 -21 -93 -24 -441
-5 -412 1 -493 41 -580 26 -58 115 -160 147 -170 28 -9 23 -19 -15 -33 -48
-18 -115 -87 -144 -151 -69 -151 9 -343 164 -401 77 -28 283 -29 375 0 83 25
160 78 211 145 l42 53 21 -47 c29 -61 112 -135 177 -157 73 -24 169 -15 238
22 59 32 114 91 132 141 7 18 15 33 18 33 4 0 21 -19 38 -42 43 -57 89 -93
170 -131 67 -32 67 -32 232 -32 160 0 167 1 216 27 207 109 217 407 16 523
-28 17 -51 33 -52 36 0 4 18 19 40 34 50 34 105 108 134 178 20 50 21 70 24
463 2 339 0 423 -12 485 -43 207 -196 378 -399 446 l-82 28 -585 1 c-322 1
-598 0 -615 -3z m1230 -77 c97 -25 167 -67 242 -142 82 -81 124 -158 148 -270
22 -103 21 -785 0 -869 -29 -109 -97 -189 -202 -238 l-48 -22 -759 -3 c-823
-3 -828 -3 -914 52 -57 36 -119 111 -142 172 -19 52 -20 77 -20 467 0 338 3
423 15 472 47 178 198 331 376 379 76 21 1228 23 1304 2z m-1366 -1624 c52
-26 76 -65 75 -121 -1 -61 -30 -104 -87 -126 -51 -19 -91 -9 -108 29 -19 42
-4 75 46 96 47 20 56 39 30 60 -12 10 -24 9 -60 -4 -115 -44 -113 -205 3 -246
77 -27 180 19 217 97 31 63 31 130 1 186 l-26 47 163 -2 162 -3 3 -45 c8 -108
-34 -232 -104 -310 -76 -84 -175 -120 -335 -120 -162 0 -234 33 -283 132 -65
129 -4 283 132 333 53 19 131 18 171 -3z m581 -117 c0 -147 7 -176 56 -214 59
-46 155 -30 194 34 18 28 20 49 20 174 l0 141 48 0 49 0 7 -119 c4 -74 2 -137
-5 -169 -38 -181 -265 -253 -394 -124 -65 65 -69 80 -73 255 l-4 157 51 0 51
0 0 -135z m760 131 c0 -3 -9 -20 -19 -38 -28 -49 -33 -97 -16 -154 34 -114
170 -179 256 -121 71 47 85 126 34 193 -31 41 -99 64 -122 42 -20 -20 -6 -48
28 -55 64 -12 80 -87 27 -126 -24 -18 -32 -19 -66 -9 -55 17 -93 61 -99 116
-8 63 11 102 64 133 39 22 52 25 106 21 112 -9 192 -71 222 -170 20 -67 19
-86 -5 -152 -24 -64 -76 -115 -143 -141 -37 -14 -69 -16 -174 -13 -114 3 -134
6 -186 30 -72 34 -96 53 -147 114 -53 64 -80 151 -80 255 l0 79 160 0 c88 0
160 -2 160 -4z"/>
<path d="M1040 2733 c-60 -10 -154 -47 -211 -85 -121 -78 -211 -197 -254 -338
-22 -70 -32 -321 -16 -404 33 -177 164 -308 336 -336 83 -14 796 -13 871 1
129 24 237 107 297 228 l32 66 0 195 c0 136 -4 210 -14 245 -44 157 -166 304
-311 373 -47 22 -109 45 -138 51 -50 10 -535 14 -592 4z m583 -68 c201 -42
372 -222 407 -428 7 -39 11 -128 9 -210 -4 -131 -6 -146 -32 -199 -34 -70 -99
-137 -164 -169 l-48 -24 -451 -3 c-437 -3 -453 -2 -507 18 -69 26 -144 92
-179 157 -37 68 -52 172 -44 313 6 120 23 194 61 270 70 138 217 249 370 280
73 14 503 11 578 -5z"/>
<path d="M924 2509 c-34 -17 -57 -66 -51 -106 16 -96 142 -125 190 -44 43 73
-1 162 -80 160 -21 0 -47 -5 -59 -10z m84 -61 c17 -17 15 -44 -4 -62 -20 -21
-30 -20 -54 4 -24 24 -25 34 -4 54 18 19 45 21 62 4z"/>
<path d="M1624 2509 c-26 -13 -54 -60 -54 -92 0 -40 41 -91 82 -101 103 -26
173 100 99 175 -31 31 -84 38 -127 18z m86 -64 c15 -18 6 -61 -16 -69 -18 -7
-49 8 -57 28 -8 19 20 56 42 56 10 0 24 -7 31 -15z"/>
<path d="M1313 2482 c-6 -4 -16 -34 -22 -66 -24 -131 -108 -211 -243 -231 -82
-12 -73 -58 13 -68 61 -7 124 -42 168 -93 37 -42 49 -68 65 -144 9 -45 15 -56
33 -58 18 -3 23 3 28 25 17 85 28 119 54 157 47 68 100 97 224 121 22 4 28 10
25 28 -2 16 -13 23 -43 30 -89 18 -114 29 -159 68 -55 49 -84 101 -93 166 -8
64 -22 83 -50 65z m44 -217 c13 -19 45 -52 73 -74 l50 -40 -44 -31 c-25 -16
-59 -50 -77 -75 -18 -25 -35 -42 -39 -38 -3 5 -19 25 -34 47 -16 21 -48 52
-72 69 l-43 30 45 30 c24 16 58 49 76 73 17 24 34 44 37 44 3 0 16 -16 28 -35z"/>
<path d="M908 1967 c-32 -30 -42 -59 -34 -101 10 -50 49 -81 103 -81 38 0 49
5 74 33 64 71 20 172 -74 172 -32 0 -51 -6 -69 -23z m102 -52 c16 -19 9 -45
-17 -62 -19 -13 -24 -12 -42 6 -25 25 -26 35 -5 55 19 20 48 20 64 1z"/>
<path d="M1621 1976 c-99 -55 -36 -212 76 -191 119 22 107 206 -14 205 -21 -1
-49 -7 -62 -14z m89 -61 c29 -35 -14 -85 -54 -63 -19 11 -22 64 -3 71 23 10
45 7 57 -8z"/>
<path d="M2024 655 c-36 -17 -43 -24 -26 -24 l22 -1 0 -206 c0 -185 -2 -208
-17 -220 -16 -12 -10 -13 45 -14 35 0 62 4 62 10 0 6 -4 10 -10 10 -6 0 -10
83 -10 229 0 127 -4 232 -8 235 -5 3 -30 -6 -58 -19z"/>
<path d="M770 620 c8 -5 23 -10 32 -10 29 0 86 -58 104 -107 26 -67 24 -166
-4 -223 -52 -109 -169 -104 -231 10 -37 66 -41 188 -9 250 14 28 36 52 58 63
l35 19 -32 -6 c-49 -8 -111 -54 -139 -102 -44 -75 -30 -199 29 -262 30 -32 90
-62 125 -62 22 0 37 -9 56 -35 43 -56 120 -95 186 -94 45 1 49 2 25 8 -16 4
-39 13 -51 19 -25 13 -94 88 -94 102 0 5 12 16 28 24 41 21 82 66 103 111 53
115 -15 261 -136 294 -52 14 -106 15 -85 1z"/>
<path d="M1062 608 c-27 -27 -6 -68 35 -68 26 0 31 -26 12 -62 -6 -11 -8 -22
-5 -25 3 -4 15 15 26 40 21 46 20 86 -3 115 -12 15 -49 16 -65 0z"/>
<path d="M1847 593 c-15 -14 -7 -62 12 -68 40 -12 70 20 51 56 -10 18 -50 26
-63 12z"/>
<path d="M1233 436 c-65 -31 -87 -86 -33 -86 21 0 30 11 45 55 8 23 16 30 35
30 24 0 25 -3 25 -59 l0 -59 -54 -18 c-65 -23 -81 -35 -81 -63 0 -46 53 -61
111 -30 28 14 32 14 44 -2 11 -16 17 -17 56 -5 39 12 41 14 22 22 -19 7 -21
16 -25 103 -3 105 -12 122 -63 131 -20 4 -47 -2 -82 -19z m77 -165 c0 -43 -18
-58 -51 -41 -28 16 -23 38 14 60 17 11 33 20 35 20 1 0 2 -18 2 -39z"/>
<path d="M1488 443 c-21 -8 -38 -19 -38 -25 0 -5 5 -6 10 -3 28 18 42 -147 16
-196 l-14 -27 61 -1 c57 -1 59 0 43 17 -12 14 -16 39 -16 104 l0 86 31 11 c42
15 46 14 69 -9 27 -27 29 -163 3 -192 -15 -17 -14 -18 46 -18 l62 0 -15 22
c-12 16 -16 47 -16 114 0 88 -1 94 -26 113 -34 27 -70 27 -113 0 -27 -16 -36
-18 -42 -7 -5 7 -9 16 -9 21 0 10 -9 8 -52 -10z"/>
<path d="M1845 431 c-22 -11 -33 -20 -24 -20 24 -1 29 -22 29 -109 0 -56 -4
-80 -17 -94 -15 -17 -13 -18 47 -18 60 0 62 1 47 18 -14 15 -17 40 -17 130 0
124 0 124 -65 93z"/>
</g>
</svg>
