<?xml version="1.0" standalone="no"?>
<!DOCTYPE svg PUBLIC "-//W3C//DTD SVG 20010904//EN"
 "http://www.w3.org/TR/2001/REC-SVG-20010904/DTD/svg10.dtd">
<svg version="1.0" xmlns="http://www.w3.org/2000/svg"
 width="217.000000pt" height="179.000000pt" viewBox="0 0 217.000000 179.000000"
 preserveAspectRatio="xMidYMid meet">
<metadata>
Created by potrace 1.10, written by Peter Selinger 2001-2011
</metadata>
<g transform="translate(0.000000,179.000000) scale(0.100000,-0.100000)"
fill="#000000" stroke="none">
<path d="M1315 1760 c-45 -12 -101 -38 -119 -55 -13 -14 -19 -14 -43 -2 -67
34 -173 27 -264 -16 l-51 -25 -37 25 c-31 21 -43 24 -86 19 -66 -8 -89 -8
-161 0 -50 5 -67 3 -102 -15 -22 -11 -43 -25 -46 -30 -3 -5 -23 0 -43 10 -43
22 -67 23 -114 8 -86 -29 -142 -106 -143 -195 0 -50 24 -122 51 -155 12 -15
10 -21 -17 -50 -17 -19 -36 -50 -42 -70 -14 -48 -2 -141 23 -172 16 -21 17
-26 4 -37 -56 -47 -96 -364 -75 -603 17 -202 51 -267 161 -307 77 -28 176 -39
319 -35 136 4 212 27 258 79 l28 33 39 -34 c21 -18 63 -43 94 -55 54 -22 68
-22 376 -23 317 0 321 1 423 28 133 35 188 64 246 128 68 76 103 158 121 281
40 280 -5 627 -100 770 l-25 38 39 51 c39 52 61 112 61 166 0 44 -44 128 -82
156 -80 61 -213 75 -334 35 -43 -14 -71 -18 -79 -12 -47 35 -70 48 -103 60
-40 14 -129 17 -177 4z m188 -65 c95 -39 135 -194 53 -203 -28 -3 -28 -3 -12
19 36 52 12 118 -51 144 -108 45 -253 -15 -253 -105 0 -21 5 -42 10 -45 21
-13 10 -27 -17 -20 -36 9 -52 33 -53 78 0 64 37 110 109 134 52 17 172 16 214
-2z m399 -31 c61 -23 115 -84 124 -139 5 -35 1 -54 -19 -97 -14 -29 -33 -61
-41 -72 -16 -19 -10 -22 -96 42 -3 2 5 11 16 20 50 40 58 104 19 151 -36 42
-101 64 -196 65 -116 1 -107 10 46 40 47 9 107 5 147 -10z m-780 -13 c46 -17
25 -37 -46 -44 -86 -8 -140 -32 -181 -80 -41 -48 -46 -91 -14 -132 18 -22 20
-29 8 -36 -41 -26 -74 26 -74 117 0 69 15 98 70 140 65 49 165 64 237 35z
m-522 -8 c0 -4 -9 -26 -21 -49 -28 -58 -35 -138 -16 -191 l14 -41 -56 -4 c-31
-2 -57 -3 -59 -2 -2 1 1 11 7 22 25 46 8 174 -27 215 -17 19 -18 19 23 40 29
16 135 24 135 10z m179 -5 c17 -11 18 -14 4 -34 -13 -20 -18 -21 -39 -12 -20
10 -29 8 -52 -8 -57 -42 -75 -119 -48 -196 13 -35 12 -38 -5 -38 -27 0 -49 51
-49 112 0 121 45 188 124 188 26 0 55 -5 65 -12z m733 -37 c34 -38 35 -50 7
-85 -20 -25 -26 -27 -87 -24 -57 3 -67 6 -85 30 -18 24 -18 30 -7 58 19 46 47
62 100 57 34 -4 51 -12 72 -36z m-1137 7 c58 -45 87 -190 48 -236 -16 -17 -73
-40 -73 -28 0 2 11 24 25 47 57 101 3 210 -90 179 -58 -19 -86 -116 -39 -134
23 -9 30 0 15 18 -19 22 -4 56 24 56 26 0 75 -51 75 -79 0 -10 -10 -33 -23
-52 -17 -25 -33 -35 -66 -42 -23 -5 -49 -6 -57 -3 -8 3 -26 31 -40 61 -29 62
-27 108 6 163 40 65 142 92 195 50z m465 17 c0 -2 -11 -21 -25 -41 -29 -43
-32 -39 -8 11 14 29 33 47 33 30z m474 -35 c-14 -27 -14 -33 0 -62 20 -39 20
-38 -4 -38 -49 0 -61 84 -17 115 32 22 37 18 21 -15z m533 -9 c22 -11 43 -27
47 -36 26 -69 -36 -142 -97 -114 -21 9 -24 15 -15 29 28 44 -28 100 -101 100
-27 0 -31 4 -31 26 l0 27 78 -6 c51 -3 93 -12 119 -26z m-717 -10 c0 -5 -14
-12 -30 -16 -42 -9 -85 -48 -103 -93 -19 -47 -39 -65 -69 -60 -33 4 -49 42
-34 80 12 35 69 77 118 88 47 11 118 12 118 1z m-370 -20 c0 -14 -8 -21 -27
-23 -21 -2 -33 -13 -50 -46 -26 -53 -38 -40 -18 19 17 49 38 69 72 69 16 0 23
-6 23 -19z m-425 -7 c15 -6 45 -53 45 -71 0 -4 -13 7 -29 25 -19 20 -39 32
-56 32 -15 0 -24 4 -20 10 7 11 35 13 60 4z m814 -41 c12 -27 3 -42 -26 -43
-6 0 -33 -9 -59 -20 -26 -11 -49 -19 -51 -16 -10 10 30 68 60 86 43 27 61 25
76 -7z m592 11 c34 -17 36 -46 4 -53 -10 -2 -43 2 -72 9 l-53 11 16 25 c19 28
60 32 105 8z m-991 -48 c0 -30 10 -63 30 -102 36 -68 26 -84 -28 -48 -19 13
-41 24 -48 24 -33 0 -29 79 8 138 27 44 38 40 38 -12z m450 0 c0 -3 -4 -8 -10
-11 -5 -3 -10 -1 -10 4 0 6 5 11 10 11 6 0 10 -2 10 -4z m427 -41 c84 -16 206
-65 261 -104 115 -84 186 -323 185 -626 -1 -293 -47 -411 -198 -506 -61 -39
-81 -43 -52 -11 63 70 117 352 117 614 0 283 -62 414 -230 486 -136 58 -400
56 -569 -4 -124 -45 -214 -156 -256 -319 -10 -38 -20 -140 -26 -274 -10 -226
-16 -255 -60 -280 -37 -21 -75 -7 -104 37 -69 105 -50 529 31 686 47 93 156
182 299 247 160 72 390 93 602 54z m-767 -110 c0 -1 -7 -8 -15 -15 -13 -10
-15 -9 -15 8 0 15 5 20 15 16 8 -4 15 -7 15 -9z m-220 -5 c69 -11 120 -28 120
-39 0 -4 -11 -17 -23 -29 -23 -22 -25 -22 -62 -6 -62 26 -238 19 -351 -12 -86
-24 -124 -78 -95 -133 8 -14 3 -20 -25 -33 l-36 -16 -15 36 c-22 52 -20 117 4
150 26 37 97 69 174 80 89 13 232 14 309 2z m1033 -60 c163 -61 218 -173 234
-477 l6 -123 -36 0 c-56 0 -137 -20 -190 -47 -101 -50 -199 -187 -212 -296 -6
-49 4 -137 20 -179 7 -17 -5 -18 -171 -18 -99 0 -213 5 -254 10 -131 17 -210
70 -265 180 -30 59 -30 60 -7 60 27 1 50 23 68 66 12 28 19 90 25 224 4 102
11 214 14 250 10 107 88 246 164 294 122 77 463 109 604 56z m-873 16 c0 -2
-8 -10 -17 -17 -16 -13 -17 -12 -4 4 13 16 21 21 21 13z m-121 -55 c21 -12 21
-12 -7 -61 -22 -41 -31 -48 -47 -43 -38 13 -278 6 -322 -10 -44 -15 -63 -8
-63 23 0 45 67 82 184 101 66 10 228 4 255 -10z m-8 -138 c-8 -15 -10 -15 -11
-2 0 17 10 32 18 25 2 -3 -1 -13 -7 -23z m-42 -20 c-1 -10 -4 -30 -8 -46 -6
-27 -7 -27 -101 -31 -148 -6 -221 -38 -258 -111 -19 -40 -35 -199 -29 -301 9
-143 23 -199 60 -241 42 -47 82 -63 181 -70 99 -7 178 8 223 43 31 23 34 24
40 7 3 -10 15 -30 25 -45 39 -56 -11 -108 -129 -134 -60 -13 -102 -15 -192
-10 -321 18 -349 59 -337 493 9 320 24 363 145 417 81 36 125 44 264 45 106 1
117 -1 116 -16z m8 -105 c-3 -8 -6 -5 -6 6 -1 11 2 17 5 13 3 -3 4 -12 1 -19z
m-32 -230 c0 -219 2 -236 22 -281 14 -28 35 -55 53 -65 37 -21 37 -26 3 -50
-43 -31 -94 -40 -190 -36 -137 6 -174 25 -209 109 -21 51 -31 281 -16 377 14
86 29 117 70 141 47 28 84 35 182 36 l85 1 0 -232z m1292 -124 c2 -7 -19 -16
-56 -22 -108 -19 -194 -79 -238 -165 -39 -78 -43 -195 -8 -279 5 -14 2 -18
-14 -18 -16 0 -27 11 -40 43 -30 69 -33 111 -16 179 29 110 92 190 186 239 67
34 178 48 186 23z m-12 -106 c-14 -131 -60 -267 -109 -319 -26 -28 -79 -49
-123 -49 -30 0 -48 56 -47 152 1 68 4 82 35 134 24 40 49 66 83 87 40 25 117
52 159 56 5 1 6 -27 2 -61z m-1125 -149 c0 -11 -4 -17 -10 -14 -5 3 -10 13
-10 21 0 8 5 14 10 14 6 0 10 -9 10 -21z m73 -135 c17 -21 17 -21 -8 -17 -14
3 -25 7 -25 8 0 6 13 36 14 33 1 -2 9 -13 19 -24z m967 -74 c-20 -13 -33 -13
-25 0 3 6 14 10 23 10 15 0 15 -2 2 -10z m-260 -41 c0 -5 -7 -9 -15 -9 -15 0
-20 12 -9 23 8 8 24 -1 24 -14z"/>
<path d="M1240 1033 c-25 -7 -98 -18 -163 -23 -125 -9 -160 -22 -134 -47 8 -8
42 -17 76 -20 l62 -6 -2 -54 c-2 -40 2 -58 15 -71 16 -16 18 -16 29 3 7 11 14
40 17 65 5 43 8 46 63 76 106 56 130 106 37 77z m30 -14 c0 -5 -29 -23 -65
-40 -72 -32 -85 -49 -85 -108 0 -22 -4 -43 -10 -46 -13 -8 -24 39 -17 79 7 45
-7 56 -74 56 -59 0 -89 16 -47 24 13 3 66 7 118 9 76 4 134 16 178 36 1 0 2
-4 2 -10z"/>
<path d="M1766 791 c-25 -28 -17 -72 17 -91 24 -13 30 -13 53 0 39 22 47 53
23 84 -25 31 -68 34 -93 7z m69 -17 c18 -18 16 -33 -7 -47 -35 -22 -66 21 -36
51 16 16 23 15 43 -4z"/>
<path d="M1547 722 c-25 -27 -22 -78 5 -96 30 -21 50 -20 82 5 50 39 24 109
-41 109 -16 0 -37 -8 -46 -18z m83 -21 c15 -28 -21 -71 -47 -55 -23 14 -28 41
-13 59 17 21 47 19 60 -4z"/>
<path d="M1401 609 c-43 -46 -13 -103 50 -97 26 2 37 10 48 32 12 25 11 31 -6
55 -26 34 -65 39 -92 10z m76 -25 c8 -22 -10 -49 -32 -49 -10 0 -22 7 -28 16
-15 24 -1 49 28 49 15 0 28 -7 32 -16z"/>
<path d="M1323 429 c-31 -11 -48 -46 -35 -74 21 -46 97 -45 108 1 13 52 -26
91 -73 73z m51 -41 c8 -14 7 -21 -6 -34 -30 -30 -75 9 -48 42 16 18 39 15 54
-8z"/>
<path d="M1340 231 c-33 -33 -31 -63 6 -87 28 -19 59 -11 80 22 21 31 12 67
-21 82 -34 16 -32 16 -65 -17z m70 -41 c0 -19 -32 -36 -50 -25 -14 8 -13 38 2
53 15 15 48 -3 48 -28z"/>
<path d="M447 713 c-20 -23 -31 -101 -19 -133 15 -38 54 -56 90 -41 82 34 64
191 -22 191 -19 0 -40 -8 -49 -17z m93 -22 c17 -33 12 -99 -10 -121 -26 -26
-45 -25 -71 1 -18 18 -20 29 -15 67 3 25 11 51 17 58 17 21 67 17 79 -5z"/>
<path d="M472 668 c-32 -32 1 -104 36 -81 20 12 26 36 18 69 -7 26 -34 32 -54
12z m38 -39 c0 -19 -5 -29 -15 -29 -15 0 -22 50 -9 63 12 12 24 -4 24 -34z"/>
</g>
</svg>
