<?xml version="1.0" standalone="no"?>
<!DOCTYPE svg PUBLIC "-//W3C//DTD SVG 20010904//EN"
 "http://www.w3.org/TR/2001/REC-SVG-20010904/DTD/svg10.dtd">
<svg version="1.0" xmlns="http://www.w3.org/2000/svg"
 width="163.000000pt" height="158.000000pt" viewBox="0 0 163.000000 158.000000"
 preserveAspectRatio="xMidYMid meet">
<metadata>
Created by potrace 1.10, written by Peter Selinger 2001-2011
</metadata>
<g transform="translate(0.000000,158.000000) scale(0.100000,-0.100000)"
fill="#000000" stroke="none">
<path d="M1160 1549 c-31 -6 -113 -8 -186 -5 -117 4 -136 3 -170 -14 -21 -11
-59 -20 -84 -20 -98 0 -208 -48 -236 -103 -9 -17 -19 -57 -22 -90 -5 -54 -6
-58 -19 -41 -90 124 -225 186 -341 155 -51 -14 -62 -34 -34 -64 28 -31 46 -71
67 -150 24 -94 17 -253 -19 -407 -18 -73 -26 -135 -24 -170 2 -40 -2 -62 -15
-80 -22 -31 -22 -52 2 -81 13 -17 28 -23 55 -22 42 1 43 -1 16 -45 -23 -37
-26 -105 -6 -141 12 -22 11 -26 -20 -54 -37 -32 -44 -69 -20 -102 11 -15 22
-17 72 -12 54 6 65 3 132 -30 l72 -35 123 4 c116 4 161 14 179 42 5 7 23 5 56
-7 54 -20 103 -16 155 10 20 10 44 12 82 8 29 -4 59 -4 66 1 7 4 56 9 108 10
115 3 237 26 298 55 57 28 99 85 114 157 16 78 6 421 -15 525 -14 68 -14 82
-2 106 36 68 49 267 26 376 -22 106 -74 177 -154 210 -48 20 -183 27 -256 14z
m255 -49 c84 -41 121 -119 128 -275 8 -161 -21 -283 -74 -310 -46 -25 -72 -19
-112 25 -42 47 -67 50 -119 15 -43 -29 -93 -32 -120 -8 -22 20 -23 57 -4 184
21 140 1 212 -74 264 -45 31 -75 42 -154 56 -69 12 -96 29 -74 46 26 20 71 24
171 13 85 -10 113 -9 167 4 90 20 206 14 265 -14z m-619 -42 c11 -10 45 -23
75 -28 114 -20 172 -49 211 -107 20 -31 24 -63 8 -63 -5 0 -10 4 -10 9 0 5
-33 26 -72 47 -67 34 -80 38 -153 38 -66 0 -90 -4 -136 -25 -117 -55 -181
-157 -185 -294 -2 -79 -2 -80 -31 -86 -15 -3 -38 -11 -49 -17 -30 -16 -74 -70
-74 -90 1 -12 11 -5 32 21 72 88 189 99 217 21 10 -27 24 -41 54 -55 75 -34
129 -21 210 49 61 53 93 58 193 32 87 -22 111 -19 162 20 37 30 61 25 103 -21
38 -41 39 -42 94 -36 52 5 55 4 55 -16 0 -12 3 -32 6 -44 6 -21 3 -23 -27 -23
-46 0 -124 -25 -160 -51 -72 -51 -99 -194 -63 -346 23 -99 55 -135 143 -159
33 -10 61 -21 61 -25 0 -12 -104 -48 -168 -58 -60 -9 -78 -6 -49 10 17 10 53
69 42 69 -4 0 -18 -14 -33 -31 -30 -37 -78 -59 -124 -59 l-32 0 24 17 c27 18
47 43 68 82 15 29 5 44 -12 17 -23 -39 -70 -87 -98 -102 -27 -14 -32 -14 -51
3 -12 10 -24 19 -26 21 -3 1 9 17 27 35 26 27 62 92 62 112 0 17 -19 1 -24
-21 -9 -36 -90 -114 -119 -114 -13 0 -45 -6 -70 -14 -26 -8 -47 -10 -47 -6 0
5 9 11 19 15 34 10 121 115 96 115 -3 0 -21 -18 -41 -40 -20 -22 -52 -49 -71
-61 -35 -22 -36 -22 -49 -4 -20 27 -17 40 11 55 24 13 62 60 49 60 -3 0 -19
-11 -36 -25 -37 -31 -48 -31 -48 -1 0 17 9 27 31 36 36 16 79 68 79 99 0 62
-47 88 -177 97 -70 5 -100 13 -146 37 -58 29 -60 30 -165 23 -103 -7 -105 -6
-89 12 15 16 23 42 13 42 -2 0 -20 -16 -40 -35 -44 -41 -94 -47 -126 -15 -28
28 -26 82 11 257 28 132 31 161 27 273 -4 115 -7 131 -37 198 -18 41 -30 80
-27 88 7 19 68 18 134 -1 57 -17 154 -99 193 -161 22 -36 22 -50 3 -139 -6
-27 -5 -28 9 -15 26 26 47 111 47 188 0 122 53 184 174 202 72 11 98 8 122
-12z m194 -150 c30 -15 68 -38 84 -51 l29 -23 -19 -126 c-17 -121 -17 -127 0
-153 l18 -28 -23 8 c-13 5 -57 9 -97 9 -66 1 -74 3 -95 28 -55 65 -147 77
-215 28 -23 -17 -42 -37 -42 -45 0 -15 -20 -14 -69 1 -24 8 -10 151 23 218 33
67 103 131 165 151 72 23 175 15 241 -17z m-167 -307 c14 -6 37 -25 51 -44
l27 -35 -34 -37 c-51 -55 -117 -65 -190 -28 -58 29 -52 103 11 137 31 17 99
20 135 7z m692 -240 c6 -11 -10 -16 -71 -26 -105 -16 -138 -69 -137 -220 1
-165 28 -208 143 -229 55 -10 60 -13 48 -28 -11 -14 -21 -15 -60 -8 -83 16
-113 34 -136 81 -39 81 -50 262 -19 324 15 31 49 65 82 83 54 28 138 41 150
23z m5 -60 c0 -14 -10 -20 -41 -24 -42 -5 -89 -40 -89 -64 0 -8 11 -25 25 -38
18 -19 35 -25 70 -25 35 0 45 -4 45 -16 0 -14 -10 -16 -65 -12 -80 5 -118 29
-123 78 -6 62 27 98 103 111 67 11 75 10 75 -10z m10 -86 l0 -45 -43 0 c-54 0
-85 27 -68 58 13 25 26 30 74 31 l37 1 0 -45z m-1306 -77 c17 6 81 14 141 18
110 7 112 6 170 -24 49 -24 77 -31 154 -36 129 -9 175 -37 156 -96 -6 -19 -60
-70 -75 -70 -15 0 -18 39 -4 57 19 25 17 51 -3 62 -22 11 -82 19 -184 25 -57
4 -88 12 -125 31 -42 23 -57 26 -104 21 -30 -3 -84 -15 -118 -26 -79 -25 -94
-25 -123 -1 -20 16 -22 22 -12 44 l12 25 41 -21 c35 -17 47 -18 74 -9z m1157
-24 c13 -8 10 -14 -18 -37 l-33 -29 0 53 c0 49 1 51 18 37 9 -8 24 -19 33 -24z
m-928 -24 c14 -11 32 -20 39 -20 29 0 24 -11 -23 -58 -36 -36 -50 -58 -55 -89
-9 -56 -49 -74 -156 -70 -76 2 -78 3 -88 31 -15 44 -12 76 13 125 37 73 85 98
193 100 37 1 58 -4 77 -19z m1077 -15 c0 -9 -14 -17 -37 -21 -53 -9 -83 -30
-83 -58 0 -31 23 -49 71 -55 52 -8 55 -25 4 -29 -98 -8 -158 43 -135 114 15
44 51 63 123 64 43 0 57 -3 57 -15z m-953 -92 c-12 -112 -34 -155 -91 -183
-34 -16 -57 -21 -84 -16 -103 16 -159 18 -167 6 -6 -9 0 -10 22 -6 17 4 60 0
95 -8 76 -18 120 -10 168 31 44 37 59 72 71 165 6 46 12 84 14 86 2 3 19 2 37
-2 l33 -6 -3 -170 c-3 -201 2 -192 -130 -210 -100 -13 -124 -10 -226 37 -74
34 -82 36 -128 26 -39 -8 -51 -7 -60 5 -18 21 9 63 56 86 36 17 45 18 122 6
101 -16 151 -5 200 44 24 24 34 44 39 82 11 86 16 104 29 104 9 0 10 -18 3
-77z m158 -30 c8 -119 19 -164 44 -188 20 -18 22 -18 143 1 36 5 54 3 73 -10
41 -27 31 -39 -25 -32 -39 5 -60 2 -96 -14 -26 -11 -57 -20 -71 -20 -36 0 -90
26 -102 48 -7 12 -11 81 -11 166 0 137 1 146 19 146 17 0 20 -11 26 -97z
m-205 47 c0 -35 -4 -42 -46 -70 -25 -18 -48 -29 -51 -26 -13 13 12 64 49 98
23 21 43 38 45 38 1 0 3 -18 3 -40z m1000 0 c0 -47 -15 -57 -63 -43 -62 17
-34 83 35 83 26 0 28 -3 28 -40z m-765 21 c3 -5 1 -12 -5 -16 -5 -3 -10 1 -10
9 0 18 6 21 15 7z m-255 -112 c-15 -34 -67 -67 -117 -75 -24 -4 -43 -4 -43 -1
0 4 24 18 53 33 30 14 67 36 83 49 34 27 39 26 24 -6z"/>
<path d="M1020 1468 c0 -14 55 -23 130 -19 204 9 217 8 245 -19 40 -37 63 -90
76 -171 11 -71 5 -181 -12 -226 -14 -38 -54 -40 -94 -4 -49 42 -77 48 -120 22
-20 -12 -45 -21 -56 -21 -18 0 -20 4 -14 31 5 20 3 29 -3 25 -19 -11 -20 -46
-2 -69 l18 -22 29 21 c57 42 112 37 155 -15 23 -28 51 -26 85 3 27 24 28 27
32 144 4 142 -12 212 -62 268 -55 63 -112 76 -229 52 -41 -8 -75 -9 -118 -2
-33 6 -60 7 -60 2z"/>
<path d="M1183 1373 c-15 -6 -17 -39 -3 -48 6 -3 10 -24 10 -46 0 -24 4 -38
10 -34 14 8 13 48 -2 80 -15 34 0 45 62 45 94 0 142 -61 148 -192 5 -92 22
-105 22 -17 0 86 -18 145 -55 185 -31 33 -35 34 -106 33 -41 0 -80 -3 -86 -6z"/>
<path d="M179 1314 c81 -102 89 -306 21 -504 -35 -102 -37 -139 -11 -171 24
-30 39 -19 17 13 -23 32 -20 63 15 169 41 122 51 291 25 385 -18 62 -59 134
-77 134 -6 0 -1 -12 10 -26z"/>
<path d="M386 1180 c13 -45 16 -150 5 -181 -8 -23 -8 -30 2 -26 32 10 33 174
1 213 -15 18 -15 18 -8 -6z"/>
<path d="M889 838 c-24 -18 -60 -38 -79 -44 l-35 -12 30 -1 c20 -1 47 11 79
34 57 40 76 43 83 15 3 -11 12 -20 19 -20 26 0 12 30 -23 49 -28 14 -23 16
-74 -21z"/>
<path d="M1080 385 c0 -8 5 -15 10 -15 6 0 10 7 10 15 0 8 -4 15 -10 15 -5 0
-10 -7 -10 -15z"/>
<path d="M960 360 c0 -19 3 -21 12 -12 9 9 9 15 0 24 -9 9 -12 7 -12 -12z"/>
<path d="M1190 320 c0 -19 3 -21 12 -12 9 9 9 15 0 24 -9 9 -12 7 -12 -12z"/>
<path d="M732 944 c-29 -20 -28 -42 3 -56 19 -9 29 -8 50 6 27 18 32 35 13 54
-16 16 -39 15 -66 -4z m46 -27 c2 -11 -3 -17 -16 -17 -26 0 -34 11 -20 27 14
17 32 12 36 -10z"/>
<path d="M305 453 c-25 -38 -32 -63 -17 -63 4 0 14 16 21 36 7 19 19 38 27 41
16 6 19 23 4 23 -5 0 -21 -17 -35 -37z"/>
<path d="M260 311 c0 -16 7 -35 16 -42 15 -12 16 -11 9 11 -5 14 -8 33 -7 43
0 9 -3 17 -9 17 -5 0 -9 -13 -9 -29z"/>
</g>
</svg>
