<?xml version="1.0" standalone="no"?>
<!DOCTYPE svg PUBLIC "-//W3C//DTD SVG 20010904//EN"
 "http://www.w3.org/TR/2001/REC-SVG-20010904/DTD/svg10.dtd">
<svg version="1.0" xmlns="http://www.w3.org/2000/svg"
 width="266.000000pt" height="300.000000pt" viewBox="0 0 266.000000 300.000000"
 preserveAspectRatio="xMidYMid meet">

<g transform="translate(0.000000,300.000000) scale(0.100000,-0.100000)"
fill="#000000" stroke="none">
<path d="M681 2984 c-209 -46 -375 -204 -447 -424 -15 -48 -18 -104 -22 -437
-2 -250 0 -408 7 -455 18 -116 76 -215 163 -278 l38 -28 -54 -31 c-134 -75
-189 -249 -122 -385 36 -74 112 -141 183 -162 82 -24 298 -16 374 14 82 32
147 79 193 138 l40 52 17 -38 c25 -55 85 -118 143 -148 68 -36 186 -38 257 -5
60 27 125 92 151 150 l19 44 28 -38 c65 -90 161 -151 270 -174 30 -6 108 -9
175 -7 141 4 189 21 256 88 53 53 81 116 87 194 10 127 -72 253 -195 302 -1 1
31 34 71 75 55 56 80 89 98 134 24 59 24 64 27 475 3 354 1 425 -13 488 -47
211 -200 377 -415 448 -51 17 -104 18 -660 20 -495 2 -617 0 -669 -12z m1309
-68 c88 -29 162 -73 223 -133 65 -62 99 -116 136 -212 l25 -66 4 -402 c3 -341
1 -411 -12 -463 -29 -114 -109 -204 -216 -244 -41 -15 -115 -16 -840 -14
l-795 3 -53 30 c-70 38 -136 112 -161 181 -20 52 -21 76 -21 467 0 451 2 473
59 585 73 145 229 257 390 282 31 4 315 7 631 6 525 -2 580 -3 630 -20z
m-1380 -1621 c15 -8 38 -26 49 -41 66 -84 4 -214 -103 -214 -92 0 -104 106
-15 135 43 15 53 51 16 60 -36 9 -94 -19 -117 -57 -43 -70 -14 -162 60 -192
22 -9 46 -16 53 -16 34 0 92 25 124 53 73 64 92 157 49 241 l-24 46 162 -2
161 -3 1 -50 c4 -184 -73 -317 -224 -388 -65 -31 -70 -32 -207 -32 -156 0
-188 10 -252 77 -114 119 -70 314 87 382 45 20 143 20 180 1z m580 -115 c0
-91 4 -141 14 -165 20 -47 69 -75 130 -75 43 0 53 4 87 39 l39 39 0 146 0 146
49 0 48 0 6 -122 c7 -132 2 -169 -31 -235 -55 -107 -200 -150 -313 -92 -47 24
-106 93 -119 138 -5 20 -10 98 -10 174 l0 137 50 0 50 0 0 -130z m742 93 c-45
-89 -34 -170 32 -238 68 -71 161 -83 226 -29 61 52 61 146 0 198 -38 32 -87
43 -106 24 -18 -18 -8 -48 16 -48 32 0 70 -39 70 -72 0 -93 -137 -91 -185 2
-33 64 -7 153 54 185 35 18 118 20 172 3 49 -14 114 -69 138 -117 68 -134 -1
-295 -145 -337 -81 -23 -256 -16 -336 15 -80 31 -159 105 -200 188 -28 58 -33
79 -36 165 l-4 98 161 0 161 0 -18 -37z"/>
<path d="M910 2723 c-53 -9 -149 -45 -191 -72 -56 -35 -132 -113 -163 -166
-13 -22 -34 -69 -46 -104 -20 -60 -21 -81 -18 -295 l3 -231 32 -61 c52 -100
154 -178 265 -204 69 -16 1010 -13 1079 4 115 27 210 105 263 216 l31 65 0
225 c0 244 -5 273 -63 378 -37 66 -126 152 -199 190 -108 57 -154 62 -583 60
-212 0 -396 -3 -410 -5z m815 -63 c85 -12 196 -64 244 -114 l35 -36 -63 0
c-58 0 -66 -3 -97 -34 -19 -19 -34 -43 -34 -54 0 -45 -9 -52 -72 -52 -105 0
-138 -35 -138 -145 l0 -65 -275 0 -275 0 0 71 c0 39 -5 79 -10 90 -16 30 -64
49 -123 49 -60 0 -77 12 -77 51 0 16 -11 40 -24 55 -20 24 -32 28 -90 32 -36
2 -66 7 -66 10 0 3 17 20 38 39 53 48 152 93 225 102 90 12 719 12 802 1z
m-964 -220 c12 -7 19 -21 19 -41 0 -20 10 -40 29 -60 26 -25 37 -29 86 -29 97
0 95 4 95 -183 0 -114 -4 -167 -12 -175 -7 -7 -36 -12 -65 -12 -28 0 -64 -5
-78 -12 -29 -13 -55 -55 -55 -87 0 -31 -33 -42 -112 -39 -70 3 -72 4 -92 38
-19 32 -21 55 -24 246 -3 194 -2 216 18 275 12 35 26 70 32 77 13 15 131 16
159 2z m1307 -41 c34 -68 45 -163 40 -344 -3 -136 -7 -167 -25 -207 l-22 -48
-73 0 c-83 0 -118 16 -118 55 0 13 -11 36 -24 51 -20 24 -32 28 -92 32 -38 2
-75 9 -81 14 -16 13 -18 314 -3 338 6 10 32 16 79 18 59 4 75 8 96 29 15 15
25 37 25 54 0 48 23 60 104 57 l71 -3 23 -46z m-468 -387 c5 -76 7 -86 33
-108 22 -19 39 -24 83 -24 70 0 90 -11 98 -54 4 -21 19 -45 37 -60 25 -22 41
-26 90 -26 32 0 59 -3 59 -7 0 -11 -57 -48 -105 -70 -37 -17 -81 -18 -565 -18
l-525 0 -62 29 c-34 15 -69 36 -78 46 -15 17 -12 18 56 22 63 3 74 7 95 31 13
16 24 39 24 52 0 40 25 55 90 55 48 0 64 4 89 26 30 25 31 29 31 103 0 43 3
81 7 84 4 4 126 6 272 5 l266 -3 5 -83z"/>
<path d="M668 565 c-1 -36 -1 -65 2 -65 3 0 14 17 25 37 24 45 85 74 110 53
13 -11 15 -41 13 -194 l-3 -180 -25 -13 c-22 -11 -14 -13 65 -12 70 0 85 3 68
11 -12 6 -24 20 -27 32 -10 37 -6 313 4 342 9 23 14 26 42 20 39 -8 66 -31 84
-71 13 -29 13 -29 14 -5 0 14 3 41 6 60 l6 35 -177 -3 c-119 -2 -181 0 -190 8
-11 9 -14 -1 -17 -55z"/>
<path d="M1134 576 c-12 -49 43 -76 70 -33 15 24 -3 51 -37 55 -21 3 -28 -2
-33 -22z"/>
<path d="M1310 581 c-12 -24 -4 -48 20 -56 38 -12 68 23 48 59 -12 22 -55 20
-68 -3z"/>
<path d="M1558 450 c-43 -13 -88 -43 -94 -63 -8 -26 9 -41 38 -34 18 5 27 17
34 44 7 31 13 38 34 38 22 0 26 -5 31 -48 6 -58 -2 -71 -56 -87 -22 -7 -50
-19 -62 -26 -25 -16 -30 -53 -11 -72 17 -17 74 -15 104 4 23 15 26 15 44 -1
16 -15 24 -15 55 -5 36 12 36 12 16 27 -18 12 -21 24 -21 97 0 65 -4 88 -17
104 -21 25 -58 34 -95 22z m43 -160 c1 -5 2 -17 2 -25 0 -28 -3 -33 -18 -39
-39 -15 -65 24 -35 54 21 21 49 27 51 10z"/>
<path d="M1740 450 c-10 -6 -11 -10 -3 -10 17 0 103 -110 103 -131 0 -20 -62
-85 -90 -94 -11 -4 -18 -11 -15 -16 8 -12 105 -12 105 1 0 6 -4 10 -10 10 -16
0 -12 33 7 59 l17 24 27 -33 c20 -23 25 -37 19 -45 -15 -19 -1 -25 56 -25 54
0 79 14 45 25 -10 3 -38 33 -61 66 -39 56 -41 63 -29 86 17 31 66 73 85 73 9
0 12 5 9 10 -8 12 -102 13 -109 1 -3 -5 1 -11 9 -15 20 -7 19 -26 -4 -55 l-18
-23 -22 35 c-11 19 -18 42 -15 51 5 13 -2 16 -42 16 -27 0 -56 -5 -64 -10z"/>
<path d="M1137 431 c-33 -16 -36 -19 -18 -24 19 -5 21 -13 21 -93 0 -68 -4
-92 -17 -106 -16 -18 -15 -19 46 -17 43 1 59 5 51 13 -6 6 -10 59 -10 128 0
133 0 133 -73 99z"/>
<path d="M1317 432 c-36 -16 -36 -18 -17 -30 19 -11 20 -22 20 -157 0 -152
-11 -203 -48 -231 -26 -20 -6 -17 39 7 62 31 69 59 69 259 0 187 2 181 -63
152z"/>
</g>
</svg>
