<?xml version="1.0" standalone="no"?>
<!DOCTYPE svg PUBLIC "-//W3C//DTD SVG 20010904//EN"
 "http://www.w3.org/TR/2001/REC-SVG-20010904/DTD/svg10.dtd">
<svg version="1.0" xmlns="http://www.w3.org/2000/svg"
 width="266.000000pt" height="300.000000pt" viewBox="0 0 266.000000 300.000000"
 preserveAspectRatio="xMidYMid meet">

<g transform="translate(0.000000,300.000000) scale(0.100000,-0.100000)"
fill="#000000" stroke="none">
<path d="M660 2974 c-166 -45 -306 -158 -381 -309 -60 -122 -62 -136 -66 -552
-5 -412 0 -479 41 -569 30 -66 62 -106 123 -153 l45 -35 -44 -22 c-138 -70
-200 -246 -136 -385 36 -77 70 -114 143 -150 l63 -31 159 4 159 3 76 38 c53
26 91 54 127 93 28 31 51 60 51 65 0 22 18 6 35 -32 26 -56 87 -116 148 -145
63 -29 159 -32 233 -7 59 20 145 101 165 156 7 20 16 37 19 37 3 0 22 -22 42
-49 45 -60 140 -124 215 -146 45 -13 89 -16 207 -13 143 3 154 4 196 30 92 54
146 138 157 242 11 110 -55 236 -151 286 -25 14 -46 27 -46 30 0 3 16 15 35
27 48 31 109 112 137 180 23 57 23 66 26 469 3 465 -1 502 -65 632 -72 146
-227 270 -384 307 -94 22 -1246 21 -1329 -1z m1309 -59 c142 -34 285 -146 349
-275 59 -118 63 -167 60 -609 l-3 -396 -26 -56 c-37 -79 -90 -133 -167 -171
l-67 -33 -790 0 -790 0 -53 24 c-70 31 -154 122 -181 196 -20 53 -21 75 -21
466 0 443 3 478 55 578 68 133 196 235 347 275 81 22 1195 22 1287 1z m-1341
-1634 c71 -50 78 -149 15 -208 -42 -40 -93 -52 -128 -29 -55 36 -40 109 27
127 32 8 39 14 36 32 -7 49 -107 26 -141 -33 -9 -15 -17 -48 -17 -72 0 -36 6
-52 33 -83 29 -34 39 -38 88 -42 42 -3 64 1 99 19 93 48 135 166 91 258 -11
24 -21 48 -21 52 0 5 71 7 158 6 l157 -3 -1 -87 c-2 -160 -76 -283 -212 -350
-66 -33 -67 -33 -218 -33 -150 0 -151 0 -200 30 -129 80 -154 256 -51 363 32
34 71 58 117 73 43 14 136 3 168 -20z m562 -117 c4 -111 9 -146 23 -167 38
-59 110 -81 171 -52 63 30 70 51 76 214 l5 146 46 3 46 3 7 -120 c10 -173 -9
-239 -84 -304 -110 -94 -278 -67 -355 57 -30 49 -30 51 -33 208 l-3 159 48 -3
48 -3 5 -141z m758 139 c-45 -88 -54 -164 -25 -218 34 -66 110 -115 179 -115
106 0 169 119 110 208 -30 47 -123 71 -136 36 -8 -20 10 -44 33 -44 33 0 61
-30 61 -65 0 -88 -100 -98 -171 -17 -29 32 -31 40 -27 90 4 48 10 60 40 88 93
85 272 36 337 -91 67 -130 -4 -296 -144 -335 -70 -20 -288 -9 -345 17 -149 68
-230 197 -230 367 0 40 3 76 7 79 9 10 316 9 311 0z"/>
<path d="M851 2704 c-133 -36 -251 -136 -317 -268 l-39 -80 0 -250 0 -251 28
-57 c37 -75 107 -144 187 -182 l65 -31 555 0 555 0 49 23 c109 50 192 147 221
257 21 82 21 384 0 474 -41 174 -184 321 -359 367 -76 20 -868 19 -945 -2z
m925 -58 c79 -21 148 -63 209 -127 103 -108 130 -211 123 -469 -4 -144 -6
-159 -32 -217 -33 -72 -93 -133 -164 -166 -45 -21 -61 -22 -390 -25 -280 -2
-342 -1 -336 10 4 7 20 33 36 57 28 44 37 69 58 149 11 43 12 43 31 27 10 -10
40 -20 66 -22 39 -4 55 0 82 19 111 75 120 306 15 397 -43 39 -75 47 -125 32
-39 -12 -90 -66 -104 -112 -5 -16 -14 -10 -49 39 -130 176 -359 242 -563 164
-29 -11 -53 -18 -53 -16 0 21 53 99 99 145 62 62 113 92 194 114 75 20 828 21
903 1z m-783 -319 c247 -122 310 -436 131 -646 l-37 -43 -146 4 c-143 3 -148
4 -214 36 -51 25 -77 46 -106 85 -63 84 -71 122 -71 332 l0 184 35 27 c59 44
137 64 241 61 83 -3 99 -7 167 -40z m367 -238 c0 -161 -6 -175 -43 -111 -37
62 -32 173 9 240 28 44 34 23 34 -129z m101 104 c31 -63 31 -152 0 -210 -12
-24 -26 -43 -31 -43 -6 0 -10 59 -10 150 0 84 4 150 9 150 5 0 19 -21 32 -47z"/>
<path d="M751 2173 c-40 -20 -80 -77 -88 -127 -8 -52 20 -120 65 -154 30 -23
45 -27 102 -27 57 0 72 4 102 27 127 97 56 299 -104 298 -23 0 -58 -8 -77 -17z
m59 -38 c18 -22 3 -55 -25 -55 -29 0 -47 27 -34 52 12 22 42 23 59 3z m85 -20
c0 -27 -3 -30 -30 -30 -21 0 -31 5 -33 18 -6 33 6 49 35 45 24 -3 28 -8 28
-33z m-147 -37 c16 -16 15 -33 -3 -51 -17 -18 -51 -12 -59 10 -15 37 34 69 62
41z m113 -34 c17 -21 0 -49 -31 -49 -31 0 -48 28 -31 49 8 9 21 16 31 16 10 0
23 -7 31 -16z m94 -29 c0 -25 -4 -31 -26 -33 -29 -3 -44 18 -33 50 4 14 13 18
32 16 23 -2 27 -8 27 -33z m-166 -43 c20 -38 -31 -71 -59 -37 -6 8 -9 23 -5
35 8 25 51 27 64 2z m95 2 c22 -8 20 -51 -2 -63 -37 -20 -70 27 -40 57 14 14
20 14 42 6z"/>
<path d="M920 582 c0 -22 -2 -55 -6 -73 l-5 -34 17 30 c26 48 54 73 87 81 52
11 57 -8 57 -197 0 -139 -3 -170 -16 -183 -14 -15 -9 -16 51 -16 60 0 65 1 51
16 -13 13 -16 44 -16 188 0 192 4 203 59 191 32 -7 51 -25 74 -70 l15 -30 3
60 4 60 -173 -3 c-125 -3 -177 0 -187 8 -13 11 -15 6 -15 -28z"/>
<path d="M1657 583 c-11 -11 -8 -48 5 -61 30 -30 75 0 64 43 -5 19 -13 25 -35
25 -15 0 -31 -3 -34 -7z"/>
<path d="M1364 436 c-17 -7 -41 -27 -53 -42 -19 -25 -22 -38 -19 -87 6 -78 42
-117 117 -125 99 -9 161 42 161 134 0 48 -4 59 -33 91 -29 31 -41 37 -88 40
-32 2 -66 -2 -85 -11z m89 -16 c60 -47 63 -207 5 -226 -27 -8 -67 22 -85 64
-21 50 -14 149 12 168 25 19 38 18 68 -6z"/>
<path d="M1661 421 c-26 -14 -30 -19 -17 -24 14 -6 16 -28 16 -169 0 -145 -2
-167 -20 -195 -23 -39 -15 -41 31 -10 48 32 57 75 58 260 1 175 1 175 -68 138z"/>
</g>
</svg>
