<?xml version="1.0" standalone="no"?>
<!DOCTYPE svg PUBLIC "-//W3C//DTD SVG 20010904//EN"
 "http://www.w3.org/TR/2001/REC-SVG-20010904/DTD/svg10.dtd">
<svg version="1.0" xmlns="http://www.w3.org/2000/svg"
 width="152.000000pt" height="180.000000pt" viewBox="0 0 152.000000 180.000000"
 preserveAspectRatio="xMidYMid meet">
<metadata>
Created by potrace 1.10, written by Peter Selinger 2001-2011
</metadata>
<g transform="translate(0.000000,180.000000) scale(0.100000,-0.100000)"
fill="#000000" stroke="none">
<path d="M500 1755 c-214 -27 -307 -68 -356 -158 -52 -95 -28 -197 62 -260
l45 -32 -23 -15 c-45 -30 -110 -95 -133 -134 -13 -23 -28 -68 -34 -100 -14
-77 -14 -295 0 -372 15 -81 62 -177 105 -212 l36 -30 -33 -11 c-60 -21 -97
-58 -113 -112 -49 -163 93 -270 359 -271 110 -1 174 14 255 58 l49 27 41 -36
c104 -89 241 -66 290 48 28 66 89 97 120 61 9 -12 7 -21 -10 -44 -46 -62 1
-117 98 -117 69 1 103 21 139 82 20 35 25 56 24 100 -1 71 -23 109 -86 151
-28 19 -51 37 -52 40 -1 4 12 16 29 27 109 69 168 330 122 538 -23 104 -74
205 -129 256 -43 40 -45 44 -28 57 10 7 21 14 25 14 17 0 91 76 109 112 81
158 -25 285 -273 328 -105 19 -506 21 -638 5z m685 -39 c220 -52 290 -201 161
-343 -19 -22 -52 -47 -73 -57 -34 -15 -42 -15 -73 -3 l-34 15 40 20 c111 57
146 169 71 227 -92 69 -242 98 -507 97 -292 -1 -507 -69 -525 -166 -9 -43 19
-110 58 -141 l31 -24 -27 -10 c-33 -13 -68 2 -108 46 -39 41 -49 66 -49 118 0
122 87 192 277 220 152 22 172 23 438 20 189 -2 267 -7 320 -19z m-564 -117
c-13 -54 -14 -179 -2 -179 4 0 11 39 14 88 7 112 18 142 52 142 20 0 25 -4 22
-17 -14 -51 -17 -75 -10 -86 4 -6 12 12 18 43 9 50 13 55 38 58 24 3 28 0 23
-15 -24 -75 -34 -213 -16 -213 6 0 10 28 11 63 1 77 27 161 52 165 15 3 17 -2
11 -39 -5 -31 -4 -40 4 -35 7 4 12 16 12 26 0 32 11 50 31 50 10 0 19 -1 19
-2 0 -2 -9 -32 -20 -66 -22 -69 -27 -162 -9 -162 6 0 8 8 5 18 -7 22 18 120
44 171 15 30 24 38 39 34 18 -4 18 -7 5 -39 -17 -40 -17 -44 -4 -44 6 0 10 7
10 15 0 32 23 65 47 65 22 0 23 -1 9 -22 -19 -29 -46 -132 -46 -175 0 -51 17
-39 22 16 6 57 56 165 78 168 34 6 42 -12 26 -52 -19 -43 -19 -45 -8 -45 5 0
15 18 22 40 13 39 23 46 53 35 12 -5 11 -12 -5 -44 -22 -45 -37 -171 -20 -171
6 0 9 6 6 14 -9 22 14 117 36 154 17 28 23 31 40 22 18 -9 18 -13 4 -45 -16
-40 -17 -45 -5 -45 5 0 12 16 15 35 7 37 17 43 35 21 8 -10 7 -22 -4 -49 -8
-20 -15 -44 -14 -54 0 -10 5 -5 12 14 13 35 27 53 27 34 0 -29 -31 -81 -62
-105 -62 -47 -83 -50 -209 -24 -153 31 -480 33 -601 5 -67 -16 -81 -16 -98 -4
-54 38 -86 122 -61 163 9 16 10 13 11 -19 0 -21 4 -36 8 -33 4 2 7 23 5 45 -1
31 3 43 17 51 10 5 20 10 22 10 3 0 2 -27 0 -60 -4 -61 3 -110 16 -110 4 0 6
26 4 58 -5 78 8 123 37 134 22 8 23 7 17 -27 -4 -19 -3 -35 2 -35 5 0 12 18
16 40 5 30 11 40 25 40 18 0 19 -6 14 -74 -3 -40 -2 -91 3 -112 7 -33 9 -23
15 69 3 60 10 112 15 117 5 5 21 12 36 15 26 7 26 6 22 -37 -3 -32 -2 -38 5
-23 5 11 10 30 10 42 1 16 8 23 29 25 15 2 28 3 30 2 1 -1 -2 -21 -7 -45z
m414 -264 c206 -38 305 -131 360 -340 30 -111 14 -336 -31 -443 -16 -40 -54
-95 -61 -89 -2 3 2 28 11 56 41 139 26 328 -38 466 -74 161 -200 223 -481 240
-377 23 -591 -120 -624 -415 -10 -90 1 -214 24 -280 8 -24 14 -45 12 -46 -8
-9 -61 53 -76 90 -25 59 -31 95 -41 236 -13 218 15 325 109 413 71 66 153 103
289 127 76 14 445 4 547 -15z m-255 -128 c0 -2 -7 -18 -16 -35 -8 -17 -20 -58
-26 -92 -8 -41 -16 -60 -26 -60 -32 0 5 158 42 182 12 8 26 10 26 5z m-229
-43 c-31 -39 -27 -80 9 -114 47 -44 92 -55 225 -55 135 0 199 17 235 62 22 29
26 73 8 91 -20 20 -3 23 45 6 25 -8 66 -34 92 -56 44 -39 103 -124 92 -134 -3
-3 -35 -9 -72 -15 -127 -18 -230 -91 -277 -196 -25 -58 -48 -196 -48 -295 l0
-78 -77 0 c-121 0 -120 0 -128 83 -16 169 -46 247 -126 326 -65 64 -133 98
-231 113 -43 7 -78 16 -78 21 0 4 12 30 26 58 34 67 97 129 166 163 54 26 149
57 157 50 2 -2 -6 -15 -18 -30z m164 19 c-14 -33 -35 -117 -35 -141 0 -18 -4
-23 -16 -18 -9 3 -22 6 -29 6 -7 0 -27 12 -44 26 -41 34 -41 70 0 112 27 28
38 32 81 32 44 0 49 -2 43 -17z m130 -23 c-8 -22 -16 -63 -18 -92 -3 -39 -9
-54 -21 -56 -19 -4 -20 13 -7 84 14 70 28 104 45 104 13 0 13 -5 1 -40z m90
30 c46 -11 75 -41 75 -79 0 -46 -67 -91 -135 -91 -34 0 -35 1 -35 38 0 51 28
142 43 142 7 0 30 -5 52 -10z m211 -301 c-92 -84 -120 -167 -130 -384 -3 -66
-6 -121 -6 -122 0 -2 -28 -3 -61 -3 l-61 0 4 128 c7 182 49 293 135 359 29 22
141 71 166 72 5 1 -16 -22 -47 -50z m143 1 c23 -73 21 -309 -4 -388 l-20 -63
-65 -19 c-36 -10 -87 -22 -114 -26 l-49 -7 6 139 c3 77 12 163 20 192 18 66
77 153 131 192 55 41 77 36 95 -20z m-1009 -36 c77 -50 139 -112 160 -159 20
-44 40 -167 40 -246 0 -46 -2 -49 -22 -44 -13 3 -45 10 -73 15 -115 25 -124
29 -145 70 -25 48 -50 165 -50 229 0 84 12 171 24 171 6 0 36 -16 66 -36z m55
22 c76 -20 126 -49 177 -103 76 -82 102 -150 114 -300 l7 -83 -30 0 c-17 0
-44 3 -61 6 -29 6 -30 7 -36 83 -10 114 -25 191 -46 230 -23 46 -93 115 -147
148 -63 37 -59 41 22 19z m-32 -470 c18 -7 40 -23 51 -34 17 -20 18 -23 2 -46
-21 -33 -20 -52 4 -76 30 -30 76 -26 112 10 27 27 30 36 25 71 l-5 40 36 -6
c65 -11 65 -12 59 -58 -8 -59 -56 -101 -131 -117 -123 -25 -229 24 -209 99 6
24 -12 29 -21 5 -11 -28 -6 -43 25 -78 29 -33 30 -38 19 -71 -14 -44 -28 -50
-74 -35 -49 16 -102 78 -111 129 -20 120 104 216 218 167z m160 -49 c23 -27
22 -56 -5 -84 -23 -25 -67 -30 -86 -11 -14 14 -16 48 -3 48 19 0 23 41 7 59
-9 10 -16 20 -16 23 0 13 86 -17 103 -35z m826 24 c119 -61 144 -206 49 -286
-33 -28 -97 -34 -142 -14 -35 16 -39 36 -16 69 26 37 25 65 -2 84 -54 38 -107
13 -146 -68 -16 -34 -37 -68 -47 -76 -9 -7 -43 -16 -75 -18 -50 -4 -66 0 -102
21 -60 35 -72 60 -58 120 6 27 8 51 6 55 -2 4 2 22 9 39 16 37 24 39 195 48
88 4 260 30 288 44 1 0 20 -8 41 -18z m-577 -49 c17 -17 21 -113 6 -142 -8
-14 -36 -40 -63 -58 l-49 -33 -12 41 c-7 22 -17 47 -24 55 -9 11 -5 22 16 54
20 31 25 49 21 74 l-5 33 49 -6 c27 -4 55 -12 61 -18z m46 7 c-2 -6 -8 -10
-13 -10 -5 0 -11 4 -13 10 -2 6 4 11 13 11 9 0 15 -5 13 -11z m-212 -154 c-17
-13 -37 -19 -57 -17 -3 1 -4 -21 -1 -49 l5 -49 -62 0 c-60 0 -62 1 -55 23 5
12 8 32 9 45 0 17 6 22 25 22 14 1 48 9 75 19 64 24 87 26 61 6z m-197 -15
c12 0 21 -5 21 -11 0 -10 -52 -4 -72 8 -18 10 -7 23 11 13 11 -5 29 -10 40
-10z m221 -4 c0 -7 -10 -16 -22 -20 -33 -8 -48 -7 -48 4 0 6 9 10 19 10 11 0
23 5 26 10 9 15 25 12 25 -4z m-200 -39 c0 -4 -9 -6 -20 -3 -11 3 -29 9 -40
12 -11 3 -20 9 -20 13 0 5 18 3 40 -2 22 -6 40 -15 40 -20z m210 4 c0 -8 -49
-24 -65 -22 -14 2 -3 17 17 23 34 9 48 9 48 -1z m-225 -22 c15 -6 16 -8 4 -8
-30 -2 -79 11 -79 20 0 9 36 3 75 -12z m-13 -27 c-20 -6 -83 8 -77 17 3 5 24
4 47 -2 23 -6 37 -12 30 -15z m238 18 c0 -10 -68 -26 -77 -17 -3 3 10 10 28
16 45 12 49 13 49 1z"/>
<path d="M565 1709 c-118 -12 -260 -48 -309 -79 -82 -52 -99 -153 -39 -228 16
-19 36 -38 44 -40 8 -3 2 8 -12 24 -38 42 -49 67 -49 114 0 85 48 126 197 167
97 27 102 27 403 27 259 1 315 -2 375 -17 86 -22 150 -58 170 -97 32 -62 8
-163 -51 -209 -16 -13 -21 -21 -12 -21 17 0 48 32 77 80 27 45 28 114 2 157
-24 38 -92 80 -163 99 -111 29 -449 42 -633 23z"/>
<path d="M1210 360 c0 -5 6 -10 13 -10 7 0 28 -16 47 -35 27 -28 34 -44 38
-88 3 -41 0 -56 -12 -66 -24 -20 -40 -2 -27 32 15 40 -7 96 -48 124 -39 27
-104 30 -154 9 -44 -18 -94 -77 -107 -126 -25 -94 -144 -60 -126 35 4 18 13
38 21 45 18 15 20 43 3 38 -19 -7 -48 -70 -48 -106 0 -47 37 -82 88 -82 46 0
59 13 95 92 20 45 34 61 66 77 113 58 223 -6 192 -111 -15 -47 -5 -64 32 -55
49 13 62 97 24 160 -30 49 -97 96 -97 67z"/>
</g>
</svg>
