<?xml version="1.0" standalone="no"?>
<!DOCTYPE svg PUBLIC "-//W3C//DTD SVG 20010904//EN"
 "http://www.w3.org/TR/2001/REC-SVG-20010904/DTD/svg10.dtd">
<svg version="1.0" xmlns="http://www.w3.org/2000/svg"
 width="266.000000pt" height="300.000000pt" viewBox="0 0 266.000000 300.000000"
 preserveAspectRatio="xMidYMid meet">

<g transform="translate(0.000000,300.000000) scale(0.100000,-0.100000)"
fill="#000000" stroke="none">
<path d="M660 2974 c-166 -45 -306 -158 -381 -309 -60 -121 -61 -137 -66 -545
-3 -225 -1 -404 5 -448 17 -121 72 -215 167 -288 l35 -26 -37 -20 c-143 -75
-206 -249 -140 -390 35 -76 70 -113 142 -149 l63 -31 159 4 c153 3 160 4 225
35 72 34 145 95 179 149 11 19 24 34 29 34 5 0 14 -17 21 -37 18 -56 104 -136
168 -158 68 -22 169 -17 227 13 51 26 129 111 144 157 l12 35 42 -57 c50 -68
127 -124 211 -154 52 -18 77 -20 215 -17 147 3 157 4 200 30 92 54 146 138
157 242 11 110 -55 236 -151 286 -25 14 -46 27 -46 30 0 3 16 15 35 27 48 31
109 112 137 180 23 57 23 66 26 469 3 465 -1 502 -65 632 -72 146 -227 270
-384 307 -94 22 -1246 21 -1329 -1z m1309 -59 c197 -47 354 -212 397 -417 12
-59 15 -144 12 -468 l-3 -395 -26 -55 c-39 -82 -90 -135 -167 -172 l-67 -33
-790 0 -790 0 -57 28 c-73 36 -150 119 -177 192 -20 53 -21 76 -21 466 0 342
3 421 16 472 48 185 194 330 386 381 81 22 1195 22 1287 1z m-1339 -1635 c30
-21 60 -76 60 -109 0 -64 -57 -127 -124 -138 -28 -4 -39 -1 -60 20 -14 15 -26
37 -26 50 0 28 34 62 73 71 22 5 28 12 25 29 -2 17 -11 23 -40 25 -30 3 -44
-3 -74 -30 -90 -83 -32 -228 91 -228 137 0 236 157 176 280 -12 24 -21 48 -21
52 0 5 71 7 158 6 l157 -3 -1 -87 c-2 -161 -75 -283 -212 -350 -66 -33 -67
-33 -218 -33 -150 0 -151 0 -200 30 -129 80 -154 256 -51 363 32 34 71 58 117
73 40 14 139 1 170 -21z m560 -108 c0 -114 3 -143 18 -171 35 -66 125 -90 189
-51 51 31 58 52 63 210 l5 145 50 0 50 0 6 -125 c4 -69 3 -145 -3 -170 -22
-108 -126 -190 -242 -190 -75 0 -132 26 -184 85 -57 64 -65 102 -56 266 l7
139 48 0 49 0 0 -138z m760 134 c0 -3 -10 -21 -22 -42 -26 -44 -29 -134 -5
-179 34 -67 110 -115 179 -115 107 0 169 118 110 208 -31 47 -123 71 -136 35
-8 -21 5 -34 46 -47 57 -19 65 -100 13 -124 -38 -18 -57 -15 -102 15 -49 31
-63 58 -63 120 0 39 5 50 38 83 29 29 49 40 85 45 149 23 283 -91 282 -240 -1
-73 -27 -128 -85 -178 -59 -50 -107 -60 -257 -55 -115 4 -134 7 -188 33 -130
63 -204 175 -213 327 -2 48 -2 94 1 102 5 14 30 16 162 16 85 0 155 -2 155 -4z"/>
<path d="M1196 2789 c-77 -19 -258 -121 -316 -179 -74 -72 -103 -137 -145
-318 -18 -81 -45 -190 -59 -242 -18 -65 -26 -120 -26 -176 0 -74 3 -85 30
-122 16 -22 48 -52 72 -65 57 -33 193 -80 293 -102 44 -9 123 -31 175 -48 191
-61 398 -32 602 85 114 65 154 131 179 292 15 92 5 248 -21 352 l-21 82 22 36
c28 48 37 148 17 196 -38 90 -129 150 -228 150 -37 0 -65 -6 -88 -20 l-33 -20
-62 29 c-138 64 -299 94 -391 70z m225 -75 c30 -8 85 -29 122 -46 52 -24 66
-35 61 -47 -22 -55 -25 -84 -11 -99 23 -22 45 -8 57 39 15 55 68 109 106 109
155 0 245 -154 158 -271 -30 -41 -59 -58 -101 -59 -47 0 -67 25 -58 74 12 78
12 81 -15 81 -31 0 -50 -35 -50 -93 0 -55 21 -96 59 -112 30 -12 112 -10 143
4 14 6 19 -4 32 -66 23 -114 28 -196 16 -293 -20 -160 -61 -219 -204 -289
-142 -70 -349 -99 -451 -63 -37 14 -40 17 -38 51 3 53 38 113 83 141 100 63
80 148 -34 147 -30 0 -68 -8 -86 -17 -56 -29 -137 -112 -227 -234 -2 -3 -28 3
-58 13 l-55 17 0 71 c0 65 3 75 36 120 19 27 34 57 32 66 -5 25 -41 26 -87 3
-52 -27 -93 -25 -129 4 -1 1 16 73 38 159 22 86 40 165 40 176 0 36 50 175 78
215 38 55 109 107 225 165 95 48 102 50 181 50 45 0 107 -7 137 -16z m-96
-862 c-6 -5 -29 -23 -51 -40 -44 -33 -78 -93 -89 -156 -6 -30 -11 -36 -26 -31
-20 5 -35 9 -82 19 l-29 7 28 37 c81 110 160 172 218 172 22 0 36 -4 31 -8z"/>
<path d="M1045 2516 c-92 -43 -137 -122 -139 -243 -1 -39 1 -74 4 -76 3 -3 24
0 47 6 36 9 48 8 78 -6 41 -20 74 -80 75 -137 1 -83 24 -76 123 34 38 42 96
95 128 117 75 50 133 124 155 195 21 64 13 101 -26 122 -33 17 -168 10 -232
-13 -46 -16 -49 -16 -82 4 -43 27 -69 26 -131 -3z m345 -31 c0 -9 -7 -18 -16
-22 -18 -7 -39 11 -30 26 11 17 46 13 46 -4z m-216 -71 c16 -42 -16 -74 -54
-54 -19 10 -27 49 -13 63 13 13 61 7 67 -9z m-120 -16 c8 -14 7 -21 -6 -34
-30 -30 -75 9 -48 42 16 18 39 15 54 -8z m384 -2 c5 -24 -10 -38 -31 -30 -17
6 -23 35 -10 48 12 12 38 1 41 -18z m-134 -82 c31 -12 17 -43 -31 -74 -66 -41
-111 -54 -145 -41 -47 18 -36 45 35 85 59 34 105 44 141 30z m-266 -32 c3 -16
-2 -22 -17 -22 -24 0 -33 13 -25 35 9 23 38 14 42 -13z"/>
<path d="M1740 2105 c-10 -12 -8 -25 10 -68 19 -42 23 -69 22 -145 -1 -74 2
-94 14 -99 9 -3 23 2 32 11 37 37 12 254 -35 301 -18 19 -27 19 -43 0z"/>
<path d="M1634 2016 c-3 -7 5 -42 16 -77 17 -49 21 -82 18 -139 -4 -96 10
-121 46 -84 21 20 22 162 2 228 -22 71 -67 111 -82 72z"/>
<path d="M1533 1929 c-9 -9 -6 -25 9 -63 17 -39 22 -73 22 -146 l1 -95 27 -3
c24 -3 28 1 34 33 11 62 -1 176 -26 233 -22 52 -43 65 -67 41z"/>
<path d="M828 559 c-2 -35 -3 -65 -2 -67 0 -1 13 15 27 36 29 45 80 71 106 55
24 -15 29 -353 6 -377 -15 -15 -11 -16 52 -16 47 0 63 3 53 10 -12 7 -16 41
-18 179 -4 195 2 217 51 207 37 -8 65 -31 82 -71 l13 -30 1 30 c1 17 4 47 8
69 6 36 5 38 -15 27 -28 -15 -334 -15 -349 0 -8 8 -12 -6 -15 -52z"/>
<path d="M1483 603 c-21 -8 -16 -61 7 -68 11 -3 24 -3 30 0 13 8 13 -51 0 -76
-18 -32 -1 -21 20 14 46 75 10 157 -57 130z"/>
<path d="M1772 598 c-26 -26 0 -77 33 -64 22 8 29 -17 16 -56 l-11 -33 20 24
c25 29 27 102 4 125 -18 19 -45 21 -62 4z"/>
<path d="M1631 576 c-28 -33 22 -83 55 -55 8 7 14 24 12 38 -2 20 -9 27 -29
29 -14 2 -31 -4 -38 -12z"/>
<path d="M1220 420 c-13 -45 -12 -60 1 -37 14 23 69 47 108 47 l30 0 -74 -115
c-41 -63 -75 -117 -75 -120 0 -3 52 -5 115 -5 l115 0 0 48 c0 44 -1 46 -13 22
-15 -30 -71 -60 -111 -60 -36 0 -35 1 53 135 39 58 71 108 71 110 0 2 -47 5
-105 7 l-105 3 -10 -35z"/>
<path d="M1630 420 c-20 -11 -28 -19 -19 -20 23 0 29 -21 29 -105 0 -54 -4
-78 -16 -89 -14 -15 -10 -16 48 -16 48 1 59 3 46 11 -16 9 -18 26 -18 124 0
129 -2 132 -70 95z"/>
</g>
</svg>
