<?xml version="1.0" standalone="no"?>
<!DOCTYPE svg PUBLIC "-//W3C//DTD SVG 20010904//EN"
 "http://www.w3.org/TR/2001/REC-SVG-20010904/DTD/svg10.dtd">
<svg version="1.0" xmlns="http://www.w3.org/2000/svg"
 width="266.000000pt" height="300.000000pt" viewBox="0 0 266.000000 300.000000"
 preserveAspectRatio="xMidYMid meet">

<g transform="translate(0.000000,300.000000) scale(0.100000,-0.100000)"
fill="#000000" stroke="none">
<path d="M740 2990 c-238 -30 -433 -196 -504 -429 -17 -60 -20 -103 -24 -448
-2 -239 0 -408 7 -450 15 -99 60 -181 137 -251 61 -57 63 -60 40 -66 -42 -10
-131 -101 -156 -158 -32 -75 -31 -167 2 -239 33 -73 66 -109 130 -144 53 -30
53 -30 224 -30 l170 0 76 38 c53 26 91 54 127 93 28 31 51 60 51 65 0 22 18 6
35 -32 45 -99 139 -160 256 -167 67 -4 83 -1 138 23 68 31 132 94 153 151 7
19 15 34 19 34 3 0 19 -18 34 -40 42 -61 136 -127 215 -151 59 -17 89 -20 212
-17 127 3 148 6 188 26 213 111 226 409 22 527 -28 17 -51 32 -52 35 0 3 17
16 37 30 50 34 107 109 135 177 22 57 23 66 26 469 3 464 -1 504 -64 634 -68
138 -219 260 -380 307 -52 15 -125 17 -624 19 -311 1 -594 -2 -630 -6z m1235
-75 c140 -37 283 -151 343 -275 59 -119 63 -168 60 -609 l-3 -396 -27 -57
c-14 -31 -47 -78 -73 -103 -25 -26 -72 -59 -103 -73 l-57 -27 -790 0 -790 0
-55 27 c-71 35 -133 97 -168 167 l-27 56 -3 419 c-2 279 1 438 8 473 28 132
133 274 255 343 121 69 113 68 775 69 504 1 605 -1 655 -14z m-1383 -1615
c106 -30 126 -183 32 -245 -43 -28 -91 -28 -119 0 -14 13 -25 35 -25 48 0 28
34 67 59 67 24 0 45 25 37 45 -7 19 -62 19 -94 1 -85 -47 -80 -186 9 -232 42
-21 115 -15 163 16 84 51 118 164 77 250 -11 24 -21 48 -21 52 0 5 71 7 158 6
l157 -3 3 -44 c12 -168 -73 -323 -216 -393 -66 -33 -67 -33 -218 -33 -150 0
-151 0 -199 30 -133 82 -154 265 -45 372 64 62 157 86 242 63z m598 -135 c3
-84 10 -149 17 -162 19 -32 61 -62 98 -69 41 -7 118 25 137 58 8 15 15 74 18
168 l5 145 46 3 46 3 7 -119 c4 -76 2 -138 -5 -171 -15 -70 -61 -129 -129
-164 -48 -25 -63 -28 -118 -24 -82 6 -145 44 -187 111 -30 49 -30 51 -33 208
l-3 159 48 -3 48 -3 5 -140z m760 141 c0 -3 -10 -21 -22 -41 -26 -45 -29 -136
-5 -180 68 -131 242 -154 297 -40 40 83 -5 172 -91 182 -37 4 -47 2 -53 -12
-8 -22 10 -45 37 -45 32 0 57 -29 57 -66 0 -63 -55 -88 -122 -55 -53 25 -78
65 -78 121 0 151 210 191 336 64 100 -100 93 -253 -16 -347 -58 -49 -106 -60
-252 -56 -120 4 -126 5 -201 42 -96 47 -157 118 -187 216 -19 61 -28 200 -13
214 7 8 313 10 313 3z"/>
<path d="M880 2719 c-115 -22 -252 -119 -320 -225 -62 -98 -71 -154 -68 -405
l3 -225 32 -65 c40 -81 102 -140 191 -182 l67 -32 529 -3 c475 -3 535 -1 583
14 107 34 211 132 250 234 21 56 31 404 14 494 -34 184 -186 342 -376 391 -49
12 -130 15 -460 14 -220 -1 -420 -5 -445 -10z m418 -131 l-3 -72 -52 3 c-79 4
-222 36 -275 61 -54 25 -73 44 -64 65 4 13 36 15 201 15 l196 0 -3 -72z m507
53 l30 -13 -28 -23 c-49 -43 -185 -76 -364 -90 l-83 -6 0 76 0 77 208 -4 c137
-3 217 -8 237 -17z m-965 -26 c0 -26 65 -80 123 -103 109 -41 219 -56 412 -56
146 1 197 5 272 22 114 26 183 55 218 92 l28 29 38 -27 c21 -15 39 -34 39 -43
0 -42 -130 -127 -250 -163 -319 -96 -790 -31 -926 128 -43 50 -45 86 -6 115
32 24 52 27 52 6z m-205 -183 c-6 -45 -8 -49 -31 -44 -13 2 -24 6 -24 9 0 11
53 93 57 89 3 -3 2 -27 -2 -54z m244 -76 c39 -18 79 -36 89 -38 17 -5 19 -11
11 -57 -6 -41 -4 -66 11 -115 60 -194 277 -258 418 -123 48 46 74 102 80 173
5 62 5 62 39 69 19 3 37 4 40 1 3 -2 -5 -31 -17 -63 -17 -43 -24 -87 -28 -169
-4 -96 -1 -122 19 -189 12 -43 40 -104 61 -137 l38 -59 -419 3 c-231 2 -423 6
-427 10 -12 13 14 85 43 119 83 98 230 89 308 -20 20 -28 38 -51 40 -51 2 0
10 3 19 6 47 18 -17 121 -103 166 -135 71 -302 7 -356 -136 -10 -25 -22 -46
-28 -46 -17 0 -95 85 -102 111 -9 36 9 73 51 105 30 24 51 30 112 35 62 5 79
10 94 29 46 56 -2 194 -51 146 -12 -12 -12 -20 -3 -41 29 -63 4 -83 -91 -71
-91 11 -127 24 -127 48 0 12 24 64 53 117 l54 96 -5 92 c-6 129 -3 133 57 73
30 -30 79 -64 120 -84z m1160 24 c27 -17 51 -40 54 -51 6 -23 6 -23 -73 6 -61
23 -157 14 -214 -19 -92 -54 -162 -158 -187 -274 -11 -55 -8 -185 6 -227 7
-20 7 -20 -6 0 -20 32 -39 125 -39 195 0 77 20 161 54 229 22 42 30 50 63 56
52 9 173 58 220 89 50 32 63 32 122 -4z m-1429 -66 c11 -12 11 -18 -2 -31 -19
-18 -38 -10 -38 16 0 33 20 40 40 15z m618 -88 c15 -15 15 -17 1 -32 -23 -22
-82 -33 -125 -24 -20 5 -44 16 -53 24 -14 15 -14 17 1 32 34 34 142 34 176 0z
m202 2 c0 -86 -50 -165 -125 -199 -49 -23 -85 -24 -133 -3 -34 14 -92 60 -92
73 0 3 28 6 63 7 104 1 165 49 154 119 l-6 35 70 0 69 0 0 -32z m580 16 c28
-11 40 -22 38 -33 -8 -41 -136 -58 -198 -26 -38 20 -35 34 11 57 43 22 97 23
149 2z m-1420 -43 c-1 -3 -9 -22 -20 -41 l-19 -35 -1 47 c0 41 2 46 20 41 11
-3 20 -8 20 -12z m1180 -30 c0 -5 -9 -11 -20 -14 -22 -6 -26 3 -8 21 11 11 28
7 28 -7z m338 -56 c-1 -41 -4 -42 -34 -14 l-23 22 22 17 c28 23 37 17 35 -25z
m-283 -35 c22 -24 30 -96 16 -133 -26 -67 -100 -53 -121 22 -23 88 53 169 105
111z m214 -35 c41 -54 35 -135 -15 -174 -29 -23 -57 -18 -84 17 -28 35 -28
120 1 156 27 35 70 35 98 1z m-1448 -112 c-14 -17 -29 -32 -33 -32 -5 -1 -8
24 -8 54 l0 54 34 -22 33 -22 -26 -32z m1147 -82 l22 -12 -27 -24 c-16 -13
-31 -21 -34 -17 -4 4 -11 29 -17 55 l-10 49 22 -20 c11 -11 31 -25 44 -31z
m142 9 c0 -5 -4 -10 -9 -10 -6 0 -13 5 -16 10 -3 6 1 10 9 10 9 0 16 -4 16
-10z m171 -68 c-13 -24 -51 -57 -51 -44 0 6 -3 17 -6 25 -3 10 4 18 23 25 40
15 45 14 34 -6z m-148 -13 c47 -25 39 -60 -17 -79 -53 -17 -126 9 -126 46 0
36 95 58 143 33z"/>
<path d="M1420 645 c-35 -19 -40 -24 -22 -25 l22 0 0 -205 c0 -184 -2 -205
-17 -214 -14 -8 -3 -10 45 -11 59 0 62 1 47 16 -19 19 -17 99 2 99 16 0 85
-93 78 -105 -4 -6 16 -10 52 -10 l59 0 -51 53 c-27 28 -60 66 -73 84 l-22 31
42 31 c24 17 60 34 80 38 21 3 35 9 32 14 -7 13 -154 11 -154 -1 0 -5 5 -10
10 -10 21 0 9 -38 -23 -68 -32 -31 -48 -40 -46 -24 5 31 -3 332 -8 332 -5 -1
-28 -12 -53 -25z"/>
<path d="M448 558 c-2 -35 -3 -64 -3 -65 1 -2 13 14 26 34 29 45 90 73 114 53
23 -19 22 -351 -1 -374 -14 -15 -9 -16 53 -16 47 0 63 3 53 10 -12 7 -16 41
-18 179 -4 195 2 217 51 207 37 -8 65 -31 82 -71 l13 -30 1 31 c1 17 4 44 7
60 l6 29 -177 -3 c-121 -3 -180 0 -190 8 -11 9 -14 0 -17 -52z"/>
<path d="M1103 603 c-21 -8 -16 -61 7 -68 11 -3 24 -3 30 0 13 8 13 -51 0 -76
-18 -32 -1 -21 20 14 46 75 10 157 -57 130z"/>
<path d="M1251 571 c-14 -25 -5 -48 20 -56 27 -9 51 13 47 44 -4 34 -51 43
-67 12z"/>
<path d="M1767 583 c-12 -12 -7 -50 8 -63 17 -14 51 -5 59 16 13 35 -41 73
-67 47z"/>
<path d="M842 428 c-15 -57 -15 -69 -1 -45 14 23 69 47 109 47 l30 0 -75 -115
c-41 -64 -75 -118 -75 -120 0 -3 52 -5 115 -5 l115 0 0 48 c0 44 -1 46 -13 22
-15 -30 -71 -60 -111 -60 -35 0 -35 1 48 128 36 55 66 106 66 111 0 7 -34 11
-94 11 -66 0 -96 4 -98 12 -3 7 -10 -9 -16 -34z"/>
<path d="M1930 424 c-25 -13 -35 -22 -23 -19 12 3 24 2 27 -3 3 -5 7 -51 8
-102 1 -70 -2 -94 -13 -101 -9 -6 9 -9 51 -9 49 1 61 3 48 11 -15 8 -18 25
-18 98 0 84 1 88 25 99 36 17 52 15 75 -8 16 -16 20 -33 20 -91 0 -39 -5 -79
-10 -90 -10 -18 -7 -19 40 -19 47 0 50 1 40 19 -5 11 -10 60 -10 109 0 81 -2
90 -25 112 -20 19 -32 22 -65 17 -23 -3 -50 -13 -60 -22 -20 -18 -40 -13 -40
11 0 20 -18 17 -70 -12z"/>
<path d="M1250 420 c-21 -12 -28 -19 -18 -20 22 0 32 -50 26 -131 -3 -38 -10
-64 -19 -70 -9 -6 6 -9 46 -9 46 0 56 3 47 12 -8 8 -12 50 -12 125 0 127 -2
130 -70 93z"/>
<path d="M1765 422 c-36 -17 -38 -19 -17 -24 21 -6 22 -11 22 -97 0 -75 -3
-92 -17 -100 -14 -8 -2 -10 47 -10 49 0 61 2 48 10 -16 9 -18 26 -18 124 0
127 1 126 -65 97z"/>
</g>
</svg>
