<?xml version="1.0" standalone="no"?>
<!DOCTYPE svg PUBLIC "-//W3C//DTD SVG 20010904//EN"
 "http://www.w3.org/TR/2001/REC-SVG-20010904/DTD/svg10.dtd">
<svg version="1.0" xmlns="http://www.w3.org/2000/svg"
 width="161.000000pt" height="189.000000pt" viewBox="0 0 161.000000 189.000000"
 preserveAspectRatio="xMidYMid meet">
<metadata>
Created by potrace 1.10, written by Peter Selinger 2001-2011
</metadata>
<g transform="translate(0.000000,189.000000) scale(0.100000,-0.100000)"
fill="#000000" stroke="none">
<path d="M985 1843 c-49 -6 -136 -33 -164 -50 -14 -9 -36 -28 -48 -41 l-22
-26 -40 37 c-48 43 -93 57 -187 57 -87 0 -177 -26 -259 -75 -84 -51 -131 -99
-168 -175 -29 -59 -32 -73 -30 -150 1 -61 7 -102 23 -144 27 -70 96 -150 146
-168 41 -15 42 -20 7 -35 -123 -55 -179 -189 -190 -453 -10 -242 50 -362 238
-473 76 -45 223 -92 332 -107 99 -13 310 -13 402 0 81 12 208 51 274 85 226
115 302 361 210 678 -43 146 -88 213 -174 256 l-47 23 43 22 c122 61 191 211
169 368 -12 80 -66 189 -123 249 -89 93 -245 142 -392 122z m156 -43 c72 -14
149 -54 195 -101 42 -43 41 -44 -4 -28 -41 14 -107 -4 -128 -36 -16 -24 -17
-24 -47 -7 -22 11 -56 17 -107 17 -64 0 -85 -5 -146 -34 -69 -31 -73 -32 -97
-16 -44 28 -48 80 -11 125 62 73 205 106 345 80z m-496 -39 c50 -23 83 -58 91
-97 10 -50 -12 -59 -140 -59 -85 -1 -118 -5 -143 -18 -43 -23 -47 -22 -60 12
-16 42 -98 64 -157 41 -40 -15 -31 2 22 43 114 86 292 122 387 78z m725 -126
c37 -19 75 -84 90 -155 39 -178 -114 -388 -265 -365 -52 9 -113 49 -126 83
-18 47 -4 70 66 103 89 42 125 85 125 150 0 30 -8 67 -20 91 -27 56 -25 75 8
92 35 20 85 20 122 1z m-1204 -23 c-18 -16 -18 -16 -6 6 6 13 14 21 18 18 3
-4 -2 -14 -12 -24z m188 -13 c30 -24 33 -41 9 -60 -9 -8 -25 -33 -35 -56 -38
-86 -2 -143 116 -183 35 -11 72 -30 82 -41 17 -19 17 -20 -2 -47 -28 -37 -107
-75 -170 -80 -65 -5 -132 24 -170 74 -59 76 -85 243 -51 320 38 83 158 123
221 73z m781 7 c45 -13 81 -58 91 -112 14 -75 -19 -118 -133 -174 -67 -34 -71
-35 -220 -38 -177 -5 -276 6 -393 44 -106 34 -145 68 -135 117 13 57 33 84 82
108 43 21 62 24 176 24 111 0 130 2 142 18 12 16 13 16 28 -7 25 -37 59 -40
119 -9 84 42 167 52 243 29z m-365 -342 c74 -3 163 -1 198 4 47 7 62 6 62 -4
0 -19 -210 -29 -342 -15 -113 12 -128 16 -128 31 0 4 17 4 38 -1 20 -5 98 -12
172 -15z m55 -39 c176 0 204 -4 205 -27 0 -5 -460 1 -468 7 -1 1 0 9 4 18 4
12 13 15 37 9 18 -3 118 -6 222 -7z m199 -64 c22 -3 41 -11 43 -18 3 -8 -7 -8
-39 -1 -52 12 -437 16 -493 5 l-40 -8 25 20 c23 18 37 19 245 14 121 -3 238
-8 259 -12z m110 -75 c184 -39 268 -102 317 -242 20 -57 47 -210 38 -217 -2
-3 -29 -2 -60 0 l-56 5 -6 77 c-7 101 -29 152 -89 206 -91 82 -216 110 -488
109 -250 0 -368 -26 -448 -99 -50 -45 -77 -112 -87 -217 l-7 -78 -43 0 c-23 0
-57 -3 -75 -7 l-33 -6 6 94 c13 195 79 308 209 357 47 18 80 25 198 46 14 3
133 3 265 1 209 -3 255 -7 359 -29z m-82 -91 c47 -8 106 -23 131 -34 62 -27
126 -87 150 -141 21 -47 32 -176 16 -186 -5 -3 -9 22 -9 57 0 120 -40 189
-141 240 -102 51 -183 62 -428 56 -238 -5 -306 -17 -376 -65 -56 -39 -84 -94
-97 -196 -15 -108 -33 -116 -25 -11 11 130 62 212 155 251 102 42 454 59 624
29z m-332 -46 c0 -22 -8 -23 -32 -5 -24 18 -23 21 7 22 18 2 25 -3 25 -17z
m18 -138 c-4 -85 -11 -157 -14 -160 -7 -7 6 300 13 312 10 16 10 0 1 -152z
m101 153 l31 -6 0 -72 c0 -39 -3 -108 -7 -154 l-6 -83 -56 3 -55 3 2 55 c1 30
5 101 8 158 7 113 5 111 83 96z m55 -136 c-4 -79 -10 -152 -15 -163 -8 -19 -5
74 7 233 10 127 16 77 8 -70z m56 134 c0 -4 -9 -13 -20 -20 -16 -10 -20 -10
-20 2 0 8 6 17 13 19 19 8 27 8 27 -1z m-360 -11 c0 -11 -31 -24 -39 -16 -3 3
1 10 9 15 19 12 30 12 30 1z m435 -7 c33 -22 32 -28 -11 -54 l-35 -22 -25 23
-24 23 27 23 c34 27 37 27 68 7z m-490 -292 c-11 -11 -12 8 -6 153 l6 150 3
-149 c1 -82 0 -151 -3 -154z m143 270 c10 -7 5 -15 -21 -34 -33 -26 -33 -26
-58 -7 l-24 19 30 24 c29 24 35 24 73 -2z m402 18 c0 -5 -2 -10 -4 -10 -3 0
-8 5 -11 10 -3 6 -1 10 4 10 6 0 11 -4 11 -10z m-568 -142 c-2 -79 -4 -144 -5
-144 -1 -1 -44 -4 -96 -6 l-94 -4 7 68 c10 107 29 144 99 189 94 61 93 63 89
-103z m698 95 c72 -51 91 -85 97 -181 l6 -77 -99 3 c-55 2 -100 5 -101 5 -1 1
1 66 4 145 7 165 7 165 93 105z m-496 -35 c-9 -56 -14 -61 -44 -36 l-24 20 34
29 c19 15 36 29 38 29 1 0 -1 -19 -4 -42z m362 -14 c-8 -40 -15 -42 -47 -13
-16 14 -20 22 -12 25 7 3 23 14 35 24 27 21 33 12 24 -36z m-132 27 c16 -17
15 -19 -9 -35 l-25 -16 0 35 c0 39 9 44 34 16z m-364 -16 c10 -12 10 -18 0
-30 -19 -23 -30 -18 -30 15 0 33 11 38 30 15z m430 -45 l25 -20 -24 -20 c-28
-24 -30 -24 -61 1 l-24 21 24 19 c31 23 29 23 60 -1z m-365 -6 c26 -17 25 -28
-4 -43 -13 -7 -24 -6 -40 5 -21 15 -21 17 -5 35 21 23 19 23 49 3z m454 -31
c0 -36 -2 -43 -9 -27 -7 18 -3 74 6 74 2 0 4 -21 3 -47z m-389 -44 c0 -32 -14
-37 -44 -14 -18 14 -18 15 5 34 29 24 39 19 39 -20z m229 20 c23 -19 23 -20 5
-34 -31 -23 -42 -18 -41 20 1 40 4 41 36 14z m131 -13 c0 -43 -15 -54 -41 -30
-19 17 -19 18 3 41 29 31 38 29 38 -11z m-486 9 c19 -15 19 -15 -2 -35 -29
-27 -32 -26 -32 15 0 38 5 42 34 20z m70 -50 c20 -15 20 -15 0 -30 -24 -18
-46 -19 -62 -3 -10 10 -8 16 10 30 28 21 28 21 52 3z m372 -30 c-4 -14 -58
-17 -76 -5 -13 9 -11 13 9 29 23 18 26 18 48 3 12 -10 21 -21 19 -27z m66 -1
c-6 -35 -12 -29 -12 14 0 23 3 32 9 24 4 -7 6 -24 3 -38z m-387 -4 c3 -5 -1
-10 -10 -10 -9 0 -13 5 -10 10 3 6 8 10 10 10 2 0 7 -4 10 -10z m-125 -4 c0
-3 -4 -8 -10 -11 -5 -3 -10 -1 -10 4 0 6 5 11 10 11 6 0 10 -2 10 -4z m350 -6
c0 -5 -4 -10 -10 -10 -5 0 -10 5 -10 10 0 6 5 10 10 10 6 0 10 -4 10 -10z
m130 0 c0 -5 -5 -10 -11 -10 -5 0 -7 5 -4 10 3 6 8 10 11 10 2 0 4 -4 4 -10z
m120 -45 c249 -11 320 -21 320 -42 0 -12 -8 -14 -32 -9 -178 31 -726 37 -1085
11 -112 -8 -221 -18 -243 -21 -36 -6 -40 -4 -40 15 0 12 6 21 15 21 9 0 59 5
113 11 106 12 658 29 762 23 36 -2 121 -6 190 -9z m229 -74 c41 -6 77 -13 80
-16 11 -12 -21 -151 -46 -198 -61 -112 -228 -195 -457 -227 -221 -31 -549 26
-707 122 -82 50 -163 172 -171 258 l-3 35 60 12 c34 6 112 16 175 21 151 13
973 8 1069 -7z"/>
<path d="M959 1770 c-52 -9 -99 -31 -119 -55 -11 -13 -11 -18 2 -31 13 -13 15
-12 14 8 -2 40 61 62 179 63 55 0 115 -3 133 -7 17 -4 32 -4 32 1 0 20 -169
35 -241 21z"/>
<path d="M475 1734 c-103 -20 -125 -27 -125 -36 0 -6 9 -8 23 -3 96 29 239 34
275 9 14 -9 21 -22 18 -31 -4 -9 -1 -13 6 -11 36 12 -1 61 -54 72 -32 6 -110
6 -143 0z"/>
<path d="M1283 1554 c-3 -8 2 -23 11 -32 15 -15 17 -15 33 0 13 14 14 20 3 32
-16 20 -39 20 -47 0z m37 -14 c0 -5 -4 -10 -10 -10 -5 0 -10 5 -10 10 0 6 5
10 10 10 6 0 10 -4 10 -10z"/>
<path d="M1306 1394 c-8 -8 -13 -21 -10 -29 8 -21 36 -27 51 -12 15 15 9 43
-12 51 -8 3 -21 -2 -29 -10z m34 -19 c0 -8 -7 -15 -15 -15 -16 0 -20 12 -8 23
11 12 23 8 23 -8z"/>
<path d="M1181 1256 c-9 -11 -8 -18 4 -30 9 -9 20 -16 24 -16 15 0 33 30 27
45 -7 19 -40 20 -55 1z m44 -5 c7 -12 -12 -24 -25 -16 -11 7 -4 25 10 25 5 0
11 -4 15 -9z"/>
<path d="M216 1484 c-4 -10 -1 -24 7 -31 19 -19 49 -5 45 21 -4 27 -43 34 -52
10z m42 -12 c2 -7 -3 -12 -12 -12 -9 0 -16 7 -16 16 0 17 22 14 28 -4z"/>
<path d="M224 1335 c-9 -23 3 -45 26 -45 25 0 37 25 20 45 -16 19 -39 19 -46
0z m36 -21 c0 -16 -16 -19 -25 -4 -8 13 4 32 16 25 5 -4 9 -13 9 -21z"/>
<path d="M312 1228 c-17 -17 -15 -36 7 -47 26 -15 60 21 41 44 -15 18 -32 19
-48 3z m38 -17 c0 -14 -18 -23 -30 -16 -6 4 -8 11 -5 16 8 12 35 12 35 0z"/>
<path d="M970 1502 c-21 -17 -22 -22 -11 -36 17 -20 64 -21 81 -1 34 41 -26
73 -70 37z m65 -11 c8 -14 -30 -32 -49 -25 -9 3 -16 10 -16 14 0 18 55 26 65
11z"/>
<path d="M753 1470 c-17 -10 -37 -28 -42 -39 -9 -16 -7 -23 11 -35 12 -9 31
-16 41 -16 32 0 88 32 99 56 23 51 -46 73 -109 34z m97 -13 c0 -33 -77 -68
-116 -53 -15 6 -15 8 1 26 29 32 115 52 115 27z"/>
<path d="M562 1428 c-17 -17 4 -48 33 -48 29 0 56 25 49 45 -7 18 -65 20 -82
3z m52 -25 c-20 -14 -36 -13 -41 4 -5 13 25 22 46 15 11 -4 10 -8 -5 -19z"/>
<path d="M564 482 c-22 -14 -46 -76 -51 -131 -6 -64 9 -128 36 -163 30 -36 36
-14 11 44 -19 44 -22 64 -17 121 4 42 14 82 26 103 20 33 18 42 -5 26z"/>
<path d="M1000 488 c0 -2 11 -25 25 -52 20 -40 25 -64 25 -125 0 -51 -5 -84
-15 -97 -8 -12 -11 -24 -8 -28 42 -42 72 145 37 230 -17 41 -42 74 -56 74 -4
0 -8 -1 -8 -2z"/>
<path d="M760 473 c-91 -15 -139 -57 -147 -127 -11 -92 64 -156 182 -156 101
0 175 62 175 146 0 82 -110 154 -210 137z m120 -35 c82 -43 98 -134 33 -194
-76 -70 -231 -48 -276 40 -17 32 -18 43 -8 75 13 45 37 68 88 87 57 20 113 17
163 -8z"/>
<path d="M720 419 c-103 -41 -91 -152 20 -179 62 -15 110 -7 149 25 80 68 24
166 -94 164 -27 0 -61 -5 -75 -10z m141 -42 c31 -23 32 -55 4 -83 -24 -23 -32
-26 -81 -22 -85 7 -125 65 -72 102 27 19 126 21 149 3z"/>
</g>
</svg>
