<?xml version="1.0" standalone="no"?>
<!DOCTYPE svg PUBLIC "-//W3C//DTD SVG 20010904//EN"
 "http://www.w3.org/TR/2001/REC-SVG-20010904/DTD/svg10.dtd">
<svg version="1.0" xmlns="http://www.w3.org/2000/svg"
 width="186.000000pt" height="171.000000pt" viewBox="0 0 186.000000 171.000000"
 preserveAspectRatio="xMidYMid meet">
<metadata>
Created by potrace 1.10, written by Peter Selinger 2001-2011
</metadata>
<g transform="translate(0.000000,171.000000) scale(0.100000,-0.100000)"
fill="#000000" stroke="none">
<path d="M1016 1684 c-91 -17 -218 -64 -264 -98 l-32 -23 -88 18 c-287 60
-477 -38 -555 -286 -19 -61 -22 -91 -21 -240 0 -202 21 -311 84 -443 l40 -83
-24 -37 c-13 -20 -29 -61 -36 -91 -31 -133 27 -257 151 -322 39 -21 56 -23
161 -21 110 1 122 4 180 32 59 29 63 30 94 15 78 -37 182 -49 419 -50 194 0
242 3 308 19 154 38 230 111 243 232 5 47 3 69 -11 98 l-18 37 41 102 c97 246
131 401 133 602 1 116 -1 138 -24 204 -62 176 -183 279 -389 330 -103 25 -268
27 -392 5z m249 -34 c301 -28 460 -139 511 -357 32 -134 6 -380 -61 -579 -34
-103 -96 -246 -104 -241 -3 1 -28 13 -56 26 -27 13 -51 25 -53 26 -1 1 11 58
27 126 49 203 63 317 59 464 -3 123 -5 135 -33 190 -58 114 -156 160 -335 158
-257 -3 -408 -114 -441 -323 -23 -148 14 -442 76 -600 4 -12 -2 -16 -26 -18
-17 -1 -47 -9 -67 -17 -19 -9 -39 -12 -43 -8 -16 17 -81 192 -106 288 -24 88
-27 120 -27 260 -1 173 10 235 63 343 66 139 190 217 408 256 99 18 81 18 208
6z m-656 -111 c36 -6 67 -13 69 -14 2 -2 -13 -24 -32 -50 -20 -25 -36 -51 -36
-56 0 -6 -9 -8 -20 -4 -30 10 -166 -13 -221 -36 -62 -27 -121 -92 -151 -168
-20 -50 -22 -73 -22 -216 1 -147 3 -170 32 -275 17 -63 33 -122 37 -131 4 -11
0 -18 -12 -22 -10 -2 -25 -8 -34 -11 -12 -5 -23 10 -49 66 -54 119 -71 203
-77 388 -5 149 -3 174 16 245 25 91 72 176 116 209 102 77 226 102 384 75z
m606 -221 c-60 -62 -112 -117 -116 -121 -5 -7 -150 133 -157 153 -4 11 100 59
151 70 23 4 84 8 136 9 l95 1 -109 -112z m175 97 c0 -2 -39 -42 -87 -87 -179
-172 -332 -373 -428 -563 -38 -74 -40 -77 -43 -46 -5 50 86 207 229 391 101
130 279 310 307 310 12 0 22 -2 22 -5z m120 -80 l32 -40 -45 -37 c-106 -90
-287 -325 -414 -538 -51 -85 -96 -160 -100 -166 -5 -7 -30 -14 -56 -18 -44 -5
-48 -4 -57 20 -28 71 -24 99 23 193 25 50 85 151 133 223 71 108 117 162 241
287 l152 154 30 -19 c16 -11 44 -37 61 -59z m-915 45 c-3 -5 -23 -10 -43 -10
-58 0 -168 -34 -208 -65 -49 -37 -89 -126 -105 -230 -15 -104 -2 -227 37 -361
14 -49 29 -97 31 -106 3 -10 1 -18 -5 -18 -14 0 -55 129 -78 241 -20 100 -14
286 11 360 32 94 113 160 225 185 69 15 143 18 135 4z m-50 -79 c-15 -15 -18
-14 -30 3 -11 15 -12 23 -3 33 9 11 14 11 30 -4 17 -15 17 -18 3 -32z m35 45
c0 -11 -19 -15 -25 -6 -3 5 1 10 9 10 9 0 16 -2 16 -4z m-100 -25 c0 -5 -6
-14 -14 -20 -16 -13 -32 2 -21 19 8 12 35 13 35 1z m486 -33 c25 -23 59 -59
75 -79 l30 -38 -57 -81 -56 -81 -69 72 c-38 40 -69 79 -69 88 1 37 70 161 91
161 5 0 30 -19 55 -42z m-560 13 c22 18 46 -18 30 -43 -15 -24 -24 -23 -38 7
-6 14 -14 25 -18 25 -4 0 -12 -11 -18 -25 -11 -23 -32 -35 -32 -18 0 14 55 64
58 53 3 -8 8 -7 18 1z m102 -12 c10 -16 11 -24 1 -35 -11 -13 -14 -13 -27 -1
-9 9 -11 23 -7 36 8 26 17 27 33 0z m64 -20 c-4 -28 -6 -29 -20 -15 -13 12
-13 18 -2 30 19 24 27 19 22 -15z m-177 -26 c10 -14 10 -22 -2 -40 -16 -23
-16 -23 -30 -4 -11 17 -11 24 -1 41 16 24 17 25 33 3z m78 -39 c-16 -24 -16
-24 -30 -4 -11 15 -11 24 -3 41 11 19 13 20 30 4 18 -16 18 -19 3 -41z m77 31
c12 -15 5 -55 -10 -55 -14 0 -32 40 -26 56 7 18 20 18 36 -1z m1015 -91 c5
-69 3 -138 -5 -198 -14 -103 -46 -275 -52 -282 -3 -2 -19 18 -36 45 -18 26
-67 95 -110 153 l-78 105 44 54 c65 81 205 227 219 228 7 1 14 -35 18 -105z
m-1250 53 c-16 -24 -16 -28 1 -56 15 -25 15 -32 4 -46 -12 -14 -14 -14 -31 1
-16 15 -17 18 -3 39 12 18 12 24 2 28 -11 4 -11 7 0 15 8 5 13 13 13 18 -2 23
11 46 21 36 7 -7 4 -19 -7 -35z m125 -16 c7 -14 5 -23 -10 -36 -17 -16 -19
-16 -29 4 -9 15 -8 26 1 40 13 22 23 19 38 -8z m76 -33 c-13 -22 -20 -22 -36
-3 -10 12 -10 21 -1 41 l11 26 19 -23 c15 -18 16 -27 7 -41z m-156 37 c9 -11
9 -19 -3 -35 l-15 -21 -16 22 c-11 17 -13 26 -4 36 14 17 23 16 38 -2z m37
-54 c9 -15 9 -23 -2 -37 -13 -18 -14 -18 -28 1 -11 14 -12 25 -6 37 12 23 21
23 36 -1z m77 -41 l-20 -21 -14 25 c-11 21 -11 28 0 41 12 15 15 14 34 -4 l20
-21 -20 -20z m76 20 c0 -36 -16 -47 -30 -21 -8 15 -7 26 2 40 16 26 28 17 28
-19z m387 -124 c2 -6 -1 -18 -7 -26 -8 -12 -20 -4 -70 45 -55 55 -60 64 -54
92 l6 31 62 -65 c33 -36 62 -71 63 -77z m-647 80 c0 -7 -7 -21 -15 -32 -13
-18 -14 -16 -15 25 0 37 2 42 15 31 8 -7 15 -18 15 -24z m70 14 c8 -15 7 -25
-3 -40 -13 -19 -14 -19 -27 5 -11 20 -11 27 0 40 16 19 17 19 30 -5z m77 -41
c-12 -19 -12 -19 -29 1 -14 18 -15 25 -5 41 12 19 12 19 29 -1 14 -18 15 -25
5 -41z m78 31 c9 -28 -13 -54 -31 -39 -17 14 -18 31 -2 47 17 17 26 15 33 -8z
m-195 -40 c8 -14 8 -26 0 -41 -11 -20 -13 -20 -30 -4 -18 16 -18 19 -3 41 19
29 20 29 33 4z m80 -5 c9 -11 9 -18 -3 -35 -12 -18 -16 -18 -26 -6 -13 15 -6
56 8 56 5 0 14 -7 21 -15z m76 -3 c9 -14 8 -22 -2 -37 -14 -18 -14 -18 -28 0
-10 15 -11 23 -2 37 6 10 13 18 16 18 3 0 10 -8 16 -18z m70 -26 c-3 -14 -10
-26 -16 -26 -15 0 -22 40 -9 56 17 21 33 2 25 -30z m362 -62 c1 -1 -13 -26
-33 -55 -20 -30 -38 -64 -41 -76 -4 -13 -10 -23 -14 -23 -7 0 -20 143 -20 219
l0 35 52 -49 c29 -28 54 -51 56 -51z m-628 -1 l-13 -28 -8 35 c-9 42 -2 57 19
36 13 -13 14 -19 2 -43z m81 8 c-7 -11 -16 -21 -20 -21 -15 0 -21 31 -10 52
10 18 13 19 26 5 12 -11 13 -19 4 -36z m79 28 c9 -15 8 -24 -1 -35 -10 -13
-14 -12 -30 2 -15 13 -16 20 -6 35 15 24 24 24 37 -2z m70 0 c9 -15 8 -24 -1
-36 -12 -13 -14 -13 -25 2 -10 13 -10 21 -1 36 15 23 14 23 27 -2z m39 -29
c-9 -6 -10 -12 -2 -22 8 -10 8 -18 -2 -31 -11 -15 -14 -15 -25 -3 -9 12 -8 21
6 45 10 16 22 27 27 24 5 -3 3 -9 -4 -13z m-139 -40 c0 -3 -6 -15 -14 -25 -13
-18 -14 -18 -25 3 -9 17 -9 27 0 44 11 21 12 21 25 3 8 -10 14 -22 14 -25z
m67 20 c9 -11 8 -20 -3 -34 -14 -20 -14 -20 -28 0 -13 17 -12 21 1 37 9 9 17
16 17 15 1 -2 7 -10 13 -18z m856 -56 c30 -39 80 -107 111 -152 l57 -81 -14
-53 c-9 -34 -19 -52 -28 -51 -110 13 -98 4 -203 134 -54 66 -96 123 -94 127 9
22 104 151 110 149 3 -1 31 -34 61 -73z m-1009 50 c3 -8 1 -24 -5 -35 -8 -16
-13 -18 -25 -8 -17 14 -18 31 -2 47 16 16 25 15 32 -4z m113 -84 c-13 -18 -16
-19 -27 -5 -11 13 -11 20 0 40 13 24 14 24 27 5 12 -17 12 -23 0 -40z m78 43
c10 -14 10 -22 -2 -40 -16 -23 -16 -23 -30 -4 -11 17 -11 24 -1 41 16 24 17
25 33 3z m-145 -27 c0 -7 -6 -21 -14 -31 -13 -18 -14 -18 -25 3 -16 30 3 69
25 51 8 -6 14 -17 14 -23z m-85 3 c4 -12 2 -26 -4 -32 -8 -8 -11 -7 -11 5 0 9
-3 23 -6 32 -3 9 -1 16 4 16 6 0 14 -9 17 -21z m285 0 c0 -11 -4 -17 -10 -14
-5 3 -10 13 -10 21 0 8 5 14 10 14 6 0 10 -9 10 -21z m-9 -68 c-14 -26 -23
-26 -39 -1 -10 16 -10 24 0 40 12 19 13 19 31 1 16 -15 17 -22 8 -40z m-161
-6 c-12 -23 -15 -24 -29 -11 -12 13 -12 20 -2 42 11 25 13 26 28 11 15 -14 15
-20 3 -42z m79 41 c9 -11 10 -20 1 -35 -13 -25 -19 -26 -35 -4 -10 13 -10 21
-1 35 13 22 20 22 35 4z m-152 -47 c-13 -21 -26 -20 -41 3 -7 12 -6 21 4 32
12 15 14 15 31 0 15 -13 16 -20 6 -35z m113 -9 c8 -14 8 -26 0 -41 -11 -20
-13 -20 -30 -4 -18 16 -18 19 -3 41 19 29 20 29 33 4z m78 0 c9 -16 10 -25 1
-42 l-11 -21 -18 23 c-14 19 -15 28 -7 42 15 23 19 23 35 -2z m-148 -24 c0 -6
-5 -18 -10 -26 -8 -13 -11 -12 -23 5 -18 24 -1 61 20 43 7 -6 13 -16 13 -22z
m223 12 c3 -12 3 -28 -2 -35 -6 -11 -11 -10 -25 6 -15 17 -16 23 -6 36 17 21
27 19 33 -7z m647 -98 c88 -107 90 -110 61 -110 -23 0 -39 12 -84 68 -30 37
-64 77 -76 89 -18 19 -20 27 -11 43 6 11 12 20 15 20 2 0 44 -49 95 -110z
m-940 84 c0 -8 -4 -12 -10 -9 -5 3 -10 10 -10 16 0 5 5 9 10 9 6 0 10 -7 10
-16z m32 -66 c-14 -14 -32 -1 -32 21 0 28 12 33 28 10 10 -14 11 -24 4 -31z
m73 2 c-6 -20 -8 -21 -26 -4 -14 13 -16 21 -8 36 10 18 13 19 26 5 10 -9 13
-23 8 -37z m88 6 c-19 -34 -25 -36 -43 -13 -17 20 -17 24 -3 40 15 16 18 16
34 1 10 -9 16 -22 12 -28z m77 10 c0 -7 -6 -20 -13 -30 -12 -16 -14 -16 -26 8
-12 21 -12 28 -1 41 10 12 16 13 26 4 8 -6 14 -17 14 -23z m50 -20 c0 -5 -7
-3 -15 4 -8 7 -12 17 -9 22 7 10 24 -9 24 -26z m550 -33 c30 -37 57 -70 58
-75 2 -4 -44 -8 -101 -8 l-105 0 41 75 c23 41 44 74 47 74 3 0 30 -30 60 -66z
m-790 -5 c0 -4 -9 -12 -21 -19 -32 -17 -46 3 -25 36 17 25 18 26 31 8 8 -10
15 -21 15 -25z m74 -10 c-17 -27 -49 7 -37 38 5 14 9 13 24 -7 9 -13 15 -27
13 -31z m61 4 c-35 -4 -39 1 -23 27 l13 22 19 -23 c18 -23 18 -23 -9 -26z m85
3 c-23 -22 -45 -4 -30 25 11 21 13 21 28 6 14 -14 14 -18 2 -31z m30 -5 c0 -5
-4 -10 -10 -10 -5 0 -10 5 -10 10 0 6 5 10 10 10 6 0 10 -4 10 -10z m46 -99
l22 -45 -34 -32 c-19 -17 -39 -46 -45 -64 l-12 -32 -14 30 c-8 16 -26 35 -40
43 -30 16 -111 16 -142 0 -26 -14 -51 -61 -51 -95 0 -37 48 -86 90 -92 50 -8
117 12 131 39 11 20 13 17 29 -38 10 -33 20 -67 24 -76 12 -27 -105 -61 -207
-61 -140 -1 -200 28 -254 120 -23 39 -28 58 -28 123 0 70 3 81 30 120 17 23
47 51 67 62 57 29 170 46 298 44 l115 -2 21 -44z m522 -46 c16 -46 21 -241 9
-328 l-8 -57 -59 0 -59 0 -11 57 c-13 60 -17 344 -5 363 4 6 29 10 63 8 57 -3
57 -3 70 -43z m-203 -11 c-7 -51 -8 -282 -1 -305 18 -57 17 -69 -8 -69 -13 0
-27 8 -31 17 -13 34 -25 229 -19 301 7 74 21 102 51 102 13 0 14 -8 8 -46z
m41 -136 c0 -115 4 -193 12 -210 12 -28 5 -42 -16 -29 -27 16 -38 307 -15 399
13 53 18 10 19 -160z m225 151 c16 -60 21 -226 9 -307 -10 -69 -15 -82 -31
-82 -16 0 -17 5 -12 33 10 46 10 305 0 350 -7 34 -6 38 9 35 10 -1 21 -15 25
-29z m71 -11 c14 -48 17 -273 5 -331 -7 -30 -12 -37 -32 -37 -14 0 -25 3 -25
8 0 4 5 49 10 100 9 88 1 243 -16 286 -5 12 0 16 20 16 21 0 27 -7 38 -42z
m218 2 c20 -10 51 -35 68 -55 27 -30 32 -44 32 -86 0 -112 -68 -183 -202 -209
-29 -6 -63 -13 -75 -16 -21 -4 -22 -1 -16 28 11 61 19 68 78 68 42 0 60 5 75
20 11 11 20 25 20 30 0 6 -9 19 -20 30 -16 16 -33 20 -80 20 -47 0 -60 3 -60
15 0 11 12 15 43 16 66 2 91 12 102 43 14 42 -19 66 -94 66 -53 0 -57 2 -68
29 -6 17 -9 31 -7 34 10 9 171 -16 204 -33z m-632 -7 l-3 -38 -60 -3 c-73 -4
-105 -22 -105 -61 0 -36 32 -51 105 -51 51 0 55 -2 55 -24 0 -22 -5 -24 -61
-28 -66 -5 -89 -21 -89 -63 0 -35 20 -45 92 -45 64 0 68 -1 74 -25 4 -14 4
-28 1 -31 -10 -10 -171 18 -206 36 -50 25 -67 47 -85 109 -19 64 -9 116 31
170 30 39 74 60 163 77 95 18 92 19 88 -23z m-380 -49 c26 -7 52 -51 52 -88 0
-41 -52 -76 -113 -76 -65 0 -97 26 -97 79 1 72 68 109 158 85z m955 -17 c10
-26 -11 -40 -67 -45 l-56 -4 0 31 0 31 59 0 c40 0 61 -4 64 -13z m-583 -32 l0
-35 -54 0 c-67 0 -86 7 -86 31 0 26 27 38 88 39 l52 0 0 -35z m595 -105 c15
-23 -17 -40 -76 -40 -56 0 -59 1 -59 25 0 24 2 25 64 25 36 0 68 -5 71 -10z
m-591 -46 c10 -38 -3 -46 -70 -42 -52 3 -59 6 -62 25 -3 18 4 24 30 32 18 5
47 10 64 10 26 1 33 -4 38 -25z"/>
<path d="M335 620 c3 -5 8 -10 11 -10 2 0 4 5 4 10 0 6 -5 10 -11 10 -5 0 -7
-4 -4 -10z"/>
<path d="M440 397 c-13 -7 -31 -25 -40 -40 -13 -24 -13 -30 0 -54 23 -41 81
-53 129 -28 30 17 37 26 39 56 3 30 -2 41 -24 58 -30 24 -67 27 -104 8z m98
-23 c27 -19 28 -44 2 -72 -27 -29 -83 -29 -110 -2 -26 26 -25 36 5 65 28 29
70 32 103 9z"/>
</g>
</svg>
