<?xml version="1.0" standalone="no"?>
<!DOCTYPE svg PUBLIC "-//W3C//DTD SVG 20010904//EN"
 "http://www.w3.org/TR/2001/REC-SVG-20010904/DTD/svg10.dtd">
<svg version="1.0" xmlns="http://www.w3.org/2000/svg"
 width="157.000000pt" height="184.000000pt" viewBox="0 0 157.000000 184.000000"
 preserveAspectRatio="xMidYMid meet">
<metadata>
Created by potrace 1.10, written by Peter Selinger 2001-2011
</metadata>
<g transform="translate(0.000000,184.000000) scale(0.100000,-0.100000)"
fill="#000000" stroke="none">
<path d="M1260 1798 c-14 -5 -99 -14 -190 -19 -233 -12 -369 -31 -474 -65 -47
-16 -49 -16 -79 7 -66 49 -212 32 -299 -34 -59 -46 -115 -122 -128 -177 -10
-40 -8 -54 9 -99 20 -53 20 -53 0 -80 -46 -62 -72 -256 -72 -531 0 -221 13
-294 62 -339 l27 -24 -18 -51 c-21 -62 -23 -177 -4 -214 54 -102 207 -161 390
-149 67 4 103 13 209 57 158 63 232 80 367 80 104 0 117 -3 172 -42 19 -14 31
-16 56 -9 20 6 42 6 61 -2 89 -33 159 150 103 274 -11 24 -35 59 -55 78 l-35
33 34 31 c19 16 42 43 50 59 46 88 66 477 31 593 -10 33 -28 76 -39 95 -16 27
-17 35 -6 39 7 2 26 18 41 35 34 35 32 72 -4 142 -22 41 -22 42 -4 99 33 106
19 164 -48 205 -35 22 -115 26 -157 8z m152 -48 c36 -28 42 -70 17 -133 -24
-60 -20 -107 12 -161 24 -40 20 -62 -17 -97 -22 -20 -40 -25 -117 -31 -51 -4
-104 -10 -118 -13 -20 -5 -32 -1 -48 16 -35 37 -28 64 24 89 73 36 107 98 80
150 -16 31 -42 39 -63 18 -17 -17 -15 -33 3 -18 24 20 45 4 45 -34 0 -28 -8
-41 -42 -70 -92 -79 -205 -53 -224 51 -20 106 62 180 259 232 96 26 157 27
189 1z m-352 -18 c0 -4 -14 -16 -31 -26 -39 -23 -87 -89 -95 -132 -16 -86 36
-167 114 -180 34 -5 41 -11 46 -35 3 -16 14 -37 25 -48 19 -19 18 -20 -44 -84
-75 -76 -89 -117 -58 -169 10 -18 30 -39 44 -46 24 -13 98 -11 133 3 17 8 17
7 1 -25 -30 -58 0 -110 63 -110 20 1 71 14 112 30 41 17 77 30 80 30 7 0 -6
-203 -15 -255 -19 -99 -79 -163 -185 -196 -102 -31 -263 -52 -410 -53 -116 -1
-139 2 -162 18 -34 22 -35 45 -5 78 24 26 66 35 247 54 76 8 161 37 195 67 48
43 48 152 0 171 -43 16 -74 5 -153 -54 -68 -52 -89 -62 -143 -72 -98 -16 -114
-29 -154 -113 -30 -64 -42 -78 -78 -96 -87 -45 -241 -38 -267 11 -14 26 -28
25 -32 -1 -2 -12 -15 -31 -30 -42 -56 -41 -154 13 -177 99 -18 69 -23 204 -13
390 11 205 20 233 92 298 65 59 92 66 242 66 211 0 320 33 382 115 40 51 27
52 -25 2 -63 -61 -151 -88 -279 -88 -53 0 -104 3 -112 6 -22 9 -121 -11 -165
-32 -20 -9 -51 -32 -70 -50 -37 -38 -43 -25 -12 27 33 55 67 87 159 148 47 31
117 89 157 129 54 54 86 76 129 93 78 29 194 50 349 65 72 7 133 13 138 14 4
0 7 -3 7 -7z m-571 -34 c11 -7 21 -16 21 -20 0 -12 -41 -20 -53 -10 -63 50
-216 -18 -267 -119 -20 -38 -29 -107 -17 -126 4 -6 0 -16 -8 -23 -12 -10 -16
-8 -25 15 -14 37 -13 100 4 138 23 56 119 133 196 158 34 11 123 4 149 -13z
m-79 -38 c0 -5 -11 -10 -23 -10 -28 0 -100 -49 -123 -85 -9 -14 -19 -45 -22
-70 -3 -32 -11 -49 -28 -60 -24 -15 -24 -15 -24 25 0 55 20 98 67 143 51 49
153 87 153 57z m30 -17 c0 -18 -46 -53 -71 -53 -31 0 -59 -31 -59 -66 0 -12
-11 -29 -25 -38 -24 -16 -25 -16 -25 9 0 58 59 123 130 143 45 13 50 13 50 5z
m-60 -70 c0 -10 -42 -53 -52 -53 -14 0 -9 19 12 40 20 20 40 26 40 13z m869
-278 c-3 -2 -33 -22 -66 -44 -78 -50 -120 -115 -102 -155 8 -17 25 -30 50 -37
32 -10 44 -8 93 14 30 14 87 46 126 71 69 45 90 54 90 38 0 -11 -216 -136
-259 -151 -56 -18 -92 -14 -123 16 -33 31 -36 65 -10 108 30 49 110 119 150
132 41 13 58 16 51 8z m140 -32 c17 -21 31 -40 31 -44 0 -10 -112 -85 -177
-118 -72 -36 -92 -38 -123 -13 -44 35 -6 98 99 168 88 57 127 59 170 7z m45
-140 c-10 -8 -52 -36 -92 -64 -77 -53 -102 -90 -80 -116 17 -20 76 -12 141 21
49 24 72 27 51 6 -20 -19 -155 -70 -188 -70 -69 0 -85 49 -33 106 37 41 198
144 211 136 5 -3 1 -12 -10 -19z m16 -66 c0 -52 -1 -54 -37 -72 -162 -78 -190
-27 -40 74 39 27 73 50 75 50 1 1 2 -23 2 -52z m-338 -274 c31 -28 23 -71 -22
-116 -22 -22 -44 -36 -48 -32 -4 4 -1 10 6 12 19 7 42 58 42 93 0 25 -6 34
-32 45 l-33 14 34 1 c19 0 43 -7 53 -17z m-44 -46 c7 -63 -93 -137 -147 -108
-21 12 -28 45 -13 67 4 6 27 25 52 43 57 41 103 40 108 -2z m-185 -71 c-4 -17
2 -28 18 -40 23 -16 23 -16 -21 -16 -49 0 -144 -14 -174 -26 -17 -7 -17 -5 -2
24 20 38 38 49 118 66 35 8 64 14 64 15 1 1 -1 -10 -3 -23z m-497 -236 c9 0
10 -8 4 -29 -12 -42 -1 -77 33 -111 62 -60 122 -61 417 -2 169 33 335 37 391
9 58 -29 75 -86 38 -128 l-20 -24 11 23 c14 30 -6 64 -53 89 -66 34 -262 16
-510 -49 -213 -56 -368 -41 -426 41 -18 25 -23 45 -22 95 0 56 4 67 28 92 l28
29 35 -17 c19 -10 40 -18 46 -18z m235 -9 c-17 -40 -1 -68 48 -81 29 -7 76 -6
178 5 272 29 389 38 426 31 107 -20 131 -121 49 -209 -14 -15 -32 -27 -40 -27
-12 0 -12 4 3 20 27 30 25 93 -5 125 -56 60 -196 68 -424 24 -154 -30 -312
-49 -347 -42 -48 9 -99 63 -99 104 0 48 9 56 61 57 25 1 68 10 95 20 57 22 72
15 55 -27z m746 7 c75 -76 95 -173 51 -238 -45 -66 -87 -68 -51 -2 51 89 32
156 -54 194 -56 25 -139 22 -412 -12 -212 -27 -254 -23 -259 28 -2 17 -2 32 0
32 2 0 21 -7 43 -15 84 -30 446 -9 565 34 30 11 60 20 65 20 6 1 30 -18 52
-41z m-1165 -18 l34 0 -4 -64 c-5 -80 17 -123 86 -163 38 -22 61 -28 135 -31
94 -5 147 3 282 43 255 76 487 77 510 4 11 -33 -10 -46 -36 -23 -17 16 -39 20
-128 22 -126 4 -248 -22 -398 -87 -154 -66 -251 -77 -364 -41 -76 23 -165 75
-191 111 -28 38 -35 133 -13 198 14 44 19 50 35 41 10 -6 34 -10 52 -10z"/>
<path d="M851 1341 c-56 -23 -116 -73 -137 -114 -9 -18 -18 -33 -19 -35 -2 -2
-15 4 -29 14 -55 35 -176 -9 -211 -76 -9 -17 -13 -35 -10 -40 7 -12 -35 -50
-56 -50 -31 0 -49 12 -49 32 0 11 -5 18 -12 15 -14 -5 -12 -35 4 -54 14 -18
70 -16 94 2 24 18 34 19 34 1 0 -7 -14 -16 -31 -20 -75 -15 -134 -140 -132
-283 2 -133 20 -135 26 -2 6 131 24 194 72 244 23 25 41 35 63 35 41 0 67 -36
57 -80 -8 -38 12 -41 21 -3 5 17 2 37 -8 53 l-15 27 44 1 c82 1 172 74 158
129 -12 51 64 146 145 182 69 30 114 35 149 18 33 -17 44 -5 12 13 -30 16
-121 11 -170 -9z m-177 -173 c9 -12 16 -30 16 -39 0 -42 -79 -99 -140 -101
-60 -2 -90 60 -54 111 36 51 150 70 178 29z"/>
<path d="M1015 884 c-16 -8 -55 -40 -86 -70 -32 -29 -60 -54 -62 -54 -28 0
-167 -36 -185 -48 -13 -8 -38 -45 -56 -81 -20 -42 -44 -74 -66 -88 -26 -18
-29 -23 -13 -23 26 0 76 55 101 112 25 58 47 72 142 94 92 20 96 22 171 89 63
56 99 71 149 60 86 -19 105 -160 33 -246 -33 -39 -93 -69 -138 -69 -19 0 -35
-4 -35 -10 0 -5 17 -10 38 -10 45 0 132 47 160 87 66 94 48 225 -35 259 -42
18 -81 18 -118 -2z"/>
<path d="M202 743 c-10 -19 -4 -103 7 -103 3 0 7 27 8 60 2 64 -1 71 -15 43z"/>
<path d="M1267 694 c-3 -32 -13 -54 -33 -75 -37 -39 -25 -47 15 -10 27 25 31
36 31 80 0 63 -6 66 -13 5z"/>
</g>
</svg>
