<?xml version="1.0" standalone="no"?>
<!DOCTYPE svg PUBLIC "-//W3C//DTD SVG 20010904//EN"
 "http://www.w3.org/TR/2001/REC-SVG-20010904/DTD/svg10.dtd">
<svg version="1.0" xmlns="http://www.w3.org/2000/svg"
 width="148.000000pt" height="205.000000pt" viewBox="0 0 148.000000 205.000000"
 preserveAspectRatio="xMidYMid meet">
<metadata>
Created by potrace 1.10, written by Peter Selinger 2001-2011
</metadata>
<g transform="translate(0.000000,205.000000) scale(0.100000,-0.100000)"
fill="#000000" stroke="none">
<path d="M665 2003 c-86 -6 -190 -26 -232 -44 -39 -16 -47 -26 -77 -91 -38
-83 -64 -110 -143 -153 -79 -42 -97 -70 -96 -148 1 -85 20 -120 78 -143 l45
-17 -44 -44 c-60 -59 -102 -134 -128 -229 -18 -68 -22 -107 -22 -269 -1 -218
9 -273 58 -332 18 -21 46 -64 61 -96 31 -62 85 -118 140 -144 19 -9 35 -20 35
-25 0 -14 -48 -28 -93 -28 -64 -1 -120 -17 -139 -41 -28 -33 -24 -95 8 -124
27 -25 30 -25 209 -25 151 0 185 3 195 15 11 13 17 12 46 -10 40 -30 99 -40
189 -30 47 5 73 13 92 29 24 21 29 22 52 10 51 -27 351 -13 388 18 21 17 26
73 9 106 -18 35 -30 41 -108 49 -60 6 -96 23 -85 40 3 5 35 24 71 42 79 39
128 91 173 187 55 115 70 228 54 390 -29 289 -54 373 -139 466 -14 15 -24 29
-21 31 2 2 36 16 74 32 90 38 111 59 120 122 10 75 -7 128 -48 143 -84 32 -93
42 -127 153 -27 87 -56 112 -160 138 -66 16 -121 21 -240 23 -85 1 -173 1
-195 -1z m-15 -37 c0 -11 -19 -15 -25 -6 -3 5 1 10 9 10 9 0 16 -2 16 -4z m62
-8 c-9 -9 -15 -9 -24 0 -9 9 -7 12 12 12 19 0 21 -3 12 -12z m149 -85 l-26
-83 -57 0 c-68 0 -69 2 -35 95 l22 60 60 5 c33 3 61 5 61 5 1 0 -10 -37 -25
-82z m32 -4 c-15 -46 -29 -76 -31 -66 -5 28 43 165 54 154 2 -2 -8 -42 -23
-88z m122 81 c-3 -5 -12 -10 -18 -10 -7 0 -6 4 3 10 19 12 23 12 15 0z m-420
-66 c-8 -32 -15 -70 -15 -86 0 -15 -4 -30 -10 -33 -15 -9 -12 42 5 109 16 61
24 80 31 73 3 -2 -2 -30 -11 -63z m67 44 c-7 -7 -12 -8 -12 -2 0 14 12 26 19
19 2 -3 -1 -11 -7 -17z m85 10 c-3 -7 -13 -38 -23 -68 -27 -89 -26 -86 -31
-72 -7 18 36 152 48 152 6 0 8 -6 6 -12z m-183 -43 c-7 -25 -15 -66 -16 -90
-3 -42 -6 -46 -38 -56 -59 -19 -119 -62 -136 -98 -21 -45 -5 -103 41 -146 l32
-31 -66 -19 c-72 -21 -101 -21 -146 2 -58 29 -65 41 -65 108 0 68 15 90 78
115 63 24 113 69 138 123 13 29 24 59 24 68 0 26 32 47 85 57 88 17 85 18 69
-33z m416 36 c0 -12 -20 -25 -27 -18 -7 7 6 27 18 27 5 0 9 -4 9 -9z m42 -74
c-27 -78 -48 -106 -31 -41 14 49 49 128 54 122 3 -2 -8 -39 -23 -81z m106 68
c57 -17 74 -39 87 -110 14 -81 46 -121 123 -155 41 -19 42 -20 42 -70 0 -28
-5 -60 -11 -72 -10 -19 -146 -88 -174 -88 -8 0 -34 9 -57 19 -24 11 -52 22
-62 26 -18 5 -17 7 10 21 45 24 65 45 86 92 34 75 -4 139 -104 173 -32 11 -52
23 -50 31 4 19 53 148 56 148 1 0 26 -7 54 -15z m-488 -15 c0 -5 -4 -10 -10
-10 -5 0 -10 5 -10 10 0 6 5 10 10 10 6 0 10 -4 10 -10z m60 0 c0 -5 -4 -10
-10 -10 -5 0 -10 5 -10 10 0 6 5 10 10 10 6 0 10 -4 10 -10z m238 -12 c-2 -6
-10 -14 -16 -16 -7 -2 -10 2 -6 12 7 18 28 22 22 4z m62 -3 c0 -8 -4 -15 -10
-15 -5 0 -10 7 -10 15 0 8 5 15 10 15 6 0 10 -7 10 -15z m-330 -3 c0 -5 -12
-15 -27 -23 -47 -23 -49 -22 -19 5 30 26 46 33 46 18z m15 -31 c-3 -6 -11 -11
-17 -11 -6 0 -6 6 2 15 14 17 26 13 15 -4z m285 10 c0 -12 -28 -22 -34 -12 -3
5 -3 11 1 15 9 9 33 7 33 -3z m-40 -32 c0 -5 -7 -9 -15 -9 -15 0 -20 12 -9 23
8 8 24 -1 24 -14z m-280 -4 c0 -8 -7 -15 -15 -15 -26 0 -18 20 13 29 1 1 2 -6
2 -14z m330 5 c0 -5 -4 -10 -10 -10 -5 0 -10 5 -10 10 0 6 5 10 10 10 6 0 10
-4 10 -10z m-30 -20 c0 -5 -5 -10 -11 -10 -5 0 -7 5 -4 10 3 6 8 10 11 10 2 0
4 -4 4 -10z m-280 -16 c0 -8 -5 -12 -10 -9 -6 4 -8 11 -5 16 9 14 15 11 15 -7z
m-50 2 c0 -3 -4 -8 -10 -11 -5 -3 -10 -1 -10 4 0 6 5 11 10 11 6 0 10 -2 10
-4z m300 -6 c0 -5 -5 -10 -11 -10 -5 0 -7 5 -4 10 3 6 8 10 11 10 2 0 4 -4 4
-10z m46 -17 c-10 -10 -19 5 -10 18 6 11 8 11 12 0 2 -7 1 -15 -2 -18z m-326
3 c0 -3 -4 -8 -10 -11 -5 -3 -10 -1 -10 4 0 6 5 11 10 11 6 0 10 -2 10 -4z
m418 -41 c89 -31 123 -95 88 -164 -16 -30 -80 -77 -120 -87 -39 -9 -31 3 12
21 20 9 49 28 65 42 58 56 23 144 -69 174 -55 17 -320 23 -402 9 -121 -21
-212 -79 -212 -136 0 -27 52 -90 82 -100 14 -4 17 -9 10 -16 -14 -14 -79 20
-105 54 -28 37 -26 92 4 124 34 36 71 54 169 81 77 21 102 23 255 20 132 -3
182 -8 223 -22z m-44 -46 c49 -13 86 -44 86 -74 0 -30 -56 -81 -110 -100 -35
-13 -68 -15 -145 -11 -55 3 -136 2 -180 -3 -75 -8 -83 -7 -129 18 -114 60 -93
122 58 171 86 28 314 27 420 -1z m19 -263 c139 -38 217 -107 260 -232 41 -120
59 -263 55 -439 -4 -143 -6 -153 -35 -215 -48 -102 -85 -146 -153 -180 -33
-17 -60 -28 -60 -25 0 3 12 29 26 57 72 141 109 323 101 493 -10 194 -53 326
-129 391 -118 99 -365 124 -546 54 -97 -37 -191 -96 -224 -141 -55 -74 -78
-211 -78 -470 0 -148 -2 -169 -19 -190 -16 -20 -22 -22 -44 -12 -82 38 -108
156 -89 402 19 233 54 330 150 412 48 41 168 83 298 104 117 19 404 14 487 -9z
m-743 -30 c0 -2 -7 -6 -15 -10 -8 -3 -15 -1 -15 4 0 6 7 10 15 10 8 0 15 -2
15 -4z m400 -76 c0 -5 -2 -10 -4 -10 -3 0 -8 5 -11 10 -3 6 -1 10 4 10 6 0 11
-4 11 -10z m288 -15 c141 -43 222 -212 222 -462 l0 -98 -44 3 c-66 6 -143 -21
-207 -72 -90 -71 -136 -190 -92 -238 32 -36 77 -11 89 50 9 43 65 106 117 131
51 25 105 28 113 6 9 -21 -40 -168 -79 -240 l-32 -60 -65 -12 c-36 -6 -103
-15 -150 -19 -84 -7 -85 -7 -67 13 21 25 22 51 0 75 -24 26 -69 23 -89 -7 -16
-24 -12 -65 7 -65 5 0 9 -4 9 -10 0 -11 -85 -5 -259 20 -136 20 -183 42 -228
109 -28 42 -29 51 -3 51 12 0 31 10 44 23 22 22 23 31 30 247 7 212 17 303 37
342 8 15 13 15 61 -3 29 -10 59 -17 65 -14 7 2 17 -5 23 -15 6 -11 17 -20 24
-20 7 0 16 -14 20 -30 7 -36 43 -54 80 -40 51 19 38 -43 -28 -132 -55 -74 -64
-113 -42 -171 21 -55 33 -73 42 -64 5 4 0 22 -11 39 -28 48 -24 109 11 159 16
23 40 58 54 78 19 28 25 49 25 92 0 40 5 60 19 74 13 14 17 28 13 56 -4 29 0
42 14 55 19 17 26 68 10 78 -5 3 -9 27 -9 52 l-1 47 112 -6 c62 -3 136 -13
165 -22z m-314 -4 c18 -19 15 -61 -4 -61 -5 0 -15 -3 -23 -6 -10 -3 -20 5 -30
24 -13 27 -13 32 1 46 21 21 35 20 56 -3z m-100 -31 c53 -20 18 -95 -40 -88
-21 2 -31 11 -39 31 -8 25 -6 31 15 48 29 22 31 22 64 9z m134 -67 c-2 -14 -9
-29 -17 -31 -8 -3 -11 0 -7 6 3 6 2 14 -4 17 -8 5 -7 11 1 21 18 22 31 16 27
-13z m-220 -23 c18 -24 20 -34 12 -50 -13 -23 -57 -27 -85 -7 -33 25 -3 81 46
86 3 1 15 -13 27 -29z m172 -3 c13 -24 13 -28 -6 -53 -29 -40 -44 -41 -44 -5
0 16 -4 33 -10 36 -13 8 19 57 34 52 6 -2 18 -15 26 -30z m-272 -62 c-9 -9
-30 14 -23 25 6 9 10 8 17 -4 6 -10 8 -19 6 -21z m196 19 c11 -28 6 -43 -18
-59 -19 -12 -30 -14 -44 -6 -19 10 -19 12 -3 45 17 38 54 49 65 20z m95 -56
c-8 -14 -14 -17 -22 -9 -7 7 -6 15 3 25 17 22 32 9 19 -16z m-41 -34 c4 -28
-24 -56 -52 -52 -30 4 -33 38 -5 60 30 22 53 19 57 -8z m561 -333 c9 -6 11
-18 7 -34 -5 -23 -9 -24 -50 -20 -24 3 -61 0 -81 -7 -55 -18 -119 -86 -140
-149 -20 -61 -48 -68 -53 -13 -7 73 86 180 188 215 51 17 108 21 129 8z m-418
-347 c17 -21 0 -49 -32 -49 -24 0 -36 23 -25 51 7 19 40 18 57 -2z m-400 -77
c-8 -8 -16 -7 -27 5 -14 14 -14 15 11 10 19 -3 23 -8 16 -15z m719 3 c-6 -11
-15 -18 -21 -14 -6 4 -6 11 2 20 17 21 31 17 19 -6z m-582 -63 c-5 -10 -8 -47
-6 -81 l3 -61 -85 -8 c-120 -11 -248 -2 -271 19 -24 22 -24 49 0 73 14 14 41
20 112 26 100 7 119 15 119 49 0 21 2 21 69 12 65 -9 69 -11 59 -29z m566 -8
c12 -6 58 -18 101 -27 71 -15 79 -20 86 -44 14 -54 -4 -62 -157 -69 -119 -6
-144 -5 -173 9 -33 17 -33 18 -35 90 l-1 72 35 1 c19 0 53 3 75 7 34 7 40 5
43 -11 2 -10 14 -23 26 -28z m-441 -4 c-15 -93 74 -155 127 -88 18 23 21 37
17 76 l-4 48 41 -3 c37 -3 41 -6 47 -36 9 -45 -5 -94 -36 -125 -57 -56 -241
-41 -275 22 -13 26 -13 84 2 116 9 20 18 25 49 25 38 0 38 0 32 -35z m123 -2
c12 -63 -40 -117 -80 -84 -17 14 -28 66 -20 97 5 21 12 24 50 24 42 0 43 -1
50 -37z"/>
<path d="M917 1679 c-9 -5 -26 -28 -38 -51 -19 -36 -19 -42 -5 -56 13 -14 17
-13 41 2 37 24 62 80 45 101 -15 18 -19 18 -43 4z m16 -50 c-22 -38 -43 -57
-43 -39 0 21 34 70 48 70 10 0 9 -7 -5 -31z"/>
<path d="M668 1668 c-26 -22 -58 -75 -58 -97 0 -26 31 -28 52 -3 54 61 59 142
6 100z m1 -57 c-12 -23 -26 -41 -31 -41 -13 0 -10 8 18 50 34 51 43 44 13 -9z"/>
<path d="M1076 884 c-21 -21 -20 -57 2 -77 23 -21 41 -21 70 -1 27 19 28 48 2
74 -24 24 -53 26 -74 4z m68 -26 c8 -14 7 -21 -6 -34 -30 -30 -75 9 -48 42 16
18 39 15 54 -8z"/>
<path d="M887 812 c-24 -26 -21 -68 5 -86 32 -23 54 -20 77 10 43 55 -35 128
-82 76z m57 -8 c20 -8 21 -48 2 -63 -11 -9 -20 -10 -35 -1 -26 13 -27 45 -3
59 21 13 17 12 36 5z"/>
<path d="M751 716 c-18 -19 -22 -32 -17 -51 13 -49 80 -53 106 -5 14 27 13 37
-10 60 -27 27 -52 25 -79 -4z m63 -12 c21 -20 20 -27 -3 -48 -15 -14 -24 -15
-40 -6 -25 13 -26 27 -4 52 20 22 27 22 47 2z"/>
<path d="M683 560 c-49 -20 -32 -110 20 -110 60 0 87 61 45 100 -24 22 -32 23
-65 10z m56 -34 c9 -11 10 -20 1 -36 -13 -25 -47 -24 -63 2 -22 34 36 66 62
34z"/>
<path d="M439 240 c-1 -3 -3 -18 -5 -34 -2 -16 -7 -33 -12 -38 -5 -5 -57 -15
-115 -21 -60 -6 -104 -15 -100 -20 6 -11 185 0 220 14 26 10 43 73 24 92 -6 6
-12 9 -12 7z"/>
<path d="M976 193 c12 -50 19 -53 126 -53 74 0 99 3 96 12 -3 8 -21 11 -52 9
-26 -1 -70 0 -96 4 -39 5 -49 11 -52 28 -2 11 -9 22 -16 25 -9 3 -11 -4 -6
-25z"/>
</g>
</svg>
