<?xml version="1.0" standalone="no"?>
<!DOCTYPE svg PUBLIC "-//W3C//DTD SVG 20010904//EN"
 "http://www.w3.org/TR/2001/REC-SVG-20010904/DTD/svg10.dtd">
<svg version="1.0" xmlns="http://www.w3.org/2000/svg"
 width="186.000000pt" height="179.000000pt" viewBox="0 0 186.000000 179.000000"
 preserveAspectRatio="xMidYMid meet">
<metadata>
Created by potrace 1.10, written by Peter Selinger 2001-2011
</metadata>
<g transform="translate(0.000000,179.000000) scale(0.100000,-0.100000)"
fill="#000000" stroke="none">
<path d="M1552 1715 c-100 -31 -163 -114 -196 -259 l-7 -29 -22 21 c-12 11
-47 33 -77 48 -69 33 -87 50 -111 96 -13 26 -30 40 -61 52 -62 23 -185 34
-333 30 -281 -8 -376 -37 -431 -133 -37 -65 -51 -76 -120 -96 -55 -16 -99 -56
-110 -101 -19 -77 24 -165 98 -201 21 -10 38 -21 38 -24 0 -4 -14 -12 -31 -19
-66 -28 -118 -140 -139 -300 -24 -176 -7 -401 39 -522 38 -98 138 -176 278
-214 80 -21 341 -30 473 -15 257 29 362 59 412 119 32 39 41 39 62 7 41 -62
160 -84 242 -45 51 25 120 97 141 148 27 65 53 214 53 307 0 53 -11 155 -26
245 -48 277 -32 517 41 648 14 25 25 55 25 68 0 12 5 26 11 29 5 4 14 18 19
31 14 36 -11 86 -55 107 -43 21 -150 22 -213 2z m225 -47 c19 -20 24 -32 19
-51 -8 -32 -37 -45 -33 -16 6 57 -121 85 -193 43 -117 -68 -162 -248 -159
-633 1 -159 -2 -223 -11 -243 -22 -47 -54 -31 -62 30 -3 22 0 32 8 32 29 0 33
41 31 306 -2 235 0 278 17 342 19 75 57 137 107 174 39 29 117 48 187 45 52
-3 67 -7 89 -29z m-49 -34 c30 -21 21 -49 -30 -93 -52 -45 -83 -109 -108 -227
-33 -158 -36 -327 -10 -537 28 -222 25 -323 -10 -392 -49 -93 -104 -103 -190
-34 -41 33 -41 33 -38 96 2 35 4 63 5 63 0 0 17 -16 36 -35 42 -42 69 -44 101
-10 31 33 33 61 23 280 -19 397 -12 529 35 678 33 104 106 177 175 177 20 0
24 3 15 12 -16 16 -82 -5 -121 -38 -41 -34 -66 -77 -89 -154 -46 -148 -52
-244 -38 -661 l9 -256 -27 -18 c-26 -17 -28 -17 -53 2 -43 31 -61 79 -65 170
-3 73 -1 80 14 72 11 -6 21 -4 32 6 30 31 38 93 31 244 -12 254 26 512 88 593
18 22 48 49 67 59 43 23 118 25 148 3z m-1094 -46 c-8 -24 -18 -69 -21 -100
-5 -52 -8 -58 -29 -58 -12 0 -30 -3 -40 -7 -15 -5 -16 -1 -10 43 4 27 14 72
23 101 16 53 17 54 80 62 9 1 8 -10 -3 -41z m41 25 c-4 -10 -15 -56 -25 -103
-13 -58 -19 -74 -19 -50 -1 33 23 142 35 161 9 16 16 9 9 -8z m180 0 c-16 -40
-34 -100 -40 -135 l-6 -36 -75 -4 c-42 -2 -77 -2 -78 -1 -5 5 11 107 23 151
l12 42 85 0 c78 0 85 -2 79 -17z m15 -52 c-11 -34 -20 -73 -20 -86 0 -13 -4
-27 -10 -30 -5 -3 -10 -4 -10 -1 0 16 32 140 42 161 19 43 18 22 -2 -44z m98
57 c-2 -7 -12 -50 -23 -95 -20 -83 -20 -83 -52 -83 -41 0 -42 15 -12 118 22
71 22 72 56 72 23 0 33 -4 31 -12z m125 -29 c12 -16 32 -43 45 -59 13 -16 53
-43 90 -60 97 -46 112 -63 112 -124 0 -65 -30 -111 -111 -171 l-59 -43 -37 19
c-20 10 -46 19 -57 19 -16 0 -12 7 21 38 100 94 70 196 -66 223 l-58 11 13 67
c19 103 28 119 59 114 14 -3 36 -18 48 -34z m-579 -5 c-8 -19 -18 -65 -21
-101 -3 -35 -11 -66 -17 -68 -6 -2 -37 -11 -68 -19 -95 -27 -140 -110 -96
-176 13 -18 30 -36 38 -38 8 -3 2 9 -13 27 -33 40 -34 77 -4 122 43 65 180 92
477 93 219 1 256 -4 300 -40 52 -44 37 -124 -34 -177 -52 -40 -56 -33 -8 16
55 56 70 98 47 133 -33 51 -72 59 -275 59 -352 -1 -510 -44 -510 -141 0 -25 9
-42 36 -70 29 -28 32 -35 15 -29 -11 3 -21 2 -21 -3 0 -10 -53 -22 -101 -24
-57 -2 -149 94 -149 154 0 42 40 89 94 110 69 26 102 52 131 102 37 63 67 86
121 95 78 13 75 15 58 -25z m35 0 c-6 -16 -17 -60 -24 -99 -11 -59 -13 -64
-14 -29 -1 35 22 133 36 157 11 19 13 -2 2 -29z m430 -55 c-23 -91 -35 -117
-26 -54 8 51 37 148 43 143 2 -3 -6 -42 -17 -89z m775 13 c3 -5 -4 -27 -15
-49 -42 -85 -71 -213 -74 -328 -3 -112 -1 -133 36 -400 24 -168 21 -244 -12
-371 -26 -99 -59 -164 -101 -196 -107 -82 -194 -78 -258 12 -19 27 -20 33 -8
93 l12 65 40 -34 c81 -69 158 -52 208 46 43 83 45 149 13 405 -26 203 -27 229
-16 340 20 217 53 330 113 393 32 32 52 40 62 24z m-696 -161 c67 -26 63 -91
-10 -157 -39 -35 -43 -36 -92 -30 -135 16 -324 17 -431 3 -105 -14 -111 -14
-136 4 -32 22 -38 43 -27 86 15 56 90 85 268 103 111 12 389 6 428 -9z m298
-380 c7 -127 6 -133 -11 -129 -13 2 -22 16 -27 41 -10 49 -51 128 -88 170
l-30 34 44 28 c23 15 54 40 67 56 l24 30 7 -48 c3 -27 10 -108 14 -182z m-433
158 c93 -7 154 -17 183 -30 55 -23 123 -91 152 -149 46 -96 64 -344 42 -572
-11 -109 -38 -178 -89 -221 -88 -74 -379 -115 -690 -97 -151 9 -216 28 -306
90 -104 71 -131 166 -129 455 1 332 34 416 184 479 110 45 397 65 653 45z"/>
<path d="M606 1339 c-15 -17 -34 -45 -42 -61 -14 -28 -14 -32 0 -47 12 -12 21
-13 34 -5 25 16 83 105 80 123 -6 29 -44 24 -72 -10z m54 1 c0 -35 -72 -121
-84 -101 -7 11 14 51 48 89 21 24 36 29 36 12z"/>
<path d="M888 1359 c-22 -12 -68 -90 -68 -113 0 -9 7 -19 15 -22 23 -9 59 19
85 68 32 62 16 96 -32 67z m30 -39 c-11 -33 -65 -96 -74 -87 -12 11 5 52 36
90 36 42 54 41 38 -3z"/>
<path d="M705 1070 c-119 -7 -261 -40 -312 -71 -105 -65 -146 -188 -138 -408
3 -56 12 -129 21 -162 43 -154 185 -219 448 -206 150 8 242 27 326 69 57 29
68 40 93 89 18 36 32 84 39 135 12 97 3 293 -17 361 -18 59 -81 135 -135 163
-30 15 -190 45 -210 38 -3 -1 -54 -4 -115 -8z m307 -40 c26 -12 63 -39 82 -61
55 -60 69 -124 70 -324 2 -295 -32 -339 -304 -391 -99 -19 -342 -15 -400 6
-87 32 -139 85 -169 170 -18 53 -25 253 -12 338 12 77 38 141 75 180 64 72
254 113 486 108 104 -3 133 -7 172 -26z"/>
<path d="M605 1003 c-60 -8 -138 -35 -174 -59 -77 -50 -106 -156 -99 -354 4
-107 7 -124 34 -176 24 -47 38 -62 79 -83 45 -24 62 -26 195 -30 269 -6 388
30 440 134 24 47 25 59 25 215 0 219 -18 272 -113 327 -45 27 -52 28 -202 29
-85 1 -168 0 -185 -3z m185 -13 c0 -5 -4 -10 -8 -10 -11 0 -48 -35 -61 -57 -8
-16 -12 -15 -32 10 -12 16 -33 34 -48 40 -23 10 -18 12 49 17 41 4 81 7 88 8
6 1 12 -2 12 -8z m179 -30 c75 -38 99 -98 67 -173 -15 -36 -79 -97 -101 -97
-8 0 -15 -4 -15 -10 0 -5 14 -10 30 -10 46 0 83 -23 109 -70 39 -70 16 -162
-55 -216 -42 -33 -126 -44 -175 -24 -32 14 -73 69 -85 114 -8 32 -20 26 -29
-15 -10 -45 -82 -115 -131 -128 -131 -35 -261 111 -197 220 22 36 82 79 123
88 17 3 31 11 31 16 -1 11 -5 12 -51 14 -38 1 -95 52 -110 96 -32 97 110 221
223 195 58 -13 107 -68 107 -120 0 -36 18 -21 25 20 7 44 45 97 79 110 38 16
115 11 155 -10z m121 -248 c7 -129 6 -149 -6 -116 -12 32 -54 84 -70 84 -20 0
-18 6 17 50 18 23 33 54 36 79 9 68 16 38 23 -97z m-670 -39 c35 -20 37 -29
10 -38 -10 -3 -34 -28 -51 -56 -18 -27 -34 -49 -37 -49 -2 0 -2 42 2 93 3 50
6 103 6 117 1 23 2 22 20 -12 11 -20 33 -45 50 -55z m341 -288 c17 -19 42 -38
55 -41 13 -3 24 -10 24 -14 0 -8 -209 -24 -216 -17 -3 2 11 14 29 25 19 11 43
34 53 51 10 17 20 31 21 31 2 0 17 -16 34 -35z"/>
<path d="M700 669 c-25 -46 15 -93 58 -70 28 15 35 40 17 67 -20 30 -60 32
-75 3z m65 -29 c0 -18 -6 -26 -23 -28 -24 -4 -38 18 -28 44 3 9 15 14 28 12
17 -2 23 -10 23 -28z"/>
</g>
</svg>
