<?xml version="1.0" standalone="no"?>
<!DOCTYPE svg PUBLIC "-//W3C//DTD SVG 20010904//EN"
 "http://www.w3.org/TR/2001/REC-SVG-20010904/DTD/svg10.dtd">
<svg version="1.0" xmlns="http://www.w3.org/2000/svg"
 width="171.000000pt" height="191.000000pt" viewBox="0 0 171.000000 191.000000"
 preserveAspectRatio="xMidYMid meet">
<metadata>
Created by potrace 1.10, written by Peter Selinger 2001-2011
</metadata>
<g transform="translate(0.000000,191.000000) scale(0.100000,-0.100000)"
fill="#000000" stroke="none">
<path d="M529 1815 c-175 -25 -296 -79 -347 -155 -20 -30 -23 -43 -19 -89 4
-31 13 -61 24 -73 21 -23 85 -58 108 -58 24 0 18 -14 -13 -27 -43 -20 -120
-101 -148 -158 -39 -80 -54 -149 -60 -270 -13 -248 78 -437 249 -519 49 -23
50 -25 27 -32 -62 -19 -126 -61 -142 -94 -41 -81 -7 -187 72 -227 59 -30 116
-40 307 -54 188 -14 565 -6 701 15 155 23 231 90 232 200 0 43 -4 53 -38 86
-21 21 -60 46 -89 56 l-52 18 57 27 c111 54 185 140 224 262 17 50 21 88 21
202 -1 203 -33 330 -104 406 -36 38 -36 49 -4 49 16 0 39 14 63 38 128 128 34
287 -213 361 -156 47 -643 67 -856 36z m347 -35 c25 -37 28 -39 40 -23 12 16
13 16 14 2 0 -21 -31 -34 -41 -18 -4 6 -12 8 -18 5 -17 -11 14 -37 33 -30 9 3
16 1 16 -6 0 -6 -5 -8 -12 -4 -7 5 -9 2 -5 -9 4 -11 2 -14 -9 -10 -7 3 -14 9
-14 14 0 5 -5 9 -11 9 -6 0 -9 -7 -6 -14 4 -10 1 -13 -9 -9 -17 6 -18 20 -2
25 7 3 8 10 4 17 -7 11 -10 11 -16 0 -6 -9 -12 -8 -25 5 -16 16 -16 18 1 32
17 14 17 15 1 10 -15 -5 -16 -3 -5 17 10 19 13 20 16 5 4 -20 17 -24 27 -8 3
6 1 10 -4 10 -6 0 -11 5 -11 10 0 18 9 10 36 -30z m20 25 c-3 -9 0 -15 9 -15
8 0 15 5 15 10 0 6 8 10 18 10 14 0 12 -4 -8 -20 -21 -16 -27 -17 -39 -5 -7 7
-10 18 -7 24 10 16 19 13 12 -4z m-111 -12 c-4 -10 -10 -39 -12 -65 -6 -53 2
-48 -118 -63 -27 -4 -73 -16 -102 -27 -85 -31 -104 -82 -47 -127 28 -22 30
-22 -70 -41 -73 -15 -152 -6 -197 22 l-34 22 50 9 c116 20 114 105 -4 110 -28
1 -51 5 -51 8 0 17 44 58 89 82 75 42 287 82 450 86 47 1 52 -1 46 -16z m225
12 c0 -2 -9 -19 -20 -37 -11 -18 -20 -45 -20 -60 0 -21 -5 -28 -20 -28 -13 0
-20 7 -20 19 0 46 39 111 67 111 7 0 13 -2 13 -5z m45 -35 c-3 -6 1 -10 10
-10 12 0 15 6 10 20 -4 12 -2 20 5 20 6 0 8 -4 5 -10 -3 -5 0 -10 9 -10 8 0
16 6 18 12 3 9 10 8 22 -5 10 -10 15 -21 12 -25 -4 -3 -11 0 -16 7 -6 11 -23
4 -75 -33 -37 -26 -70 -44 -74 -40 -3 4 -1 9 6 11 7 2 9 12 6 21 -4 14 -3 15
6 2 5 -8 13 -11 17 -7 4 3 1 13 -6 22 -10 12 -10 15 4 15 10 0 14 -4 11 -10
-3 -5 0 -10 8 -10 9 0 14 9 13 24 -1 19 -4 22 -18 15 -28 -15 -32 -10 -8 11
21 18 25 19 32 5 5 -8 6 -20 3 -25z m290 -4 c111 -28 164 -55 226 -113 60 -56
63 -73 10 -73 -50 0 -86 -14 -95 -35 -9 -25 35 -62 84 -70 l42 -7 -23 -24
c-13 -12 -45 -28 -70 -35 -41 -11 -52 -10 -100 9 -30 12 -76 28 -104 35 l-50
14 42 13 c23 7 52 23 64 36 49 52 -6 99 -153 131 -71 15 -78 19 -78 40 0 13 9
42 20 63 18 36 24 40 58 40 20 0 78 -11 127 -24z m-225 -16 c0 -5 -4 -10 -10
-10 -5 0 -10 5 -10 10 0 6 5 10 10 10 6 0 10 -4 10 -10z m-34 -25 c-3 -9 0
-15 8 -15 8 0 16 6 19 13 2 6 8 8 13 4 5 -4 3 -12 -4 -16 -7 -4 -10 -15 -6
-24 3 -10 1 -17 -6 -17 -6 0 -8 5 -5 10 3 6 0 10 -9 10 -8 0 -16 -6 -19 -12
-4 -10 -7 -10 -18 0 -11 10 -10 12 4 12 14 0 16 6 11 25 -4 16 -2 25 6 25 7 0
10 -7 6 -15z m-276 -14 c0 -6 -4 -13 -10 -16 -5 -3 -10 1 -10 9 0 9 5 16 10
16 6 0 10 -4 10 -9z m250 -1 c0 -5 -4 -10 -10 -10 -5 0 -10 5 -10 10 0 6 5 10
10 10 6 0 10 -4 10 -10z m-40 -30 c-24 -15 -37 -11 -16 5 11 8 22 12 25 9 3
-3 -1 -9 -9 -14z m177 -44 c96 -20 159 -48 166 -75 7 -29 -12 -46 -75 -67 -55
-18 -117 -17 -318 6 -58 7 -160 9 -260 5 l-165 -7 -28 26 c-31 29 -34 47 -9
69 25 23 67 37 152 53 96 17 433 11 537 -10z m-885 -38 c4 -7 8 -16 8 -20 0
-15 -46 -37 -85 -40 -37 -3 -40 -1 -43 25 -6 52 3 60 60 54 28 -4 55 -12 60
-19z m1318 -50 c0 -7 -3 -24 -7 -37 -5 -21 -10 -22 -47 -17 -47 8 -71 27 -63
50 8 20 117 23 117 4z m-557 -98 c281 -29 372 -59 443 -146 59 -72 94 -214 94
-382 0 -168 -30 -253 -120 -343 -111 -112 -201 -138 -505 -148 -319 -9 -515 8
-624 56 -161 71 -236 201 -248 428 -10 204 24 313 131 421 54 54 71 63 146 88
47 15 114 31 150 35 117 15 337 11 533 -9z m-517 -1041 l81 -12 -6 -31 -7 -31
-86 -3 c-99 -3 -124 -18 -93 -52 15 -17 31 -20 97 -20 43 0 78 -2 78 -4 0 -29
-16 -36 -79 -36 -71 0 -114 -15 -119 -42 -4 -22 53 -38 136 -38 59 0 62 -1 62
-25 0 -23 -3 -25 -47 -25 -77 0 -230 27 -270 47 -54 27 -78 65 -77 123 1 59
22 93 75 121 74 37 136 44 255 28z m844 -27 c124 -61 115 -193 -17 -250 -66
-28 -301 -51 -314 -31 -5 8 -9 17 -9 20 0 10 41 19 92 19 30 0 52 6 63 17 16
16 16 18 -6 36 -18 15 -36 18 -86 15 -55 -3 -63 -1 -67 17 -12 42 -8 45 57 45
76 0 104 7 112 28 10 27 -24 42 -96 42 l-67 0 7 28 c7 25 12 27 81 34 40 4 75
10 78 13 12 12 122 -9 172 -33z m-735 -142 c0 -88 -3 -160 -8 -160 -15 0 -27
53 -27 122 0 76 18 198 29 198 3 0 6 -72 6 -160z m337 115 c-4 -22 -7 -93 -7
-158 l1 -118 -152 2 -153 1 -7 56 c-7 55 0 234 9 249 3 4 75 8 161 8 l155 0
-7 -40z m52 18 c-5 -16 -9 -88 -9 -160 0 -73 -3 -133 -7 -133 -15 0 -21 49
-21 155 1 109 12 165 34 165 8 0 8 -9 3 -27z m154 -58 c14 -14 -19 -25 -79
-25 -64 0 -69 2 -69 21 0 21 3 22 72 15 39 -3 74 -8 76 -11z m-588 -15 c0 -18
-7 -20 -79 -20 -44 0 -82 4 -86 9 -10 18 30 30 98 31 60 0 67 -2 67 -20z m-2
-122 c3 -16 -6 -18 -75 -18 -43 0 -85 5 -93 10 -28 19 11 30 90 28 62 -3 75
-6 78 -20z m587 3 c8 -15 -6 -20 -78 -27 -64 -6 -67 -6 -67 15 0 19 5 21 69
21 39 0 72 -4 76 -9z"/>
<path d="M836 1765 c-11 -8 -17 -18 -13 -21 4 -4 13 -2 20 4 8 7 17 9 20 5 4
-3 7 1 7 10 0 21 -9 21 -34 2z"/>
<path d="M675 1365 c-154 -29 -252 -72 -315 -136 -135 -139 -147 -413 -24
-558 47 -56 136 -107 221 -127 64 -15 119 -18 303 -18 317 1 466 29 543 102
134 127 136 506 4 618 -48 41 -162 91 -247 110 -107 23 -381 28 -485 9z m330
-5 c137 -11 244 -38 328 -83 117 -62 152 -138 152 -327 0 -252 -67 -347 -272
-386 -110 -21 -493 -30 -599 -14 -145 21 -258 92 -312 194 -25 48 -27 59 -27
181 0 140 10 178 72 267 67 98 258 164 508 176 17 1 84 -3 150 -8z"/>
<path d="M700 1335 c-264 -44 -382 -145 -411 -353 -13 -94 -5 -154 30 -229 70
-148 193 -192 541 -193 408 0 518 37 581 195 20 53 23 77 24 200 0 134 -1 143
-28 198 -16 31 -43 68 -60 81 -39 30 -140 70 -227 92 -91 22 -341 27 -450 9z
m410 -22 l34 -9 -76 -36 c-42 -20 -115 -59 -162 -87 -48 -28 -90 -51 -94 -51
-22 1 -284 140 -272 144 39 13 112 30 185 42 84 14 320 12 385 -3z m173 -53
c32 -12 70 -32 84 -44 l25 -22 -153 -76 c-213 -105 -429 -250 -656 -440 l-83
-69 -38 20 c-47 24 -99 66 -112 91 -8 15 0 27 43 68 144 138 325 265 587 411
185 103 190 104 303 61z m-644 -68 c74 -37 136 -71 138 -77 1 -5 -37 -36 -86
-67 l-88 -57 -121 54 c-67 30 -126 55 -131 55 -18 0 -13 13 21 54 27 34 114
105 128 106 3 0 65 -31 139 -68z m781 -35 c0 -7 -39 -32 -87 -56 -252 -125
-491 -283 -684 -453 -57 -50 -71 -58 -93 -52 l-27 6 23 25 c57 61 305 250 455
347 60 38 303 164 373 193 28 12 40 8 40 -10z m21 -68 c11 -37 10 -209 -1
-259 -6 -25 -17 -61 -26 -81 l-16 -37 -112 87 c-62 48 -134 100 -161 115 l-48
29 39 24 c66 41 297 154 308 150 6 -2 13 -14 17 -28z m-981 -55 c66 -32 120
-60 120 -63 -1 -3 -24 -23 -53 -43 -29 -21 -82 -65 -119 -98 -36 -33 -70 -60
-76 -60 -18 0 -35 107 -28 177 6 62 25 143 32 143 2 0 58 -25 124 -56z m678
-150 c83 -58 229 -171 237 -184 15 -25 -54 -79 -120 -94 -16 -4 -37 -9 -46
-12 -10 -3 -39 13 -70 38 -30 24 -97 72 -150 108 -52 36 -97 68 -100 72 -5 9
150 117 169 117 7 1 43 -20 80 -45z m-164 -158 c61 -41 128 -88 149 -104 l37
-30 -42 -8 c-50 -9 -497 -9 -505 0 -9 9 223 212 246 215 2 1 53 -32 115 -73z"/>
</g>
</svg>
